G04*
G04 #@! TF.GenerationSoftware,Altium Limited,Altium Designer,20.1.12 (249)*
G04*
G04 Layer_Physical_Order=1*
G04 Layer_Color=255*
%FSLAX25Y25*%
%MOIN*%
G70*
G04*
G04 #@! TF.SameCoordinates,CD40AE63-01C5-41B5-9579-828B942A7482*
G04*
G04*
G04 #@! TF.FilePolarity,Positive*
G04*
G01*
G75*
%ADD10C,0.01000*%
%ADD15C,0.09708*%
G04:AMPARAMS|DCode=24|XSize=73.01mil|YSize=24.1mil|CornerRadius=12.05mil|HoleSize=0mil|Usage=FLASHONLY|Rotation=270.000|XOffset=0mil|YOffset=0mil|HoleType=Round|Shape=RoundedRectangle|*
%AMROUNDEDRECTD24*
21,1,0.07301,0.00000,0,0,270.0*
21,1,0.04891,0.02410,0,0,270.0*
1,1,0.02410,0.00000,-0.02445*
1,1,0.02410,0.00000,0.02445*
1,1,0.02410,0.00000,0.02445*
1,1,0.02410,0.00000,-0.02445*
%
%ADD24ROUNDEDRECTD24*%
%ADD25R,0.02410X0.07301*%
%ADD44R,0.04000X0.03000*%
%ADD45R,0.07000X0.03500*%
%ADD46R,0.01181X0.04724*%
%ADD47R,0.04724X0.01181*%
%ADD48R,0.03500X0.03500*%
%ADD49R,0.09843X0.06693*%
%ADD50R,0.03000X0.04000*%
%ADD51R,0.22441X0.07087*%
%ADD52R,0.04800X0.04300*%
%ADD53R,0.05906X0.03150*%
%ADD54R,0.06102X0.02362*%
%ADD55R,0.02362X0.06102*%
%ADD56R,0.11024X0.05118*%
%ADD57R,0.03150X0.03543*%
%ADD58R,0.06693X0.09843*%
%ADD59R,0.03543X0.02362*%
%ADD60C,0.04500*%
%ADD61C,0.03937*%
%ADD62C,0.02000*%
%ADD63C,0.01500*%
%ADD64C,0.04000*%
%ADD65C,0.04000*%
%ADD66R,0.05906X0.05906*%
%ADD67C,0.05906*%
%ADD68C,0.07000*%
%ADD69C,0.06000*%
%ADD70C,0.08000*%
%ADD71C,0.03150*%
G36*
X468871Y429500D02*
X468769Y429431D01*
X467587Y428250D01*
X464250D01*
Y424179D01*
X459798D01*
X459749Y424298D01*
X459336Y424836D01*
X458799Y425249D01*
X458172Y425508D01*
X457500Y425597D01*
X456828Y425508D01*
X456202Y425249D01*
X455664Y424836D01*
X455251Y424298D01*
X454991Y423672D01*
X454903Y423000D01*
X454991Y422328D01*
X455251Y421701D01*
X455664Y421164D01*
X456202Y420751D01*
X456828Y420492D01*
X457500Y420403D01*
X458172Y420492D01*
X458799Y420751D01*
X459280Y421121D01*
X464250D01*
Y416750D01*
X465471D01*
Y415124D01*
X464000D01*
Y410124D01*
X470000D01*
Y415124D01*
X468529D01*
Y416750D01*
X469750D01*
Y420889D01*
X469849Y420919D01*
X470250Y420620D01*
Y416750D01*
X471471D01*
Y413624D01*
X471500Y413476D01*
Y410124D01*
X483500D01*
Y415124D01*
X481029D01*
Y416750D01*
X482250D01*
Y419934D01*
X482712Y420125D01*
X482871Y419966D01*
X483367Y419634D01*
X483953Y419518D01*
X487770D01*
X487940Y419018D01*
X487681Y418819D01*
X487047Y417993D01*
X486649Y417032D01*
X486513Y416000D01*
X486649Y414968D01*
X486841Y414504D01*
X484966Y412629D01*
X484634Y412133D01*
X484518Y411547D01*
Y384953D01*
X484634Y384367D01*
X484966Y383871D01*
X501531Y367306D01*
X501339Y366844D01*
X498318D01*
X486621Y378542D01*
X486666Y378652D01*
X486778Y379500D01*
X486666Y380348D01*
X486339Y381139D01*
X485818Y381818D01*
X485139Y382339D01*
X484348Y382666D01*
X483500Y382778D01*
X482652Y382666D01*
X481861Y382339D01*
X481182Y381818D01*
X480661Y381139D01*
X480334Y380348D01*
X480222Y379500D01*
X480334Y378652D01*
X480661Y377861D01*
X481182Y377182D01*
X481861Y376661D01*
X482652Y376334D01*
X483500Y376222D01*
X484348Y376334D01*
X484458Y376379D01*
X492346Y368491D01*
X492154Y368029D01*
X486384D01*
X486339Y368139D01*
X485818Y368818D01*
X485139Y369339D01*
X484348Y369666D01*
X483500Y369778D01*
X482652Y369666D01*
X481861Y369339D01*
X481182Y368818D01*
X480661Y368139D01*
X480334Y367348D01*
X480222Y366500D01*
X480334Y365652D01*
X480661Y364861D01*
X481182Y364182D01*
X481861Y363661D01*
X482652Y363334D01*
X483500Y363222D01*
X484348Y363334D01*
X485139Y363661D01*
X485818Y364182D01*
X486339Y364861D01*
X486384Y364971D01*
X493332D01*
X496038Y362265D01*
X496252Y362122D01*
X496395Y361501D01*
X496387Y361476D01*
X496251Y361298D01*
X495992Y360672D01*
X495903Y360000D01*
X495992Y359328D01*
X496251Y358701D01*
X496664Y358164D01*
X497201Y357751D01*
X497828Y357491D01*
X498500Y357403D01*
X499172Y357491D01*
X499798Y357751D01*
X500336Y358164D01*
X500363Y358199D01*
X500455Y358187D01*
X500634Y357659D01*
X498569Y355594D01*
X497458Y356705D01*
X496962Y357037D01*
X496376Y357153D01*
X496000D01*
Y358124D01*
X486148D01*
X486000Y358153D01*
X484010D01*
X482458Y359705D01*
X482509Y359828D01*
X482597Y360500D01*
X482509Y361172D01*
X482249Y361799D01*
X481836Y362336D01*
X481298Y362749D01*
X480672Y363008D01*
X480000Y363097D01*
X479328Y363008D01*
X478701Y362749D01*
X478164Y362336D01*
X477751Y361799D01*
X477492Y361172D01*
X477403Y360500D01*
X477492Y359828D01*
X477751Y359202D01*
X478164Y358664D01*
X478701Y358251D01*
X479328Y357992D01*
X479924Y357913D01*
X482295Y355542D01*
X482791Y355211D01*
X483376Y355094D01*
X484000D01*
Y353124D01*
X496000D01*
Y353184D01*
X496462Y353375D01*
X497004Y352833D01*
X497501Y352501D01*
X498086Y352385D01*
X499052D01*
X499637Y352501D01*
X500133Y352833D01*
X505120Y357819D01*
X510342D01*
Y357028D01*
X506419Y353105D01*
X506087Y352608D01*
X505971Y352023D01*
Y343010D01*
X503990Y341029D01*
X503624D01*
X503476Y341000D01*
X500124D01*
Y337163D01*
X499338Y336378D01*
X498876Y336569D01*
Y341000D01*
X493876D01*
Y339529D01*
X493376D01*
X492791Y339413D01*
X492295Y339081D01*
X492212Y338998D01*
X491750Y339190D01*
Y339750D01*
X480750D01*
Y338529D01*
X476500D01*
X475915Y338413D01*
X475419Y338081D01*
X470415Y333078D01*
X469675Y333384D01*
X468500Y333539D01*
X467325Y333384D01*
X466231Y332931D01*
X465291Y332209D01*
X464569Y331269D01*
X464116Y330175D01*
X463961Y329000D01*
X464116Y327825D01*
X464569Y326731D01*
X465291Y325791D01*
X466231Y325069D01*
X467325Y324616D01*
X468500Y324461D01*
X469675Y324616D01*
X470769Y325069D01*
X471709Y325791D01*
X472431Y326731D01*
X472884Y327825D01*
X473039Y329000D01*
X472884Y330175D01*
X472578Y330915D01*
X477134Y335471D01*
X480750D01*
Y334250D01*
X483403D01*
X483639Y333809D01*
X483600Y333750D01*
X480750D01*
Y328250D01*
X491750D01*
Y329471D01*
X493876D01*
Y329000D01*
X496421D01*
X496612Y328538D01*
X480819Y312744D01*
X480487Y312248D01*
X480371Y311663D01*
Y311440D01*
X479871Y311194D01*
X479799Y311249D01*
X479172Y311508D01*
X478500Y311597D01*
X477828Y311508D01*
X477202Y311249D01*
X476664Y310836D01*
X476251Y310298D01*
X475991Y309672D01*
X475903Y309000D01*
X475991Y308328D01*
X476251Y307701D01*
X476664Y307164D01*
X476971Y306928D01*
Y304135D01*
X475157Y302322D01*
X474657Y302522D01*
Y304000D01*
X475124D01*
Y310000D01*
X470124D01*
Y304000D01*
X471599D01*
Y302181D01*
X469077D01*
Y297819D01*
X474565D01*
X474823Y297319D01*
X474724Y297181D01*
X469077D01*
Y292819D01*
X474056D01*
X474320Y292319D01*
X474226Y292181D01*
X469077D01*
Y287819D01*
X477179D01*
Y290516D01*
X484581Y297919D01*
X484913Y298415D01*
X485029Y299000D01*
Y310367D01*
X502833Y328170D01*
X503164Y328666D01*
X503231Y329000D01*
X505124D01*
Y332837D01*
X510581Y338295D01*
X510913Y338791D01*
X511029Y339376D01*
Y351127D01*
X512262Y352360D01*
X512724Y352169D01*
Y348173D01*
X524597D01*
Y336759D01*
X500419Y312581D01*
X500087Y312085D01*
X499971Y311500D01*
Y302639D01*
X495155Y297823D01*
X494693Y298015D01*
Y300198D01*
X486787D01*
Y295049D01*
Y290049D01*
Y284153D01*
X485577D01*
X485508Y284672D01*
X485249Y285298D01*
X484836Y285836D01*
X484299Y286249D01*
X483672Y286508D01*
X483000Y286597D01*
X482328Y286508D01*
X481702Y286249D01*
X481164Y285836D01*
X480751Y285298D01*
X480491Y284672D01*
X480403Y284000D01*
X480491Y283328D01*
X480751Y282701D01*
X481164Y282164D01*
X481702Y281751D01*
X482328Y281491D01*
X483000Y281403D01*
X483420Y281458D01*
X483791Y281211D01*
X484376Y281094D01*
X486787D01*
Y279529D01*
X484647D01*
X484411Y279836D01*
X483873Y280249D01*
X483247Y280508D01*
X482575Y280597D01*
X481903Y280508D01*
X481276Y280249D01*
X480738Y279836D01*
X480326Y279298D01*
X480066Y278672D01*
X479978Y278000D01*
X480066Y277328D01*
X480326Y276701D01*
X480738Y276164D01*
X481276Y275751D01*
X481903Y275491D01*
X482575Y275403D01*
X483247Y275491D01*
X483873Y275751D01*
X484411Y276164D01*
X484647Y276471D01*
X486787D01*
Y275049D01*
X494693D01*
Y280049D01*
Y283035D01*
X506081Y294424D01*
X506413Y294920D01*
X506529Y295505D01*
Y309366D01*
X507679Y310516D01*
X508047Y310177D01*
Y305049D01*
Y300049D01*
Y295049D01*
Y290049D01*
Y285049D01*
Y280049D01*
Y275049D01*
X515953D01*
Y277233D01*
X516415Y277424D01*
X517920Y275919D01*
X518416Y275587D01*
X519002Y275471D01*
X520376D01*
Y274000D01*
Y268000D01*
X525376D01*
Y274000D01*
Y280000D01*
X520376D01*
Y278529D01*
X519635D01*
X515953Y282212D01*
Y284471D01*
X520376D01*
Y283000D01*
X525376D01*
Y289000D01*
Y295000D01*
X520376D01*
Y289000D01*
Y287529D01*
X515953D01*
Y292244D01*
X516160Y292285D01*
X516656Y292617D01*
X522539Y298500D01*
X525376D01*
Y302931D01*
X525838Y303122D01*
X526624Y302337D01*
Y298500D01*
X527594D01*
Y295000D01*
X526624D01*
Y289000D01*
Y283000D01*
X531624D01*
Y286364D01*
X531705Y286419D01*
X537949Y292662D01*
X538532Y292562D01*
X538813Y291883D01*
X539614Y290839D01*
X540311Y290304D01*
Y289666D01*
X536599Y285953D01*
X536267Y285457D01*
X536151Y284872D01*
Y280315D01*
X536267Y279730D01*
X536599Y279234D01*
X536804Y279029D01*
X536596Y278529D01*
X531624D01*
Y280000D01*
X526624D01*
Y274000D01*
Y268000D01*
X527594D01*
Y264500D01*
Y259529D01*
X495510D01*
X491376Y263663D01*
Y267500D01*
X486376D01*
Y266029D01*
X484572D01*
X484336Y266336D01*
X483799Y266749D01*
X483172Y267008D01*
X482500Y267097D01*
X481828Y267008D01*
X481202Y266749D01*
X480664Y266336D01*
X480251Y265798D01*
X479991Y265172D01*
X479903Y264500D01*
X479991Y263828D01*
X480251Y263201D01*
X480664Y262664D01*
X481202Y262251D01*
X481828Y261992D01*
X482500Y261903D01*
X483172Y261992D01*
X483799Y262251D01*
X484336Y262664D01*
X484572Y262971D01*
X486376D01*
Y261500D01*
X489214D01*
X493795Y256919D01*
X494291Y256587D01*
X494876Y256471D01*
X527594D01*
Y255753D01*
X527711Y255168D01*
X528042Y254671D01*
X537500Y245214D01*
Y242376D01*
X543500D01*
Y243347D01*
X545498D01*
Y215681D01*
X544256D01*
Y211319D01*
X549799D01*
Y215681D01*
X548557D01*
Y242376D01*
X551500D01*
Y246471D01*
X554376D01*
X554962Y246587D01*
X555458Y246919D01*
X556539Y248000D01*
X559376D01*
Y254000D01*
X554607D01*
X554400Y254500D01*
X560623Y260723D01*
X561084Y260531D01*
Y254000D01*
X560624D01*
Y248000D01*
X561461D01*
Y237345D01*
X557574Y233458D01*
X557132Y232797D01*
X556977Y232016D01*
Y216345D01*
X546671Y206039D01*
X532471D01*
X532363Y206147D01*
X531702Y206589D01*
X531347Y206659D01*
Y214547D01*
X525537D01*
X515039Y225045D01*
Y235523D01*
X515853Y236147D01*
X516471Y236952D01*
X516524Y236955D01*
X516971Y236700D01*
Y234449D01*
X517087Y233863D01*
X517419Y233367D01*
X522653Y228132D01*
Y218453D01*
X529699D01*
X529822Y218428D01*
X535848Y212403D01*
X535656Y211941D01*
X535201D01*
Y207579D01*
X540744D01*
Y211941D01*
X539502D01*
Y212441D01*
X539385Y213026D01*
X539054Y213522D01*
X537979Y214597D01*
X538170Y215059D01*
X540744D01*
Y219421D01*
X539502D01*
Y223528D01*
X539385Y224113D01*
X539054Y224609D01*
X526000Y237663D01*
Y240500D01*
X520029D01*
Y241000D01*
X519978Y241256D01*
X520360Y241747D01*
X526000D01*
Y246747D01*
X524529D01*
Y250418D01*
X524413Y251004D01*
X524081Y251500D01*
X523934Y251647D01*
X524009Y251828D01*
X524097Y252500D01*
X524009Y253172D01*
X523749Y253799D01*
X523336Y254336D01*
X522798Y254749D01*
X522172Y255009D01*
X521500Y255097D01*
X520828Y255009D01*
X520201Y254749D01*
X519664Y254336D01*
X519251Y253799D01*
X518992Y253172D01*
X518903Y252500D01*
X518992Y251828D01*
X519251Y251202D01*
X519664Y250664D01*
X520201Y250251D01*
X520828Y249991D01*
X521330Y249925D01*
X521471Y249785D01*
Y246747D01*
X520000D01*
Y242355D01*
X519818Y242236D01*
X519500Y242163D01*
X516581Y245081D01*
X516085Y245413D01*
X515793Y245471D01*
X515668Y246006D01*
X515853Y246147D01*
X516494Y246983D01*
X516897Y247956D01*
X517034Y249000D01*
X516897Y250044D01*
X516494Y251017D01*
X515853Y251853D01*
X515017Y252494D01*
X514044Y252897D01*
X513000Y253034D01*
X511956Y252897D01*
X510983Y252494D01*
X510147Y251853D01*
X509506Y251017D01*
X509103Y250044D01*
X508965Y249000D01*
X509103Y247956D01*
X509506Y246983D01*
X510147Y246147D01*
X510335Y246003D01*
X510175Y245529D01*
X498000D01*
X497415Y245413D01*
X496919Y245081D01*
X494532Y242695D01*
X494044Y242897D01*
X493000Y243035D01*
X491956Y242897D01*
X491832Y242846D01*
X491549Y243270D01*
X493282Y245003D01*
X494044Y245103D01*
X495017Y245506D01*
X495853Y246147D01*
X496494Y246983D01*
X496897Y247956D01*
X497035Y249000D01*
X496897Y250044D01*
X496494Y251017D01*
X495853Y251853D01*
X495017Y252494D01*
X494044Y252897D01*
X493000Y253034D01*
X491956Y252897D01*
X490983Y252494D01*
X490147Y251853D01*
X489506Y251017D01*
X489103Y250044D01*
X489003Y249282D01*
X483860Y244140D01*
X483380Y243513D01*
X483077Y242783D01*
X482974Y242000D01*
Y221253D01*
X479940Y218220D01*
X479467Y218453D01*
X479539Y219000D01*
X479384Y220175D01*
X479078Y220915D01*
X481081Y222919D01*
X481413Y223415D01*
X481529Y224000D01*
Y233303D01*
X481413Y233888D01*
X481081Y234385D01*
X477815Y237651D01*
Y240835D01*
X474828D01*
X472960Y242703D01*
X473151Y243165D01*
X474075D01*
Y248709D01*
X473029D01*
Y256376D01*
X475500D01*
Y259213D01*
X477581Y261295D01*
X477913Y261791D01*
X478029Y262376D01*
Y266179D01*
X477913Y266764D01*
X477581Y267261D01*
X474683Y270160D01*
X474186Y270491D01*
X473601Y270607D01*
X469029D01*
Y280500D01*
X468913Y281085D01*
X468581Y281581D01*
X462029Y288134D01*
Y295000D01*
X461913Y295585D01*
X461581Y296081D01*
X457263Y300400D01*
X456766Y300732D01*
X456181Y300848D01*
X455920D01*
Y301438D01*
X456581Y302100D01*
X456913Y302596D01*
X457029Y303181D01*
Y304000D01*
X458624D01*
Y310000D01*
X453624D01*
Y304000D01*
X453624D01*
X453656Y303500D01*
X452337Y302181D01*
X450793D01*
X450383Y302681D01*
X450406Y302796D01*
Y304000D01*
X452376D01*
Y310000D01*
X447376D01*
Y306148D01*
X447347Y306000D01*
Y303430D01*
X437919Y294001D01*
X437587Y293505D01*
X437471Y292920D01*
Y272237D01*
X436731Y271931D01*
X435791Y271209D01*
X435069Y270269D01*
X434616Y269175D01*
X434501Y268299D01*
X433973Y268119D01*
X432029Y270062D01*
Y276000D01*
X431913Y276585D01*
X431581Y277081D01*
X427500Y281163D01*
Y295000D01*
X447000Y314500D01*
X459500D01*
Y341000D01*
X468000Y349500D01*
Y386376D01*
Y392500D01*
X425247D01*
Y395500D01*
X420500D01*
X419000Y397000D01*
Y401500D01*
X414500D01*
X413500Y402500D01*
Y414000D01*
Y430000D01*
X453000D01*
X468719D01*
X468871Y429500D01*
D02*
G37*
G36*
X497141Y413493D02*
Y380175D01*
X496679Y379983D01*
X492029Y384633D01*
Y402047D01*
X494453D01*
Y409953D01*
X487577D01*
Y410914D01*
X489004Y412341D01*
X489468Y412149D01*
X490500Y412013D01*
X491532Y412149D01*
X492493Y412547D01*
X493319Y413181D01*
X493953Y414007D01*
X494351Y414968D01*
X494422Y415505D01*
X494950Y415685D01*
X497141Y413493D01*
D02*
G37*
G36*
X587500Y415936D02*
X587500Y246869D01*
X587000Y246844D01*
X586899Y247872D01*
X586498Y249192D01*
X585848Y250408D01*
X584974Y251474D01*
X583908Y252348D01*
X582692Y252998D01*
X581372Y253399D01*
X580000Y253534D01*
X578628Y253399D01*
X577308Y252998D01*
X576092Y252348D01*
X575026Y251474D01*
X574152Y250408D01*
X573502Y249192D01*
X573101Y247872D01*
X572966Y246500D01*
X573101Y245128D01*
X573502Y243808D01*
X574152Y242592D01*
X575026Y241526D01*
X576092Y240651D01*
X577308Y240002D01*
X578628Y239601D01*
X580000Y239466D01*
X581372Y239601D01*
X582692Y240002D01*
X583908Y240651D01*
X584974Y241526D01*
X585848Y242592D01*
X586498Y243808D01*
X586899Y245128D01*
X587000Y246156D01*
X587500Y246131D01*
X587500Y223000D01*
X582492Y217992D01*
X582023Y218165D01*
X582012Y218301D01*
X581599Y220023D01*
X580921Y221659D01*
X579996Y223168D01*
X578846Y224515D01*
X577499Y225665D01*
X575989Y226590D01*
X574353Y227268D01*
X572632Y227681D01*
X570866Y227820D01*
X569101Y227681D01*
X567379Y227268D01*
X565743Y226590D01*
X564233Y225665D01*
X562887Y224515D01*
X561736Y223168D01*
X561537Y222842D01*
X561055Y222978D01*
Y231171D01*
X564942Y235058D01*
X564942Y235058D01*
X565384Y235720D01*
X565539Y236500D01*
X565539Y236500D01*
Y248000D01*
X565624D01*
Y254000D01*
X565163D01*
Y276328D01*
X565663Y276453D01*
X566230Y275392D01*
X567093Y274341D01*
X568144Y273478D01*
X569344Y272836D01*
X570646Y272442D01*
X571999Y272308D01*
X573353Y272442D01*
X574655Y272836D01*
X575854Y273478D01*
X576906Y274341D01*
X577769Y275392D01*
X578410Y276592D01*
X578805Y277893D01*
X578938Y279247D01*
X578805Y280601D01*
X578410Y281903D01*
X577769Y283102D01*
X576906Y284154D01*
X575854Y285017D01*
X574655Y285658D01*
X573353Y286053D01*
X571999Y286186D01*
X570646Y286053D01*
X569344Y285658D01*
X568144Y285017D01*
X567093Y284154D01*
X566230Y283102D01*
X565663Y282042D01*
X565163Y282167D01*
Y286280D01*
X565163Y286280D01*
X565008Y287061D01*
X564566Y287722D01*
X559671Y292617D01*
X559870Y293099D01*
X560042Y294405D01*
X559870Y295710D01*
X559367Y296926D01*
X558565Y297971D01*
X557521Y298772D01*
X556305Y299276D01*
X554999Y299448D01*
X553694Y299276D01*
X552478Y298772D01*
X551433Y297971D01*
X551188Y297651D01*
X550715Y297812D01*
Y300466D01*
X550715Y300466D01*
X550579Y301149D01*
X550192Y301727D01*
X547746Y304173D01*
X548052Y304910D01*
X548223Y306216D01*
X548052Y307521D01*
X547548Y308737D01*
X546746Y309782D01*
X545702Y310583D01*
X544486Y311087D01*
X543180Y311259D01*
X541875Y311087D01*
X540659Y310583D01*
X539614Y309782D01*
X538813Y308737D01*
X538773Y308642D01*
X531624D01*
Y310500D01*
X526897D01*
X526889Y310541D01*
X526558Y311037D01*
X525913Y311681D01*
X525417Y312013D01*
X524832Y312129D01*
X520921D01*
X520335Y312013D01*
X519839Y311681D01*
X517605Y309447D01*
X517274Y308951D01*
X517157Y308366D01*
Y305491D01*
X516415Y304748D01*
X515953Y304940D01*
Y308551D01*
X515982Y308698D01*
Y310819D01*
X523360Y318197D01*
X526754D01*
X527164Y317664D01*
X527702Y317251D01*
X528328Y316991D01*
X529000Y316903D01*
X529672Y316991D01*
X530299Y317251D01*
X530836Y317664D01*
X531249Y318201D01*
X531508Y318828D01*
X531597Y319500D01*
X531508Y320172D01*
X531249Y320798D01*
X530836Y321336D01*
X530299Y321749D01*
X529672Y322008D01*
X529000Y322097D01*
X528328Y322008D01*
X527702Y321749D01*
X527347Y321477D01*
X527017Y321854D01*
X531634Y326471D01*
X545500D01*
X546085Y326587D01*
X546581Y326919D01*
X553841Y334178D01*
X554173Y334675D01*
X554289Y335260D01*
Y338971D01*
X555428D01*
X555664Y338664D01*
X556202Y338251D01*
X556828Y337991D01*
X557500Y337903D01*
X558172Y337991D01*
X558799Y338251D01*
X559336Y338664D01*
X559749Y339201D01*
X560008Y339828D01*
X560097Y340500D01*
X560008Y341172D01*
X559749Y341798D01*
X559336Y342336D01*
X558799Y342749D01*
X558172Y343008D01*
X557500Y343097D01*
X556828Y343008D01*
X556202Y342749D01*
X555664Y342336D01*
X555428Y342029D01*
X554289D01*
Y345216D01*
X556160D01*
Y351516D01*
X549360D01*
Y345216D01*
X551230D01*
Y341000D01*
Y335893D01*
X544867Y329529D01*
X535346D01*
X535154Y329991D01*
X536458Y331295D01*
X536789Y331791D01*
X536906Y332376D01*
Y332500D01*
X537876D01*
Y338500D01*
Y344500D01*
X536906D01*
Y345694D01*
X536789Y346279D01*
X536458Y346775D01*
X535560Y347673D01*
X535591Y348173D01*
X535591D01*
Y354898D01*
X533561D01*
Y364376D01*
X533444Y364961D01*
X533113Y365458D01*
X525687Y372884D01*
Y381638D01*
X537039D01*
X537246Y381138D01*
X535919Y379810D01*
X535587Y379314D01*
X535471Y378729D01*
Y370086D01*
X535587Y369500D01*
X535919Y369004D01*
X536752Y368171D01*
X537249Y367839D01*
X537834Y367723D01*
X538512D01*
Y365693D01*
Y361756D01*
Y357819D01*
X545236D01*
Y362599D01*
X545698Y362790D01*
X549331Y359158D01*
Y358284D01*
X549360Y358136D01*
Y353484D01*
X556160D01*
Y359784D01*
X552389D01*
Y359792D01*
X552273Y360377D01*
X551941Y360873D01*
X548285Y364529D01*
X548425Y365096D01*
X548799Y365251D01*
X549336Y365664D01*
X549749Y366201D01*
X550008Y366828D01*
X550097Y367500D01*
X550008Y368172D01*
X549749Y368798D01*
X549336Y369336D01*
X548799Y369749D01*
X548172Y370008D01*
X547731Y370067D01*
X545586Y372211D01*
X545236Y372445D01*
Y372811D01*
X538529D01*
Y373567D01*
X545236D01*
Y377504D01*
Y380685D01*
X541772D01*
X541581Y381147D01*
X542413Y381979D01*
X552132D01*
X552717Y382096D01*
X553214Y382427D01*
X556163Y385376D01*
X561471D01*
Y375757D01*
X560337Y374624D01*
X552663D01*
X551461Y375826D01*
X551749Y376202D01*
X552008Y376828D01*
X552097Y377500D01*
X552008Y378172D01*
X551749Y378799D01*
X551336Y379336D01*
X550799Y379749D01*
X550172Y380009D01*
X549500Y380097D01*
X548828Y380009D01*
X548202Y379749D01*
X547664Y379336D01*
X547251Y378799D01*
X546991Y378172D01*
X546903Y377500D01*
X546991Y376828D01*
X547251Y376202D01*
X547664Y375664D01*
X548017Y375393D01*
X548087Y375038D01*
X548419Y374542D01*
X550500Y372461D01*
Y369624D01*
X562500D01*
Y370594D01*
X567141D01*
X567727Y370711D01*
X568223Y371042D01*
X571163Y373982D01*
X578000D01*
Y379482D01*
X569000D01*
Y376145D01*
X566508Y373653D01*
X564330D01*
X564155Y374153D01*
X564413Y374538D01*
X564529Y375124D01*
Y385376D01*
X566000D01*
Y390376D01*
X562410D01*
X562219Y390838D01*
X562581Y391201D01*
X562864Y391624D01*
X566000D01*
Y391738D01*
X569000D01*
Y390518D01*
X578000D01*
Y396018D01*
X569000D01*
Y394797D01*
X566000D01*
Y396624D01*
X562636D01*
X562581Y396705D01*
X557994Y401293D01*
X558008Y401328D01*
X558097Y402000D01*
X558008Y402672D01*
X557749Y403299D01*
X557336Y403836D01*
X556799Y404249D01*
X556172Y404508D01*
X555500Y404597D01*
X554828Y404508D01*
X554202Y404249D01*
X553664Y403836D01*
X553251Y403299D01*
X552991Y402672D01*
X552903Y402000D01*
X552991Y401328D01*
X553251Y400702D01*
X553664Y400164D01*
X554202Y399751D01*
X554828Y399492D01*
X555500Y399403D01*
X555551Y399410D01*
X560000Y394961D01*
Y393271D01*
X559971Y393124D01*
Y392916D01*
X557431Y390376D01*
X554000D01*
Y387539D01*
X551499Y385038D01*
X541780D01*
X541194Y384922D01*
X540698Y384590D01*
X538059Y381951D01*
X537559Y382158D01*
Y388362D01*
X519922D01*
X519731Y388824D01*
X525753Y394847D01*
X533500D01*
Y393876D01*
X540971D01*
Y393000D01*
X541087Y392415D01*
X541419Y391919D01*
X542953Y390384D01*
X542903Y390000D01*
X542991Y389328D01*
X543251Y388702D01*
X543664Y388164D01*
X544202Y387751D01*
X544828Y387491D01*
X545500Y387403D01*
X546172Y387491D01*
X546799Y387751D01*
X547336Y388164D01*
X547749Y388702D01*
X548008Y389328D01*
X548097Y390000D01*
X548008Y390672D01*
X547749Y391299D01*
X547336Y391836D01*
X546799Y392249D01*
X546172Y392509D01*
X545500Y392597D01*
X545116Y392547D01*
X544286Y393376D01*
X544494Y393876D01*
X545500D01*
Y398876D01*
X533500D01*
Y397906D01*
X525120D01*
X524535Y397789D01*
X524039Y397458D01*
X515293Y388712D01*
X515059Y388362D01*
X514693D01*
Y381677D01*
X514312Y381351D01*
X512029Y383633D01*
Y390866D01*
X524434Y403271D01*
X524908Y403038D01*
X524903Y403000D01*
X524992Y402328D01*
X525251Y401701D01*
X525664Y401164D01*
X526201Y400751D01*
X526828Y400492D01*
X527500Y400403D01*
X528172Y400492D01*
X528798Y400751D01*
X529336Y401164D01*
X529749Y401701D01*
X530009Y402328D01*
X530097Y403000D01*
X530047Y403384D01*
X535081Y408419D01*
X535413Y408915D01*
X535529Y409500D01*
Y415392D01*
X536140Y415860D01*
X536621Y416487D01*
X536923Y417217D01*
X537026Y418000D01*
X536923Y418783D01*
X536621Y419513D01*
X536140Y420140D01*
X535513Y420620D01*
X534783Y420923D01*
X534000Y421026D01*
X533217Y420923D01*
X532487Y420620D01*
X531860Y420140D01*
X531750Y419996D01*
X531250D01*
X531140Y420140D01*
X530996Y420250D01*
Y420750D01*
X531140Y420860D01*
X531621Y421487D01*
X531923Y422217D01*
X532026Y423000D01*
X531923Y423783D01*
X531621Y424513D01*
X531140Y425140D01*
X530513Y425621D01*
X529783Y425923D01*
X529000Y426026D01*
X528217Y425923D01*
X527487Y425621D01*
X526860Y425140D01*
X526750Y424996D01*
X526250D01*
X526140Y425140D01*
X525513Y425621D01*
X524783Y425923D01*
X524000Y426026D01*
X523217Y425923D01*
X522487Y425621D01*
X521860Y425140D01*
X521750Y424996D01*
X521250D01*
X521140Y425140D01*
X520513Y425621D01*
X519783Y425923D01*
X519000Y426026D01*
X518217Y425923D01*
X517487Y425621D01*
X516860Y425140D01*
X516750Y424996D01*
X516250D01*
X516140Y425140D01*
X515513Y425621D01*
X514783Y425923D01*
X514000Y426026D01*
X513217Y425923D01*
X512487Y425621D01*
X511860Y425140D01*
X511379Y424513D01*
X511077Y423783D01*
X510974Y423000D01*
X511077Y422217D01*
X511379Y421487D01*
X511860Y420860D01*
X512004Y420750D01*
Y420250D01*
X511860Y420140D01*
X511379Y419513D01*
X511077Y418783D01*
X510974Y418000D01*
X511077Y417217D01*
X511379Y416487D01*
X511860Y415860D01*
X512487Y415379D01*
X512971Y415179D01*
Y408028D01*
X512476Y407649D01*
X512063Y407111D01*
X511804Y406485D01*
X511716Y405813D01*
X511804Y405140D01*
X512063Y404514D01*
X512476Y403976D01*
X513014Y403563D01*
X513640Y403304D01*
X514313Y403216D01*
X514985Y403304D01*
X515611Y403563D01*
X516149Y403976D01*
X516562Y404514D01*
X516821Y405140D01*
X516910Y405813D01*
X516821Y406485D01*
X516562Y407111D01*
X516149Y407649D01*
X516029Y407740D01*
Y415776D01*
X516140Y415860D01*
X516250Y416004D01*
X516750D01*
X516860Y415860D01*
X517487Y415379D01*
X518217Y415077D01*
X519000Y414974D01*
X519783Y415077D01*
X520513Y415379D01*
X521140Y415860D01*
X521250Y416004D01*
X521750D01*
X521860Y415860D01*
X522487Y415379D01*
X523217Y415077D01*
X524000Y414974D01*
X524783Y415077D01*
X525513Y415379D01*
X526140Y415860D01*
X526250Y416004D01*
X526750D01*
X526860Y415860D01*
X527471Y415392D01*
Y410634D01*
X509419Y392581D01*
X509087Y392085D01*
X508971Y391500D01*
Y383000D01*
X509087Y382415D01*
X509419Y381919D01*
X510190Y381147D01*
X509999Y380685D01*
X505047D01*
Y378405D01*
X504547Y378137D01*
X504529Y378149D01*
Y386428D01*
X504836Y386664D01*
X505249Y387201D01*
X505509Y387828D01*
X505597Y388500D01*
X505509Y389172D01*
X505249Y389798D01*
X504836Y390336D01*
X504298Y390749D01*
X503672Y391008D01*
X503000Y391097D01*
X502328Y391008D01*
X501701Y390749D01*
X501164Y390336D01*
X500751Y389798D01*
X500700Y389676D01*
X500200Y389776D01*
Y414126D01*
X500084Y414712D01*
X499752Y415208D01*
X492831Y422129D01*
X492798Y422151D01*
X492778Y422766D01*
X493319Y423181D01*
X493953Y424007D01*
X494351Y424968D01*
X494487Y426000D01*
X494351Y427032D01*
X493953Y427993D01*
X493319Y428819D01*
X492493Y429453D01*
X492379Y429500D01*
X492479Y430000D01*
X573435Y430000D01*
X587500Y415936D01*
D02*
G37*
G36*
X453500Y377500D02*
X452500Y376500D01*
X441000D01*
Y366000D01*
X415000D01*
Y368592D01*
X415012Y368610D01*
X415183Y369470D01*
Y374361D01*
X415012Y375221D01*
X415000Y375239D01*
Y376000D01*
X420500D01*
Y374000D01*
X429000D01*
Y388000D01*
X453500D01*
Y377500D01*
D02*
G37*
G36*
X522628Y372250D02*
X522745Y371665D01*
X523076Y371169D01*
X530502Y363742D01*
Y354898D01*
X516742D01*
X516601Y355069D01*
Y378428D01*
X516485Y379014D01*
X516153Y379510D01*
X514406Y381257D01*
X514732Y381638D01*
X522628D01*
Y372250D01*
D02*
G37*
G36*
X414595Y347422D02*
X419320D01*
Y337579D01*
X414595D01*
Y333248D01*
X409477D01*
X409477Y337000D01*
X400500Y337000D01*
X400500Y348000D01*
X409477Y348000D01*
X409477Y351752D01*
X414595D01*
Y347422D01*
D02*
G37*
G36*
X532876Y335060D02*
Y332500D01*
X532876D01*
X533011Y332174D01*
X529919Y329082D01*
X529919Y329081D01*
X521645Y320808D01*
X521645Y320808D01*
X513371Y312534D01*
X513040Y312038D01*
X512923Y311453D01*
Y310198D01*
X508068D01*
X507730Y310567D01*
X532414Y335252D01*
X532876Y335060D01*
D02*
G37*
G36*
X464500Y376500D02*
Y360500D01*
X454500Y350500D01*
X454500Y329000D01*
X431000D01*
Y348000D01*
X431500D01*
X444000Y360500D01*
Y375480D01*
X452500D01*
X452890Y375558D01*
X453221Y375779D01*
X453942Y376500D01*
X464500Y376500D01*
D02*
G37*
G36*
X538309Y304910D02*
X538813Y303694D01*
X539614Y302650D01*
X540659Y301848D01*
X541875Y301344D01*
X543180Y301173D01*
X544486Y301344D01*
X545223Y301650D01*
X547146Y299727D01*
Y298202D01*
X546646Y298048D01*
X545702Y298772D01*
X544486Y299276D01*
X543180Y299448D01*
X541875Y299276D01*
X540659Y298772D01*
X539614Y297971D01*
X538813Y296926D01*
X538402Y295934D01*
X537528D01*
X536943Y295818D01*
X536447Y295486D01*
X532086Y291125D01*
X531624Y291316D01*
Y295000D01*
X530653D01*
Y298500D01*
X531624D01*
Y305074D01*
X538288D01*
X538309Y304910D01*
D02*
G37*
G36*
X458971Y294367D02*
Y287638D01*
X458626Y287442D01*
X458483Y287418D01*
X455920Y289982D01*
Y292181D01*
X448092D01*
X447903Y292500D01*
X448092Y292819D01*
X455920D01*
Y296710D01*
X456420Y296918D01*
X458971Y294367D01*
D02*
G37*
G36*
X551433Y290839D02*
X552478Y290037D01*
X553694Y289533D01*
X554999Y289362D01*
X556305Y289533D01*
X556787Y289733D01*
X561084Y285436D01*
Y276006D01*
X560623Y275815D01*
X558332Y278105D01*
X558171Y278213D01*
X558154Y278713D01*
X558565Y279028D01*
X559367Y280072D01*
X559870Y281288D01*
X560042Y282594D01*
X559870Y283899D01*
X559367Y285115D01*
X558565Y286160D01*
X557521Y286961D01*
X556305Y287465D01*
X554999Y287637D01*
X553694Y287465D01*
X552478Y286961D01*
X551433Y286160D01*
X551188Y285840D01*
X550715Y286001D01*
Y290997D01*
X551188Y291158D01*
X551433Y290839D01*
D02*
G37*
G36*
X463396Y278179D02*
X463301Y277679D01*
X462812D01*
Y272191D01*
X462312Y271934D01*
X462174Y272032D01*
Y277679D01*
X457812D01*
Y272191D01*
X457312Y271934D01*
X457174Y272032D01*
Y277679D01*
X456523D01*
Y283745D01*
X456406Y284331D01*
X456141Y284728D01*
X456529Y285046D01*
X463396Y278179D01*
D02*
G37*
G36*
X447817Y298921D02*
Y297819D01*
X452402D01*
X452549Y297790D01*
X455160D01*
X455232Y297681D01*
X454965Y297181D01*
X447817D01*
Y296529D01*
X447500D01*
X446915Y296413D01*
X446419Y296081D01*
X444919Y294581D01*
X444587Y294085D01*
X444471Y293500D01*
Y282500D01*
X444587Y281915D01*
X444919Y281419D01*
X448158Y278179D01*
X447951Y277679D01*
X447812D01*
Y269577D01*
X447332Y269529D01*
X443237D01*
X442931Y270269D01*
X442209Y271209D01*
X441269Y271931D01*
X440529Y272237D01*
Y292286D01*
X447355Y299112D01*
X447817Y298921D01*
D02*
G37*
G36*
X538720Y273080D02*
X538309Y272088D01*
X538137Y270783D01*
X538309Y269477D01*
X538813Y268261D01*
X539614Y267217D01*
X540471Y266560D01*
Y253624D01*
X537500D01*
Y250192D01*
X537038Y250001D01*
X530653Y256386D01*
Y261730D01*
X531153Y262064D01*
X531328Y261992D01*
X532000Y261903D01*
X532672Y261992D01*
X533298Y262251D01*
X533836Y262664D01*
X534249Y263201D01*
X534509Y263828D01*
X534597Y264500D01*
X534509Y265172D01*
X534249Y265798D01*
X533836Y266336D01*
X533298Y266749D01*
X532672Y267008D01*
X532000Y267097D01*
X531328Y267008D01*
X531153Y266936D01*
X530653Y267270D01*
Y268000D01*
X531624D01*
Y274000D01*
Y275471D01*
X536330D01*
X538720Y273080D01*
D02*
G37*
G36*
X551433Y267217D02*
X552478Y266415D01*
X553694Y265911D01*
X554999Y265739D01*
X556305Y265911D01*
X557521Y266415D01*
X558465Y267140D01*
X558965Y266985D01*
Y264112D01*
X548488Y253635D01*
X548481Y253624D01*
X546029D01*
Y257941D01*
X549762Y261673D01*
X550093Y262169D01*
X550210Y262755D01*
Y268051D01*
X550710Y268160D01*
X551433Y267217D01*
D02*
G37*
G36*
X460546Y264042D02*
X461042Y263711D01*
X461628Y263594D01*
X469500D01*
Y262624D01*
X473931D01*
X474122Y262162D01*
X473337Y261376D01*
X469500D01*
Y258539D01*
X467590Y256629D01*
X467174Y256419D01*
Y256419D01*
X467174Y256419D01*
X462812D01*
Y250931D01*
X462312Y250674D01*
X462174Y250773D01*
Y256419D01*
X459975D01*
X452313Y264081D01*
X451817Y264413D01*
X451231Y264529D01*
X442639D01*
X442393Y265029D01*
X442931Y265731D01*
X443237Y266471D01*
X451235D01*
X451820Y266587D01*
X452317Y266919D01*
X454975Y269577D01*
X455011D01*
X460546Y264042D01*
D02*
G37*
G36*
X435848Y261919D02*
X435954Y261847D01*
X435970Y261348D01*
X435791Y261209D01*
X435069Y260269D01*
X434616Y259175D01*
X434461Y258000D01*
X434616Y256825D01*
X435069Y255731D01*
X435791Y254791D01*
X436731Y254069D01*
X437825Y253616D01*
X439000Y253461D01*
X440175Y253616D01*
X441269Y254069D01*
X442209Y254791D01*
X442931Y255731D01*
X443237Y256471D01*
X445598D01*
X447812Y254257D01*
Y248317D01*
X452174D01*
Y256419D01*
X449975D01*
X447313Y259081D01*
X446817Y259413D01*
X446232Y259529D01*
X443237D01*
X442931Y260269D01*
X442393Y260971D01*
X442639Y261471D01*
X450598D01*
X455187Y256881D01*
X454996Y256419D01*
X452812D01*
Y248317D01*
X453464D01*
Y245958D01*
X449488D01*
Y245029D01*
X443384D01*
X443339Y245139D01*
X442818Y245818D01*
X442139Y246339D01*
X441348Y246666D01*
X440500Y246778D01*
X439652Y246666D01*
X439542Y246621D01*
X433529Y252634D01*
Y263583D01*
X433991Y263775D01*
X435848Y261919D01*
D02*
G37*
G36*
X510335Y241997D02*
X510147Y241853D01*
X509506Y241017D01*
X509103Y240044D01*
X508965Y239000D01*
X509103Y237956D01*
X509506Y236983D01*
X510147Y236147D01*
X510961Y235523D01*
Y224845D01*
X499558Y213442D01*
X499116Y212780D01*
X498961Y212000D01*
Y204845D01*
X497155Y203039D01*
X480977D01*
X480786Y203501D01*
X483259Y205974D01*
X490373D01*
X490983Y205506D01*
X491956Y205103D01*
X493000Y204965D01*
X494044Y205103D01*
X495017Y205506D01*
X495853Y206147D01*
X496494Y206983D01*
X496897Y207956D01*
X497035Y209000D01*
X496897Y210044D01*
X496494Y211017D01*
X495853Y211853D01*
X495017Y212494D01*
X494044Y212897D01*
X493000Y213035D01*
X491956Y212897D01*
X490983Y212494D01*
X490373Y212026D01*
X482958D01*
X482767Y212488D01*
X488140Y217860D01*
X488621Y218487D01*
X488923Y219217D01*
X489026Y220000D01*
Y236745D01*
X489474Y236960D01*
X489526Y236957D01*
X490147Y236147D01*
X490983Y235506D01*
X491956Y235103D01*
X493000Y234965D01*
X494044Y235103D01*
X495017Y235506D01*
X495853Y236147D01*
X496494Y236983D01*
X496897Y237956D01*
X497035Y239000D01*
X496897Y240044D01*
X496695Y240532D01*
X498633Y242471D01*
X510175D01*
X510335Y241997D01*
D02*
G37*
G36*
X430471Y263996D02*
Y252000D01*
X430587Y251415D01*
X430919Y250919D01*
X437379Y244458D01*
X437334Y244348D01*
X437222Y243500D01*
X437334Y242652D01*
X437661Y241861D01*
X438182Y241182D01*
X438861Y240661D01*
X439652Y240334D01*
X440500Y240222D01*
X441348Y240334D01*
X442139Y240661D01*
X442818Y241182D01*
X443339Y241861D01*
X443384Y241971D01*
X449488D01*
Y238840D01*
X460349D01*
X462208Y236982D01*
X462704Y236650D01*
X463289Y236534D01*
X465185D01*
Y235291D01*
X470335D01*
Y240295D01*
X470835Y240503D01*
X472665Y238672D01*
Y235291D01*
X475849D01*
X478118Y233023D01*
X478101Y232923D01*
X477559Y232709D01*
X477269Y232931D01*
X476175Y233384D01*
X475000Y233539D01*
X473825Y233384D01*
X472731Y232931D01*
X471791Y232209D01*
X471069Y231269D01*
X470763Y230529D01*
X462512D01*
Y233160D01*
X449488D01*
Y226042D01*
X462512D01*
Y227471D01*
X470763D01*
X471069Y226731D01*
X471791Y225791D01*
X472731Y225069D01*
X473825Y224616D01*
X475000Y224461D01*
X476175Y224616D01*
X477269Y225069D01*
X477971Y225607D01*
X478471Y225361D01*
Y224634D01*
X476915Y223078D01*
X476175Y223384D01*
X475000Y223539D01*
X473825Y223384D01*
X472731Y222931D01*
X471791Y222209D01*
X471069Y221269D01*
X470616Y220175D01*
X470553Y219699D01*
X459909D01*
X459818Y219818D01*
X459139Y220339D01*
X458348Y220666D01*
X457500Y220778D01*
X456652Y220666D01*
X455861Y220339D01*
X455182Y219818D01*
X454661Y219139D01*
X454334Y218348D01*
X454222Y217500D01*
X454334Y216652D01*
X454661Y215861D01*
X455182Y215182D01*
X455861Y214661D01*
X456652Y214334D01*
X457500Y214222D01*
X458348Y214334D01*
X459139Y214661D01*
X459818Y215182D01*
X460339Y215861D01*
X460662Y216640D01*
X471138D01*
X471791Y215791D01*
X472731Y215069D01*
X473825Y214616D01*
X475000Y214461D01*
X475547Y214533D01*
X475780Y214060D01*
X475247Y213526D01*
X449753D01*
X427500Y235779D01*
Y261877D01*
X427749Y262201D01*
X428009Y262828D01*
X428097Y263500D01*
X428009Y264172D01*
X427749Y264798D01*
X427500Y265123D01*
Y266314D01*
X427962Y266505D01*
X430471Y263996D01*
D02*
G37*
G36*
X536443Y222894D02*
Y219421D01*
X535201D01*
Y218029D01*
X534739Y217837D01*
X531542Y221034D01*
X531347Y221165D01*
Y227337D01*
X531808Y227529D01*
X536443Y222894D01*
D02*
G37*
G36*
X522653Y211663D02*
Y202705D01*
X529149D01*
X529347Y202665D01*
X529347Y202666D01*
X530077D01*
X530184Y202558D01*
X530846Y202116D01*
X531626Y201961D01*
X547516D01*
X548296Y202116D01*
X548958Y202558D01*
X559639Y213239D01*
X560120Y213104D01*
X560134Y213048D01*
X560811Y211412D01*
X561736Y209902D01*
X562887Y208556D01*
X564233Y207406D01*
X565743Y206481D01*
X567379Y205803D01*
X569101Y205390D01*
X569237Y205379D01*
X569410Y204910D01*
X564500Y200000D01*
X500537D01*
X500346Y200462D01*
X502442Y202558D01*
X502884Y203220D01*
X503039Y204000D01*
Y211155D01*
X513100Y221217D01*
X522653Y211663D01*
D02*
G37*
G36*
X441654Y200462D02*
X441463Y200000D01*
X427500D01*
Y213963D01*
X427962Y214154D01*
X441654Y200462D01*
D02*
G37*
%LPC*%
G36*
X497000Y320097D02*
X496328Y320008D01*
X495702Y319749D01*
X495164Y319336D01*
X494751Y318798D01*
X494491Y318172D01*
X494403Y317500D01*
X494453Y317116D01*
X489659Y312322D01*
X489327Y311825D01*
X489211Y311240D01*
Y310198D01*
X486787D01*
Y305049D01*
X494693D01*
Y310198D01*
X492491D01*
X492361Y310698D01*
X496616Y314953D01*
X497000Y314903D01*
X497672Y314991D01*
X498299Y315251D01*
X498836Y315664D01*
X499249Y316201D01*
X499508Y316828D01*
X499597Y317500D01*
X499508Y318172D01*
X499249Y318798D01*
X498836Y319336D01*
X498299Y319749D01*
X497672Y320008D01*
X497000Y320097D01*
D02*
G37*
G36*
X570866Y424671D02*
X569101Y424532D01*
X567379Y424118D01*
X565743Y423441D01*
X564233Y422515D01*
X562887Y421365D01*
X561736Y420019D01*
X560811Y418509D01*
X560134Y416873D01*
X559720Y415151D01*
X559581Y413386D01*
X559720Y411621D01*
X560134Y409899D01*
X560811Y408263D01*
X561736Y406753D01*
X562887Y405406D01*
X564233Y404256D01*
X565743Y403331D01*
X567379Y402653D01*
X569101Y402240D01*
X570866Y402101D01*
X572632Y402240D01*
X574353Y402653D01*
X575989Y403331D01*
X577499Y404256D01*
X578846Y405406D01*
X579996Y406753D01*
X580921Y408263D01*
X581599Y409899D01*
X582012Y411621D01*
X582151Y413386D01*
X582012Y415151D01*
X581599Y416873D01*
X580921Y418509D01*
X579996Y420019D01*
X578846Y421365D01*
X577499Y422515D01*
X575989Y423441D01*
X574353Y424118D01*
X572632Y424532D01*
X570866Y424671D01*
D02*
G37*
G36*
X554999Y311259D02*
X553694Y311087D01*
X552478Y310583D01*
X551433Y309782D01*
X550632Y308737D01*
X550128Y307521D01*
X549956Y306216D01*
X550128Y304910D01*
X550632Y303694D01*
X551433Y302650D01*
X552478Y301848D01*
X553694Y301344D01*
X554999Y301173D01*
X556305Y301344D01*
X557521Y301848D01*
X558565Y302650D01*
X559367Y303694D01*
X559870Y304910D01*
X560042Y306216D01*
X559870Y307521D01*
X559367Y308737D01*
X558565Y309782D01*
X557521Y310583D01*
X556305Y311087D01*
X554999Y311259D01*
D02*
G37*
G36*
X571999Y304690D02*
X570646Y304557D01*
X569344Y304162D01*
X568144Y303521D01*
X567093Y302658D01*
X566230Y301606D01*
X565589Y300407D01*
X565194Y299105D01*
X565060Y297751D01*
X565194Y296397D01*
X565589Y295096D01*
X566230Y293896D01*
X567093Y292845D01*
X568144Y291982D01*
X569344Y291340D01*
X570646Y290946D01*
X571999Y290812D01*
X573353Y290946D01*
X574655Y291340D01*
X575854Y291982D01*
X576906Y292845D01*
X577769Y293896D01*
X578410Y295096D01*
X578805Y296397D01*
X578938Y297751D01*
X578805Y299105D01*
X578410Y300407D01*
X577769Y301606D01*
X576906Y302658D01*
X575854Y303521D01*
X574655Y304162D01*
X573353Y304557D01*
X571999Y304690D01*
D02*
G37*
G36*
X513000Y213035D02*
X511956Y212897D01*
X510983Y212494D01*
X510147Y211853D01*
X509506Y211017D01*
X509103Y210044D01*
X508965Y209000D01*
X509103Y207956D01*
X509506Y206983D01*
X510147Y206147D01*
X510983Y205506D01*
X511956Y205103D01*
X513000Y204965D01*
X514044Y205103D01*
X515017Y205506D01*
X515853Y206147D01*
X516494Y206983D01*
X516897Y207956D01*
X517034Y209000D01*
X516897Y210044D01*
X516494Y211017D01*
X515853Y211853D01*
X515017Y212494D01*
X514044Y212897D01*
X513000Y213035D01*
D02*
G37*
%LPD*%
D10*
X452449Y371500D02*
X462500Y361449D01*
X552760Y341000D02*
Y348366D01*
Y335260D02*
Y341000D01*
X553260Y340500D02*
X557500D01*
X552760Y341000D02*
X553260Y340500D01*
X522726Y319726D02*
X531000Y328000D01*
X514453Y311453D02*
X522726Y319726D01*
X528774D02*
X529000Y319500D01*
X522726Y319726D02*
X528774D01*
X529124Y264500D02*
Y271000D01*
Y258000D02*
Y264500D01*
Y277000D02*
X536963D01*
X543180Y270783D01*
X529124Y264500D02*
X532000D01*
X541874Y367284D02*
X541965Y367374D01*
X547374D01*
X547500Y367500D01*
X541874Y373189D02*
X546159D01*
X541874Y365315D02*
X545337D01*
X550860Y359792D01*
Y358284D02*
X552510Y356634D01*
X550575Y368302D02*
X553000Y365876D01*
X550860Y358284D02*
Y359792D01*
X550575Y368302D02*
Y368774D01*
X546159Y373189D02*
X550575Y368774D01*
X553000Y365876D02*
X559500D01*
X541874Y371220D02*
X541965Y371130D01*
X544504D01*
X547500Y368134D01*
Y367500D02*
Y368134D01*
X553000Y372124D02*
X553500D01*
X549500Y375624D02*
X553000Y372124D01*
X549500Y375624D02*
Y377500D01*
X553500Y372124D02*
X559500D01*
X542500Y393000D02*
X545500Y390000D01*
X542500Y393000D02*
Y396376D01*
X547000Y348712D02*
X551266Y352978D01*
X544624Y341500D02*
X547000Y343876D01*
Y348712D01*
X559990Y356634D02*
X560240D01*
X556334Y352978D02*
X559990Y356634D01*
X551266Y352978D02*
X556334D01*
X541624Y341500D02*
X544624D01*
X543000Y402624D02*
X548124D01*
X542500D02*
X543000D01*
X560240Y356634D02*
X577134D01*
X582500Y362000D01*
Y399000D01*
X564000Y401000D02*
X580500D01*
X582500Y399000D01*
X552500Y407000D02*
X558000D01*
X564000Y401000D01*
X548124Y402624D02*
X552500Y407000D01*
X531000Y328000D02*
X535376Y332376D01*
X531000Y328000D02*
X545500D01*
X552760Y335260D01*
X482500Y264500D02*
X488876D01*
X490740Y311240D02*
X497000Y317500D01*
X490740Y307624D02*
Y311240D01*
X480000Y360000D02*
Y360500D01*
Y360000D02*
X483376Y356624D01*
X486000D01*
X475500Y360376D02*
Y387003D01*
Y360376D02*
X486500Y349376D01*
X486000Y356624D02*
X487000Y355624D01*
X462500Y361000D02*
Y361449D01*
X450874Y371500D02*
X452449D01*
X524832Y310600D02*
X525476Y309956D01*
X518687Y308366D02*
X520921Y310600D01*
X524832D01*
X518687Y304858D02*
Y308366D01*
X525476Y305647D02*
Y309956D01*
X512000Y302624D02*
X516453D01*
X518687Y304858D01*
X525476Y305647D02*
X529124Y302000D01*
Y301500D02*
Y302000D01*
X535376Y332376D02*
Y335500D01*
X512000Y307624D02*
X513378D01*
X514453Y308698D01*
Y311453D01*
X478500Y303502D02*
Y309000D01*
X474998Y300000D02*
X478500Y303502D01*
X473128Y300000D02*
X474998D01*
X490364Y278000D02*
X490740Y277624D01*
X482575Y278000D02*
X490364D01*
X481377Y272624D02*
X492118D01*
X479500Y274500D02*
Y284509D01*
Y274500D02*
X481377Y272624D01*
X512000Y302624D02*
Y307624D01*
X529124Y255753D02*
Y258000D01*
X488876Y264000D02*
Y264500D01*
Y264000D02*
X494876Y258000D01*
X529124D01*
X540500Y244876D02*
X548028D01*
X523000Y244247D02*
Y250418D01*
X521500Y251918D02*
Y252500D01*
X540000Y244876D02*
X540500D01*
X529124Y255753D02*
X540000Y244876D01*
X521500Y251918D02*
X523000Y250418D01*
X493000Y239000D02*
X498000Y244000D01*
X515500D01*
X518500Y241000D01*
X548028Y244876D02*
X548500D01*
X547028Y213500D02*
Y243876D01*
X548028Y244876D01*
X529124Y292000D02*
Y301500D01*
X535376Y341500D02*
Y345694D01*
X534000Y347070D02*
X535376Y345694D01*
X534000Y347070D02*
Y351536D01*
X541624Y335500D02*
Y341500D01*
Y342000D01*
X535968Y347655D02*
Y351536D01*
Y347655D02*
X541624Y342000D01*
X458000Y389876D02*
X459000Y388876D01*
X457038Y389876D02*
X458000D01*
X456914Y390000D02*
X457038Y389876D01*
X424747Y390000D02*
X456914D01*
X422747Y392000D02*
X424747Y390000D01*
X418243Y387496D02*
X422747Y392000D01*
X416787Y387496D02*
X418243D01*
X412935Y383644D02*
X416787Y387496D01*
X412935Y380973D02*
Y383644D01*
X459000Y388876D02*
X465000D01*
X452449Y371500D02*
X465000Y384051D01*
Y388876D01*
X441711Y342549D02*
X450874Y351712D01*
Y371500D01*
X475500Y387003D02*
X482062Y393565D01*
X498500Y360000D02*
X502000D01*
X503378Y361378D01*
X496376Y355624D02*
X498086Y353914D01*
X499052D02*
X504547Y359409D01*
X508410D01*
X498086Y353914D02*
X499052D01*
X493000Y355624D02*
X496376D01*
X506350Y357350D02*
X508319D01*
X494000Y350376D02*
X499376D01*
X508319Y357350D02*
X508410Y357441D01*
X499376Y350376D02*
X506350Y357350D01*
X487000Y355624D02*
X493000D01*
X535376Y335500D02*
Y341500D01*
X560000Y372124D02*
X567141D01*
X559500D02*
X560000D01*
X567141D02*
X571750Y376732D01*
X573500D01*
X563000Y375124D02*
Y387876D01*
X560000Y372124D02*
X563000Y375124D01*
X536500Y396376D02*
X542500D01*
X525120D02*
X536500D01*
X516374Y387630D02*
X525120Y396376D01*
X514315Y389920D02*
X518698Y394302D01*
X516374Y385090D02*
Y387630D01*
X516284Y385000D02*
X516374Y385090D01*
X489173Y426000D02*
X490500D01*
X469850Y428350D02*
X486823D01*
X467000Y425500D02*
X469850Y428350D01*
X486823D02*
X489173Y426000D01*
X417819Y267000D02*
X419420D01*
X422508Y263911D01*
X425089D01*
X425500Y263500D01*
X505000Y295505D02*
Y310000D01*
X532031Y337032D02*
Y351536D01*
X505000Y310000D02*
X532031Y337032D01*
X492118Y282624D02*
X505000Y295505D01*
X503400Y298905D02*
Y311137D01*
X492118Y287624D02*
X503400Y298905D01*
Y311137D02*
X530063Y337800D01*
X501500Y302006D02*
Y311500D01*
X526126Y336126D02*
Y351536D01*
X501500Y311500D02*
X526126Y336126D01*
X530063Y337800D02*
Y351536D01*
X492118Y292624D02*
X501500Y302006D01*
X465242Y252119D02*
X471000Y257876D01*
X464993Y252368D02*
Y253319D01*
X465674Y254000D01*
X432000Y252000D02*
X440500Y243500D01*
X432000Y252000D02*
Y264630D01*
X440500Y243500D02*
X454899D01*
X417819Y278811D02*
X432000Y264630D01*
X430500Y269429D02*
Y276000D01*
Y269429D02*
X436929Y263000D01*
X412311Y284311D02*
X422189D01*
X430500Y276000D01*
X507500Y342376D02*
Y352023D01*
X503624Y339500D02*
X504624D01*
X507500Y342376D01*
X503624Y338500D02*
Y339500D01*
X502624Y332500D02*
X509500Y339376D01*
Y351760D01*
X513472Y355732D01*
X507500Y352023D02*
X511872Y356395D01*
Y362424D01*
X510500Y383000D02*
Y391500D01*
X529000Y410000D02*
Y418000D01*
X510500Y391500D02*
X529000Y410000D01*
X510500Y383000D02*
X515072Y378428D01*
Y355069D02*
Y378428D01*
X555500Y401624D02*
X561500Y395624D01*
Y395124D02*
X562500Y394124D01*
X561500Y395124D02*
Y395624D01*
X562500Y394124D02*
X563000D01*
X555500Y401624D02*
Y402000D01*
X558500Y388876D02*
Y389282D01*
X561500Y392282D01*
X556500Y387876D02*
X557500D01*
X561500Y392282D02*
Y393124D01*
X562500Y394124D01*
X463500Y334000D02*
X468500Y339000D01*
X463500Y321224D02*
Y334000D01*
Y321224D02*
X466376Y318347D01*
X468500Y339000D02*
X478876Y349376D01*
X466376Y307000D02*
Y318347D01*
Y289882D02*
Y307000D01*
X460500Y287500D02*
Y295000D01*
X467500Y269078D02*
Y280500D01*
X460500Y287500D02*
X467500Y280500D01*
X473601Y269078D02*
X476500Y266179D01*
X473000Y258876D02*
X476500Y262376D01*
Y266179D01*
X473128Y300000D02*
Y306495D01*
X472624Y307000D02*
X473128Y306495D01*
X452319Y300000D02*
X455500Y303181D01*
Y306376D02*
X456124Y307000D01*
X455500Y303181D02*
Y306376D01*
X451868Y300000D02*
X452319D01*
X456181Y299319D02*
X460500Y295000D01*
X449993Y273628D02*
Y278507D01*
X446000Y282500D02*
Y293500D01*
Y282500D02*
X449993Y278507D01*
X447500Y295000D02*
X451868D01*
X446000Y293500D02*
X447500Y295000D01*
X439000Y292920D02*
X448876Y302796D01*
X439000Y268000D02*
X451235D01*
X439000D02*
Y292920D01*
X472000Y258876D02*
X472500D01*
X471250Y258126D02*
X472000Y258876D01*
X471500Y257876D02*
X472500Y258876D01*
X471000Y257876D02*
X471250Y258126D01*
X471000Y257876D02*
X471000D01*
X471250Y258126D02*
Y258126D01*
X518500Y234449D02*
Y241000D01*
Y234449D02*
X527000Y225949D01*
X544500Y248586D02*
X545086Y248000D01*
X544500Y258574D02*
X548680Y262755D01*
X545086Y248000D02*
X554376D01*
X544500Y248586D02*
Y258574D01*
X554376Y248000D02*
X556876Y250500D01*
Y251000D01*
X504752Y375248D02*
X508319D01*
X503000Y377000D02*
Y388500D01*
Y377000D02*
X504752Y375248D01*
X504220Y373280D02*
X508319D01*
X498671Y378829D02*
Y414126D01*
Y378829D02*
X504220Y373280D01*
X505158Y369342D02*
X508319D01*
X490500Y384000D02*
Y406000D01*
Y384000D02*
X505158Y369342D01*
X503626Y367374D02*
X508319D01*
X486047Y384953D02*
Y411547D01*
Y384953D02*
X503626Y367374D01*
X527000Y207347D02*
X529642Y204705D01*
X527000Y224374D02*
Y225949D01*
Y222799D02*
Y224374D01*
X472500Y258876D02*
X473000D01*
X454993Y273628D02*
Y283745D01*
X453738Y285000D02*
X454993Y283745D01*
X451868Y285000D02*
X453738D01*
X448876Y302796D02*
Y306000D01*
X449876Y307000D01*
X452549Y299319D02*
X456181D01*
X451868Y300000D02*
X452549Y299319D01*
X467500Y269078D02*
X473601D01*
X462673D02*
X467500D01*
X453738Y290000D02*
X464993Y278745D01*
X451868Y290000D02*
X453738D01*
X464993Y273628D02*
Y278745D01*
X478876Y349376D02*
X486500D01*
X487000D01*
X482062Y393565D02*
Y394090D01*
X551500Y394124D02*
X557000D01*
X482062Y394090D02*
X482473Y394501D01*
Y395329D02*
X482572Y395428D01*
X482473Y394501D02*
Y395329D01*
X557500Y387876D02*
X558500Y388876D01*
X563000Y394124D02*
X563856Y393268D01*
X573500D01*
X537000Y378729D02*
X541780Y383508D01*
X552132D01*
X556500Y387876D01*
X537000Y370086D02*
Y378729D01*
X537834Y369252D02*
X541874D01*
X537000Y370086D02*
X537834Y369252D01*
X537500Y413517D02*
Y421500D01*
X536500Y412517D02*
X537500Y413517D01*
X536500Y402624D02*
Y412517D01*
X479500Y413624D02*
Y419500D01*
Y413624D02*
X480500Y412624D01*
X473000Y413624D02*
Y419500D01*
Y413624D02*
X474000Y412624D01*
X474500D01*
X467000D02*
Y419500D01*
X408500Y393500D02*
X415500D01*
X416500Y392500D01*
X408500Y393500D02*
X408925Y393075D01*
Y381243D02*
Y393075D01*
Y381243D02*
X409195Y380973D01*
X537680Y280315D02*
Y284872D01*
X541308Y276688D02*
X545053D01*
X537680Y284872D02*
X541841Y289033D01*
X537680Y280315D02*
X541308Y276688D01*
X541841Y293065D02*
X543180Y294405D01*
X541841Y289033D02*
Y293065D01*
X545053Y276688D02*
X548680Y273061D01*
Y262755D02*
Y273061D01*
X475240Y238063D02*
X480000Y233303D01*
X459993Y250498D02*
Y252368D01*
Y250498D02*
X467426Y243065D01*
X470435D01*
X475240Y238260D01*
Y238063D02*
Y238260D01*
X480000Y224000D02*
Y233303D01*
X475000Y219000D02*
X480000Y224000D01*
X560240Y348366D02*
Y356634D01*
X559500Y357374D02*
X560240Y356634D01*
X559500Y357374D02*
Y365876D01*
X542000Y402624D02*
X542500D01*
X534000Y409500D02*
Y418000D01*
X527500Y403000D02*
X534000Y409500D01*
X538376Y399000D02*
X542000Y402624D01*
X523395Y399000D02*
X538376D01*
X518698Y394302D02*
X523395Y399000D01*
X536475Y422525D02*
X537500Y421500D01*
X534000Y423000D02*
X534475Y422525D01*
X536475D01*
X536500Y402624D02*
X542000D01*
X483500Y311000D02*
X501751Y329251D01*
X475679Y291179D02*
X483500Y299000D01*
Y311000D01*
X481900Y311663D02*
X498976Y328739D01*
X481900Y301902D02*
Y311663D01*
X473128Y295000D02*
X474998D01*
X481900Y301902D01*
X501751Y329251D02*
Y331128D01*
X502624Y332000D01*
X498976Y328739D02*
Y333853D01*
X502624Y332000D02*
Y332500D01*
X406811Y278811D02*
X412311Y284311D01*
X473619Y284509D02*
X479500D01*
Y292500D01*
X488287Y301287D01*
X483000Y284000D02*
X484376Y282624D01*
X490740D01*
X473128Y285000D02*
X473619Y284509D01*
X471258Y285000D02*
X473128D01*
X488287Y301287D02*
Y301549D01*
X489362Y302624D01*
X490740D01*
X473128Y290000D02*
X474998D01*
X475679Y290681D01*
Y291179D01*
X459993Y271758D02*
X462673Y269078D01*
X459993Y271758D02*
Y273628D01*
X461628Y265124D02*
X472500D01*
X454993Y271758D02*
X461628Y265124D01*
X503378Y361378D02*
X508410D01*
X535968Y351536D02*
Y353307D01*
X540102Y357441D01*
X487000Y349376D02*
X493000D01*
X454993Y271758D02*
Y273628D01*
X436929Y263000D02*
X451231D01*
X459993Y254238D01*
Y252368D02*
Y254238D01*
X451235Y268000D02*
X454993Y271758D01*
X439000Y258000D02*
X446232D01*
X449993Y254238D01*
Y252368D02*
Y254238D01*
X471500Y245937D02*
Y257876D01*
X454899Y243500D02*
X454993Y243406D01*
X456000Y242399D01*
X454993Y243406D02*
Y252368D01*
X463289Y238063D02*
X467760D01*
X458953Y242399D02*
X463289Y238063D01*
X456000Y242399D02*
X458953D01*
X458170Y218170D02*
X474170D01*
X475000Y219000D01*
X457500Y217500D02*
X458170Y218170D01*
X456601Y229000D02*
X475000D01*
X456000Y229601D02*
X456601Y229000D01*
X522876Y271000D02*
Y277000D01*
X519002D02*
X522876D01*
X512000Y282624D02*
X513378D01*
X519002Y277000D01*
X537972Y209760D02*
Y212441D01*
X530461Y219953D02*
X537972Y212441D01*
X529846Y219953D02*
X530461D01*
X527000Y222799D02*
X529846Y219953D01*
X537972Y217240D02*
Y223528D01*
X523500Y238000D02*
X537972Y223528D01*
X523000Y238000D02*
X523500D01*
X540500Y251124D02*
X541000D01*
X542000Y252124D01*
Y269602D01*
X514313Y405813D02*
X514500Y406000D01*
Y417500D01*
X514000Y418000D02*
X514500Y417500D01*
X514315Y385000D02*
Y389920D01*
X508319Y375248D02*
X508410Y375157D01*
X480500Y397500D02*
X482572Y395428D01*
X470150Y422650D02*
X473000Y425500D01*
X457850Y422650D02*
X470150D01*
X457500Y423000D02*
X457850Y422650D01*
X480500Y397500D02*
Y406376D01*
X542000Y269602D02*
X543180Y270783D01*
X492118Y272624D02*
X512000D01*
X493000Y349376D02*
X494000Y350376D01*
X498976Y333853D02*
X503624Y338500D01*
X508410Y363347D02*
X508500Y363256D01*
X511040D01*
X508500Y365224D02*
X511334D01*
X513472Y363087D01*
X511040Y363256D02*
X511872Y362424D01*
X513472Y355732D02*
Y363087D01*
X508410Y365315D02*
X508500Y365224D01*
X497119Y363347D02*
X508410D01*
X483500Y379500D02*
X497685Y365315D01*
X483500Y366500D02*
X493966D01*
X497685Y365315D02*
X508410D01*
X493966Y366500D02*
X497119Y363347D01*
X466376Y289882D02*
X471258Y285000D01*
X489000Y331000D02*
X495376D01*
X496376Y332000D01*
X493376Y338000D02*
X496376D01*
X492291Y336915D02*
X493376Y338000D01*
X492291Y335235D02*
Y336915D01*
X490906Y333850D02*
X492291Y335235D01*
X486350Y333850D02*
X490906D01*
X483500Y331000D02*
X486350Y333850D01*
X495124Y264500D02*
Y269618D01*
X492118Y272624D02*
X495124Y269618D01*
X514315Y351536D02*
X514406Y351626D01*
Y354403D01*
X515072Y355069D01*
X543000Y402624D02*
X551500Y394124D01*
X524157Y372250D02*
Y385000D01*
Y372250D02*
X532031Y364376D01*
Y351536D02*
Y364376D01*
X529124Y286000D02*
Y286500D01*
X530124Y287500D01*
X530624D01*
X537528Y294405D01*
X543180D01*
X515002Y286000D02*
X522876D01*
X513378Y287624D02*
X515002Y286000D01*
X512000Y287624D02*
X513378D01*
X522876Y286000D02*
Y292000D01*
Y301000D02*
Y301500D01*
X515575Y293698D02*
X522876Y301000D01*
X513075Y293698D02*
X515575D01*
X512000Y292624D02*
X513075Y293698D01*
X490740Y282624D02*
X492118D01*
X490740Y287624D02*
X492118D01*
X490740Y292624D02*
X492118D01*
X476500Y337000D02*
X483500D01*
X468500Y329000D02*
X476500Y337000D01*
X483500D02*
X489000D01*
X416675Y380973D02*
X421150D01*
X424500Y377624D01*
X425000D01*
X416500Y392500D02*
Y398500D01*
X421000Y400747D02*
Y407500D01*
Y400747D02*
X422747Y399000D01*
Y398500D02*
Y399000D01*
X423803Y405000D02*
X441500D01*
X421303Y407500D02*
X423803Y405000D01*
X421000Y407500D02*
X421303D01*
X455500Y395124D02*
X459000D01*
X452220Y398403D02*
X455500Y395124D01*
X452220Y398403D02*
Y401957D01*
X449177Y405000D02*
X452220Y401957D01*
X441500Y405000D02*
X449177D01*
X459000Y395124D02*
X465000D01*
X467000Y396624D02*
Y406376D01*
X465500Y395124D02*
X467000Y396624D01*
X465000Y395124D02*
X465500D01*
X467000Y406376D02*
X474500D01*
X480500D01*
X483953Y421047D02*
X491750D01*
X498671Y414126D01*
X479500Y425500D02*
X483953Y421047D01*
X508319Y373280D02*
X508410Y373189D01*
X508319Y369342D02*
X508410Y369252D01*
X508319Y367374D02*
X508410Y367284D01*
X486047Y411547D02*
X490500Y416000D01*
D15*
X412282Y342549D02*
D03*
X441711D02*
D03*
D24*
X416675Y371916D02*
D03*
X412935D02*
D03*
X409195D02*
D03*
Y380973D02*
D03*
X412935D02*
D03*
D25*
X416675D02*
D03*
D44*
X563000Y387876D02*
D03*
Y394124D02*
D03*
X557000D02*
D03*
Y387876D02*
D03*
X559500Y372124D02*
D03*
Y365876D02*
D03*
X553500Y372124D02*
D03*
Y365876D02*
D03*
X536500Y396376D02*
D03*
Y402624D02*
D03*
X542500Y396376D02*
D03*
Y402624D02*
D03*
X474500Y406376D02*
D03*
Y412624D02*
D03*
X480500Y406376D02*
D03*
Y412624D02*
D03*
X467000Y406376D02*
D03*
Y412624D02*
D03*
X465000Y388876D02*
D03*
Y395124D02*
D03*
X459000Y388876D02*
D03*
Y395124D02*
D03*
X425000Y377624D02*
D03*
Y371376D02*
D03*
X493000Y349376D02*
D03*
Y355624D02*
D03*
X487000Y349376D02*
D03*
Y355624D02*
D03*
X472500Y258876D02*
D03*
Y265124D02*
D03*
X548500Y244876D02*
D03*
Y251124D02*
D03*
X540500Y244876D02*
D03*
Y251124D02*
D03*
X523000Y238000D02*
D03*
Y244247D02*
D03*
D45*
X573500Y376732D02*
D03*
Y393268D02*
D03*
D46*
X535968Y351536D02*
D03*
X534000D02*
D03*
X532031D02*
D03*
X530063D02*
D03*
X528094D02*
D03*
X526126D02*
D03*
X524157D02*
D03*
X522189D02*
D03*
X520221D02*
D03*
X518252D02*
D03*
X516284D02*
D03*
X514315D02*
D03*
Y385000D02*
D03*
X516284D02*
D03*
X518252D02*
D03*
X520221D02*
D03*
X522189D02*
D03*
X524157D02*
D03*
X526126D02*
D03*
X528094D02*
D03*
X530063D02*
D03*
X532031D02*
D03*
X534000D02*
D03*
X535968D02*
D03*
D47*
X508410Y357441D02*
D03*
Y359409D02*
D03*
Y361378D02*
D03*
Y363347D02*
D03*
Y365315D02*
D03*
Y367284D02*
D03*
Y369252D02*
D03*
Y371220D02*
D03*
Y373189D02*
D03*
Y375157D02*
D03*
Y377126D02*
D03*
Y379095D02*
D03*
X541874D02*
D03*
Y377126D02*
D03*
Y375157D02*
D03*
Y373189D02*
D03*
Y371220D02*
D03*
Y369252D02*
D03*
Y367284D02*
D03*
Y365315D02*
D03*
Y363347D02*
D03*
Y361378D02*
D03*
Y359409D02*
D03*
Y357441D02*
D03*
D48*
X467000Y419500D02*
D03*
Y425500D02*
D03*
X479500D02*
D03*
Y419500D02*
D03*
X473000Y425500D02*
D03*
Y419500D02*
D03*
X489000Y337000D02*
D03*
Y331000D02*
D03*
X483500Y337000D02*
D03*
Y331000D02*
D03*
D49*
X435126Y371500D02*
D03*
X450874D02*
D03*
D50*
X416500Y392500D02*
D03*
X422747D02*
D03*
Y398500D02*
D03*
X416500D02*
D03*
X496376Y338000D02*
D03*
X502624D02*
D03*
X496376Y332000D02*
D03*
X502624D02*
D03*
X541624Y341500D02*
D03*
X535376D02*
D03*
X541624Y335500D02*
D03*
X535376D02*
D03*
X522876Y301500D02*
D03*
X529124D02*
D03*
Y307500D02*
D03*
X522876D02*
D03*
Y292000D02*
D03*
X529124D02*
D03*
Y286000D02*
D03*
X522876D02*
D03*
X529124Y277000D02*
D03*
X522876D02*
D03*
Y271000D02*
D03*
X529124D02*
D03*
X472624Y307000D02*
D03*
X466376D02*
D03*
X456124D02*
D03*
X449876D02*
D03*
X563124Y251000D02*
D03*
X556876D02*
D03*
X488876Y264500D02*
D03*
X495124D02*
D03*
D51*
X441500Y383500D02*
D03*
Y405000D02*
D03*
D52*
X552760Y348366D02*
D03*
Y356634D02*
D03*
X560240Y348366D02*
D03*
Y356634D02*
D03*
D53*
X512000Y272624D02*
D03*
Y277624D02*
D03*
Y282624D02*
D03*
Y287624D02*
D03*
Y292624D02*
D03*
Y297624D02*
D03*
Y302624D02*
D03*
Y307624D02*
D03*
X490740Y272624D02*
D03*
Y277624D02*
D03*
Y282624D02*
D03*
Y287624D02*
D03*
Y292624D02*
D03*
Y297624D02*
D03*
Y302624D02*
D03*
Y307624D02*
D03*
D54*
X451868Y300000D02*
D03*
Y295000D02*
D03*
Y290000D02*
D03*
Y285000D02*
D03*
X473128Y300000D02*
D03*
Y295000D02*
D03*
Y290000D02*
D03*
Y285000D02*
D03*
D55*
X464993Y273628D02*
D03*
X459993D02*
D03*
X454993D02*
D03*
X449993D02*
D03*
X464993Y252368D02*
D03*
X459993D02*
D03*
X454993D02*
D03*
X449993D02*
D03*
D56*
X456000Y229601D02*
D03*
Y242399D02*
D03*
D57*
X471500Y245937D02*
D03*
X467760Y238063D02*
D03*
X475240D02*
D03*
D58*
X527000Y208626D02*
D03*
Y224374D02*
D03*
D59*
X547028Y213500D02*
D03*
X537972Y209760D02*
D03*
Y217240D02*
D03*
D60*
X483500Y379500D02*
D03*
Y366500D02*
D03*
X440500Y243500D02*
D03*
X457500Y217500D02*
D03*
X408500Y393500D02*
D03*
X421000Y407500D02*
D03*
D61*
X580000Y246500D02*
D03*
X381500Y394000D02*
D03*
D62*
X559016Y215500D02*
Y232016D01*
X531626Y204000D02*
X547516D01*
X559016Y215500D01*
X563124Y251000D02*
Y286280D01*
X554999Y294405D02*
X563124Y286280D01*
X513100Y224100D02*
X527000Y210201D01*
X513000Y224201D02*
X513100Y224100D01*
X527000Y207347D02*
Y208626D01*
Y207051D02*
Y207347D01*
X529642Y204705D02*
X530921D01*
X529347D02*
X529642D01*
X563124Y251000D02*
X563500Y250624D01*
Y236500D02*
Y250624D01*
X559016Y232016D02*
X563500Y236500D01*
X527000Y207051D02*
X529347Y204705D01*
X530921D02*
X531626Y204000D01*
X501000Y212000D02*
X513100Y224100D01*
X501000Y204000D02*
Y212000D01*
X513000Y224201D02*
Y239000D01*
X527000Y208626D02*
Y210201D01*
X444000Y201000D02*
X498000D01*
X501000Y204000D01*
X398500Y246500D02*
X444000Y201000D01*
X398500Y259500D02*
X406000Y267000D01*
X398500Y246500D02*
Y259500D01*
D63*
X543180Y306216D02*
X548930Y300466D01*
X542538Y306858D02*
X543180Y306216D01*
X548930Y280531D02*
Y300466D01*
X549750Y252374D02*
X560749Y263373D01*
Y273164D01*
X557070Y276844D02*
X560749Y273164D01*
X548500Y251124D02*
X549000D01*
X549750Y251874D02*
Y252374D01*
X549000Y251124D02*
X549750Y251874D01*
X548930Y280531D02*
X552618Y276844D01*
X557070D01*
X529766Y306858D02*
X542538D01*
X529124Y307500D02*
X529766Y306858D01*
X522876Y301500D02*
Y307500D01*
D64*
X411500Y343332D02*
Y370555D01*
X409195Y371350D02*
Y371916D01*
Y371350D02*
X409990Y370555D01*
X411500D01*
Y343332D02*
X412282Y342549D01*
X396500Y326767D02*
X412282Y342549D01*
X396500Y276500D02*
Y326767D01*
Y276500D02*
X406000Y267000D01*
X486000Y220000D02*
Y242000D01*
X448500Y210500D02*
X476500D01*
X486000Y220000D01*
X417819Y241181D02*
Y255189D01*
Y241181D02*
X448500Y210500D01*
X482005Y209000D02*
X493000D01*
X478005Y205000D02*
X482005Y209000D01*
X446500Y205000D02*
X478005D01*
X406000Y255189D02*
X406311Y254878D01*
Y245189D02*
Y254878D01*
Y245189D02*
X446500Y205000D01*
X486000Y242000D02*
X493000Y249000D01*
D65*
X524000Y418000D02*
D03*
Y423000D02*
D03*
X529000D02*
D03*
Y418000D02*
D03*
X534000D02*
D03*
Y423000D02*
D03*
X519000D02*
D03*
Y418000D02*
D03*
X514000D02*
D03*
Y423000D02*
D03*
D66*
X490500Y406000D02*
D03*
D67*
Y416000D02*
D03*
Y426000D02*
D03*
D68*
X439000Y258000D02*
D03*
Y268000D02*
D03*
X475000Y229000D02*
D03*
Y219000D02*
D03*
X468500Y339000D02*
D03*
Y329000D02*
D03*
D69*
X493000Y209000D02*
D03*
X513000D02*
D03*
X493000Y239000D02*
D03*
X513000D02*
D03*
X493000Y249000D02*
D03*
X513000D02*
D03*
D70*
X543180Y282594D02*
D03*
Y294405D02*
D03*
X554999Y282594D02*
D03*
Y294405D02*
D03*
Y306216D02*
D03*
X543180D02*
D03*
X554999Y270783D02*
D03*
X543180D02*
D03*
X406000Y278811D02*
D03*
X417819D02*
D03*
Y267000D02*
D03*
Y255189D02*
D03*
X406000Y267000D02*
D03*
Y255189D02*
D03*
D71*
X459000Y357500D02*
D03*
Y361500D02*
D03*
Y365500D02*
D03*
Y369500D02*
D03*
Y373000D02*
D03*
X462500D02*
D03*
Y369000D02*
D03*
Y365000D02*
D03*
X557500Y340500D02*
D03*
X529000Y319500D02*
D03*
X532000Y264500D02*
D03*
X547500Y367500D02*
D03*
X549500Y377500D02*
D03*
X545500Y390000D02*
D03*
X482500Y264500D02*
D03*
X497000Y317500D02*
D03*
X480000Y360500D02*
D03*
X462500Y361000D02*
D03*
X478500Y309000D02*
D03*
X482575Y278000D02*
D03*
X521500Y252500D02*
D03*
X498500Y360000D02*
D03*
X518698Y394302D02*
D03*
X425500Y263500D02*
D03*
X555500Y402000D02*
D03*
X527500Y403000D02*
D03*
X483000Y284000D02*
D03*
X514313Y405813D02*
D03*
X503000Y388500D02*
D03*
X482062Y394090D02*
D03*
X457500Y423000D02*
D03*
M02*
