G04*
G04 #@! TF.GenerationSoftware,Altium Limited,Altium Designer,20.1.12 (249)*
G04*
G04 Layer_Color=65535*
%FSLAX25Y25*%
%MOIN*%
G70*
G04*
G04 #@! TF.SameCoordinates,CD40AE63-01C5-41B5-9579-828B942A7482*
G04*
G04*
G04 #@! TF.FilePolarity,Positive*
G04*
G01*
G75*
%ADD10C,0.01000*%
%ADD11C,0.00984*%
%ADD12C,0.02362*%
%ADD13C,0.00800*%
%ADD14C,0.00787*%
D10*
X578028Y385000D02*
X577914Y386007D01*
X577579Y386965D01*
X577040Y387823D01*
X576323Y388540D01*
X575464Y389079D01*
X574508Y389414D01*
X573500Y389528D01*
X572493Y389414D01*
X571535Y389079D01*
X570677Y388540D01*
X569960Y387823D01*
X569421Y386965D01*
X569086Y386007D01*
X568972Y385000D01*
X569086Y383993D01*
X569421Y383035D01*
X569960Y382177D01*
X570677Y381460D01*
X571535Y380921D01*
X572493Y380586D01*
X573500Y380472D01*
X574508Y380586D01*
X575464Y380921D01*
X576323Y381460D01*
X577040Y382177D01*
X577579Y383035D01*
X577914Y383993D01*
X578028Y385000D01*
X567000Y346000D02*
X566250Y346433D01*
Y345567D01*
X567000Y346000D01*
X463748Y282500D02*
X463382Y283384D01*
X462498Y283750D01*
X461614Y283384D01*
X461248Y282500D01*
X467493Y264248D02*
X466609Y263882D01*
X466243Y262998D01*
X466609Y262114D01*
X467493Y261748D01*
X488000Y379500D02*
X487887Y380501D01*
X487554Y381452D01*
X487018Y382306D01*
X486306Y383018D01*
X485453Y383554D01*
X484501Y383887D01*
X483500Y384000D01*
X482499Y383887D01*
X481547Y383554D01*
X480694Y383018D01*
X479982Y382306D01*
X479446Y381452D01*
X479113Y380501D01*
X479000Y379500D01*
X479113Y378499D01*
X479446Y377548D01*
X479982Y376694D01*
X480694Y375982D01*
X481547Y375446D01*
X482499Y375113D01*
X483500Y375000D01*
X484501Y375113D01*
X485453Y375446D01*
X486306Y375982D01*
X487018Y376694D01*
X487554Y377548D01*
X487887Y378499D01*
X488000Y379500D01*
Y366500D02*
X487887Y367501D01*
X487554Y368453D01*
X487018Y369306D01*
X486306Y370018D01*
X485453Y370554D01*
X484501Y370887D01*
X483500Y371000D01*
X482499Y370887D01*
X481547Y370554D01*
X480694Y370018D01*
X479982Y369306D01*
X479446Y368453D01*
X479113Y367501D01*
X479000Y366500D01*
X479113Y365499D01*
X479446Y364547D01*
X479982Y363694D01*
X480694Y362982D01*
X481547Y362446D01*
X482499Y362113D01*
X483500Y362000D01*
X484501Y362113D01*
X485453Y362446D01*
X486306Y362982D01*
X487018Y363694D01*
X487554Y364547D01*
X487887Y365499D01*
X488000Y366500D01*
X445000Y243500D02*
X444887Y244501D01*
X444554Y245452D01*
X444018Y246306D01*
X443306Y247018D01*
X442452Y247554D01*
X441501Y247887D01*
X440500Y248000D01*
X439499Y247887D01*
X438548Y247554D01*
X437694Y247018D01*
X436982Y246306D01*
X436446Y245452D01*
X436113Y244501D01*
X436000Y243500D01*
X436113Y242499D01*
X436446Y241547D01*
X436982Y240694D01*
X437694Y239982D01*
X438548Y239446D01*
X439499Y239113D01*
X440500Y239000D01*
X441501Y239113D01*
X442452Y239446D01*
X443306Y239982D01*
X444018Y240694D01*
X444554Y241547D01*
X444887Y242499D01*
X445000Y243500D01*
X462000Y217500D02*
X461887Y218501D01*
X461554Y219453D01*
X461018Y220306D01*
X460306Y221018D01*
X459452Y221554D01*
X458501Y221887D01*
X457500Y222000D01*
X456499Y221887D01*
X455548Y221554D01*
X454694Y221018D01*
X453982Y220306D01*
X453446Y219453D01*
X453113Y218501D01*
X453000Y217500D01*
X453113Y216499D01*
X453446Y215547D01*
X453982Y214694D01*
X454694Y213982D01*
X455548Y213446D01*
X456499Y213113D01*
X457500Y213000D01*
X458501Y213113D01*
X459452Y213446D01*
X460306Y213982D01*
X461018Y214694D01*
X461554Y215547D01*
X461887Y216499D01*
X462000Y217500D01*
X413000Y393500D02*
X412887Y394501D01*
X412554Y395452D01*
X412018Y396306D01*
X411306Y397018D01*
X410453Y397554D01*
X409501Y397887D01*
X408500Y398000D01*
X407499Y397887D01*
X406547Y397554D01*
X405694Y397018D01*
X404982Y396306D01*
X404446Y395452D01*
X404113Y394501D01*
X404000Y393500D01*
X404113Y392499D01*
X404446Y391547D01*
X404982Y390694D01*
X405694Y389982D01*
X406547Y389446D01*
X407499Y389113D01*
X408500Y389000D01*
X409501Y389113D01*
X410453Y389446D01*
X411306Y389982D01*
X412018Y390694D01*
X412554Y391547D01*
X412887Y392499D01*
X413000Y393500D01*
X425500Y407500D02*
X425387Y408501D01*
X425054Y409452D01*
X424518Y410306D01*
X423806Y411018D01*
X422953Y411554D01*
X422001Y411887D01*
X421000Y412000D01*
X419999Y411887D01*
X419047Y411554D01*
X418194Y411018D01*
X417482Y410306D01*
X416946Y409452D01*
X416613Y408501D01*
X416500Y407500D01*
X416613Y406499D01*
X416946Y405548D01*
X417482Y404694D01*
X418194Y403982D01*
X419047Y403446D01*
X419999Y403113D01*
X421000Y403000D01*
X422001Y403113D01*
X422953Y403446D01*
X423806Y403982D01*
X424518Y404694D01*
X425054Y405548D01*
X425387Y406499D01*
X425500Y407500D01*
X506500Y407000D02*
X507500Y406000D01*
X505000Y408500D02*
X506500Y407000D01*
X502500Y408500D02*
X505000D01*
X447666Y353229D02*
Y363170D01*
Y321831D02*
Y331772D01*
X414201Y321831D02*
X447666D01*
X414201Y363170D02*
X447666D01*
X406327Y329705D02*
X414201Y321831D01*
X406327Y355296D02*
X414201Y363170D01*
X406327Y329705D02*
Y331870D01*
Y353130D02*
Y355296D01*
X428602Y339953D02*
Y344953D01*
X424602Y339953D02*
X427102Y342454D01*
X424602Y339953D02*
Y344953D01*
X427102Y342454D01*
X403000Y329000D02*
X404500Y330500D01*
X403000Y332000D02*
X404500Y330500D01*
X403000Y329000D02*
Y332000D01*
X450500Y329000D02*
Y331500D01*
X564000Y398000D02*
Y400000D01*
X568000Y404000D01*
X582000D01*
X475000Y431000D02*
X476000Y432000D01*
X496500D01*
Y409000D02*
Y432000D01*
Y409000D02*
X497000Y408500D01*
X502500D01*
X568000Y373000D02*
X579000D01*
Y380000D01*
X568000Y373000D02*
Y380000D01*
X579000Y390000D02*
Y397000D01*
X568000D02*
X579000D01*
X568000Y390000D02*
Y397000D01*
X541374Y355441D02*
X542374D01*
X549000Y410500D02*
Y431000D01*
X499000D02*
X549000D01*
X499000Y410500D02*
Y431000D01*
Y410500D02*
X549000D01*
X531500Y426500D02*
X534000Y429000D01*
X536500Y426500D01*
X531500D02*
X536500D01*
X465000Y429000D02*
X469000D01*
X477500D02*
X481500D01*
X471000D02*
X475000D01*
X462000Y419500D02*
X464500Y417000D01*
X461500Y419500D02*
X462000D01*
X454000D02*
X461500D01*
X432500Y376500D02*
Y377500D01*
Y365500D02*
Y366500D01*
X425000Y382000D02*
Y384500D01*
X422000Y387500D02*
X425000Y384500D01*
X401500Y387500D02*
X422000D01*
X408000Y403500D02*
X412000Y399500D01*
X408000Y403500D02*
Y412000D01*
X428500Y378500D02*
X454500D01*
X428500D02*
Y410000D01*
X454500D01*
Y378500D02*
Y410000D01*
X487000Y327500D02*
X491000D01*
X481500D02*
X485500D01*
X564000Y345000D02*
Y360000D01*
X549000D02*
X564000D01*
X549000Y345000D02*
Y360000D01*
Y345000D02*
X564000D01*
X526500Y312500D02*
Y318500D01*
X535000Y327000D01*
X570500D01*
X466577Y282500D02*
Y302500D01*
X458420D02*
X466577D01*
X458420Y282500D02*
Y302500D01*
Y282500D02*
X461248D01*
X463748D02*
X466577D01*
X467493Y264248D02*
Y267077D01*
Y258920D02*
Y261748D01*
X447493Y258920D02*
X467493D01*
X447493D02*
Y267077D01*
X467493D01*
X433500Y252500D02*
X444500D01*
X433500D02*
Y273500D01*
X444500D01*
Y252500D02*
Y273500D01*
X469500Y234500D02*
X480500D01*
Y213500D02*
Y234500D01*
X469500Y213500D02*
X480500D01*
X469500D02*
Y234500D01*
X488000Y254000D02*
X518000D01*
X488000Y204000D02*
Y254000D01*
Y204000D02*
X518000D01*
Y254000D01*
X521000Y206000D02*
X522000D01*
X532000D02*
X533000D01*
X550999Y257499D02*
X589999D01*
X550999Y319499D02*
X589999D01*
X534999Y264877D02*
Y312121D01*
X589999Y257499D02*
Y319499D01*
X371000Y242000D02*
X410000D01*
X371000Y292000D02*
X410000D01*
X426000Y255189D02*
Y278811D01*
X371000Y242000D02*
Y292000D01*
X474000Y323500D02*
Y344500D01*
X463000D02*
X474000D01*
X463000Y323500D02*
Y344500D01*
Y323500D02*
X474000D01*
X406001Y316999D02*
X405001Y317999D01*
X403002D01*
X402002Y316999D01*
Y313001D01*
X403002Y312001D01*
X405001D01*
X406001Y313001D01*
X408001Y312001D02*
X410000D01*
X409000D01*
Y317999D01*
X408001Y316999D01*
X412999Y317999D02*
X416998D01*
Y316999D01*
X412999Y313001D01*
Y312001D01*
X535001Y229999D02*
Y224001D01*
X538000D01*
X539000Y225001D01*
Y228999D01*
X538000Y229999D01*
X535001D01*
X540999Y224001D02*
X542999D01*
X541999D01*
Y229999D01*
X540999Y228999D01*
X583501Y403001D02*
X582501Y402001D01*
Y400002D01*
X583501Y399002D01*
X587499D01*
X588499Y400002D01*
Y402001D01*
X587499Y403001D01*
X588499Y405000D02*
Y407000D01*
Y406000D01*
X582501D01*
X583501Y405000D01*
Y409999D02*
X582501Y410998D01*
Y412998D01*
X583501Y413998D01*
X587499D01*
X588499Y412998D01*
Y410998D01*
X587499Y409999D01*
X583501D01*
X559499Y400002D02*
X553501D01*
Y403001D01*
X554501Y404001D01*
X556500D01*
X557500Y403001D01*
Y400002D01*
Y402002D02*
X559499Y404001D01*
Y406001D02*
Y408000D01*
Y407000D01*
X553501D01*
X554501Y406001D01*
X553501Y414998D02*
Y410999D01*
X556500D01*
X555500Y412998D01*
Y413998D01*
X556500Y414998D01*
X558499D01*
X559499Y413998D01*
Y411999D01*
X558499Y410999D01*
X581001Y387501D02*
X580001Y386501D01*
Y384502D01*
X581001Y383502D01*
X582000D01*
X583000Y384502D01*
Y386501D01*
X584000Y387501D01*
X584999D01*
X585999Y386501D01*
Y384502D01*
X584999Y383502D01*
X580001Y389500D02*
X585999D01*
X584000Y391500D01*
X585999Y393499D01*
X580001D01*
X585999Y395498D02*
Y397498D01*
Y396498D01*
X580001D01*
X581001Y395498D01*
X561000Y381499D02*
X560000Y382499D01*
X558001D01*
X557001Y381499D01*
Y377501D01*
X558001Y376501D01*
X560000D01*
X561000Y377501D01*
X562999Y376501D02*
X564999D01*
X563999D01*
Y382499D01*
X562999Y381499D01*
X549500D02*
X548501Y382499D01*
X546501D01*
X545502Y381499D01*
Y377501D01*
X546501Y376501D01*
X548501D01*
X549500Y377501D01*
X551500D02*
X552499Y376501D01*
X554499D01*
X555498Y377501D01*
Y381499D01*
X554499Y382499D01*
X552499D01*
X551500Y381499D01*
Y380500D01*
X552499Y379500D01*
X555498D01*
X527001Y398500D02*
X526001Y397501D01*
Y395501D01*
X527001Y394502D01*
X530999D01*
X531999Y395501D01*
Y397501D01*
X530999Y398500D01*
X527001Y400500D02*
X526001Y401499D01*
Y403499D01*
X527001Y404498D01*
X528000D01*
X529000Y403499D01*
Y402499D01*
Y403499D01*
X530000Y404498D01*
X530999D01*
X531999Y403499D01*
Y401499D01*
X530999Y400500D01*
X547501Y398500D02*
X546501Y397501D01*
Y395501D01*
X547501Y394502D01*
X551499D01*
X552499Y395501D01*
Y397501D01*
X551499Y398500D01*
X552499Y403499D02*
X546501D01*
X549500Y400500D01*
Y404498D01*
X494502Y383499D02*
Y378501D01*
X495501Y377501D01*
X497501D01*
X498500Y378501D01*
Y383499D01*
X504498Y377501D02*
X500500D01*
X504498Y381500D01*
Y382499D01*
X503499Y383499D01*
X501499D01*
X500500Y382499D01*
X503500Y428499D02*
X501501D01*
X502501D01*
Y423501D01*
X501501Y422501D01*
X500501D01*
X499502Y423501D01*
X509498Y422501D02*
X505500D01*
X509498Y426500D01*
Y427499D01*
X508499Y428499D01*
X506499D01*
X505500Y427499D01*
X487001Y393001D02*
Y398999D01*
X490000D01*
X491000Y397999D01*
Y396000D01*
X490000Y395000D01*
X487001D01*
X492999Y393001D02*
X494999D01*
X493999D01*
Y398999D01*
X492999Y397999D01*
X498501Y390003D02*
X504499D01*
Y393002D01*
X503499Y394001D01*
X499501D01*
X498501Y393002D01*
Y390003D01*
X499501Y399999D02*
X498501Y399000D01*
Y397000D01*
X499501Y396001D01*
X500500D01*
X501500Y397000D01*
Y399000D01*
X502500Y399999D01*
X503499D01*
X504499Y399000D01*
Y397000D01*
X503499Y396001D01*
X498501Y405997D02*
Y401999D01*
X501500D01*
X500500Y403998D01*
Y404998D01*
X501500Y405997D01*
X503499D01*
X504499Y404998D01*
Y402998D01*
X503499Y401999D01*
X514001Y390003D02*
X519999D01*
Y393002D01*
X518999Y394001D01*
X515001D01*
X514001Y393002D01*
Y390003D01*
X515001Y399999D02*
X514001Y399000D01*
Y397000D01*
X515001Y396001D01*
X516000D01*
X517000Y397000D01*
Y399000D01*
X518000Y399999D01*
X518999D01*
X519999Y399000D01*
Y397000D01*
X518999Y396001D01*
X519999Y405997D02*
Y401999D01*
X516000Y405997D01*
X515001D01*
X514001Y404998D01*
Y402998D01*
X515001Y401999D01*
X506001Y390002D02*
X511999D01*
Y393001D01*
X510999Y394001D01*
X507001D01*
X506001Y393001D01*
Y390002D01*
X507001Y399999D02*
X506001Y398999D01*
Y397000D01*
X507001Y396000D01*
X508000D01*
X509000Y397000D01*
Y398999D01*
X510000Y399999D01*
X510999D01*
X511999Y398999D01*
Y397000D01*
X510999Y396000D01*
X511999Y401998D02*
Y403998D01*
Y402998D01*
X506001D01*
X507001Y401998D01*
X452499Y414502D02*
X446501D01*
Y417501D01*
X447501Y418501D01*
X449500D01*
X450500Y417501D01*
Y414502D01*
Y416502D02*
X452499Y418501D01*
Y420501D02*
Y422500D01*
Y421500D01*
X446501D01*
X447501Y420501D01*
X446501Y429498D02*
X447501Y427498D01*
X449500Y425499D01*
X451499D01*
X452499Y426499D01*
Y428498D01*
X451499Y429498D01*
X450500D01*
X449500Y428498D01*
Y425499D01*
X442499Y414502D02*
X436501D01*
Y417501D01*
X437501Y418501D01*
X439500D01*
X440500Y417501D01*
Y414502D01*
Y416502D02*
X442499Y418501D01*
Y420501D02*
Y422500D01*
Y421500D01*
X436501D01*
X437501Y420501D01*
X436501Y425499D02*
Y429498D01*
X437501D01*
X441499Y425499D01*
X442499D01*
X432999Y414503D02*
X427001D01*
Y417502D01*
X428001Y418501D01*
X430000D01*
X431000Y417502D01*
Y414503D01*
Y416502D02*
X432999Y418501D01*
Y424499D02*
Y420501D01*
X429000Y424499D01*
X428001D01*
X427001Y423500D01*
Y421500D01*
X428001Y420501D01*
X427001Y430497D02*
Y426499D01*
X430000D01*
X429000Y428498D01*
Y429498D01*
X430000Y430497D01*
X431999D01*
X432999Y429498D01*
Y427498D01*
X431999Y426499D01*
X471001Y389001D02*
X470001Y388001D01*
Y386002D01*
X471001Y385002D01*
X474999D01*
X475999Y386002D01*
Y388001D01*
X474999Y389001D01*
X475999Y391001D02*
Y393000D01*
Y392000D01*
X470001D01*
X471001Y391001D01*
X470001Y399998D02*
Y395999D01*
X473000D01*
X472000Y397998D01*
Y398998D01*
X473000Y399998D01*
X474999D01*
X475999Y398998D01*
Y396999D01*
X474999Y395999D01*
X460001Y382999D02*
X459001Y383999D01*
X457002D01*
X456002Y382999D01*
Y379001D01*
X457002Y378001D01*
X459001D01*
X460001Y379001D01*
X462001Y378001D02*
X464000D01*
X463000D01*
Y383999D01*
X462001Y382999D01*
X470998Y383999D02*
X468998Y382999D01*
X466999Y381000D01*
Y379001D01*
X467999Y378001D01*
X469998D01*
X470998Y379001D01*
Y380000D01*
X469998Y381000D01*
X466999D01*
X450001Y354002D02*
X455999D01*
Y357001D01*
X454999Y358000D01*
X451001D01*
X450001Y357001D01*
Y354002D01*
X451001Y360000D02*
X450001Y360999D01*
Y362999D01*
X451001Y363998D01*
X452000D01*
X453000Y362999D01*
Y361999D01*
Y362999D01*
X454000Y363998D01*
X454999D01*
X455999Y362999D01*
Y360999D01*
X454999Y360000D01*
X393501Y388001D02*
X392501Y387001D01*
Y385002D01*
X393501Y384002D01*
X397499D01*
X398499Y385002D01*
Y387001D01*
X397499Y388001D01*
X398499Y390001D02*
Y392000D01*
Y391000D01*
X392501D01*
X393501Y390001D01*
X398499Y397998D02*
X392501D01*
X395500Y394999D01*
Y398998D01*
X403503Y413501D02*
Y419499D01*
X406502D01*
X407501Y418499D01*
Y416500D01*
X406502Y415500D01*
X403503D01*
X405502D02*
X407501Y413501D01*
X413499D02*
X409501D01*
X413499Y417500D01*
Y418499D01*
X412500Y419499D01*
X410500D01*
X409501Y418499D01*
X418498Y413501D02*
Y419499D01*
X415499Y416500D01*
X419497D01*
X403503Y421501D02*
Y427499D01*
X406502D01*
X407501Y426499D01*
Y424500D01*
X406502Y423500D01*
X403503D01*
X405502D02*
X407501Y421501D01*
X413499D02*
X409501D01*
X413499Y425500D01*
Y426499D01*
X412500Y427499D01*
X410500D01*
X409501Y426499D01*
X415499D02*
X416498Y427499D01*
X418498D01*
X419497Y426499D01*
Y425500D01*
X418498Y424500D01*
X417498D01*
X418498D01*
X419497Y423500D01*
Y422501D01*
X418498Y421501D01*
X416498D01*
X415499Y422501D01*
X456001Y400501D02*
X461999D01*
Y404500D01*
Y406499D02*
Y408499D01*
Y407499D01*
X456001D01*
X457001Y406499D01*
X395001Y369002D02*
X399999D01*
X400999Y370001D01*
Y372001D01*
X399999Y373000D01*
X395001D01*
Y375000D02*
Y378998D01*
X396001D01*
X399999Y375000D01*
X400999D01*
X498501Y354000D02*
X497501Y353001D01*
Y351001D01*
X498501Y350002D01*
X502499D01*
X503499Y351001D01*
Y353001D01*
X502499Y354000D01*
X497501Y356000D02*
Y359998D01*
X498501D01*
X502499Y356000D01*
X503499D01*
X476501Y352500D02*
X475501Y351501D01*
Y349501D01*
X476501Y348502D01*
X480499D01*
X481499Y349501D01*
Y351501D01*
X480499Y352500D01*
X476501Y354500D02*
X475501Y355499D01*
Y357499D01*
X476501Y358498D01*
X477500D01*
X478500Y357499D01*
X479500Y358498D01*
X480499D01*
X481499Y357499D01*
Y355499D01*
X480499Y354500D01*
X479500D01*
X478500Y355499D01*
X477500Y354500D01*
X476501D01*
X478500Y355499D02*
Y357499D01*
X499003Y342501D02*
Y348499D01*
X502002D01*
X503001Y347499D01*
Y345500D01*
X502002Y344500D01*
X499003D01*
X501002D02*
X503001Y342501D01*
X508999D02*
X505001D01*
X508999Y346500D01*
Y347499D01*
X508000Y348499D01*
X506000D01*
X505001Y347499D01*
X510999D02*
X511998Y348499D01*
X513998D01*
X514997Y347499D01*
Y343501D01*
X513998Y342501D01*
X511998D01*
X510999Y343501D01*
Y347499D01*
X475503Y325999D02*
Y320001D01*
X478502D01*
X479501Y321001D01*
Y324999D01*
X478502Y325999D01*
X475503D01*
X485499Y324999D02*
X484500Y325999D01*
X482500D01*
X481501Y324999D01*
Y324000D01*
X482500Y323000D01*
X484500D01*
X485499Y322000D01*
Y321001D01*
X484500Y320001D01*
X482500D01*
X481501Y321001D01*
X487499Y324999D02*
X488498Y325999D01*
X490498D01*
X491497Y324999D01*
Y324000D01*
X490498Y323000D01*
X489498D01*
X490498D01*
X491497Y322000D01*
Y321001D01*
X490498Y320001D01*
X488498D01*
X487499Y321001D01*
X477003Y346499D02*
Y340501D01*
X480002D01*
X481001Y341501D01*
Y345499D01*
X480002Y346499D01*
X477003D01*
X486999Y345499D02*
X486000Y346499D01*
X484000D01*
X483001Y345499D01*
Y344500D01*
X484000Y343500D01*
X486000D01*
X486999Y342500D01*
Y341501D01*
X486000Y340501D01*
X484000D01*
X483001Y341501D01*
X491998Y340501D02*
Y346499D01*
X488999Y343500D01*
X492997D01*
X493502Y322001D02*
Y327999D01*
X496501D01*
X497501Y326999D01*
Y325000D01*
X496501Y324000D01*
X493502D01*
X495502D02*
X497501Y322001D01*
X499501D02*
X501500D01*
X500500D01*
Y327999D01*
X499501Y326999D01*
X504499Y323001D02*
X505499Y322001D01*
X507498D01*
X508498Y323001D01*
Y326999D01*
X507498Y327999D01*
X505499D01*
X504499Y326999D01*
Y326000D01*
X505499Y325000D01*
X508498D01*
X525000Y343999D02*
X524001Y344999D01*
X522001D01*
X521002Y343999D01*
Y340001D01*
X522001Y339001D01*
X524001D01*
X525000Y340001D01*
X530998Y344999D02*
X527000D01*
Y342000D01*
X528999Y343000D01*
X529999D01*
X530998Y342000D01*
Y340001D01*
X529999Y339001D01*
X527999D01*
X527000Y340001D01*
X525000Y336499D02*
X524001Y337499D01*
X522001D01*
X521002Y336499D01*
Y332501D01*
X522001Y331501D01*
X524001D01*
X525000Y332501D01*
X530998Y337499D02*
X528999Y336499D01*
X527000Y334500D01*
Y332501D01*
X527999Y331501D01*
X529999D01*
X530998Y332501D01*
Y333500D01*
X529999Y334500D01*
X527000D01*
X565501Y349002D02*
X570499D01*
X571499Y350001D01*
Y352001D01*
X570499Y353000D01*
X565501D01*
X566501Y355000D02*
X565501Y355999D01*
Y357999D01*
X566501Y358998D01*
X567500D01*
X568500Y357999D01*
Y356999D01*
Y357999D01*
X569500Y358998D01*
X570499D01*
X571499Y357999D01*
Y355999D01*
X570499Y355000D01*
X575600Y354400D02*
Y360398D01*
X578599D01*
X579599Y359398D01*
Y357399D01*
X578599Y356399D01*
X575600D01*
X577599D02*
X579599Y354400D01*
X585597Y360398D02*
X581598D01*
Y357399D01*
X583597Y358399D01*
X584597D01*
X585597Y357399D01*
Y355400D01*
X584597Y354400D01*
X582598D01*
X581598Y355400D01*
X575502Y362001D02*
Y367999D01*
X578501D01*
X579500Y366999D01*
Y365000D01*
X578501Y364000D01*
X575502D01*
X577501D02*
X579500Y362001D01*
X584499D02*
Y367999D01*
X581500Y365000D01*
X585498D01*
X575502Y346501D02*
Y352499D01*
X578501D01*
X579500Y351499D01*
Y349500D01*
X578501Y348500D01*
X575502D01*
X577501D02*
X579500Y346501D01*
X581500Y352499D02*
X585498D01*
Y351499D01*
X581500Y347501D01*
Y346501D01*
X575600Y338900D02*
Y344898D01*
X578599D01*
X579599Y343898D01*
Y341899D01*
X578599Y340899D01*
X575600D01*
X577599D02*
X579599Y338900D01*
X585597Y344898D02*
X583597Y343898D01*
X581598Y341899D01*
Y339900D01*
X582598Y338900D01*
X584597D01*
X585597Y339900D01*
Y340899D01*
X584597Y341899D01*
X581598D01*
X575502Y331501D02*
Y337499D01*
X578501D01*
X579500Y336499D01*
Y334500D01*
X578501Y333500D01*
X575502D01*
X577501D02*
X579500Y331501D01*
X581500Y336499D02*
X582499Y337499D01*
X584499D01*
X585498Y336499D01*
Y335500D01*
X584499Y334500D01*
X585498Y333500D01*
Y332501D01*
X584499Y331501D01*
X582499D01*
X581500Y332501D01*
Y333500D01*
X582499Y334500D01*
X581500Y335500D01*
Y336499D01*
X582499Y334500D02*
X584499D01*
X575600Y323900D02*
Y329898D01*
X578599D01*
X579599Y328898D01*
Y326899D01*
X578599Y325899D01*
X575600D01*
X577599D02*
X579599Y323900D01*
X581598Y324900D02*
X582598Y323900D01*
X584597D01*
X585597Y324900D01*
Y328898D01*
X584597Y329898D01*
X582598D01*
X581598Y328898D01*
Y327899D01*
X582598Y326899D01*
X585597D01*
X479001Y260501D02*
X478001Y259502D01*
Y257502D01*
X479001Y256502D01*
X482999D01*
X483999Y257502D01*
Y259502D01*
X482999Y260501D01*
X483999Y262501D02*
Y264500D01*
Y263500D01*
X478001D01*
X479001Y262501D01*
X483999Y271498D02*
Y267499D01*
X480000Y271498D01*
X479001D01*
X478001Y270498D01*
Y268498D01*
X479001Y267499D01*
X487001Y317999D02*
Y313001D01*
X488001Y312001D01*
X490000D01*
X491000Y313001D01*
Y317999D01*
X492999Y312001D02*
X494999D01*
X493999D01*
Y317999D01*
X492999Y316999D01*
X465501D02*
X464501Y317999D01*
X462502D01*
X461502Y316999D01*
Y313001D01*
X462502Y312001D01*
X464501D01*
X465501Y313001D01*
X467500Y312001D02*
X469500D01*
X468500D01*
Y317999D01*
X467500Y316999D01*
X472499D02*
X473498Y317999D01*
X475498D01*
X476498Y316999D01*
Y316000D01*
X475498Y315000D01*
X474498D01*
X475498D01*
X476498Y314000D01*
Y313001D01*
X475498Y312001D01*
X473498D01*
X472499Y313001D01*
X450001Y316999D02*
X449001Y317999D01*
X447002D01*
X446002Y316999D01*
Y313001D01*
X447002Y312001D01*
X449001D01*
X450001Y313001D01*
X452000Y312001D02*
X454000D01*
X453000D01*
Y317999D01*
X452000Y316999D01*
X456998Y312001D02*
X458998D01*
X457998D01*
Y317999D01*
X456998Y316999D01*
X439501Y292502D02*
X444499D01*
X445499Y293501D01*
Y295501D01*
X444499Y296500D01*
X439501D01*
Y302498D02*
Y298500D01*
X442500D01*
X441500Y300499D01*
Y301499D01*
X442500Y302498D01*
X444499D01*
X445499Y301499D01*
Y299499D01*
X444499Y298500D01*
X442002Y283499D02*
Y278501D01*
X443001Y277501D01*
X445001D01*
X446000Y278501D01*
Y283499D01*
X450999Y277501D02*
Y283499D01*
X448000Y280500D01*
X451998D01*
X432501Y279000D02*
Y277001D01*
Y278001D01*
X437499D01*
X438499Y277001D01*
Y276001D01*
X437499Y275002D01*
X438499Y283999D02*
X432501D01*
X435500Y281000D01*
Y284998D01*
X560502Y240001D02*
Y245999D01*
X563501D01*
X564500Y244999D01*
Y243000D01*
X563501Y242000D01*
X560502D01*
X562501D02*
X564500Y240001D01*
X570498D02*
X566500D01*
X570498Y244000D01*
Y244999D01*
X569499Y245999D01*
X567499D01*
X566500Y244999D01*
X446499Y223002D02*
X440501D01*
Y226002D01*
X441501Y227001D01*
X443500D01*
X444500Y226002D01*
Y223002D01*
Y225002D02*
X446499Y227001D01*
Y229000D02*
Y231000D01*
Y230000D01*
X440501D01*
X441501Y229000D01*
Y233999D02*
X440501Y234998D01*
Y236998D01*
X441501Y237998D01*
X442500D01*
X443500Y236998D01*
X444500Y237998D01*
X445499D01*
X446499Y236998D01*
Y234998D01*
X445499Y233999D01*
X444500D01*
X443500Y234998D01*
X442500Y233999D01*
X441501D01*
X443500Y234998D02*
Y236998D01*
X473000Y210499D02*
X471001D01*
X472001D01*
Y205501D01*
X471001Y204501D01*
X470001D01*
X469002Y205501D01*
X475000Y209499D02*
X475999Y210499D01*
X477999D01*
X478998Y209499D01*
Y208500D01*
X477999Y207500D01*
X476999D01*
X477999D01*
X478998Y206500D01*
Y205501D01*
X477999Y204501D01*
X475999D01*
X475000Y205501D01*
X474002Y254499D02*
Y248501D01*
X477001D01*
X478000Y249501D01*
Y253499D01*
X477001Y254499D01*
X474002D01*
X483998Y248501D02*
X480000D01*
X483998Y252500D01*
Y253499D01*
X482999Y254499D01*
X480999D01*
X480000Y253499D01*
X504000Y266999D02*
X503001Y267999D01*
X501001D01*
X500002Y266999D01*
Y263001D01*
X501001Y262001D01*
X503001D01*
X504000Y263001D01*
X509998Y262001D02*
X506000D01*
X509998Y266000D01*
Y266999D01*
X508999Y267999D01*
X506999D01*
X506000Y266999D01*
X520001Y258499D02*
Y252501D01*
Y254500D01*
X524000Y258499D01*
X521001Y255500D01*
X524000Y252501D01*
X525999D02*
X527999D01*
X526999D01*
Y258499D01*
X525999Y257499D01*
X504998Y237997D02*
X505998Y238997D01*
Y240996D01*
X504998Y241996D01*
X501000D01*
X500000Y240996D01*
Y238997D01*
X501000Y237997D01*
X502999D01*
Y239996D01*
X505998Y231999D02*
Y235998D01*
X502999D01*
X503999Y233998D01*
Y232999D01*
X502999Y231999D01*
X501000D01*
X500000Y232999D01*
Y234998D01*
X501000Y235998D01*
X505998Y230000D02*
X501999D01*
X500000Y228000D01*
X501999Y226001D01*
X505998D01*
X502999Y224002D02*
Y220003D01*
X500000Y218004D02*
Y216004D01*
Y217004D01*
X505998D01*
X504998Y218004D01*
X548002Y234001D02*
Y239999D01*
X551001D01*
X552000Y238999D01*
Y237000D01*
X551001Y236000D01*
X548002D01*
X550001D02*
X552000Y234001D01*
X554000Y238999D02*
X554999Y239999D01*
X556999D01*
X557998Y238999D01*
Y238000D01*
X556999Y237000D01*
X555999D01*
X556999D01*
X557998Y236000D01*
Y235001D01*
X556999Y234001D01*
X554999D01*
X554000Y235001D01*
X537501Y234001D02*
Y239999D01*
X540500D01*
X541500Y238999D01*
Y237000D01*
X540500Y236000D01*
X537501D01*
X539501D02*
X541500Y234001D01*
X543499D02*
X545499D01*
X544499D01*
Y239999D01*
X543499Y238999D01*
X533999Y235002D02*
X528001D01*
Y238001D01*
X529001Y239001D01*
X531000D01*
X532000Y238001D01*
Y235002D01*
Y237002D02*
X533999Y239001D01*
Y241001D02*
Y243000D01*
Y242000D01*
X528001D01*
X529001Y241001D01*
Y245999D02*
X528001Y246999D01*
Y248998D01*
X529001Y249998D01*
X532999D01*
X533999Y248998D01*
Y246999D01*
X532999Y245999D01*
X529001D01*
X553000Y218001D02*
Y221999D01*
X552000Y222999D01*
X550001D01*
X549001Y221999D01*
Y218001D01*
X550001Y217001D01*
X552000D01*
X551001Y219000D02*
X553000Y217001D01*
X552000D02*
X553000Y218001D01*
X554999Y217001D02*
X556999D01*
X555999D01*
Y222999D01*
X554999Y221999D01*
X467499Y353998D02*
X465499D01*
X466499D01*
Y349000D01*
X465499Y348000D01*
X464500D01*
X463500Y349000D01*
X473497Y353998D02*
X469498D01*
Y350999D01*
X471497Y351999D01*
X472497D01*
X473497Y350999D01*
Y349000D01*
X472497Y348000D01*
X470498D01*
X469498Y349000D01*
X378500Y288999D02*
X376501D01*
X377501D01*
Y284001D01*
X376501Y283001D01*
X375501D01*
X374502Y284001D01*
X384498Y288999D02*
X382499Y287999D01*
X380500Y286000D01*
Y284001D01*
X381499Y283001D01*
X383499D01*
X384498Y284001D01*
Y285000D01*
X383499Y286000D01*
X380500D01*
X583500Y315999D02*
X581501D01*
X582500D01*
Y311001D01*
X581501Y310001D01*
X580501D01*
X579501Y311001D01*
X585499Y310001D02*
X587499D01*
X586499D01*
Y315999D01*
X585499Y314999D01*
D11*
X417167Y386986D02*
X416429Y387412D01*
Y386560D01*
X417167Y386986D01*
X512492Y268883D02*
X511754Y269310D01*
Y268457D01*
X512492Y268883D01*
X538465Y220587D02*
X537726Y221013D01*
Y220160D01*
X538465Y220587D01*
D12*
X504716Y274572D02*
X504272Y275496D01*
X503273Y275724D01*
X502471Y275085D01*
Y274060D01*
X503273Y273421D01*
X504272Y273649D01*
X504716Y274572D01*
D13*
X560000Y397000D02*
X566000D01*
X560000Y385000D02*
X566000D01*
Y392000D02*
Y397000D01*
Y385000D02*
Y390000D01*
X560000Y392000D02*
Y397000D01*
Y385000D02*
Y390000D01*
X554000Y385000D02*
Y390000D01*
Y392000D02*
Y397000D01*
X560000Y385000D02*
Y390000D01*
Y392000D02*
Y397000D01*
X554000Y385000D02*
X560000D01*
X554000Y397000D02*
X560000D01*
X556500Y363000D02*
X562500D01*
X556500Y375000D02*
X562500D01*
X556500Y363000D02*
Y368000D01*
Y370000D02*
Y375000D01*
X562500Y363000D02*
Y368000D01*
Y370000D02*
Y375000D01*
X550500Y363000D02*
X556500D01*
X550500Y375000D02*
X556500D01*
X550500Y363000D02*
Y368000D01*
Y370000D02*
Y375000D01*
X556500Y363000D02*
Y368000D01*
Y370000D02*
Y375000D01*
X533500Y405500D02*
X539500D01*
X533500Y393500D02*
X539500D01*
Y400500D02*
Y405500D01*
Y393500D02*
Y398500D01*
X533500Y400500D02*
Y405500D01*
Y393500D02*
Y398500D01*
X539500Y405500D02*
X545500D01*
X539500Y393500D02*
X545500D01*
Y400500D02*
Y405500D01*
Y393500D02*
Y398500D01*
X539500Y400500D02*
Y405500D01*
Y393500D02*
Y398500D01*
X477500Y410500D02*
Y415500D01*
Y403500D02*
Y408500D01*
X471500Y410500D02*
Y415500D01*
Y403500D02*
Y408500D01*
Y415500D02*
X477500D01*
X471500Y403500D02*
X477500D01*
X483500Y410500D02*
Y415500D01*
Y403500D02*
Y408500D01*
X477500Y410500D02*
Y415500D01*
Y403500D02*
Y408500D01*
Y415500D02*
X483500D01*
X477500Y403500D02*
X483500D01*
X470000Y410500D02*
Y415500D01*
Y403500D02*
Y408500D01*
X464000Y410500D02*
Y415500D01*
Y403500D02*
Y408500D01*
Y415500D02*
X470000D01*
X464000Y403500D02*
X470000D01*
X462000Y398000D02*
X468000D01*
X462000Y386000D02*
X468000D01*
Y393000D02*
Y398000D01*
Y386000D02*
Y391000D01*
X462000Y393000D02*
Y398000D01*
Y386000D02*
Y391000D01*
X456000Y398000D02*
X462000D01*
X456000Y386000D02*
X462000D01*
Y393000D02*
Y398000D01*
Y386000D02*
Y391000D01*
X456000Y393000D02*
Y398000D01*
Y386000D02*
Y391000D01*
X422000Y368500D02*
X428000D01*
X422000Y380500D02*
X428000D01*
X422000Y368500D02*
Y373500D01*
Y375500D02*
Y380500D01*
X428000Y368500D02*
Y373500D01*
Y375500D02*
Y380500D01*
X420624Y389500D02*
X425624D01*
X413624D02*
X418624D01*
X420624Y395500D02*
X425624D01*
X413624D02*
X418624D01*
X425624Y389500D02*
Y395500D01*
X413624Y389500D02*
Y395500D01*
Y401500D02*
X418624D01*
X420624D02*
X425624D01*
X413624Y395500D02*
X418624D01*
X420624D02*
X425624D01*
X413624D02*
Y401500D01*
X425624Y395500D02*
Y401500D01*
X496000Y353500D02*
Y358500D01*
Y346500D02*
Y351500D01*
X490000Y353500D02*
Y358500D01*
Y346500D02*
Y351500D01*
Y358500D02*
X496000D01*
X490000Y346500D02*
X496000D01*
X490000Y353500D02*
Y358500D01*
Y346500D02*
Y351500D01*
X484000Y353500D02*
Y358500D01*
Y346500D02*
Y351500D01*
Y358500D02*
X490000D01*
X484000Y346500D02*
X490000D01*
X500500Y335000D02*
X505500D01*
X493500D02*
X498500D01*
X500500Y341000D02*
X505500D01*
X493500D02*
X498500D01*
X505500Y335000D02*
Y341000D01*
X493500Y335000D02*
Y341000D01*
X500500Y329000D02*
X505500D01*
X493500D02*
X498500D01*
X500500Y335000D02*
X505500D01*
X493500D02*
X498500D01*
X505500Y329000D02*
Y335000D01*
X493500Y329000D02*
Y335000D01*
X532500Y344500D02*
X537500D01*
X539500D02*
X544500D01*
X532500Y338500D02*
X537500D01*
X539500D02*
X544500D01*
X532500D02*
Y344500D01*
X544500Y338500D02*
Y344500D01*
X532500Y338500D02*
X537500D01*
X539500D02*
X544500D01*
X532500Y332500D02*
X537500D01*
X539500D02*
X544500D01*
X532500D02*
Y338500D01*
X544500Y332500D02*
Y338500D01*
X527000Y298500D02*
X532000D01*
X520000D02*
X525000D01*
X527000Y304500D02*
X532000D01*
X520000D02*
X525000D01*
X532000Y298500D02*
Y304500D01*
X520000Y298500D02*
Y304500D01*
Y310500D02*
X525000D01*
X527000D02*
X532000D01*
X520000Y304500D02*
X525000D01*
X527000D02*
X532000D01*
X520000D02*
Y310500D01*
X532000Y304500D02*
Y310500D01*
X527000Y289000D02*
X532000D01*
X520000D02*
X525000D01*
X527000Y295000D02*
X532000D01*
X520000D02*
X525000D01*
X532000Y289000D02*
Y295000D01*
X520000Y289000D02*
Y295000D01*
Y289000D02*
X525000D01*
X527000D02*
X532000D01*
X520000Y283000D02*
X525000D01*
X527000D02*
X532000D01*
X520000D02*
Y289000D01*
X532000Y283000D02*
Y289000D01*
X520000Y280000D02*
X525000D01*
X527000D02*
X532000D01*
X520000Y274000D02*
X525000D01*
X527000D02*
X532000D01*
X520000D02*
Y280000D01*
X532000Y274000D02*
Y280000D01*
X527000Y268000D02*
X532000D01*
X520000D02*
X525000D01*
X527000Y274000D02*
X532000D01*
X520000D02*
X525000D01*
X532000Y268000D02*
Y274000D01*
X520000Y268000D02*
Y274000D01*
X469500Y268000D02*
X475500D01*
X469500Y256000D02*
X475500D01*
Y263000D02*
Y268000D01*
Y256000D02*
Y261000D01*
X469500Y263000D02*
Y268000D01*
Y256000D02*
Y261000D01*
X463500Y304000D02*
Y310000D01*
X475500Y304000D02*
Y310000D01*
X463500D02*
X468500D01*
X470500D02*
X475500D01*
X463500Y304000D02*
X468500D01*
X470500D02*
X475500D01*
X447000Y310000D02*
X452000D01*
X454000D02*
X459000D01*
X447000Y304000D02*
X452000D01*
X454000D02*
X459000D01*
X447000D02*
Y310000D01*
X459000Y304000D02*
Y310000D01*
X554000Y254000D02*
X559000D01*
X561000D02*
X566000D01*
X554000Y248000D02*
X559000D01*
X561000D02*
X566000D01*
X554000D02*
Y254000D01*
X566000Y248000D02*
Y254000D01*
X462500Y239000D02*
Y246000D01*
Y226000D02*
Y233000D01*
X449500Y239000D02*
Y246000D01*
Y226000D02*
Y233000D01*
Y246000D02*
X462500D01*
X449500Y226000D02*
X462500D01*
X470500Y239000D02*
X472500D01*
X476500Y241500D02*
Y245000D01*
X474500D02*
X476500D01*
X466500Y241500D02*
Y245000D01*
X468500D01*
X498000Y261500D02*
Y267500D01*
X486000Y261500D02*
Y267500D01*
X493000Y261500D02*
X498000D01*
X486000D02*
X491000D01*
X493000Y267500D02*
X498000D01*
X486000D02*
X491000D01*
X545500Y254000D02*
X551500D01*
X545500Y242000D02*
X551500D01*
Y249000D02*
Y254000D01*
Y242000D02*
Y247000D01*
X545500Y249000D02*
Y254000D01*
Y242000D02*
Y247000D01*
X537500Y254000D02*
X543500D01*
X537500Y242000D02*
X543500D01*
Y249000D02*
Y254000D01*
Y242000D02*
Y247000D01*
X537500Y249000D02*
Y254000D01*
Y242000D02*
Y247000D01*
X526000Y242124D02*
Y247124D01*
Y235124D02*
Y240124D01*
X520000Y242124D02*
Y247124D01*
Y235124D02*
Y240124D01*
Y247124D02*
X526000D01*
X520000Y235124D02*
X526000D01*
X530908Y361390D02*
X531575Y360723D01*
X532907D01*
X533574Y361390D01*
Y362056D01*
X532907Y362722D01*
X531575D01*
X530908Y363389D01*
Y364055D01*
X531575Y364722D01*
X532907D01*
X533574Y364055D01*
X529575Y360723D02*
X526909D01*
X528242D01*
Y364722D01*
X525577D02*
Y360723D01*
X524244Y362056D01*
X522911Y360723D01*
Y364722D01*
X521578Y361390D02*
X520911Y360723D01*
X519579D01*
X518912Y361390D01*
Y362056D01*
X519579Y362722D01*
X520245D01*
X519579D01*
X518912Y363389D01*
Y364055D01*
X519579Y364722D01*
X520911D01*
X521578Y364055D01*
X514913Y364722D02*
X517579D01*
X514913Y362056D01*
Y361390D01*
X515580Y360723D01*
X516913D01*
X517579Y361390D01*
X530908Y367442D02*
X533574D01*
Y369441D01*
X532241D01*
X533574D01*
Y371440D01*
X529575Y368108D02*
X528909Y367442D01*
X527576D01*
X526909Y368108D01*
Y370774D01*
X527576Y371440D01*
X528909D01*
X529575Y370774D01*
Y368108D01*
X523577Y371440D02*
Y367442D01*
X525577Y369441D01*
X522911D01*
X518912Y371440D02*
X521578D01*
X518912Y368775D01*
Y368108D01*
X519579Y367442D01*
X520911D01*
X521578Y368108D01*
X530908Y374827D02*
X531575Y374160D01*
X532907D01*
X533574Y374827D01*
Y377492D01*
X532907Y378159D01*
X531575D01*
X530908Y377492D01*
X526909Y374160D02*
X528242Y374827D01*
X529575Y376159D01*
Y377492D01*
X528909Y378159D01*
X527576D01*
X526909Y377492D01*
Y376826D01*
X527576Y376159D01*
X529575D01*
D14*
X532937Y356004D02*
X537405Y360472D01*
X512878Y356004D02*
X532937D01*
X512878D02*
Y380532D01*
X537405D01*
Y360472D02*
Y380532D01*
X495500Y401000D02*
Y431000D01*
X485500D02*
X495500D01*
X485500Y401000D02*
Y431000D01*
Y401000D02*
X495500D01*
X444103Y368951D02*
Y373951D01*
X441603Y371451D02*
X444103Y373951D01*
X441603Y371451D02*
X444103Y368951D01*
X441603D02*
Y373951D01*
X433945Y376421D02*
Y377406D01*
X452055Y376421D02*
Y377406D01*
X433945Y365595D02*
Y366579D01*
X452055Y365595D02*
Y366579D01*
X433945Y377406D02*
X452055D01*
X433945Y365595D02*
X452055D01*
X419628Y370933D02*
Y381956D01*
X406242Y370933D02*
Y381956D01*
X507472Y270635D02*
Y309612D01*
X495268Y270635D02*
Y309612D01*
Y270635D02*
X507472D01*
X495268Y309612D02*
X507472D01*
X524549Y217603D02*
X529549D01*
X524549D02*
X527049Y215103D01*
X529549Y217603D01*
X524549Y215103D02*
X529549D01*
X521095Y207445D02*
X522079D01*
X521095Y225555D02*
X522079D01*
X531921Y207445D02*
X532905D01*
X531921Y225555D02*
X532905D01*
X521095Y207445D02*
Y225555D01*
X532905Y207445D02*
Y225555D01*
X545256Y207594D02*
Y210744D01*
X541319Y207594D02*
X545256D01*
Y216256D02*
Y219406D01*
X541319D02*
X545256D01*
M02*
