G04*
G04 #@! TF.GenerationSoftware,Altium Limited,Altium Designer,20.1.12 (249)*
G04*
G04 Layer_Color=16711935*
%FSLAX25Y25*%
%MOIN*%
G70*
G04*
G04 #@! TF.SameCoordinates,CD40AE63-01C5-41B5-9579-828B942A7482*
G04*
G04*
G04 #@! TF.FilePolarity,Negative*
G04*
G01*
G75*
%ADD35C,0.11811*%
%ADD36C,0.04800*%
%ADD37R,0.06706X0.06706*%
%ADD38C,0.06706*%
%ADD39C,0.07800*%
%ADD40C,0.06800*%
%ADD41C,0.08800*%
%ADD42C,0.13811*%
%ADD43C,0.20472*%
D35*
X580000Y246500D02*
D03*
X381500Y394000D02*
D03*
D36*
X524000Y418000D02*
D03*
Y423000D02*
D03*
X529000D02*
D03*
Y418000D02*
D03*
X534000D02*
D03*
Y423000D02*
D03*
X519000D02*
D03*
Y418000D02*
D03*
X514000D02*
D03*
Y423000D02*
D03*
D37*
X490500Y406000D02*
D03*
D38*
Y416000D02*
D03*
Y426000D02*
D03*
D39*
X439000Y258000D02*
D03*
Y268000D02*
D03*
X475000Y229000D02*
D03*
Y219000D02*
D03*
X468500Y339000D02*
D03*
Y329000D02*
D03*
D40*
X493000Y209000D02*
D03*
X513000D02*
D03*
X493000Y239000D02*
D03*
X513000D02*
D03*
X493000Y249000D02*
D03*
X513000D02*
D03*
D41*
X543180Y282594D02*
D03*
Y294405D02*
D03*
X554999Y282594D02*
D03*
Y294405D02*
D03*
Y306216D02*
D03*
X543180D02*
D03*
X554999Y270783D02*
D03*
X543180D02*
D03*
X406000Y278811D02*
D03*
X417819D02*
D03*
Y267000D02*
D03*
Y255189D02*
D03*
X406000Y267000D02*
D03*
Y255189D02*
D03*
D42*
X571999Y297751D02*
D03*
Y279247D02*
D03*
X389000Y267000D02*
D03*
D43*
X570866Y216535D02*
D03*
Y413386D02*
D03*
X390035Y216535D02*
D03*
Y413386D02*
D03*
M02*
