M48
;Layer_Color=9474304
;FILE_FORMAT=2:5
INCH,TZ
;TYPE=PLATED
T1F00S00C0.01575
T2F00S00C0.02500
T3F00S00C0.03000
T4F00S00C0.03543
T5F00S00C0.04000
T6F00S00C0.11811
;TYPE=NON_PLATED
T7F00S00C0.12598
%
T01
X482500Y264500
X482575Y278000
X483000Y284000
X478500Y309000
X532000Y264500
X521500Y252500
X425500Y263500
X459000Y357500
Y361500
Y365500
Y369500
Y373000
X462500
Y369000
Y365000
Y361000
X457500Y423000
X482062Y394090
X503000Y388500
X518698Y394302
X514313Y405813
X527500Y403000
X555500Y402000
X545500Y390000
X549500Y377500
X547500Y367500
X557500Y340500
X529000Y319500
X497000Y317500
X498500Y360000
X480000Y360500
T02
X514000Y418000
X519000
X524000
Y423000
X529000
Y418000
X534000
Y423000
X519000
X514000
T03
X493000Y209000
X513000
Y239000
Y249000
X493000
Y239000
T04
X490500Y406000
Y416000
Y426000
T05
X475000Y219000
Y229000
X543180Y270783
Y282594
Y294405
Y306216
X554999
Y294405
Y282594
Y270783
X439000Y268000
Y258000
X417819Y255189
Y267000
Y278811
X406000
Y267000
Y255189
X468500Y329000
Y339000
T06
X571999Y279247
Y297751
X389000Y267000
T07
X570866Y216535
X390035
Y413386
X570866
M30
