G04*
G04 #@! TF.GenerationSoftware,Altium Limited,Altium Designer,20.1.12 (249)*
G04*
G04 Layer_Color=8388736*
%FSLAX25Y25*%
%MOIN*%
G70*
G04*
G04 #@! TF.SameCoordinates,CD40AE63-01C5-41B5-9579-828B942A7482*
G04*
G04*
G04 #@! TF.FilePolarity,Negative*
G04*
G01*
G75*
%ADD15C,0.09708*%
%ADD16R,0.04800X0.03800*%
%ADD17R,0.07800X0.04300*%
%ADD18R,0.01981X0.05524*%
%ADD19R,0.05524X0.01981*%
%ADD20R,0.04300X0.04300*%
%ADD21R,0.10642X0.07493*%
%ADD22R,0.03800X0.04800*%
%ADD23R,0.23241X0.07887*%
G04:AMPARAMS|DCode=24|XSize=73.01mil|YSize=24.1mil|CornerRadius=12.05mil|HoleSize=0mil|Usage=FLASHONLY|Rotation=270.000|XOffset=0mil|YOffset=0mil|HoleType=Round|Shape=RoundedRectangle|*
%AMROUNDEDRECTD24*
21,1,0.07301,0.00000,0,0,270.0*
21,1,0.04891,0.02410,0,0,270.0*
1,1,0.02410,0.00000,-0.02445*
1,1,0.02410,0.00000,0.02445*
1,1,0.02410,0.00000,0.02445*
1,1,0.02410,0.00000,-0.02445*
%
%ADD24ROUNDEDRECTD24*%
%ADD25R,0.02410X0.07301*%
%ADD26R,0.05600X0.05100*%
%ADD27R,0.06706X0.03950*%
%ADD28R,0.06902X0.03162*%
%ADD29R,0.03162X0.06902*%
%ADD30R,0.11824X0.05918*%
%ADD31R,0.03950X0.04343*%
%ADD32R,0.07493X0.10642*%
%ADD33R,0.04343X0.03162*%
%ADD34C,0.05300*%
%ADD35C,0.11811*%
%ADD36C,0.04800*%
%ADD37R,0.06706X0.06706*%
%ADD38C,0.06706*%
%ADD39C,0.07800*%
%ADD40C,0.06800*%
%ADD41C,0.08800*%
%ADD42C,0.13811*%
%ADD43C,0.20472*%
G36*
X414651Y352250D02*
X414707Y352240D01*
X414761Y352225D01*
X414813Y352203D01*
X414862Y352176D01*
X414908Y352144D01*
X414949Y352106D01*
X414987Y352064D01*
X415019Y352019D01*
X415046Y351970D01*
X415068Y351918D01*
X415084Y351864D01*
X415093Y351808D01*
X415096Y351752D01*
Y347922D01*
X419320D01*
X419376Y347919D01*
X419431Y347910D01*
X419485Y347894D01*
X419537Y347873D01*
X419586Y347846D01*
X419632Y347813D01*
X419674Y347776D01*
X419711Y347734D01*
X419744Y347688D01*
X419771Y347639D01*
X419792Y347587D01*
X419808Y347533D01*
X419817Y347478D01*
X419820Y347422D01*
Y337579D01*
X419817Y337523D01*
X419808Y337468D01*
X419792Y337414D01*
X419771Y337362D01*
X419744Y337313D01*
X419711Y337267D01*
X419674Y337225D01*
X419632Y337188D01*
X419586Y337155D01*
X419537Y337128D01*
X419485Y337106D01*
X419431Y337091D01*
X419376Y337081D01*
X419320Y337078D01*
X415096D01*
Y333248D01*
X415093Y333192D01*
X415084Y333137D01*
X415068Y333083D01*
X415046Y333031D01*
X415019Y332982D01*
X414987Y332936D01*
X414949Y332894D01*
X414908Y332857D01*
X414862Y332824D01*
X414813Y332797D01*
X414761Y332776D01*
X414707Y332760D01*
X414651Y332751D01*
X414595Y332748D01*
X409477D01*
X409421Y332751D01*
X409366Y332760D01*
X409312Y332776D01*
X409260Y332797D01*
X409211Y332824D01*
X409165Y332857D01*
X409123Y332894D01*
X409086Y332936D01*
X409053Y332982D01*
X409026Y333031D01*
X409004Y333083D01*
X408989Y333137D01*
X408980Y333192D01*
X408976Y333248D01*
X408976Y336499D01*
X400500Y336499D01*
X400444Y336502D01*
X400389Y336512D01*
X400335Y336527D01*
X400283Y336549D01*
X400234Y336576D01*
X400188Y336609D01*
X400146Y336646D01*
X400108Y336688D01*
X400076Y336734D01*
X400049Y336783D01*
X400027Y336835D01*
X400012Y336889D01*
X400002Y336944D01*
X399999Y337000D01*
X399999Y348000D01*
X400002Y348056D01*
X400012Y348112D01*
X400027Y348165D01*
X400049Y348217D01*
X400076Y348267D01*
X400108Y348312D01*
X400146Y348354D01*
X400188Y348392D01*
X400234Y348424D01*
X400283Y348451D01*
X400335Y348473D01*
X400389Y348488D01*
X400444Y348498D01*
X400500Y348501D01*
X408976Y348501D01*
X408976Y351752D01*
X408980Y351808D01*
X408989Y351864D01*
X409004Y351918D01*
X409026Y351970D01*
X409053Y352019D01*
X409086Y352064D01*
X409123Y352106D01*
X409165Y352144D01*
X409211Y352176D01*
X409260Y352203D01*
X409312Y352225D01*
X409366Y352240D01*
X409421Y352250D01*
X409477Y352253D01*
X414595D01*
X414651Y352250D01*
D02*
G37*
G36*
X444573D02*
X444628Y352240D01*
X444682Y352225D01*
X444734Y352203D01*
X444783Y352176D01*
X444829Y352144D01*
X444871Y352106D01*
X444908Y352064D01*
X444941Y352019D01*
X444968Y351970D01*
X444989Y351918D01*
X445005Y351864D01*
X445014Y351808D01*
X445017Y351752D01*
X445017Y348501D01*
X453500Y348501D01*
X453556Y348498D01*
X453611Y348488D01*
X453665Y348473D01*
X453717Y348451D01*
X453766Y348424D01*
X453812Y348392D01*
X453854Y348354D01*
X453892Y348312D01*
X453924Y348267D01*
X453951Y348217D01*
X453973Y348165D01*
X453988Y348112D01*
X453998Y348056D01*
X454001Y348000D01*
X454001Y337000D01*
X453998Y336944D01*
X453988Y336889D01*
X453973Y336835D01*
X453951Y336783D01*
X453924Y336734D01*
X453892Y336688D01*
X453854Y336646D01*
X453812Y336609D01*
X453766Y336576D01*
X453717Y336549D01*
X453665Y336527D01*
X453611Y336512D01*
X453556Y336502D01*
X453500Y336499D01*
X445017Y336499D01*
X445017Y333248D01*
X445014Y333192D01*
X445005Y333137D01*
X444989Y333083D01*
X444968Y333031D01*
X444941Y332982D01*
X444908Y332936D01*
X444871Y332894D01*
X444829Y332857D01*
X444783Y332824D01*
X444734Y332797D01*
X444682Y332776D01*
X444628Y332760D01*
X444573Y332751D01*
X444517Y332748D01*
X439398D01*
X439342Y332751D01*
X439287Y332760D01*
X439233Y332776D01*
X439181Y332797D01*
X439132Y332824D01*
X439086Y332857D01*
X439044Y332894D01*
X439007Y332936D01*
X438974Y332982D01*
X438947Y333031D01*
X438926Y333083D01*
X438910Y333137D01*
X438901Y333192D01*
X438898Y333248D01*
Y337078D01*
X434674D01*
X434618Y337081D01*
X434562Y337091D01*
X434509Y337106D01*
X434457Y337128D01*
X434408Y337155D01*
X434362Y337188D01*
X434320Y337225D01*
X434282Y337267D01*
X434250Y337313D01*
X434223Y337362D01*
X434201Y337414D01*
X434186Y337468D01*
X434176Y337523D01*
X434173Y337579D01*
Y347422D01*
X434176Y347478D01*
X434186Y347533D01*
X434201Y347587D01*
X434223Y347639D01*
X434250Y347688D01*
X434282Y347734D01*
X434320Y347776D01*
X434362Y347813D01*
X434408Y347846D01*
X434457Y347873D01*
X434509Y347894D01*
X434562Y347910D01*
X434618Y347919D01*
X434674Y347922D01*
X438898D01*
Y351752D01*
X438901Y351808D01*
X438910Y351864D01*
X438926Y351918D01*
X438947Y351970D01*
X438974Y352019D01*
X439007Y352064D01*
X439044Y352106D01*
X439086Y352144D01*
X439132Y352176D01*
X439181Y352203D01*
X439233Y352225D01*
X439287Y352240D01*
X439342Y352250D01*
X439398Y352253D01*
X444517D01*
X444573Y352250D01*
D02*
G37*
D15*
X412282Y342549D02*
D03*
X441711D02*
D03*
D16*
X563000Y387876D02*
D03*
Y394124D02*
D03*
X557000D02*
D03*
Y387876D02*
D03*
X559500Y372124D02*
D03*
Y365876D02*
D03*
X553500Y372124D02*
D03*
Y365876D02*
D03*
X536500Y396376D02*
D03*
Y402624D02*
D03*
X542500Y396376D02*
D03*
Y402624D02*
D03*
X474500Y406376D02*
D03*
Y412624D02*
D03*
X480500Y406376D02*
D03*
Y412624D02*
D03*
X467000Y406376D02*
D03*
Y412624D02*
D03*
X465000Y388876D02*
D03*
Y395124D02*
D03*
X459000Y388876D02*
D03*
Y395124D02*
D03*
X425000Y377624D02*
D03*
Y371376D02*
D03*
X493000Y349376D02*
D03*
Y355624D02*
D03*
X487000Y349376D02*
D03*
Y355624D02*
D03*
X472500Y258876D02*
D03*
Y265124D02*
D03*
X548500Y244876D02*
D03*
Y251124D02*
D03*
X540500Y244876D02*
D03*
Y251124D02*
D03*
X523000Y238000D02*
D03*
Y244247D02*
D03*
D17*
X573500Y376732D02*
D03*
Y393268D02*
D03*
D18*
X535968Y351536D02*
D03*
X534000D02*
D03*
X532031D02*
D03*
X530063D02*
D03*
X528094D02*
D03*
X526126D02*
D03*
X524157D02*
D03*
X522189D02*
D03*
X520221D02*
D03*
X518252D02*
D03*
X516284D02*
D03*
X514315D02*
D03*
Y385000D02*
D03*
X516284D02*
D03*
X518252D02*
D03*
X520221D02*
D03*
X522189D02*
D03*
X524157D02*
D03*
X526126D02*
D03*
X528094D02*
D03*
X530063D02*
D03*
X532031D02*
D03*
X534000D02*
D03*
X535968D02*
D03*
D19*
X508410Y357441D02*
D03*
Y359409D02*
D03*
Y361378D02*
D03*
Y363347D02*
D03*
Y365315D02*
D03*
Y367284D02*
D03*
Y369252D02*
D03*
Y371220D02*
D03*
Y373189D02*
D03*
Y375157D02*
D03*
Y377126D02*
D03*
Y379095D02*
D03*
X541874D02*
D03*
Y377126D02*
D03*
Y375157D02*
D03*
Y373189D02*
D03*
Y371220D02*
D03*
Y369252D02*
D03*
Y367284D02*
D03*
Y365315D02*
D03*
Y363347D02*
D03*
Y361378D02*
D03*
Y359409D02*
D03*
Y357441D02*
D03*
D20*
X467000Y419500D02*
D03*
Y425500D02*
D03*
X479500D02*
D03*
Y419500D02*
D03*
X473000Y425500D02*
D03*
Y419500D02*
D03*
X489000Y337000D02*
D03*
Y331000D02*
D03*
X483500Y337000D02*
D03*
Y331000D02*
D03*
D21*
X435126Y371500D02*
D03*
X450874D02*
D03*
D22*
X416500Y392500D02*
D03*
X422747D02*
D03*
Y398500D02*
D03*
X416500D02*
D03*
X496376Y338000D02*
D03*
X502624D02*
D03*
X496376Y332000D02*
D03*
X502624D02*
D03*
X541624Y341500D02*
D03*
X535376D02*
D03*
X541624Y335500D02*
D03*
X535376D02*
D03*
X522876Y301500D02*
D03*
X529124D02*
D03*
Y307500D02*
D03*
X522876D02*
D03*
Y292000D02*
D03*
X529124D02*
D03*
Y286000D02*
D03*
X522876D02*
D03*
X529124Y277000D02*
D03*
X522876D02*
D03*
Y271000D02*
D03*
X529124D02*
D03*
X472624Y307000D02*
D03*
X466376D02*
D03*
X456124D02*
D03*
X449876D02*
D03*
X563124Y251000D02*
D03*
X556876D02*
D03*
X488876Y264500D02*
D03*
X495124D02*
D03*
D23*
X441500Y383500D02*
D03*
Y405000D02*
D03*
D24*
X416675Y371916D02*
D03*
X412935D02*
D03*
X409195D02*
D03*
Y380973D02*
D03*
X412935D02*
D03*
D25*
X416675D02*
D03*
D26*
X552760Y348366D02*
D03*
Y356634D02*
D03*
X560240Y348366D02*
D03*
Y356634D02*
D03*
D27*
X512000Y272624D02*
D03*
Y277624D02*
D03*
Y282624D02*
D03*
Y287624D02*
D03*
Y292624D02*
D03*
Y297624D02*
D03*
Y302624D02*
D03*
Y307624D02*
D03*
X490740Y272624D02*
D03*
Y277624D02*
D03*
Y282624D02*
D03*
Y287624D02*
D03*
Y292624D02*
D03*
Y297624D02*
D03*
Y302624D02*
D03*
Y307624D02*
D03*
D28*
X451868Y300000D02*
D03*
Y295000D02*
D03*
Y290000D02*
D03*
Y285000D02*
D03*
X473128Y300000D02*
D03*
Y295000D02*
D03*
Y290000D02*
D03*
Y285000D02*
D03*
D29*
X464993Y273628D02*
D03*
X459993D02*
D03*
X454993D02*
D03*
X449993D02*
D03*
X464993Y252368D02*
D03*
X459993D02*
D03*
X454993D02*
D03*
X449993D02*
D03*
D30*
X456000Y229601D02*
D03*
Y242399D02*
D03*
D31*
X471500Y245937D02*
D03*
X467760Y238063D02*
D03*
X475240D02*
D03*
D32*
X527000Y208626D02*
D03*
Y224374D02*
D03*
D33*
X547028Y213500D02*
D03*
X537972Y209760D02*
D03*
Y217240D02*
D03*
D34*
X483500Y379500D02*
D03*
Y366500D02*
D03*
X440500Y243500D02*
D03*
X457500Y217500D02*
D03*
X408500Y393500D02*
D03*
X421000Y407500D02*
D03*
D35*
X580000Y246500D02*
D03*
X381500Y394000D02*
D03*
D36*
X524000Y418000D02*
D03*
Y423000D02*
D03*
X529000D02*
D03*
Y418000D02*
D03*
X534000D02*
D03*
Y423000D02*
D03*
X519000D02*
D03*
Y418000D02*
D03*
X514000D02*
D03*
Y423000D02*
D03*
D37*
X490500Y406000D02*
D03*
D38*
Y416000D02*
D03*
Y426000D02*
D03*
D39*
X439000Y258000D02*
D03*
Y268000D02*
D03*
X475000Y229000D02*
D03*
Y219000D02*
D03*
X468500Y339000D02*
D03*
Y329000D02*
D03*
D40*
X493000Y209000D02*
D03*
X513000D02*
D03*
X493000Y239000D02*
D03*
X513000D02*
D03*
X493000Y249000D02*
D03*
X513000D02*
D03*
D41*
X543180Y282594D02*
D03*
Y294405D02*
D03*
X554999Y282594D02*
D03*
Y294405D02*
D03*
Y306216D02*
D03*
X543180D02*
D03*
X554999Y270783D02*
D03*
X543180D02*
D03*
X406000Y278811D02*
D03*
X417819D02*
D03*
Y267000D02*
D03*
Y255189D02*
D03*
X406000Y267000D02*
D03*
Y255189D02*
D03*
D42*
X571999Y297751D02*
D03*
Y279247D02*
D03*
X389000Y267000D02*
D03*
D43*
X570866Y216535D02*
D03*
Y413386D02*
D03*
X390035Y216535D02*
D03*
Y413386D02*
D03*
M02*
