**ABCDEFGHIJKLMNOPQRSTUVWXYZabcdefghijklmnopqrstuvwxyz**************************
**PARASOLID !"#$%&'()*+,-./:;<=>?@[\]^_`{|}~0123456789**************************
**PART1;
OSMC1.0   MC=x86;
MC_MODEL=x86 Family 15 Model 4 Stepping 3, GenuineIntel;
MC_ID=unknown;
OS=Windows_NT;
OS_RELEASE=unknown;
FRU=Parasolid Version 13.0, build 242, 11-21-2001;
APPL=SolidWorks 2001Plus-2002025;
SITE=;
USER=unknown;
FORMAT=text;
GUISE=transmit;
KEY=G5V_1;
FILE=G5V_1.x_t;
DATE=Wed Jun 25 15:25:45 2014;
**PART2;
SCH=SCH_1300242_13006;
USFLD_SIZE=0;
**PART3;
**END_OF_HEADER*****************************************************************
T51 : TRANSMIT FILE created by modeller version 130024217 SCH_1100000_110040 12
 1 1605 0 2 0 0 0 0 1e3 1e-8 0 3 0 1 0 1 1 4 5 6 7 8 9 10 70 2 0 1 0 0 4 1 20 4
 11 11 1 T13 4 90 0 1 0 12 0 0 13 0 50 5 89 0 14 15 0 0 +-.00107 .01 -.00629 1 0
 2312964634635745e-31 2312964634635745e-31 0 -1 31 6 1286 0 9 16 0 0 -2999999999
999855e-20 .0095 -.00529 0 -1 0 0 0 -1 5e-4 29 7 1138 0 10 17 0 .00108 .01 -.005
09 19 8 24 0 1 13 0 18 V16 9 1283 0 ?19 0 20 6 0 0 1 18 10 1136 0 21 0 22 7 ?1 1
7 21 0 23 24 25 10 26 27 0 28 +18 22 1017 0 29 10 30 17 ?1 17 29 0 31 32 33 22 3
4 35 0 36 +18 30 914 0 37 22 38 39 ?1 29 17 1019 0 22 39 7 -27e-5 .01 61e-5 29 3
9 916 0 30 40 17 .00239 5e-4 -.00533 29 40 912 0 38 41 39 .00239 5e-4 -.00483 18
 38 910 0 42 30 43 40 ?1 29 41 905 0 43 44 40 .00269 5e-4 -.00533 18 43 903 0 45
 38 46 41 ?1 29 44 824 0 46 47 41 .01001 5e-4 -.00533 18 46 822 0 48 43 49 44 ?1
 29 47 820 0 49 50 44 .01001 5e-4 -.00483 18 49 818 0 51 46 52 47 ?1 29 50 813 0
 52 53 47 .01031 5e-4 -.00533 18 52 811 0 54 49 55 50 ?1 29 53 732 0 55 56 50 .0
1001 5e-4 25e-5 18 55 730 0 57 52 58 53 ?1 29 56 728 0 58 59 53 .01031 5e-4 25e-
5 18 58 726 0 60 55 61 56 ?1 29 59 721 0 61 62 56 .01001 5e-4 -25e-5 18 61 719 0
 63 58 64 59 ?1 29 62 640 0 64 65 59 .00239 5e-4 25e-5 18 64 638 0 66 61 67 62 ?
1 29 65 636 0 67 68 62 .00269 5e-4 25e-5 18 67 634 0 69 64 70 65 ?1 29 68 629 0
 70 71 65 .00239 5e-4 -25e-5 18 70 627 0 72 67 73 68 ?1 29 71 533 0 73 74 68 -25
e-5 5e-4 -.00493 18 73 531 0 75 70 76 71 ?1 29 74 529 0 76 77 71 25e-5 5e-4 -.00
493 18 76 527 0 78 73 79 74 ?1 29 77 522 0 79 80 74 -25e-5 5e-4 -.00523 18 79 52
0 0 81 76 82 77 ?1 29 80 426 0 82 83 77 -25e-5 5e-4 15e-5 18 82 424 0 84 79 85 8
0 ?1 29 83 422 0 85 86 80 25e-5 5e-4 15e-5 18 85 420 0 87 82 88 83 ?1 29 86 415
 0 88 89 83 -25e-5 5e-4 -15e-5 18 88 413 0 90 85 91 86 ?1 29 89 339 0 91 92 86 .
00811397459621556 5e-4 -.00629 18 91 337 0 93 88 94 89 ?1 29 92 271 0 94 95 89 .
00224602540378444 5e-4 -.00594 18 94 269 0 96 91 97 92 ?1 29 95 268 0 97 98 92 .
000513974596215563 5e-4 -.00629 18 97 266 0 99 94 100 95 ?1 29 98 265 0 100 101
 95 .00224602540378444 5e-4 -.00629 18 100 263 0 102 97 103 98 ?1 29 101 189 0 1
03 104 98 .00984602540378444 5e-4 .00121 18 103 187 0 105 100 106 101 ?1 29 104
 119 0 106 107 101 .00224602540378444 5e-4 .00121 18 106 117 0 108 103 109 104 ?
1 29 107 21 0 109 110 104 .01143 .01 -.00629 18 109 20 0 111 106 112 107 ?1 29 1
10 19 0 112 113 107 .01143 .01 .00121 18 112 18 0 114 109 115 110 ?1 29 113 17 0
 115 116 110 -.00107 .01 .00121 18 115 16 0 117 112 118 113 ?1 29 116 66 0 118 1
19 113 -.00107 5e-4 -.00629 18 118 57 0 120 115 121 116 ?1 29 119 67 0 121 122 1
16 .01143 5e-4 -.00629 18 121 58 0 123 118 124 119 ?1 29 122 68 0 124 125 119 .0
1143 5e-4 .00121 18 124 59 0 126 121 127 122 ?1 29 125 69 0 127 128 122 -.00107
 5e-4 .00121 18 127 60 0 129 124 130 125 ?1 29 128 178 0 130 131 125 .0005139745
96215563 5e-4 86e-5 18 130 148 0 132 127 133 128 ?1 29 131 179 0 133 134 128 .00
224602540378444 5e-4 86e-5 18 133 150 0 135 130 136 131 ?1 29 134 180 0 136 137
 131 .000513974596215563 5e-4 .00121 18 136 151 0 138 133 139 134 ?1 29 137 249
 0 139 140 134 .00811397459621556 5e-4 86e-5 18 139 219 0 141 136 142 137 ?1 29
 140 250 0 142 143 137 .00984602540378444 5e-4 86e-5 18 142 221 0 144 139 145 14
0 ?1 29 143 251 0 145 146 140 .00811397459621556 5e-4 .00121 18 145 222 0 147 14
2 148 143 ?1 29 146 329 0 148 149 143 .000513974596215563 5e-4 -.00594 18 148 30
0 0 150 145 151 146 ?1 29 149 398 0 151 152 146 .00984602540378444 5e-4 -.00594
 18 151 369 0 153 148 154 149 ?1 29 152 399 0 154 155 149 .00811397459621556 5e-
4 -.00594 18 154 370 0 156 151 157 152 ?1 29 155 400 0 157 158 152 .009846025403
78444 5e-4 -.00629 18 157 371 0 159 154 160 155 ?1 29 158 507 0 160 161 155 25e-
5 5e-4 -15e-5 18 160 459 0 162 157 163 158 ?1 29 161 508 0 163 164 158 -25e-5 -.
0035 -15e-5 18 163 456 0 165 160 166 161 ?1 29 164 509 0 166 167 161 25e-5 -.003
5 -15e-5 18 166 460 0 168 163 169 164 ?1 29 167 510 0 169 170 164 25e-5 -.0035 1
5e-5 18 169 458 0 171 166 172 167 ?1 29 170 511 0 172 173 167 -25e-5 -.0035 15e-
5 18 172 455 0 174 169 175 170 ?1 29 173 614 0 175 176 170 25e-5 5e-4 -.00523 18
 175 566 0 177 172 178 173 ?1 29 176 615 0 178 179 173 -25e-5 -.0035 -.00523 18
 178 563 0 180 175 181 176 ?1 29 179 616 0 181 182 176 25e-5 -.0035 -.00523 18 1
81 567 0 183 178 184 179 ?1 29 182 617 0 184 185 179 25e-5 -.0035 -.00493 18 184
 565 0 186 181 187 182 ?1 29 185 618 0 187 188 182 -25e-5 -.0035 -.00493 18 187
 562 0 189 184 190 185 ?1 29 188 713 0 190 191 185 .00269 5e-4 -25e-5 18 190 665
 0 192 187 193 188 ?1 29 191 714 0 194 195 188 .00239 -.0035 25e-5 18 194 661 0
 196 193 197 191 ?1 29 195 715 0 198 199 191 .00269 -.0035 -25e-5 18 198 666 0 2
00 197 201 195 ?1 29 199 716 0 193 202 195 .00239 -.0035 -25e-5 18 193 662 0 203
 190 194 199 ?1 29 202 717 0 197 204 199 .00269 -.0035 25e-5 18 197 664 0 205 19
4 198 202 ?1 29 204 805 0 201 206 202 .01031 5e-4 -25e-5 18 201 757 0 207 198 20
8 204 ?1 29 206 806 0 208 209 204 .01001 -.0035 25e-5 18 208 753 0 210 201 211 2
06 ?1 29 209 807 0 212 213 206 .01031 -.0035 -25e-5 18 212 758 0 214 211 215 209
 ?1 29 213 808 0 215 216 209 .01001 -.0035 -25e-5 18 215 754 0 217 212 218 213 ?
1 29 216 809 0 211 219 213 .01031 -.0035 25e-5 18 211 756 0 220 208 212 216 ?1 2
9 219 897 0 218 221 216 .01031 5e-4 -.00483 18 218 849 0 222 215 223 219 ?1 29 2
21 898 0 223 224 219 .01001 -.0035 -.00533 18 223 845 0 225 218 226 221 ?1 29 22
4 899 0 227 228 221 .01031 -.0035 -.00483 18 227 850 0 229 226 230 224 ?1 29 228
 900 0 230 231 224 .01031 -.0035 -.00533 18 230 846 0 232 227 233 228 ?1 29 231
 901 0 226 234 228 .01001 -.0035 -.00483 18 226 848 0 235 223 227 231 ?1 29 234
 989 0 233 236 231 .00269 5e-4 -.00483 18 233 941 0 237 230 238 234 ?1 29 236 99
0 0 238 239 234 .00239 -.0035 -.00533 18 238 938 0 240 233 241 236 ?1 29 239 991
 0 242 243 236 .00269 -.0035 -.00483 18 242 942 0 244 241 245 239 ?1 29 243 992
 0 245 246 239 .00269 -.0035 -.00533 18 245 936 0 247 242 248 243 ?1 29 246 993
 0 241 249 243 .00239 -.0035 -.00483 18 241 940 0 250 238 242 246 ?1 29 249 1116
 0 248 251 246 -27e-5 .0099 -.00319 18 248 1066 0 252 245 253 249 ?1 29 251 1117
 0 253 254 249 53e-5 .0099 -.00319 18 253 1068 0 255 248 256 251 ?1 29 254 1118
 0 256 257 251 53e-5 .0099 61e-5 18 256 1070 0 258 253 259 254 ?1 29 257 1119 0
 259 260 254 -27e-5 .0099 61e-5 18 259 1072 0 32 256 261 257 ?1 29 260 1120 0 26
1 262 257 -27e-5 .01 -.00319 18 261 1069 0 33 259 263 260 ?1 29 262 1121 0 263 2
64 260 53e-5 .01 -.00319 18 263 1071 0 265 261 266 262 ?1 29 264 1122 0 266 267
 262 53e-5 .01 61e-5 18 266 1073 0 268 263 269 264 ?1 29 267 1268 0 269 270 264
 799999999999981e-19 .0095 -.00409 18 269 1208 0 271 266 272 267 ?1 29 270 1269
 0 272 273 267 -.00107 .0095 -.00409 18 272 1210 0 274 269 275 270 ?1 29 273 127
0 0 275 276 270 -.00107 .0095 -.00629 18 275 1212 0 277 272 278 273 ?1 29 276 12
71 0 278 279 273 .00108 .0095 -.00629 18 278 1214 0 280 275 281 276 ?1 29 279 12
72 0 281 282 276 .00108 .0095 -.00509 18 281 1216 0 24 278 283 279 ?1 29 282 127
3 0 283 284 279 799999999999981e-19 .01 -.00409 18 283 1211 0 25 281 285 282 ?1
 29 284 1274 0 285 286 282 -.00107 .01 -.00409 18 285 1213 0 287 283 288 284 ?1
 29 286 1276 0 288 0 284 .00108 .01 -.00629 18 288 1217 0 289 285 0 286 ?1 17 28
9 0 290 280 28 288 291 292 0 293 +15 290 1237 0 289 294 0 17 280 0 290 295 289 2
78 293 296 0 297 -17 28 0 290 289 295 10 24 298 0 291 +17 291 0 299 26 300 10 28
9 292 0 0 -16 292 1196 0 ?289 301 27 302 0 0 1 17 293 0 303 304 305 288 280 296
 0 300 +15 303 74 0 305 306 0 17 304 0 303 307 293 109 300 308 0 0 -17 305 0 303
 293 309 278 277 310 0 0 -16 296 1192 0 ?293 311 298 312 0 0 1 17 300 0 299 291
 111 288 304 308 0 0 +15 299 1145 0 313 314 315 17 111 0 299 300 114 109 316 317
 0 318 +16 308 13 0 ?300 319 317 320 0 0 1 16 319 1150 0 ?120 321 308 322 0 0 1
 16 317 10 0 ?111 308 323 324 0 0 1 30 320 14 0 308 324 322 0 +-.00107 .01 -.006
29 -1 0 0 30 324 11 0 317 325 320 0 +.01143 .01 -.00629 -2312964634635745e-31 0
 -1 30 322 82 0 319 320 326 0 +-.00107 .01 -.00629 0 -1 0 30 326 83 0 321 322 32
7 0 +.01143 .01 -.00629 0 -1 0 16 321 71 0 ?307 328 319 326 0 0 1 30 327 84 0 32
8 326 16 0 +.01143 .01 .00121 0 -1 0 16 328 72 0 ?329 20 321 327 0 0 1 30 16 85
 0 20 327 6 0 +-.00107 .01 .00121 0 -1 0 16 20 73 0 ?330 9 328 16 0 0 1 17 330 0
 331 332 333 127 334 20 0 335 +15 331 78 0 332 336 0 17 332 0 331 108 330 136 12
9 337 0 0 +17 333 0 331 330 338 115 114 323 0 334 -17 334 0 339 340 335 115 330
 20 0 0 -17 335 0 339 334 120 127 341 342 0 0 +15 339 80 0 340 14 0 17 120 0 339
 335 343 118 309 319 0 344 +17 341 0 345 99 129 118 335 342 0 0 -16 342 53 0 ?33
5 346 347 348 0 0 1 16 346 188 0 ?126 349 342 350 349 337 1 16 347 141 0 ?351 34
2 352 353 0 0 1 30 348 65 0 342 354 350 0 +-.00107 5e-4 -.00629 -231296463463574
5e-31 0 1 30 354 172 0 352 353 348 0 +.00224602540378444 5e-4 86e-5 0 0 1 30 350
 64 0 337 348 355 0 +-.00107 5e-4 .00121 1 0 0 16 337 49 0 ?332 356 349 350 346
 349 1 30 355 63 0 356 350 357 0 +.01143 5e-4 -.00629 -2312964634635745e-31 0 -1
 16 356 45 0 ?123 358 337 355 0 0 1 30 357 62 0 359 355 360 0 +-.00107 5e-4 -.00
629 -1 0 0 16 359 41 0 ?361 362 363 357 363 358 1 30 360 5 0 362 357 325 0 +-.00
107 .01 -.00629 -2312964634635745e-31 0 1 16 362 1131 0 ?117 323 359 360 0 0 1 3
0 325 8 0 323 360 324 0 +-.00107 .01 .00121 1 0 0 16 323 7 0 ?114 317 362 325 0
 0 1 17 114 0 299 111 117 112 333 323 0 338 +17 117 0 299 114 313 115 340 362 0
 333 +17 338 0 331 333 126 112 329 328 0 316 -17 126 0 331 338 105 124 364 346 0
 329 +17 329 0 365 123 316 124 338 328 0 366 +17 316 0 365 329 318 112 111 317 0
 0 -15 365 76 0 123 367 0 17 318 0 365 316 123 109 307 321 0 304 -17 123 0 365 3
18 329 121 366 356 0 307 +17 307 0 303 361 304 121 318 321 0 368 +17 361 0 303 9
3 307 157 368 359 0 0 +17 368 0 345 366 369 121 361 359 0 0 -15 345 349 0 369 37
0 371 17 366 0 345 364 368 124 123 356 0 0 -17 369 0 345 368 372 157 373 374 0 3
61 +17 372 0 345 369 375 151 156 376 0 0 -17 373 0 377 378 159 151 369 374 0 372
 -16 374 361 0 ?369 379 380 381 0 0 1 16 379 284 0 ?382 383 374 384 0 0 1 16 380
 357 0 ?385 374 376 386 0 0 1 30 381 393 0 374 387 386 0 +.00984602540378444 5e-
4 -.00594 0 0 -1 30 387 394 0 376 388 381 0 +.00984602540378444 5e-4 -.00594 -1
 0 0 30 386 392 0 380 381 384 0 +.00811397459621556 5e-4 -.00594 0 0 -1 31 384 3
27 0 379 386 389 0 +.00138 .001 -.00629 0 0 1 1 0 0 .001 31 389 325 0 383 384 39
0 0 +.00138 .001 -.00594 0 0 1 1 0 0 .001 16 383 292 0 ?391 392 379 389 0 0 1 30
 390 324 0 392 389 393 0 +.000513974596215563 5e-4 -.00594 -1 0 0 16 392 295 0 ?
394 395 383 390 0 0 1 30 393 323 0 396 390 397 0 +.00224602540378444 5e-4 -.0059
4 0 0 -1 16 396 291 0 ?398 399 395 393 0 0 1 30 397 322 0 395 393 400 0 +.000513
974596215563 5e-4 -.00594 0 0 -1 16 395 287 0 ?401 396 392 397 0 0 1 31 400 248
 0 399 397 402 0 +.00898 .001 .00121 0 0 1 -1 0 0 .001 16 399 213 0 ?105 403 396
 400 0 0 1 31 402 246 0 403 400 404 0 +.00898 .001 86e-5 0 0 1 -1 0 0 .001 16 40
3 205 0 ?144 405 399 402 0 0 1 30 404 245 0 405 402 406 0 +.00984602540378444 5e
-4 86e-5 -1 0 0 16 405 209 0 ?407 408 403 404 0 0 1 30 406 244 0 409 404 410 0 +
.00811397459621556 5e-4 86e-5 0 0 1 16 409 212 0 ?411 412 408 406 0 0 1 30 410 2
43 0 408 406 413 0 +.00984602540378444 5e-4 86e-5 0 0 1 16 408 208 0 ?414 409 40
5 410 0 0 1 31 413 177 0 412 410 415 0 +.00138 .001 .00121 0 0 1 1 0 0 .001 16 4
12 142 0 ?108 416 409 413 0 0 1 31 415 175 0 416 413 417 0 +.00138 .001 86e-5 0
 0 1 1 0 0 .001 16 416 134 0 ?135 418 412 415 0 0 1 30 417 174 0 418 415 353 0 +
.000513974596215563 5e-4 86e-5 -1 0 0 16 418 138 0 ?419 352 416 417 0 0 1 30 353
 173 0 347 417 354 0 +.000513974596215563 5e-4 86e-5 0 0 1 17 419 0 345 351 420
 130 421 418 0 0 +16 352 137 0 ?422 347 418 354 0 0 1 17 422 0 423 138 135 106 4
20 352 0 424 +15 423 155 0 138 425 0 17 138 0 423 132 422 136 108 412 0 351 -17
 135 0 423 422 132 133 426 416 0 421 +17 420 0 345 419 424 133 422 352 0 0 -17 4
24 0 345 420 411 106 427 349 0 0 -17 411 0 345 424 407 145 141 409 0 427 +17 427
 0 331 105 108 145 424 349 0 0 +16 349 118 0 ?427 337 346 350 337 346 1 17 105 0
 331 126 427 103 147 399 0 414 +17 108 0 331 427 332 106 138 412 0 422 +17 147 0
 428 141 414 145 105 399 0 411 -17 414 0 428 147 144 103 429 408 0 364 +15 428 2
26 0 147 430 0 17 144 0 428 414 141 142 431 403 0 432 +17 429 0 345 407 364 142
 414 408 0 0 -17 364 0 345 429 366 103 126 346 0 0 -17 407 0 345 411 429 139 432
 405 0 0 +17 432 0 433 431 431 142 407 405 0 429 -15 433 233 0 431 434 0 17 431
 0 433 432 432 139 144 403 0 407 -14 434 231 435 ?436 430 433 4 437 +0 0 436 430
 18 81 1 435 1331 438 434 0 0 439 440 441 14 436 302 440 ?442 434 443 4 444 -0 0
 442 434 18 14 430 223 439 ?434 445 428 4 446 +0 0 434 445 18 50 437 241 0 434 4
44 446 0 +.00898 .001 86e-5 0 0 -1 -1 0 0 13 18 25 0 0 0 0 0 0 8 12 14 12 1287 4
47 ?370 0 448 4 449 -0 0 370 0 18 81 1 447 1321 438 12 0 0 0 450 451 14 370 921
 450 ?14 12 452 4 453 -0 0 14 12 18 15 448 1240 0 454 12 455 50 449 1251 0 12 45
6 457 0 +799999999999983e-19 .0095 -.00509 0 -1 0 0 0 -1 51 456 1309 0 458 459 4
49 0 -2999999999999855e-20 .01 -.00529 0 -1 0 5e-4 0 0 -1 50 457 1250 0 460 449
 461 0 +-.00107 .0095 -.00409 0 0 1 1 0 0 14 460 1222 462 ?294 463 464 4 457 -0
 0 294 463 18 50 461 1247 0 294 457 465 0 +.00108 .0095 -.00629 1 0 0 0 0 -1 14
 294 1234 466 ?458 460 290 4 461 -0 0 458 460 18 51 465 1246 0 463 461 467 0 +79
9999999999983e-19 .0095 -.00509 0 1 0 .001 0 0 1 14 463 1218 468 ?460 469 23 4 4
65 -0 0 460 469 18 50 467 1102 0 469 465 470 0 +-27e-5 .0099 61e-5 0 1 0 0 0 1 1
4 469 1090 471 ?463 472 473 4 467 +0 0 463 472 18 50 470 1101 0 474 467 475 0 +-
27e-5 .0099 -.00319 0 0 -1 -1 0 0 14 474 1078 476 ?477 478 479 4 470 -0 0 477 47
8 18 50 475 1100 0 477 470 480 0 +53e-5 .0099 -.00319 1 0 0 0 0 -1 14 477 1082 4
81 ?472 474 482 4 475 -0 0 472 474 18 50 480 1099 0 472 475 483 0 +-27e-5 .0099
 61e-5 0 0 1 1 0 0 14 472 1086 484 ?469 477 485 4 480 -0 0 469 477 18 50 483 109
8 0 478 480 486 0 +-27e-5 .0099 -.00319 -1 0 142658180590198e-31 142658180590198
e-31 0 1 14 478 1074 487 ?474 488 31 4 483 -0 0 474 488 18 50 486 973 0 488 483
 489 0 +-25e-5 -.0035 -15e-5 0 -1 0 0 0 -1 14 488 963 490 ?478 491 492 4 486 +0
 0 478 491 18 50 489 972 0 491 486 493 0 +.00269 .00108309518948453 -.00533 -1 0
 0 0 0 1 14 491 956 494 ?488 495 496 4 489 -0 0 488 495 18 50 493 971 0 495 489
 497 0 +.00239 .00108309518948453 -.00483 0 0 -1 -1 0 0 14 495 952 498 ?491 499
 500 4 493 -0 0 491 499 18 50 497 970 0 499 493 501 0 +.00239 .00108309518948453
 -.00533 1 0 0 0 0 -1 14 499 948 502 ?495 503 504 4 497 -0 0 495 503 18 50 501 9
69 0 503 497 505 0 +.00239 .00108309518948453 -.00533 0 0 1 1 0 0 14 503 944 506
 ?499 507 508 4 501 -0 0 499 507 18 50 505 881 0 507 501 509 0 +-25e-5 -.0035 -1
5e-5 0 -1 0 0 0 -1 14 507 871 510 ?503 511 512 4 505 +0 0 503 511 18 50 509 880
 0 511 505 513 0 +.01031 .00108309518948453 -.00533 -1 0 0 0 0 1 14 511 864 514
 ?507 515 516 4 509 -0 0 507 515 18 50 513 879 0 515 509 517 0 +.01001 .00108309
518948453 -.00483 0 0 -1 -1 0 0 14 515 860 518 ?511 519 520 4 513 -0 0 511 519 1
8 50 517 878 0 519 513 521 0 +.01001 .00108309518948453 -.00533 0 0 1 1 0 0 14 5
19 856 522 ?515 523 524 4 517 -0 0 515 523 18 50 521 877 0 523 517 525 0 +.01001
 .00108309518948453 -.00533 1 0 0 0 0 -1 14 523 852 526 ?519 527 528 4 521 -0 0
 519 527 18 50 525 789 0 527 521 529 0 +-25e-5 -.0035 -15e-5 0 -1 0 0 0 -1 14 52
7 779 530 ?523 531 532 4 525 +0 0 523 531 18 50 529 788 0 531 525 533 0 +.01001
 .00108309518948453 -25e-5 0 0 1 1 0 0 14 531 772 534 ?527 535 536 4 529 -0 0 52
7 535 18 50 533 787 0 535 529 537 0 +.01031 .00108309518948453 25e-5 -1 0 0 0 0
 1 14 535 768 538 ?531 539 540 4 533 -0 0 531 539 18 50 537 786 0 539 533 541 0
 +.01001 .00108309518948453 25e-5 1 0 0 0 0 -1 14 539 764 542 ?535 543 544 4 537
 -0 0 535 543 18 50 541 785 0 543 537 545 0 +.01001 .00108309518948453 25e-5 0 0
 -1 -1 0 0 14 543 760 546 ?539 547 548 4 541 -0 0 539 547 18 50 545 697 0 547 54
1 549 0 +-25e-5 -.0035 -15e-5 0 -1 0 0 0 -1 14 547 687 550 ?543 551 552 4 545 +0
 0 543 551 18 50 549 696 0 551 545 553 0 +.00239 .00108309518948453 -25e-5 0 0 1
 1 0 0 14 551 680 554 ?547 555 556 4 549 -0 0 547 555 18 50 553 695 0 555 549 55
7 0 +.00269 .00108309518948453 25e-5 -1 0 0 0 0 1 14 555 676 558 ?551 559 560 4
 553 -0 0 551 559 18 50 557 694 0 559 553 561 0 +.00239 .00108309518948453 25e-5
 1 0 0 0 0 -1 14 559 672 562 ?555 563 564 4 557 -0 0 555 563 18 50 561 693 0 563
 557 565 0 +.00239 .00108309518948453 25e-5 0 0 -1 -1 0 0 14 563 668 566 ?559 56
7 568 4 561 -0 0 559 567 18 50 565 598 0 567 561 569 0 +-25e-5 -.0035 -.00523 0
 -1 0 0 0 -1 14 567 588 570 ?563 571 572 4 565 +0 0 563 571 18 50 569 597 0 571
 565 573 0 +-25e-5 .00108309518948453 -.00523 0 0 1 1 0 0 14 571 581 574 ?567 57
5 576 4 569 -0 0 567 575 18 50 573 596 0 575 569 577 0 +25e-5 .00108309518948453
 -.00493 -1 0 0 0 0 1 14 575 577 578 ?571 579 580 4 573 -0 0 571 579 18 50 577 5
95 0 579 573 581 0 +-25e-5 .00108309518948453 -.00493 1 0 0 0 0 -1 14 579 573 58
2 ?575 583 584 4 577 -0 0 575 583 18 50 581 594 0 583 577 585 0 +-25e-5 .0010830
9518948453 -.00493 0 0 -1 -1 0 0 14 583 569 586 ?579 587 588 4 581 -0 0 579 587
 18 50 585 491 0 587 581 589 0 +-25e-5 -.0035 -15e-5 0 -1 0 0 0 -1 14 587 481 59
0 ?583 591 592 4 585 +0 0 583 591 18 50 589 490 0 591 585 593 0 +-25e-5 .0010830
9518948453 -15e-5 0 0 1 1 0 0 14 591 474 594 ?587 595 596 4 589 -0 0 587 595 18
 50 593 489 0 595 589 597 0 +25e-5 .00108309518948453 15e-5 -1 0 0 0 0 1 14 595
 470 598 ?591 599 600 4 593 -0 0 591 599 18 50 597 488 0 599 593 601 0 +-25e-5 .
00108309518948453 15e-5 1 0 0 0 0 -1 14 599 466 602 ?595 603 604 4 597 -0 0 595
 603 18 50 601 487 0 603 597 605 0 +-25e-5 .00108309518948453 15e-5 0 0 -1 -1 0
 0 14 603 462 606 ?599 607 608 4 601 -0 0 599 607 18 50 605 390 0 607 601 609 0
 +.00898 .001 -.00594 0 0 1 -1 0 0 14 607 380 610 ?603 611 612 4 605 +0 0 603 61
1 18 51 609 388 0 611 605 613 0 -.00898 .001 -.00594 0 0 -1 .001 -1 0 0 14 611 3
72 614 ?607 442 377 4 609 -0 0 607 442 18 50 613 320 0 442 609 444 0 +.00138 .00
1 -.00594 0 0 -1 1 0 0 14 442 310 615 ?611 436 616 4 613 -0 0 611 436 18 51 444
 318 0 436 613 437 0 -.00138 .001 -.00594 0 0 -1 .001 -1 0 0 81 1 615 1333 438 4
42 0 0 440 614 617 15 616 312 0 391 442 0 17 391 0 616 394 394 94 618 383 0 619
 +17 394 0 616 391 391 148 96 392 0 618 +17 618 0 443 401 619 148 391 383 0 0 -1
7 619 0 443 618 382 94 398 396 0 0 -15 443 305 0 382 436 0 17 382 0 443 619 401
 100 620 379 0 0 +17 398 0 345 621 96 100 619 396 0 382 +17 621 0 345 375 398 91
 102 363 0 0 -17 96 0 345 398 150 94 394 392 0 391 -17 150 0 345 96 99 148 401 3
95 0 394 -17 99 0 345 150 341 97 344 358 0 401 -17 401 0 443 382 618 97 150 395
 0 620 +17 620 0 303 344 102 97 382 379 0 0 -17 344 0 303 309 620 118 99 358 0 3
41 +17 102 0 303 620 93 100 621 363 0 398 +17 93 0 303 102 361 91 159 622 0 385
 -16 363 338 0 ?102 359 358 357 358 359 1 16 358 267 0 ?344 363 356 357 359 363
 1 17 159 0 377 373 385 157 93 622 0 369 +16 622 354 0 ?159 623 624 625 0 0 1 17
 385 0 377 159 378 91 375 380 0 621 +15 377 375 0 159 611 0 17 378 0 377 385 373
 154 153 623 0 375 -17 375 0 345 372 621 154 385 380 0 0 -17 153 0 612 156 156 1
51 378 623 0 373 +16 623 362 0 ?153 376 622 388 0 0 1 16 376 365 0 ?156 380 623
 387 0 0 1 31 388 395 0 623 625 387 0 +.00898 .001 -.00594 0 0 1 -1 0 0 .001 31
 625 397 0 622 626 388 0 +.00898 .001 -.00629 0 0 1 -1 0 0 .001 30 626 492 0 627
 628 625 0 +-25e-5 .00108309518948453 -15e-5 0 -1 0 16 627 438 0 ?165 629 630 62
6 0 0 1 30 628 493 0 631 632 626 0 +25e-5 .00108309518948453 -15e-5 0 -1 0 16 63
1 446 0 ?168 633 629 628 0 0 1 30 632 494 0 629 634 628 0 +25e-5 .00108309518948
453 15e-5 0 -1 0 16 629 442 0 ?171 631 627 632 0 0 1 30 634 495 0 630 635 632 0
 +-25e-5 .00108309518948453 15e-5 0 -1 0 16 630 434 0 ?174 627 636 634 0 0 1 30
 635 496 0 624 637 634 0 +-25e-5 5e-4 -15e-5 -1 0 0 16 624 453 0 ?90 622 638 635
 0 0 1 30 637 497 0 633 639 635 0 +-25e-5 5e-4 15e-5 0 0 1 16 633 450 0 ?84 640
 631 637 0 0 1 30 639 498 0 640 641 637 0 +-25e-5 5e-4 15e-5 1 0 0 16 640 451 0
 ?87 638 633 639 0 0 1 30 641 499 0 638 642 639 0 +25e-5 5e-4 15e-5 0 0 -1 16 63
8 452 0 ?162 624 640 641 0 0 1 30 642 500 0 636 643 641 0 +-25e-5 -.0035 -15e-5
 -1 0 0 16 636 447 0 ?644 630 645 642 0 0 1 30 643 501 0 645 646 642 0 +25e-5 -.
0035 15e-5 0 0 -1 16 645 443 0 ?647 636 648 643 0 0 1 30 646 502 0 648 649 643 0
 +-25e-5 -.0035 15e-5 1 0 0 16 648 435 0 ?650 645 651 646 0 0 1 30 649 503 0 651
 652 646 0 +-25e-5 -.0035 15e-5 0 0 1 16 651 439 0 ?653 648 654 649 0 0 1 30 652
 599 0 655 656 649 0 +-25e-5 .00108309518948453 -.00523 0 -1 0 16 655 545 0 ?180
 657 658 652 0 0 1 30 656 600 0 659 660 652 0 +25e-5 .00108309518948453 -.00523
 0 -1 0 16 659 553 0 ?183 661 657 656 0 0 1 30 660 601 0 657 662 656 0 +25e-5 .0
0108309518948453 -.00493 0 -1 0 16 657 549 0 ?186 659 655 660 0 0 1 30 662 602 0
 658 663 660 0 +-25e-5 .00108309518948453 -.00493 0 -1 0 16 658 541 0 ?189 655 6
64 662 0 0 1 30 663 603 0 654 665 662 0 +-25e-5 5e-4 -.00523 -1 0 0 16 654 560 0
 ?81 651 666 663 0 0 1 30 665 604 0 661 667 663 0 +-25e-5 5e-4 -.00493 0 0 1 16
 661 557 0 ?75 668 659 665 0 0 1 30 667 605 0 668 669 665 0 +-25e-5 5e-4 -.00493
 1 0 0 16 668 558 0 ?78 666 661 667 0 0 1 30 669 606 0 666 670 667 0 +25e-5 5e-4
 -.00493 0 0 -1 16 666 559 0 ?177 654 668 669 0 0 1 30 670 607 0 664 671 669 0 +
-25e-5 -.0035 -.00523 -1 0 0 16 664 554 0 ?672 658 673 670 0 0 1 30 671 608 0 67
3 674 670 0 +25e-5 -.0035 -.00493 0 0 -1 16 673 550 0 ?675 664 676 671 0 0 1 30
 674 609 0 676 677 671 0 +-25e-5 -.0035 -.00493 1 0 0 16 676 542 0 ?678 673 679
 674 0 0 1 30 677 610 0 679 680 674 0 +-25e-5 -.0035 -.00493 0 0 1 16 679 546 0
 ?681 676 682 677 0 0 1 30 680 698 0 683 684 677 0 +.00239 .00108309518948453 -2
5e-5 0 -1 0 16 683 650 0 ?203 685 686 680 0 0 1 30 684 699 0 687 688 680 0 +.002
69 .00108309518948453 -25e-5 0 -1 0 16 687 654 0 ?200 689 685 684 0 0 1 30 688 7
00 0 685 690 684 0 +.00269 .00108309518948453 25e-5 0 -1 0 16 685 652 0 ?205 687
 683 688 0 0 1 30 690 701 0 686 691 688 0 +.00239 .00108309518948453 25e-5 0 -1
 0 16 686 648 0 ?196 683 692 690 0 0 1 30 691 702 0 682 693 690 0 +.00239 5e-4 -
25e-5 -1 0 0 16 682 659 0 ?72 679 694 691 0 0 1 30 693 703 0 689 695 691 0 +.002
39 5e-4 25e-5 0 0 1 16 689 656 0 ?66 696 687 693 0 0 1 30 695 704 0 696 697 693
 0 +.00239 5e-4 25e-5 1 0 0 16 696 657 0 ?69 694 689 695 0 0 1 30 697 705 0 694
 698 695 0 +.00269 5e-4 25e-5 0 0 -1 16 694 658 0 ?192 682 696 697 0 0 1 30 698
 706 0 699 700 697 0 +.00269 -.0035 25e-5 0 0 -1 16 699 653 0 ?701 702 703 698 0
 0 1 30 700 707 0 702 704 698 0 +.00239 -.0035 25e-5 0 0 1 16 702 651 0 ?705 692
 699 700 0 0 1 30 704 708 0 692 706 700 0 +.00239 -.0035 -25e-5 -1 0 0 16 692 65
5 0 ?707 686 702 704 0 0 1 30 706 709 0 703 708 704 0 +.00239 -.0035 25e-5 1 0 0
 16 703 649 0 ?709 699 710 706 0 0 1 30 708 790 0 711 712 706 0 +.01001 .0010830
9518948453 -25e-5 0 -1 0 16 711 742 0 ?217 713 714 708 0 0 1 30 712 791 0 715 71
6 708 0 +.01031 .00108309518948453 -25e-5 0 -1 0 16 715 746 0 ?214 717 713 712 0
 0 1 30 716 792 0 713 718 712 0 +.01031 .00108309518948453 25e-5 0 -1 0 16 713 7
44 0 ?220 715 711 716 0 0 1 30 718 793 0 714 719 716 0 +.01001 .0010830951894845
3 25e-5 0 -1 0 16 714 740 0 ?210 711 720 718 0 0 1 30 719 794 0 710 721 718 0 +.
01001 5e-4 -25e-5 -1 0 0 16 710 751 0 ?63 703 722 719 0 0 1 30 721 795 0 717 723
 719 0 +.01001 5e-4 25e-5 0 0 1 16 717 748 0 ?57 724 715 721 0 0 1 30 723 796 0
 724 725 721 0 +.01001 5e-4 25e-5 1 0 0 16 724 749 0 ?60 722 717 723 0 0 1 30 72
5 797 0 722 726 723 0 +.01031 5e-4 25e-5 0 0 -1 16 722 750 0 ?207 710 724 725 0
 0 1 30 726 798 0 727 728 725 0 +.01031 -.0035 25e-5 0 0 -1 16 727 745 0 ?729 73
0 731 726 0 0 1 30 728 799 0 730 732 726 0 +.01001 -.0035 -25e-5 -1 0 0 16 730 7
47 0 ?733 720 727 728 0 0 1 30 732 800 0 720 734 728 0 +.01001 -.0035 25e-5 0 0
 1 16 720 743 0 ?735 714 730 732 0 0 1 30 734 801 0 731 736 732 0 +.01001 -.0035
 25e-5 1 0 0 16 731 741 0 ?737 727 738 734 0 0 1 30 736 882 0 739 740 734 0 +.01
031 .00108309518948453 -.00533 0 -1 0 16 739 834 0 ?232 741 742 736 0 0 1 30 740
 883 0 743 744 736 0 +.01031 .00108309518948453 -.00483 0 -1 0 16 743 838 0 ?229
 745 741 740 0 0 1 30 744 884 0 741 746 740 0 +.01001 .00108309518948453 -.00483
 0 -1 0 16 741 836 0 ?235 743 739 744 0 0 1 30 746 885 0 742 747 744 0 +.01001 .
00108309518948453 -.00533 0 -1 0 16 742 832 0 ?225 739 748 746 0 0 1 30 747 886
 0 738 749 746 0 +.01031 5e-4 -.00533 0 0 -1 16 738 843 0 ?54 731 750 747 0 0 1
 30 749 887 0 745 751 747 0 +.01001 5e-4 -.00533 -1 0 0 16 745 840 0 ?48 752 743
 749 0 0 1 30 751 888 0 752 753 749 0 +.01001 5e-4 -.00533 0 0 1 16 752 841 0 ?5
1 750 745 751 0 0 1 30 753 889 0 750 754 751 0 +.01001 5e-4 -.00483 1 0 0 16 750
 842 0 ?222 738 752 753 0 0 1 30 754 890 0 755 756 753 0 +.01001 -.0035 -.00483
 1 0 0 16 755 837 0 ?757 758 759 754 0 0 1 30 756 891 0 758 760 754 0 +.01031 -.
0035 -.00533 0 0 -1 16 758 839 0 ?761 748 755 756 0 0 1 30 760 892 0 748 762 756
 0 +.01001 -.0035 -.00533 -1 0 0 16 748 835 0 ?763 742 758 760 0 0 1 30 762 893
 0 759 764 760 0 +.01001 -.0035 -.00533 0 0 1 16 759 833 0 ?765 755 766 762 0 0
 1 30 764 974 0 767 768 762 0 +.00269 .00108309518948453 -.00533 0 -1 0 16 767 9
24 0 ?247 769 770 764 0 0 1 30 768 975 0 771 772 764 0 +.00269 .0010830951894845
3 -.00483 0 -1 0 16 771 930 0 ?244 773 774 768 0 0 1 30 772 976 0 774 775 768 0
 +.00239 .00108309518948453 -.00483 0 -1 0 16 774 928 0 ?250 771 769 772 0 0 1 3
0 775 977 0 769 776 772 0 +.00239 .00108309518948453 -.00533 0 -1 0 16 769 926 0
 ?240 774 767 775 0 0 1 30 776 978 0 773 777 775 0 +.00269 5e-4 -.00533 0 0 -1 1
6 773 932 0 ?45 778 771 776 0 0 1 30 777 979 0 778 779 776 0 +.00239 5e-4 -.0053
3 -1 0 0 16 778 933 0 ?37 780 773 777 0 0 1 30 779 980 0 780 781 777 0 +.00239 5
e-4 -.00533 0 0 1 16 780 934 0 ?42 766 778 779 0 0 1 30 781 981 0 766 782 779 0
 +.00239 5e-4 -.00483 1 0 0 16 766 935 0 ?237 759 780 781 0 0 1 30 782 982 0 783
 784 781 0 +.00239 -.0035 -.00483 1 0 0 16 783 929 0 ?785 786 787 782 0 0 1 30 7
84 983 0 786 788 782 0 +.00269 -.0035 -.00533 0 0 -1 16 786 931 0 ?789 770 783 7
84 0 0 1 30 788 984 0 770 790 784 0 +.00239 -.0035 -.00533 -1 0 0 16 770 925 0 ?
791 767 786 788 0 0 1 30 790 985 0 787 792 788 0 +.00239 -.0035 -.00533 0 0 1 16
 787 927 0 ?793 783 794 790 0 0 1 30 792 1104 0 795 796 790 0 +-27e-5 .0099 61e-
5 0 1 0 16 795 1041 0 ?36 797 798 792 0 0 1 30 796 1105 0 797 799 792 0 +53e-5 .
0099 61e-5 0 1 0 16 797 1053 0 ?268 800 795 796 0 0 1 30 799 1106 0 800 801 796
 0 +53e-5 .0099 -.00319 0 1 0 16 800 1049 0 ?265 794 797 799 0 0 1 30 801 1107 0
 794 802 799 0 +-27e-5 .0099 -.00319 0 1 0 16 794 1045 0 ?33 787 800 801 0 0 1 3
0 802 1108 0 798 803 801 0 +-27e-5 .0099 -.00319 -1 0 0 16 798 1042 0 ?804 795 8
05 802 0 0 1 30 803 1109 0 805 806 802 0 +53e-5 .0099 -.00319 0 0 -1 16 805 1046
 0 ?807 798 808 803 0 0 1 30 806 1110 0 808 809 803 0 +-27e-5 .0099 61e-5 1 0 0
 16 808 1050 0 ?810 805 811 806 0 0 1 30 809 1111 0 811 812 806 0 +-27e-5 .0099
 -.00319 142658180590198e-31 0 1 16 811 1038 0 ?813 808 814 809 0 0 1 30 812 111
2 0 814 815 809 0 +-27e-5 .01 -.00319 -1 0 0 16 814 1063 0 ?816 811 817 812 0 0
 1 30 815 1113 0 817 818 812 0 +53e-5 .01 -.00319 0 0 -1 16 817 1060 0 ?819 814
 820 815 0 0 1 30 818 1114 0 820 821 815 0 +-27e-5 .01 61e-5 1 0 0 16 820 1057 0
 ?822 817 35 818 0 0 1 30 821 1115 0 35 823 818 0 +-27e-5 .01 -.00319 1426581805
90198e-31 0 1 16 35 1054 0 ?29 820 824 821 0 0 1 30 823 1253 0 298 312 821 0 +.0
0108 .0095 -.00509 0 1 0 16 298 1176 0 ?28 296 825 823 0 0 1 30 312 1254 0 296 8
26 823 0 +.00108 .0095 -.00629 0 1 0 30 826 1256 0 311 827 312 0 +-.00107 .0095
 -.00409 0 1 0 16 311 1184 0 ?287 824 296 826 0 0 1 30 827 1257 0 824 828 826 0
 +799999999999981e-19 .0095 -.00409 0 1 0 16 824 1180 0 ?25 35 311 827 0 0 1 30
 828 1258 0 825 829 827 0 +-.00107 .0095 -.00409 1 0 0 16 825 1177 0 ?830 298 83
1 828 0 0 1 30 829 1259 0 831 832 828 0 +-.00107 .0095 -.00629 -985638338623186e
-31 0 1 16 831 1181 0 ?274 825 310 829 0 0 1 30 832 1260 0 310 833 829 0 +-.0010
7 .0095 -.00629 -1 0 -403424064180653e-30 16 310 1185 0 ?277 831 834 832 0 0 1 3
0 833 1261 0 834 835 832 0 +.00108 .0095 -.00629 0 0 -1 16 834 1189 0 ?297 310 8
36 833 0 0 1 31 835 1262 0 836 837 833 0 +799999999999983e-19 .0095 -.00509 0 1
 0 0 0 -1 .001 16 836 1173 0 ?454 834 301 835 0 0 1 30 837 1263 0 301 302 835 0
 +-.00107 .01 -.00409 1 0 0 16 301 1205 0 ?838 836 292 837 0 0 1 30 302 1266 0 2
92 839 837 0 +.00108 .01 -.00629 0 0 -1 31 839 1267 0 27 840 302 0 +799999999999
983e-19 .01 -.00509 0 1 0 0 0 -1 .001 16 27 1193 0 ?21 292 841 839 0 0 1 31 840
 1312 0 841 0 839 0 +2999999999999855e-20 .01 -.00529 0 1 0 0 0 1 5e-4 16 841 12
93 0 ?842 27 0 840 0 0 1 17 842 0 843 842 842 0 844 841 0 0 +15 843 1303 0 842 8
45 0 17 844 0 846 844 844 0 842 841 0 0 -15 846 1299 0 844 458 847 14 458 1296 8
48 ?845 294 846 4 456 -0 0 845 294 18 15 847 1300 0 19 458 0 17 19 0 847 19 19 0
 849 9 0 0 +17 849 0 455 849 849 0 19 9 0 0 -15 455 1285 0 849 12 0 81 1 848 137
4 438 458 0 0 466 850 851 14 845 1301 850 ?0 458 843 4 459 +0 0 0 458 18 81 1 85
0 1375 438 845 0 0 848 0 852 50 459 1310 0 845 0 456 0 +2999999999999855e-20 .01
 -.00529 0 1 0 0 0 1 80 1 438 0 853 8001 0 0 0 0 3 5 0 0 FFFFTFTFFFFFFF2 83 3 85
2 0 0 0 79 15 853 SDL/TYSA_COLOUR81 1 466 1373 438 294 0 0 462 848 854 83 3 851
 0 0 0 81 1 462 1372 438 460 0 0 468 466 855 83 3 854 0 0 0 81 1 468 1371 438 46
3 0 0 471 462 856 83 3 855 0 0 0 81 1 471 1370 438 469 0 0 484 468 857 83 3 856
 0 0 0 81 1 484 1369 438 472 0 0 481 471 858 83 3 857 0 0 0 81 1 481 1368 438 47
7 0 0 476 484 859 83 3 858 0 0 0 81 1 476 1367 438 474 0 0 487 481 860 83 3 859
 0 0 0 81 1 487 1366 438 478 0 0 490 476 861 83 3 860 0 0 0 81 1 490 1365 438 48
8 0 0 494 487 862 83 3 861 0 0 0 81 1 494 1364 438 491 0 0 498 490 863 83 3 862
 .749019607843137 .749019607843137 .749019607843137 81 1 498 1363 438 495 0 0 50
2 494 864 83 3 863 .749019607843137 .749019607843137 .749019607843137 81 1 502 1
362 438 499 0 0 506 498 865 83 3 864 .749019607843137 .749019607843137 .74901960
7843137 81 1 506 1361 438 503 0 0 510 502 866 83 3 865 .749019607843137 .7490196
07843137 .749019607843137 81 1 510 1360 438 507 0 0 514 506 867 83 3 866 .749019
607843137 .749019607843137 .749019607843137 81 1 514 1359 438 511 0 0 518 510 86
8 83 3 867 .749019607843137 .749019607843137 .749019607843137 81 1 518 1358 438
 515 0 0 522 514 869 83 3 868 .749019607843137 .749019607843137 .749019607843137
 81 1 522 1357 438 519 0 0 526 518 870 83 3 869 .749019607843137 .74901960784313
7 .749019607843137 81 1 526 1356 438 523 0 0 530 522 871 83 3 870 .7490196078431
37 .749019607843137 .749019607843137 81 1 530 1355 438 527 0 0 534 526 872 83 3
 871 .749019607843137 .749019607843137 .749019607843137 81 1 534 1354 438 531 0
 0 538 530 873 83 3 872 .749019607843137 .749019607843137 .749019607843137 81 1
 538 1353 438 535 0 0 542 534 874 83 3 873 .749019607843137 .749019607843137 .74
9019607843137 81 1 542 1352 438 539 0 0 546 538 875 83 3 874 .749019607843137 .7
49019607843137 .749019607843137 81 1 546 1351 438 543 0 0 550 542 876 83 3 875 .
749019607843137 .749019607843137 .749019607843137 81 1 550 1350 438 547 0 0 554
 546 877 83 3 876 .749019607843137 .749019607843137 .749019607843137 81 1 554 13
49 438 551 0 0 558 550 878 83 3 877 .749019607843137 .749019607843137 .749019607
843137 81 1 558 1348 438 555 0 0 562 554 879 83 3 878 .749019607843137 .74901960
7843137 .749019607843137 81 1 562 1347 438 559 0 0 566 558 880 83 3 879 .7490196
07843137 .749019607843137 .749019607843137 81 1 566 1346 438 563 0 0 570 562 881
 83 3 880 .749019607843137 .749019607843137 .749019607843137 81 1 570 1345 438 5
67 0 0 574 566 882 83 3 881 .749019607843137 .749019607843137 .749019607843137 8
1 1 574 1344 438 571 0 0 578 570 883 83 3 882 .749019607843137 .749019607843137
 .749019607843137 81 1 578 1343 438 575 0 0 582 574 884 83 3 883 .74901960784313
7 .749019607843137 .749019607843137 81 1 582 1342 438 579 0 0 586 578 885 83 3 8
84 .749019607843137 .749019607843137 .749019607843137 81 1 586 1341 438 583 0 0
 590 582 886 83 3 885 .749019607843137 .749019607843137 .749019607843137 81 1 59
0 1340 438 587 0 0 594 586 887 83 3 886 .749019607843137 .749019607843137 .74901
9607843137 81 1 594 1339 438 591 0 0 598 590 888 83 3 887 .749019607843137 .7490
19607843137 .749019607843137 81 1 598 1338 438 595 0 0 602 594 889 83 3 888 .749
019607843137 .749019607843137 .749019607843137 81 1 602 1337 438 599 0 0 606 598
 890 83 3 889 .749019607843137 .749019607843137 .749019607843137 81 1 606 1336 4
38 603 0 0 610 602 891 83 3 890 .749019607843137 .749019607843137 .7490196078431
37 81 1 610 1335 438 607 0 0 614 606 892 83 3 891 .749019607843137 .749019607843
137 .749019607843137 81 1 614 1334 438 611 0 0 615 610 893 83 3 892 0 0 0 83 3 8
93 0 0 0 17 838 0 464 271 287 283 313 301 0 26 +15 464 1225 0 838 460 0 17 271 0
 464 894 838 269 25 824 0 895 -17 287 0 464 838 894 285 896 311 0 313 +17 313 0
 299 117 26 285 838 301 0 340 -17 26 0 299 313 291 283 21 27 0 0 -17 340 0 339 8
96 334 285 117 362 0 0 -17 896 0 339 343 340 272 287 311 0 0 -17 343 0 339 120 8
96 275 274 831 0 309 -17 274 0 448 830 277 272 343 831 0 894 +17 309 0 303 305 3
44 275 120 319 0 0 -17 830 0 448 454 274 269 894 825 0 0 +17 277 0 448 274 297 2
75 305 310 0 343 +17 894 0 464 287 271 272 830 825 0 896 -17 297 0 448 277 454 2
78 295 834 0 305 +17 454 0 448 297 830 281 895 836 0 0 +17 295 0 290 28 280 281
 297 834 0 454 -17 895 0 23 25 24 269 454 836 0 830 -15 23 1221 0 21 463 0 17 25
 0 23 21 895 283 271 824 0 838 +17 24 0 23 895 21 281 28 298 0 295 -17 822 0 485
 258 36 266 897 820 0 898 +15 485 1089 0 822 472 0 17 258 0 485 899 822 256 268
 797 0 900 -17 36 0 485 822 899 22 32 795 0 897 +17 897 0 315 34 898 22 822 820
 0 0 -17 898 0 315 897 901 266 819 817 0 0 -15 315 1033 0 901 314 0 17 901 0 315
 898 34 263 816 814 0 0 -17 819 0 482 255 268 263 898 817 0 901 +15 482 1085 0 8
19 477 0 17 255 0 482 900 819 253 265 800 0 807 -17 268 0 482 819 900 266 258 79
7 0 822 +17 900 0 482 268 255 256 807 805 0 810 -17 807 0 473 804 810 253 900 80
5 0 902 +17 810 0 473 807 813 256 899 808 0 0 +15 473 1092 0 813 469 0 17 813 0
 473 810 804 259 903 811 0 0 +17 899 0 485 36 258 259 810 808 0 813 -17 804 0 47
3 813 807 248 902 798 0 0 +17 903 0 31 33 32 248 813 811 0 804 -15 31 1077 0 29
 478 0 17 33 0 31 29 903 261 252 794 0 816 +17 32 0 31 903 29 259 36 795 0 899 -
17 252 0 479 902 816 248 33 794 0 903 -17 816 0 479 252 265 261 901 814 0 34 +15
 479 1081 0 816 474 0 17 265 0 479 816 902 263 255 800 0 819 +17 34 0 315 901 89
7 261 29 35 0 0 -17 902 0 479 265 252 253 804 798 0 0 -14 314 1 904 ?425 306 299
 4 905 +0 0 425 306 18 81 1 904 1327 438 314 0 0 906 907 908 14 425 152 907 ?445
 314 423 4 909 +0 0 445 314 18 14 306 75 906 ?314 367 303 4 910 -0 0 314 367 18
 50 905 2 0 314 453 910 0 +-.00107 .01 .00121 0 1 0 0 0 1 50 453 61 0 370 909 90
5 0 +-.00107 5e-4 .00121 0 1 0 0 0 1 50 910 86 0 306 905 911 0 +-.00107 .01 -.00
629 0 0 1 1 0 0 50 911 87 0 367 910 15 0 +.01143 .01 -.00629 -1 0 23129646346357
45e-31 2312964634635745e-31 0 1 14 367 77 912 ?306 336 365 4 911 -0 0 306 336 18
 50 15 88 0 336 911 5 0 +-.00107 .01 .00121 0 0 -1 -1 0 0 14 336 79 913 ?367 14
 331 4 15 -0 0 367 14 18 81 1 913 1324 438 336 0 0 914 912 915 14 14 81 914 ?336
 370 339 4 5 -0 0 336 370 18 81 1 914 1323 438 14 0 0 450 913 916 81 1 450 1322
 438 370 0 0 447 914 917 83 3 916 0 0 0 83 3 917 0 0 0 81 1 912 1325 438 367 0 0
 913 906 918 83 3 915 0 0 0 81 1 906 1326 438 306 0 0 912 904 919 83 3 918 0 0 0
 83 3 919 0 0 0 51 909 168 0 425 920 453 0 +.00138 .001 86e-5 0 0 1 .001 1 0 0 5
0 920 170 0 445 446 909 0 +.00138 .001 86e-5 0 0 1 1 0 0 14 445 160 921 ?430 425
 922 4 920 -0 0 430 425 18 51 446 239 0 430 437 920 0 +.00898 .001 86e-5 0 0 1 .
001 1 0 0 81 1 921 1329 438 445 0 0 907 439 923 15 922 162 0 426 445 0 17 426 0
 922 421 421 130 135 416 0 419 -17 421 0 922 426 426 133 419 418 0 420 -81 1 907
 1328 438 425 0 0 904 921 924 81 1 439 1330 438 430 0 0 921 435 925 83 3 923 0 0
 0 83 3 925 0 0 0 83 3 924 0 0 0 83 3 908 0 0 0 17 793 0 504 926 240 241 927 787
 0 0 +15 504 951 0 928 499 0 17 926 0 504 928 793 38 250 774 0 0 -17 240 0 504 7
93 928 238 929 769 0 927 +17 927 0 492 930 931 238 793 787 0 791 -15 492 965 0 9
30 488 0 17 930 0 492 932 927 245 791 770 0 789 -17 931 0 492 927 932 241 785 78
3 0 793 -17 791 0 508 929 247 238 930 770 0 0 +15 508 947 0 933 503 0 17 929 0 5
08 933 791 30 240 769 0 0 -17 247 0 508 791 933 245 934 767 0 930 +17 933 0 508
 247 929 43 37 778 0 0 -17 934 0 496 935 789 43 247 767 0 933 -15 496 959 0 935
 491 0 17 935 0 496 244 934 233 45 773 0 0 -17 789 0 496 934 244 245 932 786 0 0
 +17 244 0 496 789 935 242 936 771 0 932 +17 932 0 492 931 930 242 789 786 0 785
 -17 785 0 500 936 250 242 931 783 0 0 +15 500 955 0 937 495 0 17 936 0 500 937
 785 233 244 771 0 935 -17 250 0 500 785 937 241 926 774 0 931 +17 937 0 500 250
 936 38 237 766 0 926 -17 237 0 938 45 42 233 937 766 0 936 +15 938 919 0 37 370
 0 17 45 0 938 37 237 43 935 773 0 934 +17 42 0 938 237 37 38 928 780 0 937 +17
 37 0 938 42 45 30 933 778 0 928 +17 928 0 504 240 926 30 42 780 0 929 -17 765 0
 528 939 225 226 940 759 0 0 +15 528 855 0 941 523 0 17 939 0 528 941 765 49 235
 741 0 0 -17 225 0 528 765 941 223 942 742 0 940 +17 940 0 512 943 944 223 765 7
59 0 763 -15 512 873 0 943 507 0 17 943 0 512 945 940 230 763 748 0 761 -17 944
 0 512 940 945 226 757 755 0 765 -17 763 0 524 942 232 223 943 748 0 0 +15 524 8
59 0 946 519 0 17 942 0 524 946 763 46 225 742 0 0 -17 232 0 524 763 946 230 947
 739 0 943 +17 946 0 524 232 942 52 48 745 0 0 -17 947 0 516 948 761 52 232 739
 0 946 -15 516 867 0 948 511 0 17 948 0 516 229 947 218 54 738 0 0 -17 761 0 516
 947 229 230 945 758 0 0 +17 229 0 516 761 948 227 949 743 0 945 +17 945 0 512 9
44 943 227 761 758 0 757 -17 757 0 520 949 235 227 944 755 0 0 +15 520 863 0 950
 515 0 17 949 0 520 950 757 218 229 743 0 948 -17 235 0 520 757 950 226 939 741
 0 944 +17 950 0 520 235 949 49 222 750 0 939 -17 222 0 452 54 51 218 950 750 0
 949 +15 452 827 0 48 370 951 17 54 0 452 48 222 52 948 738 0 947 +17 51 0 452 2
22 48 49 941 752 0 950 +17 48 0 452 51 54 46 946 745 0 941 +17 941 0 528 225 939
 46 51 752 0 942 -15 951 643 0 66 370 952 17 66 0 951 69 72 64 953 689 0 954 +15
 952 429 0 84 370 345 17 84 0 952 87 90 82 955 633 0 956 +17 87 0 952 162 84 85
 956 640 0 957 +17 90 0 952 84 162 88 958 624 0 959 +17 955 0 604 165 960 88 84
 633 0 0 -17 956 0 608 174 961 82 87 640 0 960 -15 608 465 0 956 603 0 17 174 0
 608 650 956 172 960 630 0 962 +17 961 0 608 956 650 85 171 629 0 0 -17 960 0 60
4 955 653 82 174 630 0 0 -15 604 469 0 955 599 0 17 653 0 604 960 165 172 963 65
1 0 0 +17 165 0 604 653 955 163 959 627 0 963 +17 963 0 592 964 962 163 653 651
 0 644 -15 592 483 0 963 587 0 17 964 0 592 965 963 166 644 636 0 0 -17 962 0 59
2 963 965 172 650 648 0 653 -17 644 0 596 959 168 163 964 636 0 0 +15 596 477 0
 958 591 0 17 959 0 596 958 644 88 165 627 0 955 -17 168 0 596 644 958 166 966 6
31 0 647 +17 958 0 596 168 959 160 90 624 0 0 -17 966 0 600 957 647 160 168 631
 0 958 -17 647 0 600 966 171 166 965 645 0 964 +15 600 473 0 957 595 0 17 171 0
 600 647 957 169 961 629 0 965 +17 965 0 592 962 964 169 647 645 0 650 -17 650 0
 608 961 174 169 962 648 0 0 +17 957 0 600 171 966 85 162 638 0 961 -17 162 0 95
2 90 87 160 957 638 0 966 +17 69 0 951 192 66 67 954 696 0 967 +17 72 0 951 66 1
92 70 968 682 0 969 +17 953 0 564 203 970 70 66 689 0 0 -17 954 0 568 196 971 64
 69 696 0 970 -15 568 671 0 954 563 0 17 196 0 568 709 954 194 970 686 0 972 +17
 971 0 568 954 709 67 205 685 0 0 -17 970 0 564 953 705 64 196 686 0 0 -15 564 6
75 0 953 559 0 17 705 0 564 970 203 194 973 702 0 0 +17 203 0 564 705 953 193 96
9 683 0 973 +17 973 0 552 974 972 193 705 702 0 707 -15 552 689 0 974 547 0 17 9
74 0 552 975 973 198 707 692 0 701 -17 972 0 552 973 975 194 709 703 0 705 -17 7
07 0 556 969 200 193 974 692 0 0 +15 556 683 0 968 551 0 17 969 0 556 968 707 70
 203 683 0 953 -17 200 0 556 707 968 198 976 687 0 974 +17 968 0 556 200 969 190
 72 682 0 0 -17 976 0 560 967 701 190 200 687 0 968 -15 560 679 0 967 555 0 17 9
67 0 560 205 976 67 192 694 0 971 -17 701 0 560 976 205 198 975 699 0 0 +17 205
 0 560 701 967 197 971 685 0 975 +17 975 0 552 972 974 197 701 699 0 709 -17 709
 0 568 971 196 197 972 703 0 0 +17 192 0 951 72 69 190 967 694 0 976 +17 737 0 5
48 977 210 211 978 731 0 0 +15 548 763 0 979 543 0 17 977 0 548 979 737 58 220 7
13 0 0 -17 210 0 548 737 979 208 980 714 0 978 +17 978 0 532 981 982 208 737 731
 0 735 -15 532 781 0 981 527 0 17 981 0 532 983 978 215 735 720 0 733 -17 982 0
 532 978 983 211 729 727 0 737 -17 735 0 544 980 217 208 981 720 0 0 +15 544 767
 0 984 539 0 17 980 0 544 984 735 55 210 714 0 0 -17 217 0 544 735 984 215 985 7
11 0 981 +17 984 0 544 217 980 61 57 717 0 0 -17 985 0 536 986 733 61 217 711 0
 984 -15 536 775 0 986 531 0 17 986 0 536 214 985 201 63 710 0 0 -17 733 0 536 9
85 214 215 983 730 0 0 +17 214 0 536 733 986 212 987 715 0 983 +17 983 0 532 982
 981 212 733 730 0 729 -17 729 0 540 987 220 212 982 727 0 0 +15 540 771 0 988 5
35 0 17 987 0 540 988 729 201 214 715 0 986 -17 220 0 540 729 988 211 977 713 0
 982 +17 988 0 540 220 987 58 207 722 0 977 -17 207 0 989 63 60 201 988 722 0 98
7 +15 989 735 0 57 370 938 17 63 0 989 57 207 61 986 710 0 985 +17 60 0 989 207
 57 58 979 724 0 988 +17 57 0 989 60 63 55 984 717 0 979 +17 979 0 548 210 977 5
5 60 724 0 980 -17 681 0 584 990 180 187 991 679 0 0 +15 584 576 0 992 579 0 17
 990 0 584 992 681 73 189 658 0 0 -17 180 0 584 681 992 178 993 655 0 991 +17 99
1 0 572 994 995 178 681 679 0 672 -15 572 590 0 991 567 0 17 994 0 572 996 991 1
81 672 664 0 0 -17 995 0 572 991 996 187 678 676 0 681 -17 672 0 576 993 183 178
 994 664 0 0 +15 576 584 0 997 571 0 17 993 0 576 997 672 79 180 655 0 992 -17 1
83 0 576 672 997 181 998 659 0 675 +17 997 0 576 183 993 175 81 654 0 0 -17 998
 0 580 999 675 175 183 659 0 997 -17 675 0 580 998 186 181 996 673 0 994 +15 580
 580 0 999 575 0 17 186 0 580 675 999 184 1000 657 0 996 +17 996 0 572 995 994 1
84 675 673 0 678 -17 678 0 588 1000 189 184 995 676 0 0 +15 588 572 0 1001 583 0
 17 1000 0 588 1001 678 76 186 657 0 0 -17 189 0 588 678 1001 187 990 658 0 995
 +17 1001 0 588 189 1000 73 78 668 0 990 -17 78 0 371 177 75 76 1001 668 0 999 +
15 371 536 0 75 370 989 17 177 0 371 81 78 175 999 666 0 998 +17 75 0 371 78 81
 73 992 661 0 1001 +17 999 0 580 186 998 76 177 666 0 1000 -17 81 0 371 75 177 7
9 997 654 0 993 +17 992 0 584 180 990 79 75 661 0 0 -17 156 0 612 153 153 154 37
2 376 0 378 +15 612 382 0 153 607 0 81 1 440 1332 438 436 0 0 435 615 1002 83 3
 617 0 0 0 83 3 1002 0 0 0 83 3 451 0 0 0 83 3 441 0 0 0 17 141 0 428 144 147 13
9 411 409 0 431 -17 132 0 423 135 138 130 351 347 0 426 -17 351 0 345 129 419 13
6 132 347 0 332 +17 129 0 345 341 351 127 332 337 0 330 -19 13 91 0 1 0 8 4 S74
 20 11 1 0 850 0 0 0 0 0 0 0 0 0 0 0 0 0 0 0 0 0 0 0 1 0 

