  0
SECTION
  2
HEADER
  9
$ACADVER
  1
AC1027
  9
$ACADMAINTVER
 70
     8
  9
$DWGCODEPAGE
  3
ANSI_1252
  9
$REQUIREDVERSIONS
160
                 0
  9
$INSBASE
 10
0.0
 20
0.0
 30
0.0
  9
$EXTMIN
 10
1.000000000000000E+20
 20
1.000000000000000E+20
 30
1.000000000000000E+20
  9
$EXTMAX
 10
-1.000000000000000E+20
 20
-1.000000000000000E+20
 30
-1.000000000000000E+20
  9
$LIMMIN
 10
-3.36769964
 20
-20.59999436
  9
$LIMMAX
 10
270.71126706
 20
71.09998988
  9
$ORTHOMODE
 70
     0
  9
$REGENMODE
 70
     1
  9
$FILLMODE
 70
     1
  9
$QTEXTMODE
 70
     0
  9
$MIRRTEXT
 70
     1
  9
$LTSCALE
 40
1.0
  9
$ATTMODE
 70
     1
  9
$TEXTSIZE
 40
2.5
  9
$TRACEWID
 40
1.0
  9
$TEXTSTYLE
  7
Standard
  9
$CLAYER
  8
0
  9
$CELTYPE
  6
ByLayer
  9
$CECOLOR
 62
   256
  9
$CELTSCALE
 40
1.0
  9
$DISPSILH
 70
     0
  9
$DIMSCALE
 40
1.0
  9
$DIMASZ
 40
2.5
  9
$DIMEXO
 40
0.625
  9
$DIMDLI
 40
3.75
  9
$DIMRND
 40
0.0
  9
$DIMDLE
 40
0.0
  9
$DIMEXE
 40
1.25
  9
$DIMTP
 40
0.0
  9
$DIMTM
 40
0.0
  9
$DIMTXT
 40
2.5
  9
$DIMCEN
 40
2.5
  9
$DIMTSZ
 40
0.0
  9
$DIMTOL
 70
     0
  9
$DIMLIM
 70
     0
  9
$DIMTIH
 70
     0
  9
$DIMTOH
 70
     0
  9
$DIMSE1
 70
     0
  9
$DIMSE2
 70
     0
  9
$DIMTAD
 70
     1
  9
$DIMZIN
 70
     8
  9
$DIMBLK
  1

  9
$DIMASO
 70
     1
  9
$DIMSHO
 70
     1
  9
$DIMPOST
  1

  9
$DIMAPOST
  1

  9
$DIMALT
 70
     0
  9
$DIMALTD
 70
     3
  9
$DIMALTF
 40
0.03937007874016
  9
$DIMLFAC
 40
1.0
  9
$DIMTOFL
 70
     1
  9
$DIMTVP
 40
0.0
  9
$DIMTIX
 70
     0
  9
$DIMSOXD
 70
     0
  9
$DIMSAH
 70
     0
  9
$DIMBLK1
  1

  9
$DIMBLK2
  1

  9
$DIMSTYLE
  2
ISO-25
  9
$DIMCLRD
 70
     0
  9
$DIMCLRE
 70
     0
  9
$DIMCLRT
 70
     0
  9
$DIMTFAC
 40
1.0
  9
$DIMGAP
 40
0.625
  9
$DIMJUST
 70
     0
  9
$DIMSD1
 70
     0
  9
$DIMSD2
 70
     0
  9
$DIMTOLJ
 70
     0
  9
$DIMTZIN
 70
     8
  9
$DIMALTZ
 70
     0
  9
$DIMALTTZ
 70
     0
  9
$DIMUPT
 70
     0
  9
$DIMDEC
 70
     2
  9
$DIMTDEC
 70
     2
  9
$DIMALTU
 70
     2
  9
$DIMALTTD
 70
     3
  9
$DIMTXSTY
  7
Standard
  9
$DIMAUNIT
 70
     0
  9
$DIMADEC
 70
     0
  9
$DIMALTRND
 40
0.0
  9
$DIMAZIN
 70
     0
  9
$DIMDSEP
 70
    44
  9
$DIMATFIT
 70
     3
  9
$DIMFRAC
 70
     0
  9
$DIMLDRBLK
  1

  9
$DIMLUNIT
 70
     2
  9
$DIMLWD
 70
    -2
  9
$DIMLWE
 70
    -2
  9
$DIMTMOVE
 70
     0
  9
$DIMFXL
 40
1.0
  9
$DIMFXLON
 70
     0
  9
$DIMJOGANG
 40
0.7853981633974483
  9
$DIMTFILL
 70
     0
  9
$DIMTFILLCLR
 70
     0
  9
$DIMARCSYM
 70
     0
  9
$DIMLTYPE
  6

  9
$DIMLTEX1
  6

  9
$DIMLTEX2
  6

  9
$DIMTXTDIRECTION
 70
     0
  9
$LUNITS
 70
     2
  9
$LUPREC
 70
     4
  9
$SKETCHINC
 40
1.0
  9
$FILLETRAD
 40
10.0
  9
$AUNITS
 70
     0
  9
$AUPREC
 70
     0
  9
$MENU
  1
.
  9
$ELEVATION
 40
0.0
  9
$PELEVATION
 40
0.0
  9
$THICKNESS
 40
0.0
  9
$LIMCHECK
 70
     0
  9
$CHAMFERA
 40
0.0
  9
$CHAMFERB
 40
0.0
  9
$CHAMFERC
 40
0.0
  9
$CHAMFERD
 40
0.0
  9
$SKPOLY
 70
     0
  9
$TDCREATE
 40
2459247.664149352
  9
$TDUCREATE
 40
2459247.247482685
  9
$TDUPDATE
 40
2459247.664150903
  9
$TDUUPDATE
 40
2459247.247484236
  9
$TDINDWG
 40
0.0000000116
  9
$TDUSRTIMER
 40
0.0000000116
  9
$USRTIMER
 70
     1
  9
$ANGBASE
 50
0.0
  9
$ANGDIR
 70
     0
  9
$PDMODE
 70
     0
  9
$PDSIZE
 40
0.0
  9
$PLINEWID
 40
0.0
  9
$SPLFRAME
 70
     0
  9
$SPLINETYPE
 70
     6
  9
$SPLINESEGS
 70
     8
  9
$HANDSEED
  5
378
  9
$SURFTAB1
 70
     6
  9
$SURFTAB2
 70
     6
  9
$SURFTYPE
 70
     6
  9
$SURFU
 70
     6
  9
$SURFV
 70
     6
  9
$UCSBASE
  2

  9
$UCSNAME
  2

  9
$UCSORG
 10
0.0
 20
0.0
 30
0.0
  9
$UCSXDIR
 10
1.0
 20
0.0
 30
0.0
  9
$UCSYDIR
 10
0.0
 20
1.0
 30
0.0
  9
$UCSORTHOREF
  2

  9
$UCSORTHOVIEW
 70
     0
  9
$UCSORGTOP
 10
0.0
 20
0.0
 30
0.0
  9
$UCSORGBOTTOM
 10
0.0
 20
0.0
 30
0.0
  9
$UCSORGLEFT
 10
0.0
 20
0.0
 30
0.0
  9
$UCSORGRIGHT
 10
0.0
 20
0.0
 30
0.0
  9
$UCSORGFRONT
 10
0.0
 20
0.0
 30
0.0
  9
$UCSORGBACK
 10
0.0
 20
0.0
 30
0.0
  9
$PUCSBASE
  2

  9
$PUCSNAME
  2

  9
$PUCSORG
 10
0.0
 20
0.0
 30
0.0
  9
$PUCSXDIR
 10
1.0
 20
0.0
 30
0.0
  9
$PUCSYDIR
 10
0.0
 20
1.0
 30
0.0
  9
$PUCSORTHOREF
  2

  9
$PUCSORTHOVIEW
 70
     0
  9
$PUCSORGTOP
 10
0.0
 20
0.0
 30
0.0
  9
$PUCSORGBOTTOM
 10
0.0
 20
0.0
 30
0.0
  9
$PUCSORGLEFT
 10
0.0
 20
0.0
 30
0.0
  9
$PUCSORGRIGHT
 10
0.0
 20
0.0
 30
0.0
  9
$PUCSORGFRONT
 10
0.0
 20
0.0
 30
0.0
  9
$PUCSORGBACK
 10
0.0
 20
0.0
 30
0.0
  9
$USERI1
 70
     0
  9
$USERI2
 70
     0
  9
$USERI3
 70
     0
  9
$USERI4
 70
     0
  9
$USERI5
 70
     0
  9
$USERR1
 40
0.0
  9
$USERR2
 40
0.0
  9
$USERR3
 40
0.0
  9
$USERR4
 40
0.0
  9
$USERR5
 40
0.0
  9
$WORLDVIEW
 70
     1
  9
$SHADEDGE
 70
     3
  9
$SHADEDIF
 70
    70
  9
$TILEMODE
 70
     1
  9
$MAXACTVP
 70
    64
  9
$PINSBASE
 10
0.0
 20
0.0
 30
0.0
  9
$PLIMCHECK
 70
     0
  9
$PEXTMIN
 10
1.000000000000000E+20
 20
1.000000000000000E+20
 30
1.000000000000000E+20
  9
$PEXTMAX
 10
-1.000000000000000E+20
 20
-1.000000000000000E+20
 30
-1.000000000000000E+20
  9
$PLIMMIN
 10
0.0
 20
0.0
  9
$PLIMMAX
 10
420.0
 20
297.0
  9
$UNITMODE
 70
     0
  9
$VISRETAIN
 70
     1
  9
$PLINEGEN
 70
     0
  9
$PSLTSCALE
 70
     1
  9
$TREEDEPTH
 70
  3020
  9
$CMLSTYLE
  2
Standard
  9
$CMLJUST
 70
     0
  9
$CMLSCALE
 40
20.0
  9
$PROXYGRAPHICS
 70
     1
  9
$MEASUREMENT
 70
     1
  9
$CELWEIGHT
370
    -1
  9
$ENDCAPS
280
     0
  9
$JOINSTYLE
280
     0
  9
$LWDISPLAY
290
     0
  9
$INSUNITS
 70
     4
  9
$HYPERLINKBASE
  1

  9
$STYLESHEET
  1

  9
$XEDIT
290
     1
  9
$CEPSNTYPE
380
     0
  9
$PSTYLEMODE
290
     1
  9
$FINGERPRINTGUID
  2
{17AF319B-587F-4CD0-A0D7-687BB9392A49}
  9
$VERSIONGUID
  2
{FAEB1C32-E019-11D5-929B-00C0DF256EC4}
  9
$EXTNAMES
290
     1
  9
$PSVPSCALE
 40
0.0
  9
$OLESTARTUP
290
     0
  9
$SORTENTS
280
   127
  9
$INDEXCTL
280
     0
  9
$HIDETEXT
280
     1
  9
$XCLIPFRAME
280
     2
  9
$HALOGAP
280
     0
  9
$OBSCOLOR
 70
   257
  9
$OBSLTYPE
280
     0
  9
$INTERSECTIONDISPLAY
280
     0
  9
$INTERSECTIONCOLOR
 70
   257
  9
$DIMASSOC
280
     2
  9
$PROJECTNAME
  1

  9
$CAMERADISPLAY
290
     0
  9
$LENSLENGTH
 40
50.0
  9
$CAMERAHEIGHT
 40
0.0
  9
$STEPSPERSEC
 40
2.0
  9
$STEPSIZE
 40
6.0
  9
$3DDWFPREC
 40
2.0
  9
$PSOLWIDTH
 40
5.0
  9
$PSOLHEIGHT
 40
80.0
  9
$LOFTANG1
 40
1.570796326794897
  9
$LOFTANG2
 40
1.570796326794897
  9
$LOFTMAG1
 40
0.0
  9
$LOFTMAG2
 40
0.0
  9
$LOFTPARAM
 70
     7
  9
$LOFTNORMALS
280
     1
  9
$LATITUDE
 40
37.795
  9
$LONGITUDE
 40
-122.394
  9
$NORTHDIRECTION
 40
0.0
  9
$TIMEZONE
 70
 -8000
  9
$LIGHTGLYPHDISPLAY
280
     1
  9
$TILEMODELIGHTSYNCH
280
     1
  9
$CMATERIAL
347
44
  9
$SOLIDHIST
280
     0
  9
$SHOWHIST
280
     1
  9
$DWFFRAME
280
     2
  9
$DGNFRAME
280
     2
  9
$REALWORLDSCALE
290
     1
  9
$INTERFERECOLOR
 62
   256
  9
$CSHADOW
280
     0
  9
$SHADOWPLANELOCATION
 40
0.0
  0
ENDSEC
  0
SECTION
  2
CLASSES
  0
CLASS
  1
ACDBDICTIONARYWDFLT
  2
AcDbDictionaryWithDefault
  3
ObjectDBX Classes
 90
        0
 91
        4
280
     0
281
     0
  0
CLASS
  1
VISUALSTYLE
  2
AcDbVisualStyle
  3
ObjectDBX Classes
 90
     4095
 91
        4
280
     0
281
     0
  0
CLASS
  1
MATERIAL
  2
AcDbMaterial
  3
ObjectDBX Classes
 90
     1153
 91
        4
280
     0
281
     0
  0
CLASS
  1
SCALE
  2
AcDbScale
  3
ObjectDBX Classes
 90
     1153
 91
        4
280
     0
281
     0
  0
CLASS
  1
TABLESTYLE
  2
AcDbTableStyle
  3
ObjectDBX Classes
 90
     4095
 91
        4
280
     0
281
     0
  0
CLASS
  1
MLEADERSTYLE
  2
AcDbMLeaderStyle
  3
ACDB_MLEADERSTYLE_CLASS
 90
     4095
 91
        4
280
     0
281
     0
  0
CLASS
  1
SUN
  2
AcDbSun
  3
SCENEOE
 90
     1153
 91
        4
280
     0
281
     0
  0
CLASS
  1
DICTIONARYVAR
  2
AcDbDictionaryVar
  3
ObjectDBX Classes
 90
        0
 91
        4
280
     0
281
     0
  0
CLASS
  1
CELLSTYLEMAP
  2
AcDbCellStyleMap
  3
ObjectDBX Classes
 90
     1152
 91
        4
280
     0
281
     0
  0
ENDSEC
  0
SECTION
  2
TABLES
  0
TABLE
  2
VPORT
  5
8
330
0
100
AcDbSymbolTable
 70
     1
  0
VPORT
  5
29
330
8
100
AcDbSymbolTableRecord
100
AcDbViewportTableRecord
  2
*Active
 70
     0
 10
0.0
 20
0.0
 11
1.0
 21
1.0
 12
344.1869158878504
 22
148.5
 13
0.0
 23
0.0
 14
10.0
 24
10.0
 15
10.0
 25
10.0
 16
0.0
 26
0.0
 36
1.0
 17
0.0
 27
0.0
 37
0.0
 40
297.0
 41
1.972972972850329
 42
50.0
 43
0.0
 44
0.0
 50
0.0
 51
0.0
 71
     0
 72
   100
 73
     1
 74
     3
 75
     0
 76
     0
 77
     0
 78
     0
281
     0
 65
     1
110
0.0
120
0.0
130
0.0
111
1.0
121
0.0
131
0.0
112
0.0
122
1.0
132
0.0
 79
     0
146
0.0
 60
     3
 61
     5
292
     1
282
     1
141
0.0
142
0.0
 63
   250
361
6D
  0
ENDTAB
  0
TABLE
  2
LTYPE
  5
5
330
0
100
AcDbSymbolTable
 70
     1
  0
LTYPE
  5
14
330
5
100
AcDbSymbolTableRecord
100
AcDbLinetypeTableRecord
  2
ByBlock
 70
     0
  3

 72
    65
 73
     0
 40
0.0
  0
LTYPE
  5
15
330
5
100
AcDbSymbolTableRecord
100
AcDbLinetypeTableRecord
  2
ByLayer
 70
     0
  3

 72
    65
 73
     0
 40
0.0
  0
LTYPE
  5
16
330
5
100
AcDbSymbolTableRecord
100
AcDbLinetypeTableRecord
  2
Continuous
 70
     0
  3
Solid line
 72
    65
 73
     0
 40
0.0
  0
ENDTAB
  0
TABLE
  2
LAYER
  5
2
330
0
100
AcDbSymbolTable
 70
     2
  0
LAYER
  5
10
330
2
100
AcDbSymbolTableRecord
100
AcDbLayerTableRecord
  2
0
 70
     0
 62
     7
  6
Continuous
370
    -3
390
F
347
46
348
0
  0
LAYER
  5
6E
330
2
100
AcDbSymbolTableRecord
100
AcDbLayerTableRecord
  2
TopPaste
 70
     0
 62
     8
  6
Continuous
370
    -3
390
F
347
46
348
0
  0
ENDTAB
  0
TABLE
  2
STYLE
  5
3
330
0
100
AcDbSymbolTable
 70
     1
  0
STYLE
  5
11
330
3
100
AcDbSymbolTableRecord
100
AcDbTextStyleTableRecord
  2
Standard
 70
     0
 40
0.0
 41
1.0
 50
0.0
 71
     0
 42
2.5
  3
txt
  4

  0
ENDTAB
  0
TABLE
  2
VIEW
  5
6
330
0
100
AcDbSymbolTable
 70
     0
  0
ENDTAB
  0
TABLE
  2
UCS
  5
7
330
0
100
AcDbSymbolTable
 70
     0
  0
ENDTAB
  0
TABLE
  2
APPID
  5
9
330
0
100
AcDbSymbolTable
 70
     1
  0
APPID
  5
12
330
9
100
AcDbSymbolTableRecord
100
AcDbRegAppTableRecord
  2
ACAD
 70
     0
  0
ENDTAB
  0
TABLE
  2
DIMSTYLE
  5
A
330
0
100
AcDbSymbolTable
 70
     1
100
AcDbDimStyleTable
  0
DIMSTYLE
105
27
330
A
100
AcDbSymbolTableRecord
100
AcDbDimStyleTableRecord
  2
ISO-25
 70
     0
 41
2.5
 42
0.625
 43
3.75
 44
1.25
 73
     0
 74
     0
 77
     1
 78
     8
140
2.5
141
2.5
143
0.03937007874016
147
0.625
171
     3
172
     1
178
     0
271
     2
272
     2
274
     3
278
    44
283
     0
284
     8
340
11
  0
ENDTAB
  0
TABLE
  2
BLOCK_RECORD
  5
1
330
0
100
AcDbSymbolTable
 70
     1
  0
BLOCK_RECORD
  5
1F
330
1
100
AcDbSymbolTableRecord
100
AcDbBlockTableRecord
  2
*Model_Space
340
22
 70
     0
280
     1
281
     0
  0
BLOCK_RECORD
  5
1B
330
1
100
AcDbSymbolTableRecord
100
AcDbBlockTableRecord
  2
*Paper_Space
340
1E
 70
     0
280
     1
281
     0
  0
BLOCK_RECORD
  5
23
330
1
100
AcDbSymbolTableRecord
100
AcDbBlockTableRecord
  2
*Paper_Space0
340
26
 70
     0
280
     1
281
     0
  0
ENDTAB
  0
ENDSEC
  0
SECTION
  2
BLOCKS
  0
BLOCK
  5
20
330
1F
100
AcDbEntity
  8
0
100
AcDbBlockBegin
  2
*Model_Space
 70
     0
 10
0.0
 20
0.0
 30
0.0
  3
*Model_Space
  1

  0
ENDBLK
  5
21
330
1F
100
AcDbEntity
  8
0
100
AcDbBlockEnd
  0
BLOCK
  5
1C
330
1B
100
AcDbEntity
 67
     1
  8
0
100
AcDbBlockBegin
  2
*Paper_Space
 70
     0
 10
0.0
 20
0.0
 30
0.0
  3
*Paper_Space
  1

  0
ENDBLK
  5
1D
330
1B
100
AcDbEntity
 67
     1
  8
0
100
AcDbBlockEnd
  0
BLOCK
  5
24
330
23
100
AcDbEntity
  8
0
100
AcDbBlockBegin
  2
*Paper_Space0
 70
     0
 10
0.0
 20
0.0
 30
0.0
  3
*Paper_Space0
  1

  0
ENDBLK
  5
25
330
23
100
AcDbEntity
  8
0
100
AcDbBlockEnd
  0
ENDSEC
  0
SECTION
  2
ENTITIES
  0
LINE
  5
6F
330
1F
100
AcDbEntity
  8
TopPaste
100
AcDbLine
 10
120.46700062
 20
29.40579844
 30
0.0
 11
120.46700062
 21
29.86779904
 31
0.0
  0
LINE
  5
70
330
1F
100
AcDbEntity
  8
TopPaste
100
AcDbLine
 10
120.46700062
 20
29.86779904
 30
0.0
 11
121.18300122
 21
29.86779904
 31
0.0
  0
LINE
  5
71
330
1F
100
AcDbEntity
  8
TopPaste
100
AcDbLine
 10
121.18300122
 20
29.86779904
 30
0.0
 11
121.18300122
 21
29.40579844
 31
0.0
  0
LINE
  5
72
330
1F
100
AcDbEntity
  8
TopPaste
100
AcDbLine
 10
121.18300122
 20
29.40579844
 30
0.0
 11
120.46700062
 21
29.40579844
 31
0.0
  0
LINE
  5
73
330
1F
100
AcDbEntity
  8
TopPaste
100
AcDbLine
 10
120.46700062
 20
27.81899948
 30
0.0
 11
120.46700062
 21
28.28100008
 31
0.0
  0
LINE
  5
74
330
1F
100
AcDbEntity
  8
TopPaste
100
AcDbLine
 10
120.46700062
 20
28.28100008
 30
0.0
 11
121.18300122
 21
28.28100008
 31
0.0
  0
LINE
  5
75
330
1F
100
AcDbEntity
  8
TopPaste
100
AcDbLine
 10
121.18300122
 20
28.28100008
 30
0.0
 11
121.18300122
 21
27.81899948
 31
0.0
  0
LINE
  5
76
330
1F
100
AcDbEntity
  8
TopPaste
100
AcDbLine
 10
121.18300122
 20
27.81899948
 30
0.0
 11
120.46700062
 21
27.81899948
 31
0.0
  0
LINE
  5
77
330
1F
100
AcDbEntity
  8
TopPaste
100
AcDbLine
 10
107.38198996
 20
29.40579844
 30
0.0
 11
107.38198996
 21
29.86779904
 31
0.0
  0
LINE
  5
78
330
1F
100
AcDbEntity
  8
TopPaste
100
AcDbLine
 10
107.38198996
 20
29.86779904
 30
0.0
 11
108.09799056
 21
29.86779904
 31
0.0
  0
LINE
  5
79
330
1F
100
AcDbEntity
  8
TopPaste
100
AcDbLine
 10
108.09799056
 20
29.86779904
 30
0.0
 11
108.09799056
 21
29.40579844
 31
0.0
  0
LINE
  5
7A
330
1F
100
AcDbEntity
  8
TopPaste
100
AcDbLine
 10
108.09799056
 20
29.40579844
 30
0.0
 11
107.38198996
 21
29.40579844
 31
0.0
  0
LINE
  5
7B
330
1F
100
AcDbEntity
  8
TopPaste
100
AcDbLine
 10
107.38198996
 20
27.81899948
 30
0.0
 11
107.38198996
 21
28.28100008
 31
0.0
  0
LINE
  5
7C
330
1F
100
AcDbEntity
  8
TopPaste
100
AcDbLine
 10
107.38198996
 20
28.28100008
 30
0.0
 11
108.09799056
 21
28.28100008
 31
0.0
  0
LINE
  5
7D
330
1F
100
AcDbEntity
  8
TopPaste
100
AcDbLine
 10
108.09799056
 20
28.28100008
 30
0.0
 11
108.09799056
 21
27.81899948
 31
0.0
  0
LINE
  5
7E
330
1F
100
AcDbEntity
  8
TopPaste
100
AcDbLine
 10
108.09799056
 20
27.81899948
 30
0.0
 11
107.38198996
 21
27.81899948
 31
0.0
  0
LINE
  5
7F
330
1F
100
AcDbEntity
  8
TopPaste
100
AcDbLine
 10
122.46199536
 20
29.40579844
 30
0.0
 11
122.46199536
 21
29.86779904
 31
0.0
  0
LINE
  5
80
330
1F
100
AcDbEntity
  8
TopPaste
100
AcDbLine
 10
122.46199536
 20
29.86779904
 30
0.0
 11
123.17799596
 21
29.86779904
 31
0.0
  0
LINE
  5
81
330
1F
100
AcDbEntity
  8
TopPaste
100
AcDbLine
 10
123.17799596
 20
29.86779904
 30
0.0
 11
123.17799596
 21
29.40579844
 31
0.0
  0
LINE
  5
82
330
1F
100
AcDbEntity
  8
TopPaste
100
AcDbLine
 10
123.17799596
 20
29.40579844
 30
0.0
 11
122.46199536
 21
29.40579844
 31
0.0
  0
LINE
  5
83
330
1F
100
AcDbEntity
  8
TopPaste
100
AcDbLine
 10
122.46199536
 20
27.81899948
 30
0.0
 11
122.46199536
 21
28.28100008
 31
0.0
  0
LINE
  5
84
330
1F
100
AcDbEntity
  8
TopPaste
100
AcDbLine
 10
122.46199536
 20
28.28100008
 30
0.0
 11
123.17799596
 21
28.28100008
 31
0.0
  0
LINE
  5
85
330
1F
100
AcDbEntity
  8
TopPaste
100
AcDbLine
 10
123.17799596
 20
28.28100008
 30
0.0
 11
123.17799596
 21
27.81899948
 31
0.0
  0
LINE
  5
86
330
1F
100
AcDbEntity
  8
TopPaste
100
AcDbLine
 10
123.17799596
 20
27.81899948
 30
0.0
 11
122.46199536
 21
27.81899948
 31
0.0
  0
LINE
  5
87
330
1F
100
AcDbEntity
  8
TopPaste
100
AcDbLine
 10
109.3769847
 20
29.40579844
 30
0.0
 11
109.3769847
 21
29.86779904
 31
0.0
  0
LINE
  5
88
330
1F
100
AcDbEntity
  8
TopPaste
100
AcDbLine
 10
109.3769847
 20
29.86779904
 30
0.0
 11
110.0929853
 21
29.86779904
 31
0.0
  0
LINE
  5
89
330
1F
100
AcDbEntity
  8
TopPaste
100
AcDbLine
 10
110.0929853
 20
29.86779904
 30
0.0
 11
110.0929853
 21
29.40579844
 31
0.0
  0
LINE
  5
8A
330
1F
100
AcDbEntity
  8
TopPaste
100
AcDbLine
 10
110.0929853
 20
29.40579844
 30
0.0
 11
109.3769847
 21
29.40579844
 31
0.0
  0
LINE
  5
8B
330
1F
100
AcDbEntity
  8
TopPaste
100
AcDbLine
 10
109.3769847
 20
27.81899948
 30
0.0
 11
109.3769847
 21
28.28100008
 31
0.0
  0
LINE
  5
8C
330
1F
100
AcDbEntity
  8
TopPaste
100
AcDbLine
 10
109.3769847
 20
28.28100008
 30
0.0
 11
110.0929853
 21
28.28100008
 31
0.0
  0
LINE
  5
8D
330
1F
100
AcDbEntity
  8
TopPaste
100
AcDbLine
 10
110.0929853
 20
28.28100008
 30
0.0
 11
110.0929853
 21
27.81899948
 31
0.0
  0
LINE
  5
8E
330
1F
100
AcDbEntity
  8
TopPaste
100
AcDbLine
 10
110.0929853
 20
27.81899948
 30
0.0
 11
109.3769847
 21
27.81899948
 31
0.0
  0
LINE
  5
8F
330
1F
100
AcDbEntity
  8
TopPaste
100
AcDbLine
 10
118.47200588
 20
29.40579844
 30
0.0
 11
118.47200588
 21
29.86779904
 31
0.0
  0
LINE
  5
90
330
1F
100
AcDbEntity
  8
TopPaste
100
AcDbLine
 10
118.47200588
 20
29.86779904
 30
0.0
 11
119.18800648
 21
29.86779904
 31
0.0
  0
LINE
  5
91
330
1F
100
AcDbEntity
  8
TopPaste
100
AcDbLine
 10
119.18800648
 20
29.86779904
 30
0.0
 11
119.18800648
 21
29.40579844
 31
0.0
  0
LINE
  5
92
330
1F
100
AcDbEntity
  8
TopPaste
100
AcDbLine
 10
119.18800648
 20
29.40579844
 30
0.0
 11
118.47200588
 21
29.40579844
 31
0.0
  0
LINE
  5
93
330
1F
100
AcDbEntity
  8
TopPaste
100
AcDbLine
 10
118.47200588
 20
27.81899948
 30
0.0
 11
118.47200588
 21
28.28100008
 31
0.0
  0
LINE
  5
94
330
1F
100
AcDbEntity
  8
TopPaste
100
AcDbLine
 10
118.47200588
 20
28.28100008
 30
0.0
 11
119.18800648
 21
28.28100008
 31
0.0
  0
LINE
  5
95
330
1F
100
AcDbEntity
  8
TopPaste
100
AcDbLine
 10
119.18800648
 20
28.28100008
 30
0.0
 11
119.18800648
 21
27.81899948
 31
0.0
  0
LINE
  5
96
330
1F
100
AcDbEntity
  8
TopPaste
100
AcDbLine
 10
119.18800648
 20
27.81899948
 30
0.0
 11
118.47200588
 21
27.81899948
 31
0.0
  0
LINE
  5
97
330
1F
100
AcDbEntity
  8
TopPaste
100
AcDbLine
 10
105.38699522
 20
29.40579844
 30
0.0
 11
105.38699522
 21
29.86779904
 31
0.0
  0
LINE
  5
98
330
1F
100
AcDbEntity
  8
TopPaste
100
AcDbLine
 10
105.38699522
 20
29.86779904
 30
0.0
 11
106.10299582
 21
29.86779904
 31
0.0
  0
LINE
  5
99
330
1F
100
AcDbEntity
  8
TopPaste
100
AcDbLine
 10
106.10299582
 20
29.86779904
 30
0.0
 11
106.10299582
 21
29.40579844
 31
0.0
  0
LINE
  5
9A
330
1F
100
AcDbEntity
  8
TopPaste
100
AcDbLine
 10
106.10299582
 20
29.40579844
 30
0.0
 11
105.38699522
 21
29.40579844
 31
0.0
  0
LINE
  5
9B
330
1F
100
AcDbEntity
  8
TopPaste
100
AcDbLine
 10
105.38699522
 20
27.81899948
 30
0.0
 11
105.38699522
 21
28.28100008
 31
0.0
  0
LINE
  5
9C
330
1F
100
AcDbEntity
  8
TopPaste
100
AcDbLine
 10
105.38699522
 20
28.28100008
 30
0.0
 11
106.10299582
 21
28.28100008
 31
0.0
  0
LINE
  5
9D
330
1F
100
AcDbEntity
  8
TopPaste
100
AcDbLine
 10
106.10299582
 20
28.28100008
 30
0.0
 11
106.10299582
 21
27.81899948
 31
0.0
  0
LINE
  5
9E
330
1F
100
AcDbEntity
  8
TopPaste
100
AcDbLine
 10
106.10299582
 20
27.81899948
 30
0.0
 11
105.38699522
 21
27.81899948
 31
0.0
  0
LINE
  5
9F
330
1F
100
AcDbEntity
  8
TopPaste
100
AcDbLine
 10
116.47701114
 20
29.40579844
 30
0.0
 11
116.47701114
 21
29.86779904
 31
0.0
  0
LINE
  5
A0
330
1F
100
AcDbEntity
  8
TopPaste
100
AcDbLine
 10
116.47701114
 20
29.86779904
 30
0.0
 11
117.19301174
 21
29.86779904
 31
0.0
  0
LINE
  5
A1
330
1F
100
AcDbEntity
  8
TopPaste
100
AcDbLine
 10
117.19301174
 20
29.86779904
 30
0.0
 11
117.19301174
 21
29.40579844
 31
0.0
  0
LINE
  5
A2
330
1F
100
AcDbEntity
  8
TopPaste
100
AcDbLine
 10
117.19301174
 20
29.40579844
 30
0.0
 11
116.47701114
 21
29.40579844
 31
0.0
  0
LINE
  5
A3
330
1F
100
AcDbEntity
  8
TopPaste
100
AcDbLine
 10
116.47701114
 20
27.81899948
 30
0.0
 11
116.47701114
 21
28.28100008
 31
0.0
  0
LINE
  5
A4
330
1F
100
AcDbEntity
  8
TopPaste
100
AcDbLine
 10
116.47701114
 20
28.28100008
 30
0.0
 11
117.19301174
 21
28.28100008
 31
0.0
  0
LINE
  5
A5
330
1F
100
AcDbEntity
  8
TopPaste
100
AcDbLine
 10
117.19301174
 20
28.28100008
 30
0.0
 11
117.19301174
 21
27.81899948
 31
0.0
  0
LINE
  5
A6
330
1F
100
AcDbEntity
  8
TopPaste
100
AcDbLine
 10
117.19301174
 20
27.81899948
 30
0.0
 11
116.47701114
 21
27.81899948
 31
0.0
  0
LINE
  5
A7
330
1F
100
AcDbEntity
  8
TopPaste
100
AcDbLine
 10
103.39200048
 20
29.40579844
 30
0.0
 11
103.39200048
 21
29.86779904
 31
0.0
  0
LINE
  5
A8
330
1F
100
AcDbEntity
  8
TopPaste
100
AcDbLine
 10
103.39200048
 20
29.86779904
 30
0.0
 11
104.10800108
 21
29.86779904
 31
0.0
  0
LINE
  5
A9
330
1F
100
AcDbEntity
  8
TopPaste
100
AcDbLine
 10
104.10800108
 20
29.86779904
 30
0.0
 11
104.10800108
 21
29.40579844
 31
0.0
  0
LINE
  5
AA
330
1F
100
AcDbEntity
  8
TopPaste
100
AcDbLine
 10
104.10800108
 20
29.40579844
 30
0.0
 11
103.39200048
 21
29.40579844
 31
0.0
  0
LINE
  5
AB
330
1F
100
AcDbEntity
  8
TopPaste
100
AcDbLine
 10
103.39200048
 20
27.81899948
 30
0.0
 11
103.39200048
 21
28.28100008
 31
0.0
  0
LINE
  5
AC
330
1F
100
AcDbEntity
  8
TopPaste
100
AcDbLine
 10
103.39200048
 20
28.28100008
 30
0.0
 11
104.10800108
 21
28.28100008
 31
0.0
  0
LINE
  5
AD
330
1F
100
AcDbEntity
  8
TopPaste
100
AcDbLine
 10
104.10800108
 20
28.28100008
 30
0.0
 11
104.10800108
 21
27.81899948
 31
0.0
  0
LINE
  5
AE
330
1F
100
AcDbEntity
  8
TopPaste
100
AcDbLine
 10
104.10800108
 20
27.81899948
 30
0.0
 11
103.39200048
 21
27.81899948
 31
0.0
  0
LINE
  5
AF
330
1F
100
AcDbEntity
  8
TopPaste
100
AcDbLine
 10
114.4820164
 20
29.40579844
 30
0.0
 11
114.4820164
 21
29.86779904
 31
0.0
  0
LINE
  5
B0
330
1F
100
AcDbEntity
  8
TopPaste
100
AcDbLine
 10
114.4820164
 20
29.86779904
 30
0.0
 11
115.198017
 21
29.86779904
 31
0.0
  0
LINE
  5
B1
330
1F
100
AcDbEntity
  8
TopPaste
100
AcDbLine
 10
115.198017
 20
29.86779904
 30
0.0
 11
115.198017
 21
29.40579844
 31
0.0
  0
LINE
  5
B2
330
1F
100
AcDbEntity
  8
TopPaste
100
AcDbLine
 10
115.198017
 20
29.40579844
 30
0.0
 11
114.4820164
 21
29.40579844
 31
0.0
  0
LINE
  5
B3
330
1F
100
AcDbEntity
  8
TopPaste
100
AcDbLine
 10
114.4820164
 20
27.81899948
 30
0.0
 11
114.4820164
 21
28.28100008
 31
0.0
  0
LINE
  5
B4
330
1F
100
AcDbEntity
  8
TopPaste
100
AcDbLine
 10
114.4820164
 20
28.28100008
 30
0.0
 11
115.198017
 21
28.28100008
 31
0.0
  0
LINE
  5
B5
330
1F
100
AcDbEntity
  8
TopPaste
100
AcDbLine
 10
115.198017
 20
28.28100008
 30
0.0
 11
115.198017
 21
27.81899948
 31
0.0
  0
LINE
  5
B6
330
1F
100
AcDbEntity
  8
TopPaste
100
AcDbLine
 10
115.198017
 20
27.81899948
 30
0.0
 11
114.4820164
 21
27.81899948
 31
0.0
  0
LINE
  5
B7
330
1F
100
AcDbEntity
  8
TopPaste
100
AcDbLine
 10
101.39700574
 20
29.40579844
 30
0.0
 11
101.39700574
 21
29.86779904
 31
0.0
  0
LINE
  5
B8
330
1F
100
AcDbEntity
  8
TopPaste
100
AcDbLine
 10
101.39700574
 20
29.86779904
 30
0.0
 11
102.11300634
 21
29.86779904
 31
0.0
  0
LINE
  5
B9
330
1F
100
AcDbEntity
  8
TopPaste
100
AcDbLine
 10
102.11300634
 20
29.86779904
 30
0.0
 11
102.11300634
 21
29.40579844
 31
0.0
  0
LINE
  5
BA
330
1F
100
AcDbEntity
  8
TopPaste
100
AcDbLine
 10
102.11300634
 20
29.40579844
 30
0.0
 11
101.39700574
 21
29.40579844
 31
0.0
  0
LINE
  5
BB
330
1F
100
AcDbEntity
  8
TopPaste
100
AcDbLine
 10
101.39700574
 20
27.81899948
 30
0.0
 11
101.39700574
 21
28.28100008
 31
0.0
  0
LINE
  5
BC
330
1F
100
AcDbEntity
  8
TopPaste
100
AcDbLine
 10
101.39700574
 20
28.28100008
 30
0.0
 11
102.11300634
 21
28.28100008
 31
0.0
  0
LINE
  5
BD
330
1F
100
AcDbEntity
  8
TopPaste
100
AcDbLine
 10
102.11300634
 20
28.28100008
 30
0.0
 11
102.11300634
 21
27.81899948
 31
0.0
  0
LINE
  5
BE
330
1F
100
AcDbEntity
  8
TopPaste
100
AcDbLine
 10
102.11300634
 20
27.81899948
 30
0.0
 11
101.39700574
 21
27.81899948
 31
0.0
  0
LINE
  5
BF
330
1F
100
AcDbEntity
  8
TopPaste
100
AcDbLine
 10
124.4569901
 20
29.40579844
 30
0.0
 11
124.4569901
 21
29.86779904
 31
0.0
  0
LINE
  5
C0
330
1F
100
AcDbEntity
  8
TopPaste
100
AcDbLine
 10
124.4569901
 20
29.86779904
 30
0.0
 11
125.1729907
 21
29.86779904
 31
0.0
  0
LINE
  5
C1
330
1F
100
AcDbEntity
  8
TopPaste
100
AcDbLine
 10
125.1729907
 20
29.86779904
 30
0.0
 11
125.1729907
 21
29.40579844
 31
0.0
  0
LINE
  5
C2
330
1F
100
AcDbEntity
  8
TopPaste
100
AcDbLine
 10
125.1729907
 20
29.40579844
 30
0.0
 11
124.4569901
 21
29.40579844
 31
0.0
  0
LINE
  5
C3
330
1F
100
AcDbEntity
  8
TopPaste
100
AcDbLine
 10
124.4569901
 20
27.81899948
 30
0.0
 11
124.4569901
 21
28.28100008
 31
0.0
  0
LINE
  5
C4
330
1F
100
AcDbEntity
  8
TopPaste
100
AcDbLine
 10
124.4569901
 20
28.28100008
 30
0.0
 11
125.1729907
 21
28.28100008
 31
0.0
  0
LINE
  5
C5
330
1F
100
AcDbEntity
  8
TopPaste
100
AcDbLine
 10
125.1729907
 20
28.28100008
 30
0.0
 11
125.1729907
 21
27.81899948
 31
0.0
  0
LINE
  5
C6
330
1F
100
AcDbEntity
  8
TopPaste
100
AcDbLine
 10
125.1729907
 20
27.81899948
 30
0.0
 11
124.4569901
 21
27.81899948
 31
0.0
  0
LINE
  5
C7
330
1F
100
AcDbEntity
  8
TopPaste
100
AcDbLine
 10
111.37197944
 20
29.40579844
 30
0.0
 11
111.37197944
 21
29.86779904
 31
0.0
  0
LINE
  5
C8
330
1F
100
AcDbEntity
  8
TopPaste
100
AcDbLine
 10
111.37197944
 20
29.86779904
 30
0.0
 11
112.08798004
 21
29.86779904
 31
0.0
  0
LINE
  5
C9
330
1F
100
AcDbEntity
  8
TopPaste
100
AcDbLine
 10
112.08798004
 20
29.86779904
 30
0.0
 11
112.08798004
 21
29.40579844
 31
0.0
  0
LINE
  5
CA
330
1F
100
AcDbEntity
  8
TopPaste
100
AcDbLine
 10
112.08798004
 20
29.40579844
 30
0.0
 11
111.37197944
 21
29.40579844
 31
0.0
  0
LINE
  5
CB
330
1F
100
AcDbEntity
  8
TopPaste
100
AcDbLine
 10
111.37197944
 20
27.81899948
 30
0.0
 11
111.37197944
 21
28.28100008
 31
0.0
  0
LINE
  5
CC
330
1F
100
AcDbEntity
  8
TopPaste
100
AcDbLine
 10
111.37197944
 20
28.28100008
 30
0.0
 11
112.08798004
 21
28.28100008
 31
0.0
  0
LINE
  5
CD
330
1F
100
AcDbEntity
  8
TopPaste
100
AcDbLine
 10
112.08798004
 20
28.28100008
 30
0.0
 11
112.08798004
 21
27.81899948
 31
0.0
  0
LINE
  5
CE
330
1F
100
AcDbEntity
  8
TopPaste
100
AcDbLine
 10
112.08798004
 20
27.81899948
 30
0.0
 11
111.37197944
 21
27.81899948
 31
0.0
  0
CIRCLE
  5
CF
330
1F
100
AcDbEntity
  8
TopPaste
100
AcDbCircle
 10
224.50000058
 20
8.99999978
 30
0.0
 40
0.3499993
  0
LINE
  5
D0
330
1F
100
AcDbEntity
  8
TopPaste
100
AcDbLine
 10
25.07499811
 20
26.42499795
 30
0.0
 11
25.07499811
 21
26.92499949
 31
0.0
  0
LINE
  5
D1
330
1F
100
AcDbEntity
  8
TopPaste
100
AcDbLine
 10
25.07499811
 20
26.92499949
 30
0.0
 11
25.12499801
 21
26.92499949
 31
0.0
  0
LINE
  5
D2
330
1F
100
AcDbEntity
  8
TopPaste
100
AcDbLine
 10
25.12499801
 20
26.92499949
 30
0.0
 11
25.12499801
 21
26.42499795
 31
0.0
  0
LINE
  5
D3
330
1F
100
AcDbEntity
  8
TopPaste
100
AcDbLine
 10
25.12499801
 20
26.42499795
 30
0.0
 11
25.07499811
 21
26.42499795
 31
0.0
  0
LINE
  5
D4
330
1F
100
AcDbEntity
  8
TopPaste
100
AcDbLine
 10
24.57500165
 20
26.42499795
 30
0.0
 11
24.57500165
 21
26.92499949
 31
0.0
  0
LINE
  5
D5
330
1F
100
AcDbEntity
  8
TopPaste
100
AcDbLine
 10
24.57500165
 20
26.92499949
 30
0.0
 11
24.62500155
 21
26.92499949
 31
0.0
  0
LINE
  5
D6
330
1F
100
AcDbEntity
  8
TopPaste
100
AcDbLine
 10
24.62500155
 20
26.92499949
 30
0.0
 11
24.62500155
 21
26.42499795
 31
0.0
  0
LINE
  5
D7
330
1F
100
AcDbEntity
  8
TopPaste
100
AcDbLine
 10
24.62500155
 20
26.42499795
 30
0.0
 11
24.57500165
 21
26.42499795
 31
0.0
  0
LINE
  5
D8
330
1F
100
AcDbEntity
  8
TopPaste
100
AcDbLine
 10
24.07500519
 20
26.42499795
 30
0.0
 11
24.07500519
 21
26.92499949
 31
0.0
  0
LINE
  5
D9
330
1F
100
AcDbEntity
  8
TopPaste
100
AcDbLine
 10
24.07500519
 20
26.92499949
 30
0.0
 11
24.12500509
 21
26.92499949
 31
0.0
  0
LINE
  5
DA
330
1F
100
AcDbEntity
  8
TopPaste
100
AcDbLine
 10
24.12500509
 20
26.92499949
 30
0.0
 11
24.12500509
 21
26.42499795
 31
0.0
  0
LINE
  5
DB
330
1F
100
AcDbEntity
  8
TopPaste
100
AcDbLine
 10
24.12500509
 20
26.42499795
 30
0.0
 11
24.07500519
 21
26.42499795
 31
0.0
  0
LINE
  5
DC
330
1F
100
AcDbEntity
  8
TopPaste
100
AcDbLine
 10
23.57500619
 20
26.42499795
 30
0.0
 11
23.57500619
 21
26.92499949
 31
0.0
  0
LINE
  5
DD
330
1F
100
AcDbEntity
  8
TopPaste
100
AcDbLine
 10
23.57500619
 20
26.92499949
 30
0.0
 11
23.62500609
 21
26.92499949
 31
0.0
  0
LINE
  5
DE
330
1F
100
AcDbEntity
  8
TopPaste
100
AcDbLine
 10
23.62500609
 20
26.92499949
 30
0.0
 11
23.62500609
 21
26.42499795
 31
0.0
  0
LINE
  5
DF
330
1F
100
AcDbEntity
  8
TopPaste
100
AcDbLine
 10
23.62500609
 20
26.42499795
 30
0.0
 11
23.57500619
 21
26.42499795
 31
0.0
  0
LINE
  5
E0
330
1F
100
AcDbEntity
  8
TopPaste
100
AcDbLine
 10
23.07500719
 20
26.42499795
 30
0.0
 11
23.07500719
 21
26.92499949
 31
0.0
  0
LINE
  5
E1
330
1F
100
AcDbEntity
  8
TopPaste
100
AcDbLine
 10
23.07500719
 20
26.92499949
 30
0.0
 11
23.12500709
 21
26.92499949
 31
0.0
  0
LINE
  5
E2
330
1F
100
AcDbEntity
  8
TopPaste
100
AcDbLine
 10
23.12500709
 20
26.92499949
 30
0.0
 11
23.12500709
 21
26.42499795
 31
0.0
  0
LINE
  5
E3
330
1F
100
AcDbEntity
  8
TopPaste
100
AcDbLine
 10
23.12500709
 20
26.42499795
 30
0.0
 11
23.07500719
 21
26.42499795
 31
0.0
  0
LINE
  5
E4
330
1F
100
AcDbEntity
  8
TopPaste
100
AcDbLine
 10
23.07500465
 20
29.27499733
 30
0.0
 11
23.07500465
 21
29.77499887
 31
0.0
  0
LINE
  5
E5
330
1F
100
AcDbEntity
  8
TopPaste
100
AcDbLine
 10
23.07500465
 20
29.77499887
 30
0.0
 11
23.12500455
 21
29.77499887
 31
0.0
  0
LINE
  5
E6
330
1F
100
AcDbEntity
  8
TopPaste
100
AcDbLine
 10
23.12500455
 20
29.77499887
 30
0.0
 11
23.12500455
 21
29.27499733
 31
0.0
  0
LINE
  5
E7
330
1F
100
AcDbEntity
  8
TopPaste
100
AcDbLine
 10
23.12500455
 20
29.27499733
 30
0.0
 11
23.07500465
 21
29.27499733
 31
0.0
  0
LINE
  5
E8
330
1F
100
AcDbEntity
  8
TopPaste
100
AcDbLine
 10
23.57500365
 20
29.27499733
 30
0.0
 11
23.57500365
 21
29.77499887
 31
0.0
  0
LINE
  5
E9
330
1F
100
AcDbEntity
  8
TopPaste
100
AcDbLine
 10
23.57500365
 20
29.77499887
 30
0.0
 11
23.62500355
 21
29.77499887
 31
0.0
  0
LINE
  5
EA
330
1F
100
AcDbEntity
  8
TopPaste
100
AcDbLine
 10
23.62500355
 20
29.77499887
 30
0.0
 11
23.62500355
 21
29.27499733
 31
0.0
  0
LINE
  5
EB
330
1F
100
AcDbEntity
  8
TopPaste
100
AcDbLine
 10
23.62500355
 20
29.27499733
 30
0.0
 11
23.57500365
 21
29.27499733
 31
0.0
  0
LINE
  5
EC
330
1F
100
AcDbEntity
  8
TopPaste
100
AcDbLine
 10
24.07500265
 20
29.27499733
 30
0.0
 11
24.07500265
 21
29.77499887
 31
0.0
  0
LINE
  5
ED
330
1F
100
AcDbEntity
  8
TopPaste
100
AcDbLine
 10
24.07500265
 20
29.77499887
 30
0.0
 11
24.12500255
 21
29.77499887
 31
0.0
  0
LINE
  5
EE
330
1F
100
AcDbEntity
  8
TopPaste
100
AcDbLine
 10
24.12500255
 20
29.77499887
 30
0.0
 11
24.12500255
 21
29.27499733
 31
0.0
  0
LINE
  5
EF
330
1F
100
AcDbEntity
  8
TopPaste
100
AcDbLine
 10
24.12500255
 20
29.27499733
 30
0.0
 11
24.07500265
 21
29.27499733
 31
0.0
  0
LINE
  5
F0
330
1F
100
AcDbEntity
  8
TopPaste
100
AcDbLine
 10
24.57500165
 20
29.27499733
 30
0.0
 11
24.57500165
 21
29.77499887
 31
0.0
  0
LINE
  5
F1
330
1F
100
AcDbEntity
  8
TopPaste
100
AcDbLine
 10
24.57500165
 20
29.77499887
 30
0.0
 11
24.62500155
 21
29.77499887
 31
0.0
  0
LINE
  5
F2
330
1F
100
AcDbEntity
  8
TopPaste
100
AcDbLine
 10
24.62500155
 20
29.77499887
 30
0.0
 11
24.62500155
 21
29.27499733
 31
0.0
  0
LINE
  5
F3
330
1F
100
AcDbEntity
  8
TopPaste
100
AcDbLine
 10
24.62500155
 20
29.27499733
 30
0.0
 11
24.57500165
 21
29.27499733
 31
0.0
  0
LINE
  5
F4
330
1F
100
AcDbEntity
  8
TopPaste
100
AcDbLine
 10
25.07500065
 20
29.27499733
 30
0.0
 11
25.07500065
 21
29.77499887
 31
0.0
  0
LINE
  5
F5
330
1F
100
AcDbEntity
  8
TopPaste
100
AcDbLine
 10
25.07500065
 20
29.77499887
 30
0.0
 11
25.12500055
 21
29.77499887
 31
0.0
  0
LINE
  5
F6
330
1F
100
AcDbEntity
  8
TopPaste
100
AcDbLine
 10
25.12500055
 20
29.77499887
 30
0.0
 11
25.12500055
 21
29.27499733
 31
0.0
  0
LINE
  5
F7
330
1F
100
AcDbEntity
  8
TopPaste
100
AcDbLine
 10
25.12500055
 20
29.27499733
 30
0.0
 11
25.07500065
 21
29.27499733
 31
0.0
  0
LINE
  5
F8
330
1F
100
AcDbEntity
  8
TopPaste
100
AcDbLine
 10
23.0599996
 20
27.42499722
 30
0.0
 11
23.0599996
 21
28.77499706
 31
0.0
  0
LINE
  5
F9
330
1F
100
AcDbEntity
  8
TopPaste
100
AcDbLine
 10
23.0599996
 20
28.77499706
 30
0.0
 11
25.14000052
 21
28.77499706
 31
0.0
  0
LINE
  5
FA
330
1F
100
AcDbEntity
  8
TopPaste
100
AcDbLine
 10
25.14000052
 20
28.77499706
 30
0.0
 11
25.14000052
 21
27.42499722
 31
0.0
  0
LINE
  5
FB
330
1F
100
AcDbEntity
  8
TopPaste
100
AcDbLine
 10
25.14000052
 20
27.42499722
 30
0.0
 11
23.0599996
 21
27.42499722
 31
0.0
  0
LINE
  5
FC
330
1F
100
AcDbEntity
  8
TopPaste
100
AcDbLine
 10
207.50800256
 20
14.7376007
 30
0.0
 11
207.50800256
 21
14.2756001
 31
0.0
  0
LINE
  5
FD
330
1F
100
AcDbEntity
  8
TopPaste
100
AcDbLine
 10
207.50800256
 20
14.2756001
 30
0.0
 11
206.79200196
 21
14.2756001
 31
0.0
  0
LINE
  5
FE
330
1F
100
AcDbEntity
  8
TopPaste
100
AcDbLine
 10
206.79200196
 20
14.2756001
 30
0.0
 11
206.79200196
 21
14.7376007
 31
0.0
  0
LINE
  5
FF
330
1F
100
AcDbEntity
  8
TopPaste
100
AcDbLine
 10
206.79200196
 20
14.7376007
 30
0.0
 11
207.50800256
 21
14.7376007
 31
0.0
  0
LINE
  5
100
330
1F
100
AcDbEntity
  8
TopPaste
100
AcDbLine
 10
207.50800256
 20
16.32439966
 30
0.0
 11
207.50800256
 21
15.86239906
 31
0.0
  0
LINE
  5
101
330
1F
100
AcDbEntity
  8
TopPaste
100
AcDbLine
 10
207.50800256
 20
15.86239906
 30
0.0
 11
206.79200196
 21
15.86239906
 31
0.0
  0
LINE
  5
102
330
1F
100
AcDbEntity
  8
TopPaste
100
AcDbLine
 10
206.79200196
 20
15.86239906
 30
0.0
 11
206.79200196
 21
16.32439966
 31
0.0
  0
LINE
  5
103
330
1F
100
AcDbEntity
  8
TopPaste
100
AcDbLine
 10
206.79200196
 20
16.32439966
 30
0.0
 11
207.50800256
 21
16.32439966
 31
0.0
  0
LINE
  5
104
330
1F
100
AcDbEntity
  8
TopPaste
100
AcDbLine
 10
162.3557967
 20
14.7376007
 30
0.0
 11
162.3557967
 21
14.2756001
 31
0.0
  0
LINE
  5
105
330
1F
100
AcDbEntity
  8
TopPaste
100
AcDbLine
 10
162.3557967
 20
14.2756001
 30
0.0
 11
161.6397961
 21
14.2756001
 31
0.0
  0
LINE
  5
106
330
1F
100
AcDbEntity
  8
TopPaste
100
AcDbLine
 10
161.6397961
 20
14.2756001
 30
0.0
 11
161.6397961
 21
14.7376007
 31
0.0
  0
LINE
  5
107
330
1F
100
AcDbEntity
  8
TopPaste
100
AcDbLine
 10
161.6397961
 20
14.7376007
 30
0.0
 11
162.3557967
 21
14.7376007
 31
0.0
  0
LINE
  5
108
330
1F
100
AcDbEntity
  8
TopPaste
100
AcDbLine
 10
162.3557967
 20
16.32439966
 30
0.0
 11
162.3557967
 21
15.86239906
 31
0.0
  0
LINE
  5
109
330
1F
100
AcDbEntity
  8
TopPaste
100
AcDbLine
 10
162.3557967
 20
15.86239906
 30
0.0
 11
161.6397961
 21
15.86239906
 31
0.0
  0
LINE
  5
10A
330
1F
100
AcDbEntity
  8
TopPaste
100
AcDbLine
 10
161.6397961
 20
15.86239906
 30
0.0
 11
161.6397961
 21
16.32439966
 31
0.0
  0
LINE
  5
10B
330
1F
100
AcDbEntity
  8
TopPaste
100
AcDbLine
 10
161.6397961
 20
16.32439966
 30
0.0
 11
162.3557967
 21
16.32439966
 31
0.0
  0
LINE
  5
10C
330
1F
100
AcDbEntity
  8
TopPaste
100
AcDbLine
 10
117.3423993
 20
14.7376007
 30
0.0
 11
117.3423993
 21
14.2756001
 31
0.0
  0
LINE
  5
10D
330
1F
100
AcDbEntity
  8
TopPaste
100
AcDbLine
 10
117.3423993
 20
14.2756001
 30
0.0
 11
116.6263987
 21
14.2756001
 31
0.0
  0
LINE
  5
10E
330
1F
100
AcDbEntity
  8
TopPaste
100
AcDbLine
 10
116.6263987
 20
14.2756001
 30
0.0
 11
116.6263987
 21
14.7376007
 31
0.0
  0
LINE
  5
10F
330
1F
100
AcDbEntity
  8
TopPaste
100
AcDbLine
 10
116.6263987
 20
14.7376007
 30
0.0
 11
117.3423993
 21
14.7376007
 31
0.0
  0
LINE
  5
110
330
1F
100
AcDbEntity
  8
TopPaste
100
AcDbLine
 10
117.3423993
 20
16.32439966
 30
0.0
 11
117.3423993
 21
15.86239906
 31
0.0
  0
LINE
  5
111
330
1F
100
AcDbEntity
  8
TopPaste
100
AcDbLine
 10
117.3423993
 20
15.86239906
 30
0.0
 11
116.6263987
 21
15.86239906
 31
0.0
  0
LINE
  5
112
330
1F
100
AcDbEntity
  8
TopPaste
100
AcDbLine
 10
116.6263987
 20
15.86239906
 30
0.0
 11
116.6263987
 21
16.32439966
 31
0.0
  0
LINE
  5
113
330
1F
100
AcDbEntity
  8
TopPaste
100
AcDbLine
 10
116.6263987
 20
16.32439966
 30
0.0
 11
117.3423993
 21
16.32439966
 31
0.0
  0
LINE
  5
114
330
1F
100
AcDbEntity
  8
TopPaste
100
AcDbLine
 10
72.29999763999999
 20
14.7376007
 30
0.0
 11
72.29999763999999
 21
14.2756001
 31
0.0
  0
LINE
  5
115
330
1F
100
AcDbEntity
  8
TopPaste
100
AcDbLine
 10
72.29999763999999
 20
14.2756001
 30
0.0
 11
71.58399704
 21
14.2756001
 31
0.0
  0
LINE
  5
116
330
1F
100
AcDbEntity
  8
TopPaste
100
AcDbLine
 10
71.58399704
 20
14.2756001
 30
0.0
 11
71.58399704
 21
14.7376007
 31
0.0
  0
LINE
  5
117
330
1F
100
AcDbEntity
  8
TopPaste
100
AcDbLine
 10
71.58399704
 20
14.7376007
 30
0.0
 11
72.29999763999999
 21
14.7376007
 31
0.0
  0
LINE
  5
118
330
1F
100
AcDbEntity
  8
TopPaste
100
AcDbLine
 10
72.29999763999999
 20
16.32439966
 30
0.0
 11
72.29999763999999
 21
15.86239906
 31
0.0
  0
LINE
  5
119
330
1F
100
AcDbEntity
  8
TopPaste
100
AcDbLine
 10
72.29999763999999
 20
15.86239906
 30
0.0
 11
71.58399704
 21
15.86239906
 31
0.0
  0
LINE
  5
11A
330
1F
100
AcDbEntity
  8
TopPaste
100
AcDbLine
 10
71.58399704
 20
15.86239906
 30
0.0
 11
71.58399704
 21
16.32439966
 31
0.0
  0
LINE
  5
11B
330
1F
100
AcDbEntity
  8
TopPaste
100
AcDbLine
 10
71.58399704
 20
16.32439966
 30
0.0
 11
72.29999763999999
 21
16.32439966
 31
0.0
  0
LINE
  5
11C
330
1F
100
AcDbEntity
  8
TopPaste
100
AcDbLine
 10
27.25799984
 20
14.7376007
 30
0.0
 11
27.25799984
 21
14.2756001
 31
0.0
  0
LINE
  5
11D
330
1F
100
AcDbEntity
  8
TopPaste
100
AcDbLine
 10
27.25799984
 20
14.2756001
 30
0.0
 11
26.54199924
 21
14.2756001
 31
0.0
  0
LINE
  5
11E
330
1F
100
AcDbEntity
  8
TopPaste
100
AcDbLine
 10
26.54199924
 20
14.2756001
 30
0.0
 11
26.54199924
 21
14.7376007
 31
0.0
  0
LINE
  5
11F
330
1F
100
AcDbEntity
  8
TopPaste
100
AcDbLine
 10
26.54199924
 20
14.7376007
 30
0.0
 11
27.25799984
 21
14.7376007
 31
0.0
  0
LINE
  5
120
330
1F
100
AcDbEntity
  8
TopPaste
100
AcDbLine
 10
27.25799984
 20
16.32439966
 30
0.0
 11
27.25799984
 21
15.86239906
 31
0.0
  0
LINE
  5
121
330
1F
100
AcDbEntity
  8
TopPaste
100
AcDbLine
 10
27.25799984
 20
15.86239906
 30
0.0
 11
26.54199924
 21
15.86239906
 31
0.0
  0
LINE
  5
122
330
1F
100
AcDbEntity
  8
TopPaste
100
AcDbLine
 10
26.54199924
 20
15.86239906
 30
0.0
 11
26.54199924
 21
16.32439966
 31
0.0
  0
LINE
  5
123
330
1F
100
AcDbEntity
  8
TopPaste
100
AcDbLine
 10
26.54199924
 20
16.32439966
 30
0.0
 11
27.25799984
 21
16.32439966
 31
0.0
  0
LINE
  5
124
330
1F
100
AcDbEntity
  8
TopPaste
100
AcDbLine
 10
200.4330002
 20
14.7376007
 30
0.0
 11
200.4330002
 21
14.2756001
 31
0.0
  0
LINE
  5
125
330
1F
100
AcDbEntity
  8
TopPaste
100
AcDbLine
 10
200.4330002
 20
14.2756001
 30
0.0
 11
199.7169996
 21
14.2756001
 31
0.0
  0
LINE
  5
126
330
1F
100
AcDbEntity
  8
TopPaste
100
AcDbLine
 10
199.7169996
 20
14.2756001
 30
0.0
 11
199.7169996
 21
14.7376007
 31
0.0
  0
LINE
  5
127
330
1F
100
AcDbEntity
  8
TopPaste
100
AcDbLine
 10
199.7169996
 20
14.7376007
 30
0.0
 11
200.4330002
 21
14.7376007
 31
0.0
  0
LINE
  5
128
330
1F
100
AcDbEntity
  8
TopPaste
100
AcDbLine
 10
200.4330002
 20
16.32439966
 30
0.0
 11
200.4330002
 21
15.86239906
 31
0.0
  0
LINE
  5
129
330
1F
100
AcDbEntity
  8
TopPaste
100
AcDbLine
 10
200.4330002
 20
15.86239906
 30
0.0
 11
199.7169996
 21
15.86239906
 31
0.0
  0
LINE
  5
12A
330
1F
100
AcDbEntity
  8
TopPaste
100
AcDbLine
 10
199.7169996
 20
15.86239906
 30
0.0
 11
199.7169996
 21
16.32439966
 31
0.0
  0
LINE
  5
12B
330
1F
100
AcDbEntity
  8
TopPaste
100
AcDbLine
 10
199.7169996
 20
16.32439966
 30
0.0
 11
200.4330002
 21
16.32439966
 31
0.0
  0
LINE
  5
12C
330
1F
100
AcDbEntity
  8
TopPaste
100
AcDbLine
 10
155.2557982
 20
14.7376007
 30
0.0
 11
155.2557982
 21
14.2756001
 31
0.0
  0
LINE
  5
12D
330
1F
100
AcDbEntity
  8
TopPaste
100
AcDbLine
 10
155.2557982
 20
14.2756001
 30
0.0
 11
154.5397976
 21
14.2756001
 31
0.0
  0
LINE
  5
12E
330
1F
100
AcDbEntity
  8
TopPaste
100
AcDbLine
 10
154.5397976
 20
14.2756001
 30
0.0
 11
154.5397976
 21
14.7376007
 31
0.0
  0
LINE
  5
12F
330
1F
100
AcDbEntity
  8
TopPaste
100
AcDbLine
 10
154.5397976
 20
14.7376007
 30
0.0
 11
155.2557982
 21
14.7376007
 31
0.0
  0
LINE
  5
130
330
1F
100
AcDbEntity
  8
TopPaste
100
AcDbLine
 10
155.2557982
 20
16.32439966
 30
0.0
 11
155.2557982
 21
15.86239906
 31
0.0
  0
LINE
  5
131
330
1F
100
AcDbEntity
  8
TopPaste
100
AcDbLine
 10
155.2557982
 20
15.86239906
 30
0.0
 11
154.5397976
 21
15.86239906
 31
0.0
  0
LINE
  5
132
330
1F
100
AcDbEntity
  8
TopPaste
100
AcDbLine
 10
154.5397976
 20
15.86239906
 30
0.0
 11
154.5397976
 21
16.32439966
 31
0.0
  0
LINE
  5
133
330
1F
100
AcDbEntity
  8
TopPaste
100
AcDbLine
 10
154.5397976
 20
16.32439966
 30
0.0
 11
155.2557982
 21
16.32439966
 31
0.0
  0
LINE
  5
134
330
1F
100
AcDbEntity
  8
TopPaste
100
AcDbLine
 10
110.49239776
 20
16.32439966
 30
0.0
 11
110.49239776
 21
15.86239906
 31
0.0
  0
LINE
  5
135
330
1F
100
AcDbEntity
  8
TopPaste
100
AcDbLine
 10
110.49239776
 20
15.86239906
 30
0.0
 11
109.77639716
 21
15.86239906
 31
0.0
  0
LINE
  5
136
330
1F
100
AcDbEntity
  8
TopPaste
100
AcDbLine
 10
109.77639716
 20
15.86239906
 30
0.0
 11
109.77639716
 21
16.32439966
 31
0.0
  0
LINE
  5
137
330
1F
100
AcDbEntity
  8
TopPaste
100
AcDbLine
 10
109.77639716
 20
16.32439966
 30
0.0
 11
110.49239776
 21
16.32439966
 31
0.0
  0
LINE
  5
138
330
1F
100
AcDbEntity
  8
TopPaste
100
AcDbLine
 10
110.49239776
 20
14.7376007
 30
0.0
 11
110.49239776
 21
14.2756001
 31
0.0
  0
LINE
  5
139
330
1F
100
AcDbEntity
  8
TopPaste
100
AcDbLine
 10
110.49239776
 20
14.2756001
 30
0.0
 11
109.77639716
 21
14.2756001
 31
0.0
  0
LINE
  5
13A
330
1F
100
AcDbEntity
  8
TopPaste
100
AcDbLine
 10
109.77639716
 20
14.2756001
 30
0.0
 11
109.77639716
 21
14.7376007
 31
0.0
  0
LINE
  5
13B
330
1F
100
AcDbEntity
  8
TopPaste
100
AcDbLine
 10
109.77639716
 20
14.7376007
 30
0.0
 11
110.49239776
 21
14.7376007
 31
0.0
  0
LINE
  5
13C
330
1F
100
AcDbEntity
  8
TopPaste
100
AcDbLine
 10
65.499996
 20
14.7376007
 30
0.0
 11
65.499996
 21
14.2756001
 31
0.0
  0
LINE
  5
13D
330
1F
100
AcDbEntity
  8
TopPaste
100
AcDbLine
 10
65.499996
 20
14.2756001
 30
0.0
 11
64.7839954
 21
14.2756001
 31
0.0
  0
LINE
  5
13E
330
1F
100
AcDbEntity
  8
TopPaste
100
AcDbLine
 10
64.7839954
 20
14.2756001
 30
0.0
 11
64.7839954
 21
14.7376007
 31
0.0
  0
LINE
  5
13F
330
1F
100
AcDbEntity
  8
TopPaste
100
AcDbLine
 10
64.7839954
 20
14.7376007
 30
0.0
 11
65.499996
 21
14.7376007
 31
0.0
  0
LINE
  5
140
330
1F
100
AcDbEntity
  8
TopPaste
100
AcDbLine
 10
65.499996
 20
16.32439966
 30
0.0
 11
65.499996
 21
15.86239906
 31
0.0
  0
LINE
  5
141
330
1F
100
AcDbEntity
  8
TopPaste
100
AcDbLine
 10
65.499996
 20
15.86239906
 30
0.0
 11
64.7839954
 21
15.86239906
 31
0.0
  0
LINE
  5
142
330
1F
100
AcDbEntity
  8
TopPaste
100
AcDbLine
 10
64.7839954
 20
15.86239906
 30
0.0
 11
64.7839954
 21
16.32439966
 31
0.0
  0
LINE
  5
143
330
1F
100
AcDbEntity
  8
TopPaste
100
AcDbLine
 10
64.7839954
 20
16.32439966
 30
0.0
 11
65.499996
 21
16.32439966
 31
0.0
  0
LINE
  5
144
330
1F
100
AcDbEntity
  8
TopPaste
100
AcDbLine
 10
20.3579984
 20
14.7376007
 30
0.0
 11
20.3579984
 21
14.2756001
 31
0.0
  0
LINE
  5
145
330
1F
100
AcDbEntity
  8
TopPaste
100
AcDbLine
 10
20.3579984
 20
14.2756001
 30
0.0
 11
19.6419978
 21
14.2756001
 31
0.0
  0
LINE
  5
146
330
1F
100
AcDbEntity
  8
TopPaste
100
AcDbLine
 10
19.6419978
 20
14.2756001
 30
0.0
 11
19.6419978
 21
14.7376007
 31
0.0
  0
LINE
  5
147
330
1F
100
AcDbEntity
  8
TopPaste
100
AcDbLine
 10
19.6419978
 20
14.7376007
 30
0.0
 11
20.3579984
 21
14.7376007
 31
0.0
  0
LINE
  5
148
330
1F
100
AcDbEntity
  8
TopPaste
100
AcDbLine
 10
20.3579984
 20
16.32439966
 30
0.0
 11
20.3579984
 21
15.86239906
 31
0.0
  0
LINE
  5
149
330
1F
100
AcDbEntity
  8
TopPaste
100
AcDbLine
 10
20.3579984
 20
15.86239906
 30
0.0
 11
19.6419978
 21
15.86239906
 31
0.0
  0
LINE
  5
14A
330
1F
100
AcDbEntity
  8
TopPaste
100
AcDbLine
 10
19.6419978
 20
15.86239906
 30
0.0
 11
19.6419978
 21
16.32439966
 31
0.0
  0
LINE
  5
14B
330
1F
100
AcDbEntity
  8
TopPaste
100
AcDbLine
 10
19.6419978
 20
16.32439966
 30
0.0
 11
20.3579984
 21
16.32439966
 31
0.0
  0
LINE
  5
14C
330
1F
100
AcDbEntity
  8
TopPaste
100
AcDbLine
 10
193.40800282
 20
14.7376007
 30
0.0
 11
193.40800282
 21
14.2756001
 31
0.0
  0
LINE
  5
14D
330
1F
100
AcDbEntity
  8
TopPaste
100
AcDbLine
 10
193.40800282
 20
14.2756001
 30
0.0
 11
192.69200222
 21
14.2756001
 31
0.0
  0
LINE
  5
14E
330
1F
100
AcDbEntity
  8
TopPaste
100
AcDbLine
 10
192.69200222
 20
14.2756001
 30
0.0
 11
192.69200222
 21
14.7376007
 31
0.0
  0
LINE
  5
14F
330
1F
100
AcDbEntity
  8
TopPaste
100
AcDbLine
 10
192.69200222
 20
14.7376007
 30
0.0
 11
193.40800282
 21
14.7376007
 31
0.0
  0
LINE
  5
150
330
1F
100
AcDbEntity
  8
TopPaste
100
AcDbLine
 10
193.40800282
 20
16.32439966
 30
0.0
 11
193.40800282
 21
15.86239906
 31
0.0
  0
LINE
  5
151
330
1F
100
AcDbEntity
  8
TopPaste
100
AcDbLine
 10
193.40800282
 20
15.86239906
 30
0.0
 11
192.69200222
 21
15.86239906
 31
0.0
  0
LINE
  5
152
330
1F
100
AcDbEntity
  8
TopPaste
100
AcDbLine
 10
192.69200222
 20
15.86239906
 30
0.0
 11
192.69200222
 21
16.32439966
 31
0.0
  0
LINE
  5
153
330
1F
100
AcDbEntity
  8
TopPaste
100
AcDbLine
 10
192.69200222
 20
16.32439966
 30
0.0
 11
193.40800282
 21
16.32439966
 31
0.0
  0
LINE
  5
154
330
1F
100
AcDbEntity
  8
TopPaste
100
AcDbLine
 10
148.35579676
 20
14.7376007
 30
0.0
 11
148.35579676
 21
14.2756001
 31
0.0
  0
LINE
  5
155
330
1F
100
AcDbEntity
  8
TopPaste
100
AcDbLine
 10
148.35579676
 20
14.2756001
 30
0.0
 11
147.63979616
 21
14.2756001
 31
0.0
  0
LINE
  5
156
330
1F
100
AcDbEntity
  8
TopPaste
100
AcDbLine
 10
147.63979616
 20
14.2756001
 30
0.0
 11
147.63979616
 21
14.7376007
 31
0.0
  0
LINE
  5
157
330
1F
100
AcDbEntity
  8
TopPaste
100
AcDbLine
 10
147.63979616
 20
14.7376007
 30
0.0
 11
148.35579676
 21
14.7376007
 31
0.0
  0
LINE
  5
158
330
1F
100
AcDbEntity
  8
TopPaste
100
AcDbLine
 10
148.35579676
 20
16.32439966
 30
0.0
 11
148.35579676
 21
15.86239906
 31
0.0
  0
LINE
  5
159
330
1F
100
AcDbEntity
  8
TopPaste
100
AcDbLine
 10
148.35579676
 20
15.86239906
 30
0.0
 11
147.63979616
 21
15.86239906
 31
0.0
  0
LINE
  5
15A
330
1F
100
AcDbEntity
  8
TopPaste
100
AcDbLine
 10
147.63979616
 20
15.86239906
 30
0.0
 11
147.63979616
 21
16.32439966
 31
0.0
  0
LINE
  5
15B
330
1F
100
AcDbEntity
  8
TopPaste
100
AcDbLine
 10
147.63979616
 20
16.32439966
 30
0.0
 11
148.35579676
 21
16.32439966
 31
0.0
  0
LINE
  5
15C
330
1F
100
AcDbEntity
  8
TopPaste
100
AcDbLine
 10
103.31739814
 20
14.7376007
 30
0.0
 11
103.31739814
 21
14.2756001
 31
0.0
  0
LINE
  5
15D
330
1F
100
AcDbEntity
  8
TopPaste
100
AcDbLine
 10
103.31739814
 20
14.2756001
 30
0.0
 11
102.60139754
 21
14.2756001
 31
0.0
  0
LINE
  5
15E
330
1F
100
AcDbEntity
  8
TopPaste
100
AcDbLine
 10
102.60139754
 20
14.2756001
 30
0.0
 11
102.60139754
 21
14.7376007
 31
0.0
  0
LINE
  5
15F
330
1F
100
AcDbEntity
  8
TopPaste
100
AcDbLine
 10
102.60139754
 20
14.7376007
 30
0.0
 11
103.31739814
 21
14.7376007
 31
0.0
  0
LINE
  5
160
330
1F
100
AcDbEntity
  8
TopPaste
100
AcDbLine
 10
103.31739814
 20
16.32439966
 30
0.0
 11
103.31739814
 21
15.86239906
 31
0.0
  0
LINE
  5
161
330
1F
100
AcDbEntity
  8
TopPaste
100
AcDbLine
 10
103.31739814
 20
15.86239906
 30
0.0
 11
102.60139754
 21
15.86239906
 31
0.0
  0
LINE
  5
162
330
1F
100
AcDbEntity
  8
TopPaste
100
AcDbLine
 10
102.60139754
 20
15.86239906
 30
0.0
 11
102.60139754
 21
16.32439966
 31
0.0
  0
LINE
  5
163
330
1F
100
AcDbEntity
  8
TopPaste
100
AcDbLine
 10
102.60139754
 20
16.32439966
 30
0.0
 11
103.31739814
 21
16.32439966
 31
0.0
  0
LINE
  5
164
330
1F
100
AcDbEntity
  8
TopPaste
100
AcDbLine
 10
58.29999515999999
 20
14.7376007
 30
0.0
 11
58.29999515999999
 21
14.2756001
 31
0.0
  0
LINE
  5
165
330
1F
100
AcDbEntity
  8
TopPaste
100
AcDbLine
 10
58.29999515999999
 20
14.2756001
 30
0.0
 11
57.58399456
 21
14.2756001
 31
0.0
  0
LINE
  5
166
330
1F
100
AcDbEntity
  8
TopPaste
100
AcDbLine
 10
57.58399456
 20
14.2756001
 30
0.0
 11
57.58399456
 21
14.7376007
 31
0.0
  0
LINE
  5
167
330
1F
100
AcDbEntity
  8
TopPaste
100
AcDbLine
 10
57.58399456
 20
14.7376007
 30
0.0
 11
58.29999515999999
 21
14.7376007
 31
0.0
  0
LINE
  5
168
330
1F
100
AcDbEntity
  8
TopPaste
100
AcDbLine
 10
58.29999515999999
 20
16.32439966
 30
0.0
 11
58.29999515999999
 21
15.86239906
 31
0.0
  0
LINE
  5
169
330
1F
100
AcDbEntity
  8
TopPaste
100
AcDbLine
 10
58.29999515999999
 20
15.86239906
 30
0.0
 11
57.58399456
 21
15.86239906
 31
0.0
  0
LINE
  5
16A
330
1F
100
AcDbEntity
  8
TopPaste
100
AcDbLine
 10
57.58399456
 20
15.86239906
 30
0.0
 11
57.58399456
 21
16.32439966
 31
0.0
  0
LINE
  5
16B
330
1F
100
AcDbEntity
  8
TopPaste
100
AcDbLine
 10
57.58399456
 20
16.32439966
 30
0.0
 11
58.29999515999999
 21
16.32439966
 31
0.0
  0
LINE
  5
16C
330
1F
100
AcDbEntity
  8
TopPaste
100
AcDbLine
 10
13.35799716
 20
16.32439966
 30
0.0
 11
13.35799716
 21
15.86239906
 31
0.0
  0
LINE
  5
16D
330
1F
100
AcDbEntity
  8
TopPaste
100
AcDbLine
 10
13.35799716
 20
15.86239906
 30
0.0
 11
12.64199656
 21
15.86239906
 31
0.0
  0
LINE
  5
16E
330
1F
100
AcDbEntity
  8
TopPaste
100
AcDbLine
 10
12.64199656
 20
15.86239906
 30
0.0
 11
12.64199656
 21
16.32439966
 31
0.0
  0
LINE
  5
16F
330
1F
100
AcDbEntity
  8
TopPaste
100
AcDbLine
 10
12.64199656
 20
16.32439966
 30
0.0
 11
13.35799716
 21
16.32439966
 31
0.0
  0
LINE
  5
170
330
1F
100
AcDbEntity
  8
TopPaste
100
AcDbLine
 10
13.35799716
 20
14.7376007
 30
0.0
 11
13.35799716
 21
14.2756001
 31
0.0
  0
LINE
  5
171
330
1F
100
AcDbEntity
  8
TopPaste
100
AcDbLine
 10
13.35799716
 20
14.2756001
 30
0.0
 11
12.64199656
 21
14.2756001
 31
0.0
  0
LINE
  5
172
330
1F
100
AcDbEntity
  8
TopPaste
100
AcDbLine
 10
12.64199656
 20
14.2756001
 30
0.0
 11
12.64199656
 21
14.7376007
 31
0.0
  0
LINE
  5
173
330
1F
100
AcDbEntity
  8
TopPaste
100
AcDbLine
 10
12.64199656
 20
14.7376007
 30
0.0
 11
13.35799716
 21
14.7376007
 31
0.0
  0
CIRCLE
  5
174
330
1F
100
AcDbEntity
  8
TopPaste
100
AcDbCircle
 10
7.50000024
 20
2.50000008
 30
0.0
 40
0.3499993
  0
CIRCLE
  5
175
330
1F
100
AcDbEntity
  8
TopPaste
100
AcDbCircle
 10
224.37499956
 20
42.24999931999999
 30
0.0
 40
0.3499993
  0
CIRCLE
  5
176
330
1F
100
AcDbEntity
  8
TopPaste
100
AcDbCircle
 10
7.00000124
 20
48.00000052
 30
0.0
 40
0.3499993
  0
LINE
  5
177
330
1F
100
AcDbEntity
  8
TopPaste
100
AcDbLine
 10
208.32870196
 20
17.4306992
 30
0.0
 11
208.32870196
 21
18.0196998
 31
0.0
  0
LINE
  5
178
330
1F
100
AcDbEntity
  8
TopPaste
100
AcDbLine
 10
208.32870196
 20
18.0196998
 30
0.0
 11
208.91770256
 21
18.0196998
 31
0.0
  0
LINE
  5
179
330
1F
100
AcDbEntity
  8
TopPaste
100
AcDbLine
 10
208.91770256
 20
18.0196998
 30
0.0
 11
208.91770256
 21
17.4306992
 31
0.0
  0
LINE
  5
17A
330
1F
100
AcDbEntity
  8
TopPaste
100
AcDbLine
 10
208.91770256
 20
17.4306992
 30
0.0
 11
208.32870196
 21
17.4306992
 31
0.0
  0
LINE
  5
17B
330
1F
100
AcDbEntity
  8
TopPaste
100
AcDbLine
 10
208.32870196
 20
15.9066992
 30
0.0
 11
208.32870196
 21
16.4956998
 31
0.0
  0
LINE
  5
17C
330
1F
100
AcDbEntity
  8
TopPaste
100
AcDbLine
 10
208.32870196
 20
16.4956998
 30
0.0
 11
208.91770256
 21
16.4956998
 31
0.0
  0
LINE
  5
17D
330
1F
100
AcDbEntity
  8
TopPaste
100
AcDbLine
 10
208.91770256
 20
16.4956998
 30
0.0
 11
208.91770256
 21
15.9066992
 31
0.0
  0
LINE
  5
17E
330
1F
100
AcDbEntity
  8
TopPaste
100
AcDbLine
 10
208.91770256
 20
15.9066992
 30
0.0
 11
208.32870196
 21
15.9066992
 31
0.0
  0
LINE
  5
17F
330
1F
100
AcDbEntity
  8
TopPaste
100
AcDbLine
 10
163.2018961
 20
17.327499
 30
0.0
 11
163.2018961
 21
17.9164996
 31
0.0
  0
LINE
  5
180
330
1F
100
AcDbEntity
  8
TopPaste
100
AcDbLine
 10
163.2018961
 20
17.9164996
 30
0.0
 11
163.7908967
 21
17.9164996
 31
0.0
  0
LINE
  5
181
330
1F
100
AcDbEntity
  8
TopPaste
100
AcDbLine
 10
163.7908967
 20
17.9164996
 30
0.0
 11
163.7908967
 21
17.327499
 31
0.0
  0
LINE
  5
182
330
1F
100
AcDbEntity
  8
TopPaste
100
AcDbLine
 10
163.7908967
 20
17.327499
 30
0.0
 11
163.2018961
 21
17.327499
 31
0.0
  0
LINE
  5
183
330
1F
100
AcDbEntity
  8
TopPaste
100
AcDbLine
 10
163.2018961
 20
15.803499
 30
0.0
 11
163.2018961
 21
16.3924996
 31
0.0
  0
LINE
  5
184
330
1F
100
AcDbEntity
  8
TopPaste
100
AcDbLine
 10
163.2018961
 20
16.3924996
 30
0.0
 11
163.7908967
 21
16.3924996
 31
0.0
  0
LINE
  5
185
330
1F
100
AcDbEntity
  8
TopPaste
100
AcDbLine
 10
163.7908967
 20
16.3924996
 30
0.0
 11
163.7908967
 21
15.803499
 31
0.0
  0
LINE
  5
186
330
1F
100
AcDbEntity
  8
TopPaste
100
AcDbLine
 10
163.7908967
 20
15.803499
 30
0.0
 11
163.2018961
 21
15.803499
 31
0.0
  0
LINE
  5
187
330
1F
100
AcDbEntity
  8
TopPaste
100
AcDbLine
 10
118.1630987
 20
17.4306992
 30
0.0
 11
118.1630987
 21
18.0196998
 31
0.0
  0
LINE
  5
188
330
1F
100
AcDbEntity
  8
TopPaste
100
AcDbLine
 10
118.1630987
 20
18.0196998
 30
0.0
 11
118.7520993
 21
18.0196998
 31
0.0
  0
LINE
  5
189
330
1F
100
AcDbEntity
  8
TopPaste
100
AcDbLine
 10
118.7520993
 20
18.0196998
 30
0.0
 11
118.7520993
 21
17.4306992
 31
0.0
  0
LINE
  5
18A
330
1F
100
AcDbEntity
  8
TopPaste
100
AcDbLine
 10
118.7520993
 20
17.4306992
 30
0.0
 11
118.1630987
 21
17.4306992
 31
0.0
  0
LINE
  5
18B
330
1F
100
AcDbEntity
  8
TopPaste
100
AcDbLine
 10
118.1630987
 20
15.9066992
 30
0.0
 11
118.1630987
 21
16.4956998
 31
0.0
  0
LINE
  5
18C
330
1F
100
AcDbEntity
  8
TopPaste
100
AcDbLine
 10
118.1630987
 20
16.4956998
 30
0.0
 11
118.7520993
 21
16.4956998
 31
0.0
  0
LINE
  5
18D
330
1F
100
AcDbEntity
  8
TopPaste
100
AcDbLine
 10
118.7520993
 20
16.4956998
 30
0.0
 11
118.7520993
 21
15.9066992
 31
0.0
  0
LINE
  5
18E
330
1F
100
AcDbEntity
  8
TopPaste
100
AcDbLine
 10
118.7520993
 20
15.9066992
 30
0.0
 11
118.1630987
 21
15.9066992
 31
0.0
  0
LINE
  5
18F
330
1F
100
AcDbEntity
  8
TopPaste
100
AcDbLine
 10
73.12069704
 20
17.4306992
 30
0.0
 11
73.12069704
 21
18.0196998
 31
0.0
  0
LINE
  5
190
330
1F
100
AcDbEntity
  8
TopPaste
100
AcDbLine
 10
73.12069704
 20
18.0196998
 30
0.0
 11
73.70969764
 21
18.0196998
 31
0.0
  0
LINE
  5
191
330
1F
100
AcDbEntity
  8
TopPaste
100
AcDbLine
 10
73.70969764
 20
18.0196998
 30
0.0
 11
73.70969764
 21
17.4306992
 31
0.0
  0
LINE
  5
192
330
1F
100
AcDbEntity
  8
TopPaste
100
AcDbLine
 10
73.70969764
 20
17.4306992
 30
0.0
 11
73.12069704
 21
17.4306992
 31
0.0
  0
LINE
  5
193
330
1F
100
AcDbEntity
  8
TopPaste
100
AcDbLine
 10
73.12069704
 20
15.9066992
 30
0.0
 11
73.12069704
 21
16.4956998
 31
0.0
  0
LINE
  5
194
330
1F
100
AcDbEntity
  8
TopPaste
100
AcDbLine
 10
73.12069704
 20
16.4956998
 30
0.0
 11
73.70969764
 21
16.4956998
 31
0.0
  0
LINE
  5
195
330
1F
100
AcDbEntity
  8
TopPaste
100
AcDbLine
 10
73.70969764
 20
16.4956998
 30
0.0
 11
73.70969764
 21
15.9066992
 31
0.0
  0
LINE
  5
196
330
1F
100
AcDbEntity
  8
TopPaste
100
AcDbLine
 10
73.70969764
 20
15.9066992
 30
0.0
 11
73.12069704
 21
15.9066992
 31
0.0
  0
LINE
  5
197
330
1F
100
AcDbEntity
  8
TopPaste
100
AcDbLine
 10
28.07869924
 20
17.4306992
 30
0.0
 11
28.07869924
 21
18.0196998
 31
0.0
  0
LINE
  5
198
330
1F
100
AcDbEntity
  8
TopPaste
100
AcDbLine
 10
28.07869924
 20
18.0196998
 30
0.0
 11
28.66769984
 21
18.0196998
 31
0.0
  0
LINE
  5
199
330
1F
100
AcDbEntity
  8
TopPaste
100
AcDbLine
 10
28.66769984
 20
18.0196998
 30
0.0
 11
28.66769984
 21
17.4306992
 31
0.0
  0
LINE
  5
19A
330
1F
100
AcDbEntity
  8
TopPaste
100
AcDbLine
 10
28.66769984
 20
17.4306992
 30
0.0
 11
28.07869924
 21
17.4306992
 31
0.0
  0
LINE
  5
19B
330
1F
100
AcDbEntity
  8
TopPaste
100
AcDbLine
 10
28.07869924
 20
15.9066992
 30
0.0
 11
28.07869924
 21
16.4956998
 31
0.0
  0
LINE
  5
19C
330
1F
100
AcDbEntity
  8
TopPaste
100
AcDbLine
 10
28.07869924
 20
16.4956998
 30
0.0
 11
28.66769984
 21
16.4956998
 31
0.0
  0
LINE
  5
19D
330
1F
100
AcDbEntity
  8
TopPaste
100
AcDbLine
 10
28.66769984
 20
16.4956998
 30
0.0
 11
28.66769984
 21
15.9066992
 31
0.0
  0
LINE
  5
19E
330
1F
100
AcDbEntity
  8
TopPaste
100
AcDbLine
 10
28.66769984
 20
15.9066992
 30
0.0
 11
28.07869924
 21
15.9066992
 31
0.0
  0
LINE
  5
19F
330
1F
100
AcDbEntity
  8
TopPaste
100
AcDbLine
 10
201.2536996
 20
17.4306992
 30
0.0
 11
201.2536996
 21
18.0196998
 31
0.0
  0
LINE
  5
1A0
330
1F
100
AcDbEntity
  8
TopPaste
100
AcDbLine
 10
201.2536996
 20
18.0196998
 30
0.0
 11
201.8427002
 21
18.0196998
 31
0.0
  0
LINE
  5
1A1
330
1F
100
AcDbEntity
  8
TopPaste
100
AcDbLine
 10
201.8427002
 20
18.0196998
 30
0.0
 11
201.8427002
 21
17.4306992
 31
0.0
  0
LINE
  5
1A2
330
1F
100
AcDbEntity
  8
TopPaste
100
AcDbLine
 10
201.8427002
 20
17.4306992
 30
0.0
 11
201.2536996
 21
17.4306992
 31
0.0
  0
LINE
  5
1A3
330
1F
100
AcDbEntity
  8
TopPaste
100
AcDbLine
 10
201.2536996
 20
15.9066992
 30
0.0
 11
201.2536996
 21
16.4956998
 31
0.0
  0
LINE
  5
1A4
330
1F
100
AcDbEntity
  8
TopPaste
100
AcDbLine
 10
201.2536996
 20
16.4956998
 30
0.0
 11
201.8427002
 21
16.4956998
 31
0.0
  0
LINE
  5
1A5
330
1F
100
AcDbEntity
  8
TopPaste
100
AcDbLine
 10
201.8427002
 20
16.4956998
 30
0.0
 11
201.8427002
 21
15.9066992
 31
0.0
  0
LINE
  5
1A6
330
1F
100
AcDbEntity
  8
TopPaste
100
AcDbLine
 10
201.8427002
 20
15.9066992
 30
0.0
 11
201.2536996
 21
15.9066992
 31
0.0
  0
LINE
  5
1A7
330
1F
100
AcDbEntity
  8
TopPaste
100
AcDbLine
 10
156.1018976
 20
15.803499
 30
0.0
 11
156.1018976
 21
16.3924996
 31
0.0
  0
LINE
  5
1A8
330
1F
100
AcDbEntity
  8
TopPaste
100
AcDbLine
 10
156.1018976
 20
16.3924996
 30
0.0
 11
156.6908982
 21
16.3924996
 31
0.0
  0
LINE
  5
1A9
330
1F
100
AcDbEntity
  8
TopPaste
100
AcDbLine
 10
156.6908982
 20
16.3924996
 30
0.0
 11
156.6908982
 21
15.803499
 31
0.0
  0
LINE
  5
1AA
330
1F
100
AcDbEntity
  8
TopPaste
100
AcDbLine
 10
156.6908982
 20
15.803499
 30
0.0
 11
156.1018976
 21
15.803499
 31
0.0
  0
LINE
  5
1AB
330
1F
100
AcDbEntity
  8
TopPaste
100
AcDbLine
 10
156.1018976
 20
17.327499
 30
0.0
 11
156.1018976
 21
17.9164996
 31
0.0
  0
LINE
  5
1AC
330
1F
100
AcDbEntity
  8
TopPaste
100
AcDbLine
 10
156.1018976
 20
17.9164996
 30
0.0
 11
156.6908982
 21
17.9164996
 31
0.0
  0
LINE
  5
1AD
330
1F
100
AcDbEntity
  8
TopPaste
100
AcDbLine
 10
156.6908982
 20
17.9164996
 30
0.0
 11
156.6908982
 21
17.327499
 31
0.0
  0
LINE
  5
1AE
330
1F
100
AcDbEntity
  8
TopPaste
100
AcDbLine
 10
156.6908982
 20
17.327499
 30
0.0
 11
156.1018976
 21
17.327499
 31
0.0
  0
LINE
  5
1AF
330
1F
100
AcDbEntity
  8
TopPaste
100
AcDbLine
 10
111.31309716
 20
15.9066992
 30
0.0
 11
111.31309716
 21
16.4956998
 31
0.0
  0
LINE
  5
1B0
330
1F
100
AcDbEntity
  8
TopPaste
100
AcDbLine
 10
111.31309716
 20
16.4956998
 30
0.0
 11
111.90209776
 21
16.4956998
 31
0.0
  0
LINE
  5
1B1
330
1F
100
AcDbEntity
  8
TopPaste
100
AcDbLine
 10
111.90209776
 20
16.4956998
 30
0.0
 11
111.90209776
 21
15.9066992
 31
0.0
  0
LINE
  5
1B2
330
1F
100
AcDbEntity
  8
TopPaste
100
AcDbLine
 10
111.90209776
 20
15.9066992
 30
0.0
 11
111.31309716
 21
15.9066992
 31
0.0
  0
LINE
  5
1B3
330
1F
100
AcDbEntity
  8
TopPaste
100
AcDbLine
 10
111.31309716
 20
17.4306992
 30
0.0
 11
111.31309716
 21
18.0196998
 31
0.0
  0
LINE
  5
1B4
330
1F
100
AcDbEntity
  8
TopPaste
100
AcDbLine
 10
111.31309716
 20
18.0196998
 30
0.0
 11
111.90209776
 21
18.0196998
 31
0.0
  0
LINE
  5
1B5
330
1F
100
AcDbEntity
  8
TopPaste
100
AcDbLine
 10
111.90209776
 20
18.0196998
 30
0.0
 11
111.90209776
 21
17.4306992
 31
0.0
  0
LINE
  5
1B6
330
1F
100
AcDbEntity
  8
TopPaste
100
AcDbLine
 10
111.90209776
 20
17.4306992
 30
0.0
 11
111.31309716
 21
17.4306992
 31
0.0
  0
LINE
  5
1B7
330
1F
100
AcDbEntity
  8
TopPaste
100
AcDbLine
 10
66.32069539999999
 20
17.4306992
 30
0.0
 11
66.32069539999999
 21
18.0196998
 31
0.0
  0
LINE
  5
1B8
330
1F
100
AcDbEntity
  8
TopPaste
100
AcDbLine
 10
66.32069539999999
 20
18.0196998
 30
0.0
 11
66.909696
 21
18.0196998
 31
0.0
  0
LINE
  5
1B9
330
1F
100
AcDbEntity
  8
TopPaste
100
AcDbLine
 10
66.909696
 20
18.0196998
 30
0.0
 11
66.909696
 21
17.4306992
 31
0.0
  0
LINE
  5
1BA
330
1F
100
AcDbEntity
  8
TopPaste
100
AcDbLine
 10
66.909696
 20
17.4306992
 30
0.0
 11
66.32069539999999
 21
17.4306992
 31
0.0
  0
LINE
  5
1BB
330
1F
100
AcDbEntity
  8
TopPaste
100
AcDbLine
 10
66.32069539999999
 20
15.9066992
 30
0.0
 11
66.32069539999999
 21
16.4956998
 31
0.0
  0
LINE
  5
1BC
330
1F
100
AcDbEntity
  8
TopPaste
100
AcDbLine
 10
66.32069539999999
 20
16.4956998
 30
0.0
 11
66.909696
 21
16.4956998
 31
0.0
  0
LINE
  5
1BD
330
1F
100
AcDbEntity
  8
TopPaste
100
AcDbLine
 10
66.909696
 20
16.4956998
 30
0.0
 11
66.909696
 21
15.9066992
 31
0.0
  0
LINE
  5
1BE
330
1F
100
AcDbEntity
  8
TopPaste
100
AcDbLine
 10
66.909696
 20
15.9066992
 30
0.0
 11
66.32069539999999
 21
15.9066992
 31
0.0
  0
LINE
  5
1BF
330
1F
100
AcDbEntity
  8
TopPaste
100
AcDbLine
 10
21.1786978
 20
17.4306992
 30
0.0
 11
21.1786978
 21
18.0196998
 31
0.0
  0
LINE
  5
1C0
330
1F
100
AcDbEntity
  8
TopPaste
100
AcDbLine
 10
21.1786978
 20
18.0196998
 30
0.0
 11
21.7676984
 21
18.0196998
 31
0.0
  0
LINE
  5
1C1
330
1F
100
AcDbEntity
  8
TopPaste
100
AcDbLine
 10
21.7676984
 20
18.0196998
 30
0.0
 11
21.7676984
 21
17.4306992
 31
0.0
  0
LINE
  5
1C2
330
1F
100
AcDbEntity
  8
TopPaste
100
AcDbLine
 10
21.7676984
 20
17.4306992
 30
0.0
 11
21.1786978
 21
17.4306992
 31
0.0
  0
LINE
  5
1C3
330
1F
100
AcDbEntity
  8
TopPaste
100
AcDbLine
 10
21.1786978
 20
15.9066992
 30
0.0
 11
21.1786978
 21
16.4956998
 31
0.0
  0
LINE
  5
1C4
330
1F
100
AcDbEntity
  8
TopPaste
100
AcDbLine
 10
21.1786978
 20
16.4956998
 30
0.0
 11
21.7676984
 21
16.4956998
 31
0.0
  0
LINE
  5
1C5
330
1F
100
AcDbEntity
  8
TopPaste
100
AcDbLine
 10
21.7676984
 20
16.4956998
 30
0.0
 11
21.7676984
 21
15.9066992
 31
0.0
  0
LINE
  5
1C6
330
1F
100
AcDbEntity
  8
TopPaste
100
AcDbLine
 10
21.7676984
 20
15.9066992
 30
0.0
 11
21.1786978
 21
15.9066992
 31
0.0
  0
LINE
  5
1C7
330
1F
100
AcDbEntity
  8
TopPaste
100
AcDbLine
 10
194.22870222
 20
17.4306992
 30
0.0
 11
194.22870222
 21
18.0196998
 31
0.0
  0
LINE
  5
1C8
330
1F
100
AcDbEntity
  8
TopPaste
100
AcDbLine
 10
194.22870222
 20
18.0196998
 30
0.0
 11
194.81770282
 21
18.0196998
 31
0.0
  0
LINE
  5
1C9
330
1F
100
AcDbEntity
  8
TopPaste
100
AcDbLine
 10
194.81770282
 20
18.0196998
 30
0.0
 11
194.81770282
 21
17.4306992
 31
0.0
  0
LINE
  5
1CA
330
1F
100
AcDbEntity
  8
TopPaste
100
AcDbLine
 10
194.81770282
 20
17.4306992
 30
0.0
 11
194.22870222
 21
17.4306992
 31
0.0
  0
LINE
  5
1CB
330
1F
100
AcDbEntity
  8
TopPaste
100
AcDbLine
 10
194.22870222
 20
15.9066992
 30
0.0
 11
194.22870222
 21
16.4956998
 31
0.0
  0
LINE
  5
1CC
330
1F
100
AcDbEntity
  8
TopPaste
100
AcDbLine
 10
194.22870222
 20
16.4956998
 30
0.0
 11
194.81770282
 21
16.4956998
 31
0.0
  0
LINE
  5
1CD
330
1F
100
AcDbEntity
  8
TopPaste
100
AcDbLine
 10
194.81770282
 20
16.4956998
 30
0.0
 11
194.81770282
 21
15.9066992
 31
0.0
  0
LINE
  5
1CE
330
1F
100
AcDbEntity
  8
TopPaste
100
AcDbLine
 10
194.81770282
 20
15.9066992
 30
0.0
 11
194.22870222
 21
15.9066992
 31
0.0
  0
LINE
  5
1CF
330
1F
100
AcDbEntity
  8
TopPaste
100
AcDbLine
 10
149.20189616
 20
17.327499
 30
0.0
 11
149.20189616
 21
17.9164996
 31
0.0
  0
LINE
  5
1D0
330
1F
100
AcDbEntity
  8
TopPaste
100
AcDbLine
 10
149.20189616
 20
17.9164996
 30
0.0
 11
149.79089676
 21
17.9164996
 31
0.0
  0
LINE
  5
1D1
330
1F
100
AcDbEntity
  8
TopPaste
100
AcDbLine
 10
149.79089676
 20
17.9164996
 30
0.0
 11
149.79089676
 21
17.327499
 31
0.0
  0
LINE
  5
1D2
330
1F
100
AcDbEntity
  8
TopPaste
100
AcDbLine
 10
149.79089676
 20
17.327499
 30
0.0
 11
149.20189616
 21
17.327499
 31
0.0
  0
LINE
  5
1D3
330
1F
100
AcDbEntity
  8
TopPaste
100
AcDbLine
 10
149.20189616
 20
15.803499
 30
0.0
 11
149.20189616
 21
16.3924996
 31
0.0
  0
LINE
  5
1D4
330
1F
100
AcDbEntity
  8
TopPaste
100
AcDbLine
 10
149.20189616
 20
16.3924996
 30
0.0
 11
149.79089676
 21
16.3924996
 31
0.0
  0
LINE
  5
1D5
330
1F
100
AcDbEntity
  8
TopPaste
100
AcDbLine
 10
149.79089676
 20
16.3924996
 30
0.0
 11
149.79089676
 21
15.803499
 31
0.0
  0
LINE
  5
1D6
330
1F
100
AcDbEntity
  8
TopPaste
100
AcDbLine
 10
149.79089676
 20
15.803499
 30
0.0
 11
149.20189616
 21
15.803499
 31
0.0
  0
LINE
  5
1D7
330
1F
100
AcDbEntity
  8
TopPaste
100
AcDbLine
 10
104.13809754
 20
17.4306992
 30
0.0
 11
104.13809754
 21
18.0196998
 31
0.0
  0
LINE
  5
1D8
330
1F
100
AcDbEntity
  8
TopPaste
100
AcDbLine
 10
104.13809754
 20
18.0196998
 30
0.0
 11
104.72709814
 21
18.0196998
 31
0.0
  0
LINE
  5
1D9
330
1F
100
AcDbEntity
  8
TopPaste
100
AcDbLine
 10
104.72709814
 20
18.0196998
 30
0.0
 11
104.72709814
 21
17.4306992
 31
0.0
  0
LINE
  5
1DA
330
1F
100
AcDbEntity
  8
TopPaste
100
AcDbLine
 10
104.72709814
 20
17.4306992
 30
0.0
 11
104.13809754
 21
17.4306992
 31
0.0
  0
LINE
  5
1DB
330
1F
100
AcDbEntity
  8
TopPaste
100
AcDbLine
 10
104.13809754
 20
15.9066992
 30
0.0
 11
104.13809754
 21
16.4956998
 31
0.0
  0
LINE
  5
1DC
330
1F
100
AcDbEntity
  8
TopPaste
100
AcDbLine
 10
104.13809754
 20
16.4956998
 30
0.0
 11
104.72709814
 21
16.4956998
 31
0.0
  0
LINE
  5
1DD
330
1F
100
AcDbEntity
  8
TopPaste
100
AcDbLine
 10
104.72709814
 20
16.4956998
 30
0.0
 11
104.72709814
 21
15.9066992
 31
0.0
  0
LINE
  5
1DE
330
1F
100
AcDbEntity
  8
TopPaste
100
AcDbLine
 10
104.72709814
 20
15.9066992
 30
0.0
 11
104.13809754
 21
15.9066992
 31
0.0
  0
LINE
  5
1DF
330
1F
100
AcDbEntity
  8
TopPaste
100
AcDbLine
 10
59.12069456
 20
17.4306992
 30
0.0
 11
59.12069456
 21
18.0196998
 31
0.0
  0
LINE
  5
1E0
330
1F
100
AcDbEntity
  8
TopPaste
100
AcDbLine
 10
59.12069456
 20
18.0196998
 30
0.0
 11
59.70969516
 21
18.0196998
 31
0.0
  0
LINE
  5
1E1
330
1F
100
AcDbEntity
  8
TopPaste
100
AcDbLine
 10
59.70969516
 20
18.0196998
 30
0.0
 11
59.70969516
 21
17.4306992
 31
0.0
  0
LINE
  5
1E2
330
1F
100
AcDbEntity
  8
TopPaste
100
AcDbLine
 10
59.70969516
 20
17.4306992
 30
0.0
 11
59.12069456
 21
17.4306992
 31
0.0
  0
LINE
  5
1E3
330
1F
100
AcDbEntity
  8
TopPaste
100
AcDbLine
 10
59.12069456
 20
15.9066992
 30
0.0
 11
59.12069456
 21
16.4956998
 31
0.0
  0
LINE
  5
1E4
330
1F
100
AcDbEntity
  8
TopPaste
100
AcDbLine
 10
59.12069456
 20
16.4956998
 30
0.0
 11
59.70969516
 21
16.4956998
 31
0.0
  0
LINE
  5
1E5
330
1F
100
AcDbEntity
  8
TopPaste
100
AcDbLine
 10
59.70969516
 20
16.4956998
 30
0.0
 11
59.70969516
 21
15.9066992
 31
0.0
  0
LINE
  5
1E6
330
1F
100
AcDbEntity
  8
TopPaste
100
AcDbLine
 10
59.70969516
 20
15.9066992
 30
0.0
 11
59.12069456
 21
15.9066992
 31
0.0
  0
LINE
  5
1E7
330
1F
100
AcDbEntity
  8
TopPaste
100
AcDbLine
 10
14.17869656
 20
15.9066992
 30
0.0
 11
14.17869656
 21
16.4956998
 31
0.0
  0
LINE
  5
1E8
330
1F
100
AcDbEntity
  8
TopPaste
100
AcDbLine
 10
14.17869656
 20
16.4956998
 30
0.0
 11
14.76769716
 21
16.4956998
 31
0.0
  0
LINE
  5
1E9
330
1F
100
AcDbEntity
  8
TopPaste
100
AcDbLine
 10
14.76769716
 20
16.4956998
 30
0.0
 11
14.76769716
 21
15.9066992
 31
0.0
  0
LINE
  5
1EA
330
1F
100
AcDbEntity
  8
TopPaste
100
AcDbLine
 10
14.76769716
 20
15.9066992
 30
0.0
 11
14.17869656
 21
15.9066992
 31
0.0
  0
LINE
  5
1EB
330
1F
100
AcDbEntity
  8
TopPaste
100
AcDbLine
 10
14.17869656
 20
17.4306992
 30
0.0
 11
14.17869656
 21
18.0196998
 31
0.0
  0
LINE
  5
1EC
330
1F
100
AcDbEntity
  8
TopPaste
100
AcDbLine
 10
14.17869656
 20
18.0196998
 30
0.0
 11
14.76769716
 21
18.0196998
 31
0.0
  0
LINE
  5
1ED
330
1F
100
AcDbEntity
  8
TopPaste
100
AcDbLine
 10
14.76769716
 20
18.0196998
 30
0.0
 11
14.76769716
 21
17.4306992
 31
0.0
  0
LINE
  5
1EE
330
1F
100
AcDbEntity
  8
TopPaste
100
AcDbLine
 10
14.76769716
 20
17.4306992
 30
0.0
 11
14.17869656
 21
17.4306992
 31
0.0
  0
LINE
  5
1EF
330
1F
100
AcDbEntity
  8
TopPaste
100
AcDbLine
 10
137.24199628
 20
29.40579844
 30
0.0
 11
137.24199628
 21
29.86779904
 31
0.0
  0
LINE
  5
1F0
330
1F
100
AcDbEntity
  8
TopPaste
100
AcDbLine
 10
137.24199628
 20
29.86779904
 30
0.0
 11
137.95799688
 21
29.86779904
 31
0.0
  0
LINE
  5
1F1
330
1F
100
AcDbEntity
  8
TopPaste
100
AcDbLine
 10
137.95799688
 20
29.86779904
 30
0.0
 11
137.95799688
 21
29.40579844
 31
0.0
  0
LINE
  5
1F2
330
1F
100
AcDbEntity
  8
TopPaste
100
AcDbLine
 10
137.95799688
 20
29.40579844
 30
0.0
 11
137.24199628
 21
29.40579844
 31
0.0
  0
LINE
  5
1F3
330
1F
100
AcDbEntity
  8
TopPaste
100
AcDbLine
 10
137.24199628
 20
27.81899948
 30
0.0
 11
137.24199628
 21
28.28100008
 31
0.0
  0
LINE
  5
1F4
330
1F
100
AcDbEntity
  8
TopPaste
100
AcDbLine
 10
137.24199628
 20
28.28100008
 30
0.0
 11
137.95799688
 21
28.28100008
 31
0.0
  0
LINE
  5
1F5
330
1F
100
AcDbEntity
  8
TopPaste
100
AcDbLine
 10
137.95799688
 20
28.28100008
 30
0.0
 11
137.95799688
 21
27.81899948
 31
0.0
  0
LINE
  5
1F6
330
1F
100
AcDbEntity
  8
TopPaste
100
AcDbLine
 10
137.95799688
 20
27.81899948
 30
0.0
 11
137.24199628
 21
27.81899948
 31
0.0
  0
LINE
  5
1F7
330
1F
100
AcDbEntity
  8
TopPaste
100
AcDbLine
 10
98.49199503999999
 20
29.40579844
 30
0.0
 11
98.49199503999999
 21
29.86779904
 31
0.0
  0
LINE
  5
1F8
330
1F
100
AcDbEntity
  8
TopPaste
100
AcDbLine
 10
98.49199503999999
 20
29.86779904
 30
0.0
 11
99.20799564
 21
29.86779904
 31
0.0
  0
LINE
  5
1F9
330
1F
100
AcDbEntity
  8
TopPaste
100
AcDbLine
 10
99.20799564
 20
29.86779904
 30
0.0
 11
99.20799564
 21
29.40579844
 31
0.0
  0
LINE
  5
1FA
330
1F
100
AcDbEntity
  8
TopPaste
100
AcDbLine
 10
99.20799564
 20
29.40579844
 30
0.0
 11
98.49199503999999
 21
29.40579844
 31
0.0
  0
LINE
  5
1FB
330
1F
100
AcDbEntity
  8
TopPaste
100
AcDbLine
 10
98.49199503999999
 20
27.81899948
 30
0.0
 11
98.49199503999999
 21
28.28100008
 31
0.0
  0
LINE
  5
1FC
330
1F
100
AcDbEntity
  8
TopPaste
100
AcDbLine
 10
98.49199503999999
 20
28.28100008
 30
0.0
 11
99.20799564
 21
28.28100008
 31
0.0
  0
LINE
  5
1FD
330
1F
100
AcDbEntity
  8
TopPaste
100
AcDbLine
 10
99.20799564
 20
28.28100008
 30
0.0
 11
99.20799564
 21
27.81899948
 31
0.0
  0
LINE
  5
1FE
330
1F
100
AcDbEntity
  8
TopPaste
100
AcDbLine
 10
99.20799564
 20
27.81899948
 30
0.0
 11
98.49199503999999
 21
27.81899948
 31
0.0
  0
LINE
  5
1FF
330
1F
100
AcDbEntity
  8
TopPaste
100
AcDbLine
 10
145.67299796
 20
28.70259817
 30
0.0
 11
145.67299796
 21
29.40259931
 31
0.0
  0
LINE
  5
200
330
1F
100
AcDbEntity
  8
TopPaste
100
AcDbLine
 10
145.67299796
 20
29.40259931
 30
0.0
 11
145.97299736
 21
29.40259931
 31
0.0
  0
LINE
  5
201
330
1F
100
AcDbEntity
  8
TopPaste
100
AcDbLine
 10
145.97299736
 20
29.40259931
 30
0.0
 11
145.97299736
 21
28.70259817
 31
0.0
  0
LINE
  5
202
330
1F
100
AcDbEntity
  8
TopPaste
100
AcDbLine
 10
145.97299736
 20
28.70259817
 30
0.0
 11
145.67299796
 21
28.70259817
 31
0.0
  0
LINE
  5
203
330
1F
100
AcDbEntity
  8
TopPaste
100
AcDbLine
 10
147.5729967
 20
28.70259817
 30
0.0
 11
147.5729967
 21
29.40259931
 31
0.0
  0
LINE
  5
204
330
1F
100
AcDbEntity
  8
TopPaste
100
AcDbLine
 10
147.5729967
 20
29.40259931
 30
0.0
 11
147.8729961
 21
29.40259931
 31
0.0
  0
LINE
  5
205
330
1F
100
AcDbEntity
  8
TopPaste
100
AcDbLine
 10
147.8729961
 20
29.40259931
 30
0.0
 11
147.8729961
 21
28.70259817
 31
0.0
  0
LINE
  5
206
330
1F
100
AcDbEntity
  8
TopPaste
100
AcDbLine
 10
147.8729961
 20
28.70259817
 30
0.0
 11
147.5729967
 21
28.70259817
 31
0.0
  0
LINE
  5
207
330
1F
100
AcDbEntity
  8
TopPaste
100
AcDbLine
 10
147.5729967
 20
26.30259789
 30
0.0
 11
147.5729967
 21
27.00259903
 31
0.0
  0
LINE
  5
208
330
1F
100
AcDbEntity
  8
TopPaste
100
AcDbLine
 10
147.5729967
 20
27.00259903
 30
0.0
 11
147.8729961
 21
27.00259903
 31
0.0
  0
LINE
  5
209
330
1F
100
AcDbEntity
  8
TopPaste
100
AcDbLine
 10
147.8729961
 20
27.00259903
 30
0.0
 11
147.8729961
 21
26.30259789
 31
0.0
  0
LINE
  5
20A
330
1F
100
AcDbEntity
  8
TopPaste
100
AcDbLine
 10
147.8729961
 20
26.30259789
 30
0.0
 11
147.5729967
 21
26.30259789
 31
0.0
  0
LINE
  5
20B
330
1F
100
AcDbEntity
  8
TopPaste
100
AcDbLine
 10
146.6229986
 20
26.30259789
 30
0.0
 11
146.6229986
 21
27.00259903
 31
0.0
  0
LINE
  5
20C
330
1F
100
AcDbEntity
  8
TopPaste
100
AcDbLine
 10
146.6229986
 20
27.00259903
 30
0.0
 11
146.922998
 21
27.00259903
 31
0.0
  0
LINE
  5
20D
330
1F
100
AcDbEntity
  8
TopPaste
100
AcDbLine
 10
146.922998
 20
27.00259903
 30
0.0
 11
146.922998
 21
26.30259789
 31
0.0
  0
LINE
  5
20E
330
1F
100
AcDbEntity
  8
TopPaste
100
AcDbLine
 10
146.922998
 20
26.30259789
 30
0.0
 11
146.6229986
 21
26.30259789
 31
0.0
  0
LINE
  5
20F
330
1F
100
AcDbEntity
  8
TopPaste
100
AcDbLine
 10
145.6730005
 20
26.30259789
 30
0.0
 11
145.6730005
 21
27.00259903
 31
0.0
  0
LINE
  5
210
330
1F
100
AcDbEntity
  8
TopPaste
100
AcDbLine
 10
145.6730005
 20
27.00259903
 30
0.0
 11
145.9729999
 21
27.00259903
 31
0.0
  0
LINE
  5
211
330
1F
100
AcDbEntity
  8
TopPaste
100
AcDbLine
 10
145.9729999
 20
27.00259903
 30
0.0
 11
145.9729999
 21
26.30259789
 31
0.0
  0
LINE
  5
212
330
1F
100
AcDbEntity
  8
TopPaste
100
AcDbLine
 10
145.9729999
 20
26.30259789
 30
0.0
 11
145.6730005
 21
26.30259789
 31
0.0
  0
LINE
  5
213
330
1F
100
AcDbEntity
  8
TopPaste
100
AcDbLine
 10
133.2419992
 20
27.81899948
 30
0.0
 11
133.2419992
 21
28.28100008
 31
0.0
  0
LINE
  5
214
330
1F
100
AcDbEntity
  8
TopPaste
100
AcDbLine
 10
133.2419992
 20
28.28100008
 30
0.0
 11
133.9579998
 21
28.28100008
 31
0.0
  0
LINE
  5
215
330
1F
100
AcDbEntity
  8
TopPaste
100
AcDbLine
 10
133.9579998
 20
28.28100008
 30
0.0
 11
133.9579998
 21
27.81899948
 31
0.0
  0
LINE
  5
216
330
1F
100
AcDbEntity
  8
TopPaste
100
AcDbLine
 10
133.9579998
 20
27.81899948
 30
0.0
 11
133.2419992
 21
27.81899948
 31
0.0
  0
LINE
  5
217
330
1F
100
AcDbEntity
  8
TopPaste
100
AcDbLine
 10
133.2419992
 20
29.40579844
 30
0.0
 11
133.2419992
 21
29.86779904
 31
0.0
  0
LINE
  5
218
330
1F
100
AcDbEntity
  8
TopPaste
100
AcDbLine
 10
133.2419992
 20
29.86779904
 30
0.0
 11
133.9579998
 21
29.86779904
 31
0.0
  0
LINE
  5
219
330
1F
100
AcDbEntity
  8
TopPaste
100
AcDbLine
 10
133.9579998
 20
29.86779904
 30
0.0
 11
133.9579998
 21
29.40579844
 31
0.0
  0
LINE
  5
21A
330
1F
100
AcDbEntity
  8
TopPaste
100
AcDbLine
 10
133.9579998
 20
29.40579844
 30
0.0
 11
133.2419992
 21
29.40579844
 31
0.0
  0
LINE
  5
21B
330
1F
100
AcDbEntity
  8
TopPaste
100
AcDbLine
 10
94.49199795999999
 20
27.81899948
 30
0.0
 11
94.49199795999999
 21
28.28100008
 31
0.0
  0
LINE
  5
21C
330
1F
100
AcDbEntity
  8
TopPaste
100
AcDbLine
 10
94.49199795999999
 20
28.28100008
 30
0.0
 11
95.20799856
 21
28.28100008
 31
0.0
  0
LINE
  5
21D
330
1F
100
AcDbEntity
  8
TopPaste
100
AcDbLine
 10
95.20799856
 20
28.28100008
 30
0.0
 11
95.20799856
 21
27.81899948
 31
0.0
  0
LINE
  5
21E
330
1F
100
AcDbEntity
  8
TopPaste
100
AcDbLine
 10
95.20799856
 20
27.81899948
 30
0.0
 11
94.49199795999999
 21
27.81899948
 31
0.0
  0
LINE
  5
21F
330
1F
100
AcDbEntity
  8
TopPaste
100
AcDbLine
 10
94.49199795999999
 20
29.40579844
 30
0.0
 11
94.49199795999999
 21
29.86779904
 31
0.0
  0
LINE
  5
220
330
1F
100
AcDbEntity
  8
TopPaste
100
AcDbLine
 10
94.49199795999999
 20
29.86779904
 30
0.0
 11
95.20799856
 21
29.86779904
 31
0.0
  0
LINE
  5
221
330
1F
100
AcDbEntity
  8
TopPaste
100
AcDbLine
 10
95.20799856
 20
29.86779904
 30
0.0
 11
95.20799856
 21
29.40579844
 31
0.0
  0
LINE
  5
222
330
1F
100
AcDbEntity
  8
TopPaste
100
AcDbLine
 10
95.20799856
 20
29.40579844
 30
0.0
 11
94.49199795999999
 21
29.40579844
 31
0.0
  0
LINE
  5
223
330
1F
100
AcDbEntity
  8
TopPaste
100
AcDbLine
 10
135.24199774
 20
27.81899948
 30
0.0
 11
135.24199774
 21
28.28100008
 31
0.0
  0
LINE
  5
224
330
1F
100
AcDbEntity
  8
TopPaste
100
AcDbLine
 10
135.24199774
 20
28.28100008
 30
0.0
 11
135.95799834
 21
28.28100008
 31
0.0
  0
LINE
  5
225
330
1F
100
AcDbEntity
  8
TopPaste
100
AcDbLine
 10
135.95799834
 20
28.28100008
 30
0.0
 11
135.95799834
 21
27.81899948
 31
0.0
  0
LINE
  5
226
330
1F
100
AcDbEntity
  8
TopPaste
100
AcDbLine
 10
135.95799834
 20
27.81899948
 30
0.0
 11
135.24199774
 21
27.81899948
 31
0.0
  0
LINE
  5
227
330
1F
100
AcDbEntity
  8
TopPaste
100
AcDbLine
 10
135.24199774
 20
29.40579844
 30
0.0
 11
135.24199774
 21
29.86779904
 31
0.0
  0
LINE
  5
228
330
1F
100
AcDbEntity
  8
TopPaste
100
AcDbLine
 10
135.24199774
 20
29.86779904
 30
0.0
 11
135.95799834
 21
29.86779904
 31
0.0
  0
LINE
  5
229
330
1F
100
AcDbEntity
  8
TopPaste
100
AcDbLine
 10
135.95799834
 20
29.86779904
 30
0.0
 11
135.95799834
 21
29.40579844
 31
0.0
  0
LINE
  5
22A
330
1F
100
AcDbEntity
  8
TopPaste
100
AcDbLine
 10
135.95799834
 20
29.40579844
 30
0.0
 11
135.24199774
 21
29.40579844
 31
0.0
  0
LINE
  5
22B
330
1F
100
AcDbEntity
  8
TopPaste
100
AcDbLine
 10
96.49199649999998
 20
27.81899948
 30
0.0
 11
96.49199649999998
 21
28.28100008
 31
0.0
  0
LINE
  5
22C
330
1F
100
AcDbEntity
  8
TopPaste
100
AcDbLine
 10
96.49199649999998
 20
28.28100008
 30
0.0
 11
97.2079971
 21
28.28100008
 31
0.0
  0
LINE
  5
22D
330
1F
100
AcDbEntity
  8
TopPaste
100
AcDbLine
 10
97.2079971
 20
28.28100008
 30
0.0
 11
97.2079971
 21
27.81899948
 31
0.0
  0
LINE
  5
22E
330
1F
100
AcDbEntity
  8
TopPaste
100
AcDbLine
 10
97.2079971
 20
27.81899948
 30
0.0
 11
96.49199649999998
 21
27.81899948
 31
0.0
  0
LINE
  5
22F
330
1F
100
AcDbEntity
  8
TopPaste
100
AcDbLine
 10
96.49199649999998
 20
29.40579844
 30
0.0
 11
96.49199649999998
 21
29.86779904
 31
0.0
  0
LINE
  5
230
330
1F
100
AcDbEntity
  8
TopPaste
100
AcDbLine
 10
96.49199649999998
 20
29.86779904
 30
0.0
 11
97.2079971
 21
29.86779904
 31
0.0
  0
LINE
  5
231
330
1F
100
AcDbEntity
  8
TopPaste
100
AcDbLine
 10
97.2079971
 20
29.86779904
 30
0.0
 11
97.2079971
 21
29.40579844
 31
0.0
  0
LINE
  5
232
330
1F
100
AcDbEntity
  8
TopPaste
100
AcDbLine
 10
97.2079971
 20
29.40579844
 30
0.0
 11
96.49199649999998
 21
29.40579844
 31
0.0
  0
LINE
  5
233
330
1F
100
AcDbEntity
  8
TopPaste
100
AcDbLine
 10
131.24200066
 20
27.81899948
 30
0.0
 11
131.24200066
 21
28.28100008
 31
0.0
  0
LINE
  5
234
330
1F
100
AcDbEntity
  8
TopPaste
100
AcDbLine
 10
131.24200066
 20
28.28100008
 30
0.0
 11
131.95800126
 21
28.28100008
 31
0.0
  0
LINE
  5
235
330
1F
100
AcDbEntity
  8
TopPaste
100
AcDbLine
 10
131.95800126
 20
28.28100008
 30
0.0
 11
131.95800126
 21
27.81899948
 31
0.0
  0
LINE
  5
236
330
1F
100
AcDbEntity
  8
TopPaste
100
AcDbLine
 10
131.95800126
 20
27.81899948
 30
0.0
 11
131.24200066
 21
27.81899948
 31
0.0
  0
LINE
  5
237
330
1F
100
AcDbEntity
  8
TopPaste
100
AcDbLine
 10
131.24200066
 20
29.40579844
 30
0.0
 11
131.24200066
 21
29.86779904
 31
0.0
  0
LINE
  5
238
330
1F
100
AcDbEntity
  8
TopPaste
100
AcDbLine
 10
131.24200066
 20
29.86779904
 30
0.0
 11
131.95800126
 21
29.86779904
 31
0.0
  0
LINE
  5
239
330
1F
100
AcDbEntity
  8
TopPaste
100
AcDbLine
 10
131.95800126
 20
29.86779904
 30
0.0
 11
131.95800126
 21
29.40579844
 31
0.0
  0
LINE
  5
23A
330
1F
100
AcDbEntity
  8
TopPaste
100
AcDbLine
 10
131.95800126
 20
29.40579844
 30
0.0
 11
131.24200066
 21
29.40579844
 31
0.0
  0
LINE
  5
23B
330
1F
100
AcDbEntity
  8
TopPaste
100
AcDbLine
 10
92.49199942
 20
27.81899948
 30
0.0
 11
92.49199942
 21
28.28100008
 31
0.0
  0
LINE
  5
23C
330
1F
100
AcDbEntity
  8
TopPaste
100
AcDbLine
 10
92.49199942
 20
28.28100008
 30
0.0
 11
93.20800001999999
 21
28.28100008
 31
0.0
  0
LINE
  5
23D
330
1F
100
AcDbEntity
  8
TopPaste
100
AcDbLine
 10
93.20800001999999
 20
28.28100008
 30
0.0
 11
93.20800001999999
 21
27.81899948
 31
0.0
  0
LINE
  5
23E
330
1F
100
AcDbEntity
  8
TopPaste
100
AcDbLine
 10
93.20800001999999
 20
27.81899948
 30
0.0
 11
92.49199942
 21
27.81899948
 31
0.0
  0
LINE
  5
23F
330
1F
100
AcDbEntity
  8
TopPaste
100
AcDbLine
 10
92.49199942
 20
29.40579844
 30
0.0
 11
92.49199942
 21
29.86779904
 31
0.0
  0
LINE
  5
240
330
1F
100
AcDbEntity
  8
TopPaste
100
AcDbLine
 10
92.49199942
 20
29.86779904
 30
0.0
 11
93.20800001999999
 21
29.86779904
 31
0.0
  0
LINE
  5
241
330
1F
100
AcDbEntity
  8
TopPaste
100
AcDbLine
 10
93.20800001999999
 20
29.86779904
 30
0.0
 11
93.20800001999999
 21
29.40579844
 31
0.0
  0
LINE
  5
242
330
1F
100
AcDbEntity
  8
TopPaste
100
AcDbLine
 10
93.20800001999999
 20
29.40579844
 30
0.0
 11
92.49199942
 21
29.40579844
 31
0.0
  0
LINE
  5
243
330
1F
100
AcDbEntity
  8
TopPaste
100
AcDbLine
 10
129.24200212
 20
27.81899948
 30
0.0
 11
129.24200212
 21
28.28100008
 31
0.0
  0
LINE
  5
244
330
1F
100
AcDbEntity
  8
TopPaste
100
AcDbLine
 10
129.24200212
 20
28.28100008
 30
0.0
 11
129.95800272
 21
28.28100008
 31
0.0
  0
LINE
  5
245
330
1F
100
AcDbEntity
  8
TopPaste
100
AcDbLine
 10
129.95800272
 20
28.28100008
 30
0.0
 11
129.95800272
 21
27.81899948
 31
0.0
  0
LINE
  5
246
330
1F
100
AcDbEntity
  8
TopPaste
100
AcDbLine
 10
129.95800272
 20
27.81899948
 30
0.0
 11
129.24200212
 21
27.81899948
 31
0.0
  0
LINE
  5
247
330
1F
100
AcDbEntity
  8
TopPaste
100
AcDbLine
 10
129.24200212
 20
29.40579844
 30
0.0
 11
129.24200212
 21
29.86779904
 31
0.0
  0
LINE
  5
248
330
1F
100
AcDbEntity
  8
TopPaste
100
AcDbLine
 10
129.24200212
 20
29.86779904
 30
0.0
 11
129.95800272
 21
29.86779904
 31
0.0
  0
LINE
  5
249
330
1F
100
AcDbEntity
  8
TopPaste
100
AcDbLine
 10
129.95800272
 20
29.86779904
 30
0.0
 11
129.95800272
 21
29.40579844
 31
0.0
  0
LINE
  5
24A
330
1F
100
AcDbEntity
  8
TopPaste
100
AcDbLine
 10
129.95800272
 20
29.40579844
 30
0.0
 11
129.24200212
 21
29.40579844
 31
0.0
  0
LINE
  5
24B
330
1F
100
AcDbEntity
  8
TopPaste
100
AcDbLine
 10
90.49200087999999
 20
27.81899948
 30
0.0
 11
90.49200087999999
 21
28.28100008
 31
0.0
  0
LINE
  5
24C
330
1F
100
AcDbEntity
  8
TopPaste
100
AcDbLine
 10
90.49200087999999
 20
28.28100008
 30
0.0
 11
91.20800148
 21
28.28100008
 31
0.0
  0
LINE
  5
24D
330
1F
100
AcDbEntity
  8
TopPaste
100
AcDbLine
 10
91.20800148
 20
28.28100008
 30
0.0
 11
91.20800148
 21
27.81899948
 31
0.0
  0
LINE
  5
24E
330
1F
100
AcDbEntity
  8
TopPaste
100
AcDbLine
 10
91.20800148
 20
27.81899948
 30
0.0
 11
90.49200087999999
 21
27.81899948
 31
0.0
  0
LINE
  5
24F
330
1F
100
AcDbEntity
  8
TopPaste
100
AcDbLine
 10
90.49200087999999
 20
29.40579844
 30
0.0
 11
90.49200087999999
 21
29.86779904
 31
0.0
  0
LINE
  5
250
330
1F
100
AcDbEntity
  8
TopPaste
100
AcDbLine
 10
90.49200087999999
 20
29.86779904
 30
0.0
 11
91.20800148
 21
29.86779904
 31
0.0
  0
LINE
  5
251
330
1F
100
AcDbEntity
  8
TopPaste
100
AcDbLine
 10
91.20800148
 20
29.86779904
 30
0.0
 11
91.20800148
 21
29.40579844
 31
0.0
  0
LINE
  5
252
330
1F
100
AcDbEntity
  8
TopPaste
100
AcDbLine
 10
91.20800148
 20
29.40579844
 30
0.0
 11
90.49200087999999
 21
29.40579844
 31
0.0
  0
LINE
  5
253
330
1F
100
AcDbEntity
  8
TopPaste
100
AcDbLine
 10
127.24200358
 20
27.81899948
 30
0.0
 11
127.24200358
 21
28.28100008
 31
0.0
  0
LINE
  5
254
330
1F
100
AcDbEntity
  8
TopPaste
100
AcDbLine
 10
127.24200358
 20
28.28100008
 30
0.0
 11
127.95800418
 21
28.28100008
 31
0.0
  0
LINE
  5
255
330
1F
100
AcDbEntity
  8
TopPaste
100
AcDbLine
 10
127.95800418
 20
28.28100008
 30
0.0
 11
127.95800418
 21
27.81899948
 31
0.0
  0
LINE
  5
256
330
1F
100
AcDbEntity
  8
TopPaste
100
AcDbLine
 10
127.95800418
 20
27.81899948
 30
0.0
 11
127.24200358
 21
27.81899948
 31
0.0
  0
LINE
  5
257
330
1F
100
AcDbEntity
  8
TopPaste
100
AcDbLine
 10
127.24200358
 20
29.40579844
 30
0.0
 11
127.24200358
 21
29.86779904
 31
0.0
  0
LINE
  5
258
330
1F
100
AcDbEntity
  8
TopPaste
100
AcDbLine
 10
127.24200358
 20
29.86779904
 30
0.0
 11
127.95800418
 21
29.86779904
 31
0.0
  0
LINE
  5
259
330
1F
100
AcDbEntity
  8
TopPaste
100
AcDbLine
 10
127.95800418
 20
29.86779904
 30
0.0
 11
127.95800418
 21
29.40579844
 31
0.0
  0
LINE
  5
25A
330
1F
100
AcDbEntity
  8
TopPaste
100
AcDbLine
 10
127.95800418
 20
29.40579844
 30
0.0
 11
127.24200358
 21
29.40579844
 31
0.0
  0
LINE
  5
25B
330
1F
100
AcDbEntity
  8
TopPaste
100
AcDbLine
 10
88.49200234
 20
27.81899948
 30
0.0
 11
88.49200234
 21
28.28100008
 31
0.0
  0
LINE
  5
25C
330
1F
100
AcDbEntity
  8
TopPaste
100
AcDbLine
 10
88.49200234
 20
28.28100008
 30
0.0
 11
89.20800294
 21
28.28100008
 31
0.0
  0
LINE
  5
25D
330
1F
100
AcDbEntity
  8
TopPaste
100
AcDbLine
 10
89.20800294
 20
28.28100008
 30
0.0
 11
89.20800294
 21
27.81899948
 31
0.0
  0
LINE
  5
25E
330
1F
100
AcDbEntity
  8
TopPaste
100
AcDbLine
 10
89.20800294
 20
27.81899948
 30
0.0
 11
88.49200234
 21
27.81899948
 31
0.0
  0
LINE
  5
25F
330
1F
100
AcDbEntity
  8
TopPaste
100
AcDbLine
 10
88.49200234
 20
29.40579844
 30
0.0
 11
88.49200234
 21
29.86779904
 31
0.0
  0
LINE
  5
260
330
1F
100
AcDbEntity
  8
TopPaste
100
AcDbLine
 10
88.49200234
 20
29.86779904
 30
0.0
 11
89.20800294
 21
29.86779904
 31
0.0
  0
LINE
  5
261
330
1F
100
AcDbEntity
  8
TopPaste
100
AcDbLine
 10
89.20800294
 20
29.86779904
 30
0.0
 11
89.20800294
 21
29.40579844
 31
0.0
  0
LINE
  5
262
330
1F
100
AcDbEntity
  8
TopPaste
100
AcDbLine
 10
89.20800294
 20
29.40579844
 30
0.0
 11
88.49200234
 21
29.40579844
 31
0.0
  0
LINE
  5
263
330
1F
100
AcDbEntity
  8
TopPaste
100
AcDbLine
 10
147.3486004
 20
32.31059832
 30
0.0
 11
147.810601
 21
32.31059832
 31
0.0
  0
LINE
  5
264
330
1F
100
AcDbEntity
  8
TopPaste
100
AcDbLine
 10
147.810601
 20
32.31059832
 30
0.0
 11
147.810601
 21
31.59459772
 31
0.0
  0
LINE
  5
265
330
1F
100
AcDbEntity
  8
TopPaste
100
AcDbLine
 10
147.810601
 20
31.59459772
 30
0.0
 11
147.3486004
 21
31.59459772
 31
0.0
  0
LINE
  5
266
330
1F
100
AcDbEntity
  8
TopPaste
100
AcDbLine
 10
147.3486004
 20
31.59459772
 30
0.0
 11
147.3486004
 21
32.31059832
 31
0.0
  0
LINE
  5
267
330
1F
100
AcDbEntity
  8
TopPaste
100
AcDbLine
 10
148.93539936
 20
32.31059832
 30
0.0
 11
149.39739996
 21
32.31059832
 31
0.0
  0
LINE
  5
268
330
1F
100
AcDbEntity
  8
TopPaste
100
AcDbLine
 10
149.39739996
 20
32.31059832
 30
0.0
 11
149.39739996
 21
31.59459772
 31
0.0
  0
LINE
  5
269
330
1F
100
AcDbEntity
  8
TopPaste
100
AcDbLine
 10
149.39739996
 20
31.59459772
 30
0.0
 11
148.93539936
 21
31.59459772
 31
0.0
  0
LINE
  5
26A
330
1F
100
AcDbEntity
  8
TopPaste
100
AcDbLine
 10
148.93539936
 20
31.59459772
 30
0.0
 11
148.93539936
 21
32.31059832
 31
0.0
  0
LINE
  5
26B
330
1F
100
AcDbEntity
  8
TopPaste
100
AcDbLine
 10
143.51499872
 20
26.9215997
 30
0.0
 11
143.51499872
 21
27.3836003
 31
0.0
  0
LINE
  5
26C
330
1F
100
AcDbEntity
  8
TopPaste
100
AcDbLine
 10
143.51499872
 20
27.3836003
 30
0.0
 11
144.23099932
 21
27.3836003
 31
0.0
  0
LINE
  5
26D
330
1F
100
AcDbEntity
  8
TopPaste
100
AcDbLine
 10
144.23099932
 20
27.3836003
 30
0.0
 11
144.23099932
 21
26.9215997
 31
0.0
  0
LINE
  5
26E
330
1F
100
AcDbEntity
  8
TopPaste
100
AcDbLine
 10
144.23099932
 20
26.9215997
 30
0.0
 11
143.51499872
 21
26.9215997
 31
0.0
  0
LINE
  5
26F
330
1F
100
AcDbEntity
  8
TopPaste
100
AcDbLine
 10
143.51499872
 20
28.50839866
 30
0.0
 11
143.51499872
 21
28.97039926
 31
0.0
  0
LINE
  5
270
330
1F
100
AcDbEntity
  8
TopPaste
100
AcDbLine
 10
143.51499872
 20
28.97039926
 30
0.0
 11
144.23099932
 21
28.97039926
 31
0.0
  0
LINE
  5
271
330
1F
100
AcDbEntity
  8
TopPaste
100
AcDbLine
 10
144.23099932
 20
28.97039926
 30
0.0
 11
144.23099932
 21
28.50839866
 31
0.0
  0
LINE
  5
272
330
1F
100
AcDbEntity
  8
TopPaste
100
AcDbLine
 10
144.23099932
 20
28.50839866
 30
0.0
 11
143.51499872
 21
28.50839866
 31
0.0
  0
LINE
  5
273
330
1F
100
AcDbEntity
  8
TopPaste
100
AcDbLine
 10
208.0768
 20
25.3989967
 30
0.0
 11
207.6147994
 21
25.3989967
 31
0.0
  0
LINE
  5
274
330
1F
100
AcDbEntity
  8
TopPaste
100
AcDbLine
 10
207.6147994
 20
25.3989967
 30
0.0
 11
207.6147994
 21
26.1149973
 31
0.0
  0
LINE
  5
275
330
1F
100
AcDbEntity
  8
TopPaste
100
AcDbLine
 10
207.6147994
 20
26.1149973
 30
0.0
 11
208.0768
 21
26.1149973
 31
0.0
  0
LINE
  5
276
330
1F
100
AcDbEntity
  8
TopPaste
100
AcDbLine
 10
208.0768
 20
26.1149973
 30
0.0
 11
208.0768
 21
25.3989967
 31
0.0
  0
LINE
  5
277
330
1F
100
AcDbEntity
  8
TopPaste
100
AcDbLine
 10
209.66359896
 20
25.3989967
 30
0.0
 11
209.20159836
 21
25.3989967
 31
0.0
  0
LINE
  5
278
330
1F
100
AcDbEntity
  8
TopPaste
100
AcDbLine
 10
209.20159836
 20
25.3989967
 30
0.0
 11
209.20159836
 21
26.1149973
 31
0.0
  0
LINE
  5
279
330
1F
100
AcDbEntity
  8
TopPaste
100
AcDbLine
 10
209.20159836
 20
26.1149973
 30
0.0
 11
209.66359896
 21
26.1149973
 31
0.0
  0
LINE
  5
27A
330
1F
100
AcDbEntity
  8
TopPaste
100
AcDbLine
 10
209.66359896
 20
26.1149973
 30
0.0
 11
209.66359896
 21
25.3989967
 31
0.0
  0
LINE
  5
27B
330
1F
100
AcDbEntity
  8
TopPaste
100
AcDbLine
 10
204.76239972
 20
32.3620003
 30
0.0
 11
205.22440032
 21
32.3620003
 31
0.0
  0
LINE
  5
27C
330
1F
100
AcDbEntity
  8
TopPaste
100
AcDbLine
 10
205.22440032
 20
32.3620003
 30
0.0
 11
205.22440032
 21
31.6459997
 31
0.0
  0
LINE
  5
27D
330
1F
100
AcDbEntity
  8
TopPaste
100
AcDbLine
 10
205.22440032
 20
31.6459997
 30
0.0
 11
204.76239972
 21
31.6459997
 31
0.0
  0
LINE
  5
27E
330
1F
100
AcDbEntity
  8
TopPaste
100
AcDbLine
 10
204.76239972
 20
31.6459997
 30
0.0
 11
204.76239972
 21
32.3620003
 31
0.0
  0
LINE
  5
27F
330
1F
100
AcDbEntity
  8
TopPaste
100
AcDbLine
 10
203.17560076
 20
32.3620003
 30
0.0
 11
203.63760136
 21
32.3620003
 31
0.0
  0
LINE
  5
280
330
1F
100
AcDbEntity
  8
TopPaste
100
AcDbLine
 10
203.63760136
 20
32.3620003
 30
0.0
 11
203.63760136
 21
31.6459997
 31
0.0
  0
LINE
  5
281
330
1F
100
AcDbEntity
  8
TopPaste
100
AcDbLine
 10
203.63760136
 20
31.6459997
 30
0.0
 11
203.17560076
 21
31.6459997
 31
0.0
  0
LINE
  5
282
330
1F
100
AcDbEntity
  8
TopPaste
100
AcDbLine
 10
203.17560076
 20
31.6459997
 30
0.0
 11
203.17560076
 21
32.3620003
 31
0.0
  0
LINE
  5
283
330
1F
100
AcDbEntity
  8
TopPaste
100
AcDbLine
 10
203.17560076
 20
34.1400003
 30
0.0
 11
203.63760136
 21
34.1400003
 31
0.0
  0
LINE
  5
284
330
1F
100
AcDbEntity
  8
TopPaste
100
AcDbLine
 10
203.63760136
 20
34.1400003
 30
0.0
 11
203.63760136
 21
33.4239997
 31
0.0
  0
LINE
  5
285
330
1F
100
AcDbEntity
  8
TopPaste
100
AcDbLine
 10
203.63760136
 20
33.4239997
 30
0.0
 11
203.17560076
 21
33.4239997
 31
0.0
  0
LINE
  5
286
330
1F
100
AcDbEntity
  8
TopPaste
100
AcDbLine
 10
203.17560076
 20
33.4239997
 30
0.0
 11
203.17560076
 21
34.1400003
 31
0.0
  0
LINE
  5
287
330
1F
100
AcDbEntity
  8
TopPaste
100
AcDbLine
 10
204.76239972
 20
34.1400003
 30
0.0
 11
205.22440032
 21
34.1400003
 31
0.0
  0
LINE
  5
288
330
1F
100
AcDbEntity
  8
TopPaste
100
AcDbLine
 10
205.22440032
 20
34.1400003
 30
0.0
 11
205.22440032
 21
33.4239997
 31
0.0
  0
LINE
  5
289
330
1F
100
AcDbEntity
  8
TopPaste
100
AcDbLine
 10
205.22440032
 20
33.4239997
 30
0.0
 11
204.76239972
 21
33.4239997
 31
0.0
  0
LINE
  5
28A
330
1F
100
AcDbEntity
  8
TopPaste
100
AcDbLine
 10
204.76239972
 20
33.4239997
 30
0.0
 11
204.76239972
 21
34.1400003
 31
0.0
  0
LINE
  5
28B
330
1F
100
AcDbEntity
  8
TopPaste
100
AcDbLine
 10
106.90060662
 20
37.93300262
 30
0.0
 11
107.36260722
 21
37.93300262
 31
0.0
  0
LINE
  5
28C
330
1F
100
AcDbEntity
  8
TopPaste
100
AcDbLine
 10
107.36260722
 20
37.93300262
 30
0.0
 11
107.36260722
 21
37.21700202
 31
0.0
  0
LINE
  5
28D
330
1F
100
AcDbEntity
  8
TopPaste
100
AcDbLine
 10
107.36260722
 20
37.21700202
 30
0.0
 11
106.90060662
 21
37.21700202
 31
0.0
  0
LINE
  5
28E
330
1F
100
AcDbEntity
  8
TopPaste
100
AcDbLine
 10
106.90060662
 20
37.21700202
 30
0.0
 11
106.90060662
 21
37.93300262
 31
0.0
  0
LINE
  5
28F
330
1F
100
AcDbEntity
  8
TopPaste
100
AcDbLine
 10
108.48740558
 20
37.93300262
 30
0.0
 11
108.94940618
 21
37.93300262
 31
0.0
  0
LINE
  5
290
330
1F
100
AcDbEntity
  8
TopPaste
100
AcDbLine
 10
108.94940618
 20
37.93300262
 30
0.0
 11
108.94940618
 21
37.21700202
 31
0.0
  0
LINE
  5
291
330
1F
100
AcDbEntity
  8
TopPaste
100
AcDbLine
 10
108.94940618
 20
37.21700202
 30
0.0
 11
108.48740558
 21
37.21700202
 31
0.0
  0
LINE
  5
292
330
1F
100
AcDbEntity
  8
TopPaste
100
AcDbLine
 10
108.48740558
 20
37.21700202
 30
0.0
 11
108.48740558
 21
37.93300262
 31
0.0
  0
LINE
  5
293
330
1F
100
AcDbEntity
  8
TopPaste
100
AcDbLine
 10
141.52440072
 20
37.04199856
 30
0.0
 11
141.06240012
 21
37.04199856
 31
0.0
  0
LINE
  5
294
330
1F
100
AcDbEntity
  8
TopPaste
100
AcDbLine
 10
141.06240012
 20
37.04199856
 30
0.0
 11
141.06240012
 21
37.75799916
 31
0.0
  0
LINE
  5
295
330
1F
100
AcDbEntity
  8
TopPaste
100
AcDbLine
 10
141.06240012
 20
37.75799916
 30
0.0
 11
141.52440072
 21
37.75799916
 31
0.0
  0
LINE
  5
296
330
1F
100
AcDbEntity
  8
TopPaste
100
AcDbLine
 10
141.52440072
 20
37.75799916
 30
0.0
 11
141.52440072
 21
37.04199856
 31
0.0
  0
LINE
  5
297
330
1F
100
AcDbEntity
  8
TopPaste
100
AcDbLine
 10
139.93760176
 20
37.04199856
 30
0.0
 11
139.47560116
 21
37.04199856
 31
0.0
  0
LINE
  5
298
330
1F
100
AcDbEntity
  8
TopPaste
100
AcDbLine
 10
139.47560116
 20
37.04199856
 30
0.0
 11
139.47560116
 21
37.75799916
 31
0.0
  0
LINE
  5
299
330
1F
100
AcDbEntity
  8
TopPaste
100
AcDbLine
 10
139.47560116
 20
37.75799916
 30
0.0
 11
139.93760176
 21
37.75799916
 31
0.0
  0
LINE
  5
29A
330
1F
100
AcDbEntity
  8
TopPaste
100
AcDbLine
 10
139.93760176
 20
37.75799916
 30
0.0
 11
139.93760176
 21
37.04199856
 31
0.0
  0
LINE
  5
29B
330
1F
100
AcDbEntity
  8
TopPaste
100
AcDbLine
 10
23.76899996
 20
33.0579984
 30
0.0
 11
24.23100056
 21
33.0579984
 31
0.0
  0
LINE
  5
29C
330
1F
100
AcDbEntity
  8
TopPaste
100
AcDbLine
 10
24.23100056
 20
33.0579984
 30
0.0
 11
24.23100056
 21
32.34199779999999
 31
0.0
  0
LINE
  5
29D
330
1F
100
AcDbEntity
  8
TopPaste
100
AcDbLine
 10
24.23100056
 20
32.34199779999999
 30
0.0
 11
23.76899996
 21
32.34199779999999
 31
0.0
  0
LINE
  5
29E
330
1F
100
AcDbEntity
  8
TopPaste
100
AcDbLine
 10
23.76899996
 20
32.34199779999999
 30
0.0
 11
23.76899996
 21
33.0579984
 31
0.0
  0
LINE
  5
29F
330
1F
100
AcDbEntity
  8
TopPaste
100
AcDbLine
 10
22.18219592
 20
33.0579984
 30
0.0
 11
22.64419652
 21
33.0579984
 31
0.0
  0
LINE
  5
2A0
330
1F
100
AcDbEntity
  8
TopPaste
100
AcDbLine
 10
22.64419652
 20
33.0579984
 30
0.0
 11
22.64419652
 21
32.34199779999999
 31
0.0
  0
LINE
  5
2A1
330
1F
100
AcDbEntity
  8
TopPaste
100
AcDbLine
 10
22.64419652
 20
32.34199779999999
 30
0.0
 11
22.18219592
 21
32.34199779999999
 31
0.0
  0
LINE
  5
2A2
330
1F
100
AcDbEntity
  8
TopPaste
100
AcDbLine
 10
22.18219592
 20
32.34199779999999
 30
0.0
 11
22.18219592
 21
33.0579984
 31
0.0
  0
LINE
  5
2A3
330
1F
100
AcDbEntity
  8
TopPaste
100
AcDbLine
 10
23.76899996
 20
34.95799714
 30
0.0
 11
24.23100056
 21
34.95799714
 31
0.0
  0
LINE
  5
2A4
330
1F
100
AcDbEntity
  8
TopPaste
100
AcDbLine
 10
24.23100056
 20
34.95799714
 30
0.0
 11
24.23100056
 21
34.24199654
 31
0.0
  0
LINE
  5
2A5
330
1F
100
AcDbEntity
  8
TopPaste
100
AcDbLine
 10
24.23100056
 20
34.24199654
 30
0.0
 11
23.76899996
 21
34.24199654
 31
0.0
  0
LINE
  5
2A6
330
1F
100
AcDbEntity
  8
TopPaste
100
AcDbLine
 10
23.76899996
 20
34.24199654
 30
0.0
 11
23.76899996
 21
34.95799714
 31
0.0
  0
LINE
  5
2A7
330
1F
100
AcDbEntity
  8
TopPaste
100
AcDbLine
 10
22.182201
 20
34.9579946
 30
0.0
 11
22.6442016
 21
34.9579946
 31
0.0
  0
LINE
  5
2A8
330
1F
100
AcDbEntity
  8
TopPaste
100
AcDbLine
 10
22.6442016
 20
34.9579946
 30
0.0
 11
22.6442016
 21
34.241994
 31
0.0
  0
LINE
  5
2A9
330
1F
100
AcDbEntity
  8
TopPaste
100
AcDbLine
 10
22.6442016
 20
34.241994
 30
0.0
 11
22.182201
 21
34.241994
 31
0.0
  0
LINE
  5
2AA
330
1F
100
AcDbEntity
  8
TopPaste
100
AcDbLine
 10
22.182201
 20
34.241994
 30
0.0
 11
22.182201
 21
34.9579946
 31
0.0
  0
LINE
  5
2AB
330
1F
100
AcDbEntity
  8
TopPaste
100
AcDbLine
 10
21.04199754
 20
30.46239779999999
 30
0.0
 11
21.04199754
 21
30.9243984
 31
0.0
  0
LINE
  5
2AC
330
1F
100
AcDbEntity
  8
TopPaste
100
AcDbLine
 10
21.04199754
 20
30.9243984
 30
0.0
 11
21.75799814
 21
30.9243984
 31
0.0
  0
LINE
  5
2AD
330
1F
100
AcDbEntity
  8
TopPaste
100
AcDbLine
 10
21.75799814
 20
30.9243984
 30
0.0
 11
21.75799814
 21
30.46239779999999
 31
0.0
  0
LINE
  5
2AE
330
1F
100
AcDbEntity
  8
TopPaste
100
AcDbLine
 10
21.75799814
 20
30.46239779999999
 30
0.0
 11
21.04199754
 21
30.46239779999999
 31
0.0
  0
LINE
  5
2AF
330
1F
100
AcDbEntity
  8
TopPaste
100
AcDbLine
 10
21.04199754
 20
28.87559884
 30
0.0
 11
21.04199754
 21
29.33759944
 31
0.0
  0
LINE
  5
2B0
330
1F
100
AcDbEntity
  8
TopPaste
100
AcDbLine
 10
21.04199754
 20
29.33759944
 30
0.0
 11
21.75799814
 21
29.33759944
 31
0.0
  0
LINE
  5
2B1
330
1F
100
AcDbEntity
  8
TopPaste
100
AcDbLine
 10
21.75799814
 20
29.33759944
 30
0.0
 11
21.75799814
 21
28.87559884
 31
0.0
  0
LINE
  5
2B2
330
1F
100
AcDbEntity
  8
TopPaste
100
AcDbLine
 10
21.75799814
 20
28.87559884
 30
0.0
 11
21.04199754
 21
28.87559884
 31
0.0
  0
LINE
  5
2B3
330
1F
100
AcDbEntity
  8
TopPaste
100
AcDbLine
 10
24.63899822
 20
25.36279916
 30
0.0
 11
25.10099882
 21
25.36279916
 31
0.0
  0
LINE
  5
2B4
330
1F
100
AcDbEntity
  8
TopPaste
100
AcDbLine
 10
25.10099882
 20
25.36279916
 30
0.0
 11
25.10099882
 21
24.64679856
 31
0.0
  0
LINE
  5
2B5
330
1F
100
AcDbEntity
  8
TopPaste
100
AcDbLine
 10
25.10099882
 20
24.64679856
 30
0.0
 11
24.63899822
 21
24.64679856
 31
0.0
  0
LINE
  5
2B6
330
1F
100
AcDbEntity
  8
TopPaste
100
AcDbLine
 10
24.63899822
 20
24.64679856
 30
0.0
 11
24.63899822
 21
25.36279916
 31
0.0
  0
LINE
  5
2B7
330
1F
100
AcDbEntity
  8
TopPaste
100
AcDbLine
 10
23.05219926
 20
25.36279916
 30
0.0
 11
23.51419986
 21
25.36279916
 31
0.0
  0
LINE
  5
2B8
330
1F
100
AcDbEntity
  8
TopPaste
100
AcDbLine
 10
23.51419986
 20
25.36279916
 30
0.0
 11
23.51419986
 21
24.64679856
 31
0.0
  0
LINE
  5
2B9
330
1F
100
AcDbEntity
  8
TopPaste
100
AcDbLine
 10
23.51419986
 20
24.64679856
 30
0.0
 11
23.05219926
 21
24.64679856
 31
0.0
  0
LINE
  5
2BA
330
1F
100
AcDbEntity
  8
TopPaste
100
AcDbLine
 10
23.05219926
 20
24.64679856
 30
0.0
 11
23.05219926
 21
25.36279916
 31
0.0
  0
LINE
  5
2BB
330
1F
100
AcDbEntity
  8
TopPaste
100
AcDbLine
 10
14.06819132
 20
23.94199682
 30
0.0
 11
13.60619072
 21
23.94199682
 31
0.0
  0
LINE
  5
2BC
330
1F
100
AcDbEntity
  8
TopPaste
100
AcDbLine
 10
13.60619072
 20
23.94199682
 30
0.0
 11
13.60619072
 21
24.65799742
 31
0.0
  0
LINE
  5
2BD
330
1F
100
AcDbEntity
  8
TopPaste
100
AcDbLine
 10
13.60619072
 20
24.65799742
 30
0.0
 11
14.06819132
 21
24.65799742
 31
0.0
  0
LINE
  5
2BE
330
1F
100
AcDbEntity
  8
TopPaste
100
AcDbLine
 10
14.06819132
 20
24.65799742
 30
0.0
 11
14.06819132
 21
23.94199682
 31
0.0
  0
LINE
  5
2BF
330
1F
100
AcDbEntity
  8
TopPaste
100
AcDbLine
 10
15.65499028
 20
23.94199682
 30
0.0
 11
15.19298968
 21
23.94199682
 31
0.0
  0
LINE
  5
2C0
330
1F
100
AcDbEntity
  8
TopPaste
100
AcDbLine
 10
15.19298968
 20
23.94199682
 30
0.0
 11
15.19298968
 21
24.65799742
 31
0.0
  0
LINE
  5
2C1
330
1F
100
AcDbEntity
  8
TopPaste
100
AcDbLine
 10
15.19298968
 20
24.65799742
 30
0.0
 11
15.65499028
 21
24.65799742
 31
0.0
  0
LINE
  5
2C2
330
1F
100
AcDbEntity
  8
TopPaste
100
AcDbLine
 10
15.65499028
 20
24.65799742
 30
0.0
 11
15.65499028
 21
23.94199682
 31
0.0
  0
LINE
  5
2C3
330
1F
100
AcDbEntity
  8
TopPaste
100
AcDbLine
 10
27.06239952
 20
33.0579984
 30
0.0
 11
27.52440012
 21
33.0579984
 31
0.0
  0
LINE
  5
2C4
330
1F
100
AcDbEntity
  8
TopPaste
100
AcDbLine
 10
27.52440012
 20
33.0579984
 30
0.0
 11
27.52440012
 21
32.34199779999999
 31
0.0
  0
LINE
  5
2C5
330
1F
100
AcDbEntity
  8
TopPaste
100
AcDbLine
 10
27.52440012
 20
32.34199779999999
 30
0.0
 11
27.06239952
 21
32.34199779999999
 31
0.0
  0
LINE
  5
2C6
330
1F
100
AcDbEntity
  8
TopPaste
100
AcDbLine
 10
27.06239952
 20
32.34199779999999
 30
0.0
 11
27.06239952
 21
33.0579984
 31
0.0
  0
LINE
  5
2C7
330
1F
100
AcDbEntity
  8
TopPaste
100
AcDbLine
 10
25.47560056
 20
33.05800094
 30
0.0
 11
25.93760116
 21
33.05800094
 31
0.0
  0
LINE
  5
2C8
330
1F
100
AcDbEntity
  8
TopPaste
100
AcDbLine
 10
25.93760116
 20
33.05800094
 30
0.0
 11
25.93760116
 21
32.34200034
 31
0.0
  0
LINE
  5
2C9
330
1F
100
AcDbEntity
  8
TopPaste
100
AcDbLine
 10
25.93760116
 20
32.34200034
 30
0.0
 11
25.47560056
 21
32.34200034
 31
0.0
  0
LINE
  5
2CA
330
1F
100
AcDbEntity
  8
TopPaste
100
AcDbLine
 10
25.47560056
 20
32.34200034
 30
0.0
 11
25.47560056
 21
33.05800094
 31
0.0
  0
LINE
  5
2CB
330
1F
100
AcDbEntity
  8
TopPaste
100
AcDbLine
 10
27.06899844
 20
34.95799714
 30
0.0
 11
27.53099904
 21
34.95799714
 31
0.0
  0
LINE
  5
2CC
330
1F
100
AcDbEntity
  8
TopPaste
100
AcDbLine
 10
27.53099904
 20
34.95799714
 30
0.0
 11
27.53099904
 21
34.24199654
 31
0.0
  0
LINE
  5
2CD
330
1F
100
AcDbEntity
  8
TopPaste
100
AcDbLine
 10
27.53099904
 20
34.24199654
 30
0.0
 11
27.06899844
 21
34.24199654
 31
0.0
  0
LINE
  5
2CE
330
1F
100
AcDbEntity
  8
TopPaste
100
AcDbLine
 10
27.06899844
 20
34.24199654
 30
0.0
 11
27.06899844
 21
34.95799714
 31
0.0
  0
LINE
  5
2CF
330
1F
100
AcDbEntity
  8
TopPaste
100
AcDbLine
 10
25.48219947999999
 20
34.95799714
 30
0.0
 11
25.94420008
 21
34.95799714
 31
0.0
  0
LINE
  5
2D0
330
1F
100
AcDbEntity
  8
TopPaste
100
AcDbLine
 10
25.94420008
 20
34.95799714
 30
0.0
 11
25.94420008
 21
34.24199654
 31
0.0
  0
LINE
  5
2D1
330
1F
100
AcDbEntity
  8
TopPaste
100
AcDbLine
 10
25.94420008
 20
34.24199654
 30
0.0
 11
25.48219947999999
 21
34.24199654
 31
0.0
  0
LINE
  5
2D2
330
1F
100
AcDbEntity
  8
TopPaste
100
AcDbLine
 10
25.48219947999999
 20
34.24199654
 30
0.0
 11
25.48219947999999
 21
34.95799714
 31
0.0
  0
LINE
  5
2D3
330
1F
100
AcDbEntity
  8
TopPaste
100
AcDbLine
 10
14.07040366
 20
34.0419944
 30
0.0
 11
13.60840306
 21
34.0419944
 31
0.0
  0
LINE
  5
2D4
330
1F
100
AcDbEntity
  8
TopPaste
100
AcDbLine
 10
13.60840306
 20
34.0419944
 30
0.0
 11
13.60840306
 21
34.757995
 31
0.0
  0
LINE
  5
2D5
330
1F
100
AcDbEntity
  8
TopPaste
100
AcDbLine
 10
13.60840306
 20
34.757995
 30
0.0
 11
14.07040366
 21
34.757995
 31
0.0
  0
LINE
  5
2D6
330
1F
100
AcDbEntity
  8
TopPaste
100
AcDbLine
 10
14.07040366
 20
34.757995
 30
0.0
 11
14.07040366
 21
34.0419944
 31
0.0
  0
LINE
  5
2D7
330
1F
100
AcDbEntity
  8
TopPaste
100
AcDbLine
 10
15.65720262
 20
34.0419944
 30
0.0
 11
15.19520202
 21
34.0419944
 31
0.0
  0
LINE
  5
2D8
330
1F
100
AcDbEntity
  8
TopPaste
100
AcDbLine
 10
15.19520202
 20
34.0419944
 30
0.0
 11
15.19520202
 21
34.757995
 31
0.0
  0
LINE
  5
2D9
330
1F
100
AcDbEntity
  8
TopPaste
100
AcDbLine
 10
15.19520202
 20
34.757995
 30
0.0
 11
15.65720262
 21
34.757995
 31
0.0
  0
LINE
  5
2DA
330
1F
100
AcDbEntity
  8
TopPaste
100
AcDbLine
 10
15.65720262
 20
34.757995
 30
0.0
 11
15.65720262
 21
34.0419944
 31
0.0
  0
LINE
  5
2DB
330
1F
100
AcDbEntity
  8
TopPaste
100
AcDbLine
 10
14.07039858
 20
30.67532854
 30
0.0
 11
13.60839798
 21
30.67532854
 31
0.0
  0
LINE
  5
2DC
330
1F
100
AcDbEntity
  8
TopPaste
100
AcDbLine
 10
13.60839798
 20
30.67532854
 30
0.0
 11
13.60839798
 21
31.39132914
 31
0.0
  0
LINE
  5
2DD
330
1F
100
AcDbEntity
  8
TopPaste
100
AcDbLine
 10
13.60839798
 20
31.39132914
 30
0.0
 11
14.07039858
 21
31.39132914
 31
0.0
  0
LINE
  5
2DE
330
1F
100
AcDbEntity
  8
TopPaste
100
AcDbLine
 10
14.07039858
 20
31.39132914
 30
0.0
 11
14.07039858
 21
30.67532854
 31
0.0
  0
LINE
  5
2DF
330
1F
100
AcDbEntity
  8
TopPaste
100
AcDbLine
 10
15.65719754
 20
30.67532854
 30
0.0
 11
15.19519694
 21
30.67532854
 31
0.0
  0
LINE
  5
2E0
330
1F
100
AcDbEntity
  8
TopPaste
100
AcDbLine
 10
15.19519694
 20
30.67532854
 30
0.0
 11
15.19519694
 21
31.39132914
 31
0.0
  0
LINE
  5
2E1
330
1F
100
AcDbEntity
  8
TopPaste
100
AcDbLine
 10
15.19519694
 20
31.39132914
 30
0.0
 11
15.65719754
 21
31.39132914
 31
0.0
  0
LINE
  5
2E2
330
1F
100
AcDbEntity
  8
TopPaste
100
AcDbLine
 10
15.65719754
 20
31.39132914
 30
0.0
 11
15.65719754
 21
30.67532854
 31
0.0
  0
LINE
  5
2E3
330
1F
100
AcDbEntity
  8
TopPaste
100
AcDbLine
 10
14.06819132
 20
27.30866268
 30
0.0
 11
13.60619072
 21
27.30866268
 31
0.0
  0
LINE
  5
2E4
330
1F
100
AcDbEntity
  8
TopPaste
100
AcDbLine
 10
13.60619072
 20
27.30866268
 30
0.0
 11
13.60619072
 21
28.02466328
 31
0.0
  0
LINE
  5
2E5
330
1F
100
AcDbEntity
  8
TopPaste
100
AcDbLine
 10
13.60619072
 20
28.02466328
 30
0.0
 11
14.06819132
 21
28.02466328
 31
0.0
  0
LINE
  5
2E6
330
1F
100
AcDbEntity
  8
TopPaste
100
AcDbLine
 10
14.06819132
 20
28.02466328
 30
0.0
 11
14.06819132
 21
27.30866268
 31
0.0
  0
LINE
  5
2E7
330
1F
100
AcDbEntity
  8
TopPaste
100
AcDbLine
 10
15.65499028
 20
27.30866268
 30
0.0
 11
15.19298968
 21
27.30866268
 31
0.0
  0
LINE
  5
2E8
330
1F
100
AcDbEntity
  8
TopPaste
100
AcDbLine
 10
15.19298968
 20
27.30866268
 30
0.0
 11
15.19298968
 21
28.02466328
 31
0.0
  0
LINE
  5
2E9
330
1F
100
AcDbEntity
  8
TopPaste
100
AcDbLine
 10
15.19298968
 20
28.02466328
 30
0.0
 11
15.65499028
 21
28.02466328
 31
0.0
  0
LINE
  5
2EA
330
1F
100
AcDbEntity
  8
TopPaste
100
AcDbLine
 10
15.65499028
 20
28.02466328
 30
0.0
 11
15.65499028
 21
27.30866268
 31
0.0
  0
LINE
  5
2EB
330
1F
100
AcDbEntity
  8
TopPaste
100
AcDbLine
 10
149.42299935
 20
29.25259834
 30
0.0
 11
150.52299969
 21
29.25259834
 31
0.0
  0
LINE
  5
2EC
330
1F
100
AcDbEntity
  8
TopPaste
100
AcDbLine
 10
150.52299969
 20
29.25259834
 30
0.0
 11
150.52299969
 21
28.95259894
 31
0.0
  0
LINE
  5
2ED
330
1F
100
AcDbEntity
  8
TopPaste
100
AcDbLine
 10
150.52299969
 20
28.95259894
 30
0.0
 11
149.42299935
 21
28.95259894
 31
0.0
  0
LINE
  5
2EE
330
1F
100
AcDbEntity
  8
TopPaste
100
AcDbLine
 10
149.42299935
 20
28.95259894
 30
0.0
 11
149.42299935
 21
29.25259834
 31
0.0
  0
LINE
  5
2EF
330
1F
100
AcDbEntity
  8
TopPaste
100
AcDbLine
 10
149.42299935
 20
27.35259706
 30
0.0
 11
150.52299969
 21
27.35259706
 31
0.0
  0
LINE
  5
2F0
330
1F
100
AcDbEntity
  8
TopPaste
100
AcDbLine
 10
150.52299969
 20
27.35259706
 30
0.0
 11
150.52299969
 21
27.05259766
 31
0.0
  0
LINE
  5
2F1
330
1F
100
AcDbEntity
  8
TopPaste
100
AcDbLine
 10
150.52299969
 20
27.05259766
 30
0.0
 11
149.42299935
 21
27.05259766
 31
0.0
  0
LINE
  5
2F2
330
1F
100
AcDbEntity
  8
TopPaste
100
AcDbLine
 10
149.42299935
 20
27.05259766
 30
0.0
 11
149.42299935
 21
27.35259706
 31
0.0
  0
LINE
  5
2F3
330
1F
100
AcDbEntity
  8
TopPaste
100
AcDbLine
 10
151.82299963
 20
28.3025977
 30
0.0
 11
152.92299997
 21
28.3025977
 31
0.0
  0
LINE
  5
2F4
330
1F
100
AcDbEntity
  8
TopPaste
100
AcDbLine
 10
152.92299997
 20
28.3025977
 30
0.0
 11
152.92299997
 21
28.0025983
 31
0.0
  0
LINE
  5
2F5
330
1F
100
AcDbEntity
  8
TopPaste
100
AcDbLine
 10
152.92299997
 20
28.0025983
 30
0.0
 11
151.82299963
 21
28.0025983
 31
0.0
  0
LINE
  5
2F6
330
1F
100
AcDbEntity
  8
TopPaste
100
AcDbLine
 10
151.82299963
 20
28.0025983
 30
0.0
 11
151.82299963
 21
28.3025977
 31
0.0
  0
LINE
  5
2F7
330
1F
100
AcDbEntity
  8
TopPaste
100
AcDbLine
 10
209.70091664
 20
23.7088934
 30
0.0
 11
209.11191604
 21
23.7088934
 31
0.0
  0
LINE
  5
2F8
330
1F
100
AcDbEntity
  8
TopPaste
100
AcDbLine
 10
209.11191604
 20
23.7088934
 30
0.0
 11
209.11191604
 21
24.297894
 31
0.0
  0
LINE
  5
2F9
330
1F
100
AcDbEntity
  8
TopPaste
100
AcDbLine
 10
209.11191604
 20
24.297894
 30
0.0
 11
209.70091664
 21
24.297894
 31
0.0
  0
LINE
  5
2FA
330
1F
100
AcDbEntity
  8
TopPaste
100
AcDbLine
 10
209.70091664
 20
24.297894
 30
0.0
 11
209.70091664
 21
23.7088934
 31
0.0
  0
LINE
  5
2FB
330
1F
100
AcDbEntity
  8
TopPaste
100
AcDbLine
 10
208.17691664
 20
23.7088934
 30
0.0
 11
207.58791604
 21
23.7088934
 31
0.0
  0
LINE
  5
2FC
330
1F
100
AcDbEntity
  8
TopPaste
100
AcDbLine
 10
207.58791604
 20
23.7088934
 30
0.0
 11
207.58791604
 21
24.297894
 31
0.0
  0
LINE
  5
2FD
330
1F
100
AcDbEntity
  8
TopPaste
100
AcDbLine
 10
207.58791604
 20
24.297894
 30
0.0
 11
208.17691664
 21
24.297894
 31
0.0
  0
LINE
  5
2FE
330
1F
100
AcDbEntity
  8
TopPaste
100
AcDbLine
 10
208.17691664
 20
24.297894
 30
0.0
 11
208.17691664
 21
23.7088934
 31
0.0
  0
LINE
  5
2FF
330
1F
100
AcDbEntity
  8
TopPaste
100
AcDbLine
 10
104.25750548
 20
37.28050202
 30
0.0
 11
103.66850488
 21
37.28050202
 31
0.0
  0
LINE
  5
300
330
1F
100
AcDbEntity
  8
TopPaste
100
AcDbLine
 10
103.66850488
 20
37.28050202
 30
0.0
 11
103.66850488
 21
37.86950262
 31
0.0
  0
LINE
  5
301
330
1F
100
AcDbEntity
  8
TopPaste
100
AcDbLine
 10
103.66850488
 20
37.86950262
 30
0.0
 11
104.25750548
 21
37.86950262
 31
0.0
  0
LINE
  5
302
330
1F
100
AcDbEntity
  8
TopPaste
100
AcDbLine
 10
104.25750548
 20
37.86950262
 30
0.0
 11
104.25750548
 21
37.28050202
 31
0.0
  0
LINE
  5
303
330
1F
100
AcDbEntity
  8
TopPaste
100
AcDbLine
 10
105.78150548
 20
37.28050202
 30
0.0
 11
105.19250488
 21
37.28050202
 31
0.0
  0
LINE
  5
304
330
1F
100
AcDbEntity
  8
TopPaste
100
AcDbLine
 10
105.19250488
 20
37.28050202
 30
0.0
 11
105.19250488
 21
37.86950262
 31
0.0
  0
LINE
  5
305
330
1F
100
AcDbEntity
  8
TopPaste
100
AcDbLine
 10
105.19250488
 20
37.86950262
 30
0.0
 11
105.78150548
 21
37.86950262
 31
0.0
  0
LINE
  5
306
330
1F
100
AcDbEntity
  8
TopPaste
100
AcDbLine
 10
105.78150548
 20
37.86950262
 30
0.0
 11
105.78150548
 21
37.28050202
 31
0.0
  0
LINE
  5
307
330
1F
100
AcDbEntity
  8
TopPaste
100
AcDbLine
 10
142.78150006
 20
37.69449916
 30
0.0
 11
143.37050066
 21
37.69449916
 31
0.0
  0
LINE
  5
308
330
1F
100
AcDbEntity
  8
TopPaste
100
AcDbLine
 10
143.37050066
 20
37.69449916
 30
0.0
 11
143.37050066
 21
37.10549856
 31
0.0
  0
LINE
  5
309
330
1F
100
AcDbEntity
  8
TopPaste
100
AcDbLine
 10
143.37050066
 20
37.10549856
 30
0.0
 11
142.78150006
 21
37.10549856
 31
0.0
  0
LINE
  5
30A
330
1F
100
AcDbEntity
  8
TopPaste
100
AcDbLine
 10
142.78150006
 20
37.10549856
 30
0.0
 11
142.78150006
 21
37.69449916
 31
0.0
  0
LINE
  5
30B
330
1F
100
AcDbEntity
  8
TopPaste
100
AcDbLine
 10
144.30550006
 20
37.69449916
 30
0.0
 11
144.89450066
 21
37.69449916
 31
0.0
  0
LINE
  5
30C
330
1F
100
AcDbEntity
  8
TopPaste
100
AcDbLine
 10
144.89450066
 20
37.69449916
 30
0.0
 11
144.89450066
 21
37.10549856
 31
0.0
  0
LINE
  5
30D
330
1F
100
AcDbEntity
  8
TopPaste
100
AcDbLine
 10
144.89450066
 20
37.10549856
 30
0.0
 11
144.30550006
 21
37.10549856
 31
0.0
  0
LINE
  5
30E
330
1F
100
AcDbEntity
  8
TopPaste
100
AcDbLine
 10
144.30550006
 20
37.10549856
 30
0.0
 11
144.30550006
 21
37.69449916
 31
0.0
  0
LINE
  5
30F
330
1F
100
AcDbEntity
  8
TopPaste
100
AcDbLine
 10
18.2860442
 20
24.59449742
 30
0.0
 11
18.8750448
 21
24.59449742
 31
0.0
  0
LINE
  5
310
330
1F
100
AcDbEntity
  8
TopPaste
100
AcDbLine
 10
18.8750448
 20
24.59449742
 30
0.0
 11
18.8750448
 21
24.00549682
 31
0.0
  0
LINE
  5
311
330
1F
100
AcDbEntity
  8
TopPaste
100
AcDbLine
 10
18.8750448
 20
24.00549682
 30
0.0
 11
18.2860442
 21
24.00549682
 31
0.0
  0
LINE
  5
312
330
1F
100
AcDbEntity
  8
TopPaste
100
AcDbLine
 10
18.2860442
 20
24.00549682
 30
0.0
 11
18.2860442
 21
24.59449742
 31
0.0
  0
LINE
  5
313
330
1F
100
AcDbEntity
  8
TopPaste
100
AcDbLine
 10
16.7620442
 20
24.59449742
 30
0.0
 11
17.3510448
 21
24.59449742
 31
0.0
  0
LINE
  5
314
330
1F
100
AcDbEntity
  8
TopPaste
100
AcDbLine
 10
17.3510448
 20
24.59449742
 30
0.0
 11
17.3510448
 21
24.00549682
 31
0.0
  0
LINE
  5
315
330
1F
100
AcDbEntity
  8
TopPaste
100
AcDbLine
 10
17.3510448
 20
24.00549682
 30
0.0
 11
16.7620442
 21
24.00549682
 31
0.0
  0
LINE
  5
316
330
1F
100
AcDbEntity
  8
TopPaste
100
AcDbLine
 10
16.7620442
 20
24.00549682
 30
0.0
 11
16.7620442
 21
24.59449742
 31
0.0
  0
LINE
  5
317
330
1F
100
AcDbEntity
  8
TopPaste
100
AcDbLine
 10
18.28825654
 20
34.694495
 30
0.0
 11
18.87725714
 21
34.694495
 31
0.0
  0
LINE
  5
318
330
1F
100
AcDbEntity
  8
TopPaste
100
AcDbLine
 10
18.87725714
 20
34.694495
 30
0.0
 11
18.87725714
 21
34.1054944
 31
0.0
  0
LINE
  5
319
330
1F
100
AcDbEntity
  8
TopPaste
100
AcDbLine
 10
18.87725714
 20
34.1054944
 30
0.0
 11
18.28825654
 21
34.1054944
 31
0.0
  0
LINE
  5
31A
330
1F
100
AcDbEntity
  8
TopPaste
100
AcDbLine
 10
18.28825654
 20
34.1054944
 30
0.0
 11
18.28825654
 21
34.694495
 31
0.0
  0
LINE
  5
31B
330
1F
100
AcDbEntity
  8
TopPaste
100
AcDbLine
 10
16.76425654
 20
34.694495
 30
0.0
 11
17.35325714
 21
34.694495
 31
0.0
  0
LINE
  5
31C
330
1F
100
AcDbEntity
  8
TopPaste
100
AcDbLine
 10
17.35325714
 20
34.694495
 30
0.0
 11
17.35325714
 21
34.1054944
 31
0.0
  0
LINE
  5
31D
330
1F
100
AcDbEntity
  8
TopPaste
100
AcDbLine
 10
17.35325714
 20
34.1054944
 30
0.0
 11
16.76425654
 21
34.1054944
 31
0.0
  0
LINE
  5
31E
330
1F
100
AcDbEntity
  8
TopPaste
100
AcDbLine
 10
16.76425654
 20
34.1054944
 30
0.0
 11
16.76425654
 21
34.694495
 31
0.0
  0
LINE
  5
31F
330
1F
100
AcDbEntity
  8
TopPaste
100
AcDbLine
 10
16.77629868
 20
31.32782914
 30
0.0
 11
17.36529928
 21
31.32782914
 31
0.0
  0
LINE
  5
320
330
1F
100
AcDbEntity
  8
TopPaste
100
AcDbLine
 10
17.36529928
 20
31.32782914
 30
0.0
 11
17.36529928
 21
30.73882854
 31
0.0
  0
LINE
  5
321
330
1F
100
AcDbEntity
  8
TopPaste
100
AcDbLine
 10
17.36529928
 20
30.73882854
 30
0.0
 11
16.77629868
 21
30.73882854
 31
0.0
  0
LINE
  5
322
330
1F
100
AcDbEntity
  8
TopPaste
100
AcDbLine
 10
16.77629868
 20
30.73882854
 30
0.0
 11
16.77629868
 21
31.32782914
 31
0.0
  0
LINE
  5
323
330
1F
100
AcDbEntity
  8
TopPaste
100
AcDbLine
 10
18.30029868
 20
31.32782914
 30
0.0
 11
18.88929928
 21
31.32782914
 31
0.0
  0
LINE
  5
324
330
1F
100
AcDbEntity
  8
TopPaste
100
AcDbLine
 10
18.88929928
 20
31.32782914
 30
0.0
 11
18.88929928
 21
30.73882854
 31
0.0
  0
LINE
  5
325
330
1F
100
AcDbEntity
  8
TopPaste
100
AcDbLine
 10
18.88929928
 20
30.73882854
 30
0.0
 11
18.30029868
 21
30.73882854
 31
0.0
  0
LINE
  5
326
330
1F
100
AcDbEntity
  8
TopPaste
100
AcDbLine
 10
18.30029868
 20
30.73882854
 30
0.0
 11
18.30029868
 21
31.32782914
 31
0.0
  0
LINE
  5
327
330
1F
100
AcDbEntity
  8
TopPaste
100
AcDbLine
 10
18.2860442
 20
27.96116328
 30
0.0
 11
18.8750448
 21
27.96116328
 31
0.0
  0
LINE
  5
328
330
1F
100
AcDbEntity
  8
TopPaste
100
AcDbLine
 10
18.8750448
 20
27.96116328
 30
0.0
 11
18.8750448
 21
27.37216268
 31
0.0
  0
LINE
  5
329
330
1F
100
AcDbEntity
  8
TopPaste
100
AcDbLine
 10
18.8750448
 20
27.37216268
 30
0.0
 11
18.2860442
 21
27.37216268
 31
0.0
  0
LINE
  5
32A
330
1F
100
AcDbEntity
  8
TopPaste
100
AcDbLine
 10
18.2860442
 20
27.37216268
 30
0.0
 11
18.2860442
 21
27.96116328
 31
0.0
  0
LINE
  5
32B
330
1F
100
AcDbEntity
  8
TopPaste
100
AcDbLine
 10
16.7620442
 20
27.96116328
 30
0.0
 11
17.3510448
 21
27.96116328
 31
0.0
  0
LINE
  5
32C
330
1F
100
AcDbEntity
  8
TopPaste
100
AcDbLine
 10
17.3510448
 20
27.96116328
 30
0.0
 11
17.3510448
 21
27.37216268
 31
0.0
  0
LINE
  5
32D
330
1F
100
AcDbEntity
  8
TopPaste
100
AcDbLine
 10
17.3510448
 20
27.37216268
 30
0.0
 11
16.7620442
 21
27.37216268
 31
0.0
  0
LINE
  5
32E
330
1F
100
AcDbEntity
  8
TopPaste
100
AcDbLine
 10
16.7620442
 20
27.37216268
 30
0.0
 11
16.7620442
 21
27.96116328
 31
0.0
  0
LINE
  5
32F
330
1F
100
AcDbEntity
  8
TopPaste
100
AcDbLine
 10
150.27299638
 20
32.25259869
 30
0.0
 11
150.27299638
 21
33.65259843
 31
0.0
  0
LINE
  5
330
330
1F
100
AcDbEntity
  8
TopPaste
100
AcDbLine
 10
150.27299638
 20
33.65259843
 30
0.0
 11
152.47299706
 21
33.65259843
 31
0.0
  0
LINE
  5
331
330
1F
100
AcDbEntity
  8
TopPaste
100
AcDbLine
 10
152.47299706
 20
33.65259843
 30
0.0
 11
152.47299706
 21
32.25259869
 31
0.0
  0
LINE
  5
332
330
1F
100
AcDbEntity
  8
TopPaste
100
AcDbLine
 10
152.47299706
 20
32.25259869
 30
0.0
 11
150.27299638
 21
32.25259869
 31
0.0
  0
LINE
  5
333
330
1F
100
AcDbEntity
  8
TopPaste
100
AcDbLine
 10
154.27299854
 20
32.25259869
 30
0.0
 11
154.27299854
 21
33.65259843
 31
0.0
  0
LINE
  5
334
330
1F
100
AcDbEntity
  8
TopPaste
100
AcDbLine
 10
154.27299854
 20
33.65259843
 30
0.0
 11
156.47299922
 21
33.65259843
 31
0.0
  0
LINE
  5
335
330
1F
100
AcDbEntity
  8
TopPaste
100
AcDbLine
 10
156.47299922
 20
33.65259843
 30
0.0
 11
156.47299922
 21
32.25259869
 31
0.0
  0
LINE
  5
336
330
1F
100
AcDbEntity
  8
TopPaste
100
AcDbLine
 10
156.47299922
 20
32.25259869
 30
0.0
 11
154.27299854
 21
32.25259869
 31
0.0
  0
LINE
  5
337
330
1F
100
AcDbEntity
  8
TopPaste
100
AcDbLine
 10
155.97299895
 20
24.55259758
 30
0.0
 11
154.57299921
 21
24.55259758
 31
0.0
  0
LINE
  5
338
330
1F
100
AcDbEntity
  8
TopPaste
100
AcDbLine
 10
154.57299921
 20
24.55259758
 30
0.0
 11
154.57299921
 21
26.75259826
 31
0.0
  0
LINE
  5
339
330
1F
100
AcDbEntity
  8
TopPaste
100
AcDbLine
 10
154.57299921
 20
26.75259826
 30
0.0
 11
155.97299895
 21
26.75259826
 31
0.0
  0
LINE
  5
33A
330
1F
100
AcDbEntity
  8
TopPaste
100
AcDbLine
 10
155.97299895
 20
26.75259826
 30
0.0
 11
155.97299895
 21
24.55259758
 31
0.0
  0
LINE
  5
33B
330
1F
100
AcDbEntity
  8
TopPaste
100
AcDbLine
 10
155.97299895
 20
28.55259974
 30
0.0
 11
154.57299921
 21
28.55259974
 31
0.0
  0
LINE
  5
33C
330
1F
100
AcDbEntity
  8
TopPaste
100
AcDbLine
 10
154.57299921
 20
28.55259974
 30
0.0
 11
154.57299921
 21
30.75260042
 31
0.0
  0
LINE
  5
33D
330
1F
100
AcDbEntity
  8
TopPaste
100
AcDbLine
 10
154.57299921
 20
30.75260042
 30
0.0
 11
155.97299895
 21
30.75260042
 31
0.0
  0
LINE
  5
33E
330
1F
100
AcDbEntity
  8
TopPaste
100
AcDbLine
 10
155.97299895
 20
30.75260042
 30
0.0
 11
155.97299895
 21
28.55259974
 31
0.0
  0
LINE
  5
33F
330
1F
100
AcDbEntity
  8
TopPaste
100
AcDbLine
 10
159.57299937
 20
24.55259758
 30
0.0
 11
158.17299963
 21
24.55259758
 31
0.0
  0
LINE
  5
340
330
1F
100
AcDbEntity
  8
TopPaste
100
AcDbLine
 10
158.17299963
 20
24.55259758
 30
0.0
 11
158.17299963
 21
26.75259826
 31
0.0
  0
LINE
  5
341
330
1F
100
AcDbEntity
  8
TopPaste
100
AcDbLine
 10
158.17299963
 20
26.75259826
 30
0.0
 11
159.57299937
 21
26.75259826
 31
0.0
  0
LINE
  5
342
330
1F
100
AcDbEntity
  8
TopPaste
100
AcDbLine
 10
159.57299937
 20
26.75259826
 30
0.0
 11
159.57299937
 21
24.55259758
 31
0.0
  0
LINE
  5
343
330
1F
100
AcDbEntity
  8
TopPaste
100
AcDbLine
 10
159.57299937
 20
28.55259974
 30
0.0
 11
158.17299963
 21
28.55259974
 31
0.0
  0
LINE
  5
344
330
1F
100
AcDbEntity
  8
TopPaste
100
AcDbLine
 10
158.17299963
 20
28.55259974
 30
0.0
 11
158.17299963
 21
30.75260042
 31
0.0
  0
LINE
  5
345
330
1F
100
AcDbEntity
  8
TopPaste
100
AcDbLine
 10
158.17299963
 20
30.75260042
 30
0.0
 11
159.57299937
 21
30.75260042
 31
0.0
  0
LINE
  5
346
330
1F
100
AcDbEntity
  8
TopPaste
100
AcDbLine
 10
159.57299937
 20
30.75260042
 30
0.0
 11
159.57299937
 21
28.55259974
 31
0.0
  0
LINE
  5
347
330
1F
100
AcDbEntity
  8
TopPaste
100
AcDbLine
 10
29.19999875
 20
26.6999974
 30
0.0
 11
30.59999849
 21
26.6999974
 31
0.0
  0
LINE
  5
348
330
1F
100
AcDbEntity
  8
TopPaste
100
AcDbLine
 10
30.59999849
 20
26.6999974
 30
0.0
 11
30.59999849
 21
24.49999672
 31
0.0
  0
LINE
  5
349
330
1F
100
AcDbEntity
  8
TopPaste
100
AcDbLine
 10
30.59999849
 20
24.49999672
 30
0.0
 11
29.19999875
 21
24.49999672
 31
0.0
  0
LINE
  5
34A
330
1F
100
AcDbEntity
  8
TopPaste
100
AcDbLine
 10
29.19999875
 20
24.49999672
 30
0.0
 11
29.19999875
 21
26.6999974
 31
0.0
  0
LINE
  5
34B
330
1F
100
AcDbEntity
  8
TopPaste
100
AcDbLine
 10
29.19999875
 20
30.69999956
 30
0.0
 11
30.59999849
 21
30.69999956
 31
0.0
  0
LINE
  5
34C
330
1F
100
AcDbEntity
  8
TopPaste
100
AcDbLine
 10
30.59999849
 20
30.69999956
 30
0.0
 11
30.59999849
 21
28.49999888
 31
0.0
  0
LINE
  5
34D
330
1F
100
AcDbEntity
  8
TopPaste
100
AcDbLine
 10
30.59999849
 20
28.49999888
 30
0.0
 11
29.19999875
 21
28.49999888
 31
0.0
  0
LINE
  5
34E
330
1F
100
AcDbEntity
  8
TopPaste
100
AcDbLine
 10
29.19999875
 20
28.49999888
 30
0.0
 11
29.19999875
 21
30.69999956
 31
0.0
  0
LINE
  5
34F
330
1F
100
AcDbEntity
  8
TopPaste
100
AcDbLine
 10
148.99739822
 20
24.69459882
 30
0.0
 11
148.53539762
 21
24.69459882
 31
0.0
  0
LINE
  5
350
330
1F
100
AcDbEntity
  8
TopPaste
100
AcDbLine
 10
148.53539762
 20
24.69459882
 30
0.0
 11
148.53539762
 21
25.41059942
 31
0.0
  0
LINE
  5
351
330
1F
100
AcDbEntity
  8
TopPaste
100
AcDbLine
 10
148.53539762
 20
25.41059942
 30
0.0
 11
148.99739822
 21
25.41059942
 31
0.0
  0
LINE
  5
352
330
1F
100
AcDbEntity
  8
TopPaste
100
AcDbLine
 10
148.99739822
 20
25.41059942
 30
0.0
 11
148.99739822
 21
24.69459882
 31
0.0
  0
LINE
  5
353
330
1F
100
AcDbEntity
  8
TopPaste
100
AcDbLine
 10
147.41059672
 20
24.69459882
 30
0.0
 11
146.94859612
 21
24.69459882
 31
0.0
  0
LINE
  5
354
330
1F
100
AcDbEntity
  8
TopPaste
100
AcDbLine
 10
146.94859612
 20
24.69459882
 30
0.0
 11
146.94859612
 21
25.41059942
 31
0.0
  0
LINE
  5
355
330
1F
100
AcDbEntity
  8
TopPaste
100
AcDbLine
 10
146.94859612
 20
25.41059942
 30
0.0
 11
147.41059672
 21
25.41059942
 31
0.0
  0
LINE
  5
356
330
1F
100
AcDbEntity
  8
TopPaste
100
AcDbLine
 10
147.41059672
 20
25.41059942
 30
0.0
 11
147.41059672
 21
24.69459882
 31
0.0
  0
LINE
  5
357
330
1F
100
AcDbEntity
  8
TopPaste
100
AcDbLine
 10
143.62159998
 20
32.31059832
 30
0.0
 11
144.08360058
 21
32.31059832
 31
0.0
  0
LINE
  5
358
330
1F
100
AcDbEntity
  8
TopPaste
100
AcDbLine
 10
144.08360058
 20
32.31059832
 30
0.0
 11
144.08360058
 21
31.59459772
 31
0.0
  0
LINE
  5
359
330
1F
100
AcDbEntity
  8
TopPaste
100
AcDbLine
 10
144.08360058
 20
31.59459772
 30
0.0
 11
143.62159998
 21
31.59459772
 31
0.0
  0
LINE
  5
35A
330
1F
100
AcDbEntity
  8
TopPaste
100
AcDbLine
 10
143.62159998
 20
31.59459772
 30
0.0
 11
143.62159998
 21
32.31059832
 31
0.0
  0
LINE
  5
35B
330
1F
100
AcDbEntity
  8
TopPaste
100
AcDbLine
 10
145.20839894
 20
32.31059832
 30
0.0
 11
145.67039954
 21
32.31059832
 31
0.0
  0
LINE
  5
35C
330
1F
100
AcDbEntity
  8
TopPaste
100
AcDbLine
 10
145.67039954
 20
32.31059832
 30
0.0
 11
145.67039954
 21
31.59459772
 31
0.0
  0
LINE
  5
35D
330
1F
100
AcDbEntity
  8
TopPaste
100
AcDbLine
 10
145.67039954
 20
31.59459772
 30
0.0
 11
145.20839894
 21
31.59459772
 31
0.0
  0
LINE
  5
35E
330
1F
100
AcDbEntity
  8
TopPaste
100
AcDbLine
 10
145.20839894
 20
31.59459772
 30
0.0
 11
145.20839894
 21
32.31059832
 31
0.0
  0
LINE
  5
35F
330
1F
100
AcDbEntity
  8
TopPaste
100
AcDbLine
 10
26.64199904
 20
30.362398
 30
0.0
 11
26.64199904
 21
30.8243986
 31
0.0
  0
LINE
  5
360
330
1F
100
AcDbEntity
  8
TopPaste
100
AcDbLine
 10
26.64199904
 20
30.8243986
 30
0.0
 11
27.35799964
 21
30.8243986
 31
0.0
  0
LINE
  5
361
330
1F
100
AcDbEntity
  8
TopPaste
100
AcDbLine
 10
27.35799964
 20
30.8243986
 30
0.0
 11
27.35799964
 21
30.362398
 31
0.0
  0
LINE
  5
362
330
1F
100
AcDbEntity
  8
TopPaste
100
AcDbLine
 10
27.35799964
 20
30.362398
 30
0.0
 11
26.64199904
 21
30.362398
 31
0.0
  0
LINE
  5
363
330
1F
100
AcDbEntity
  8
TopPaste
100
AcDbLine
 10
26.64200158
 20
28.77559904
 30
0.0
 11
26.64200158
 21
29.23759964
 31
0.0
  0
LINE
  5
364
330
1F
100
AcDbEntity
  8
TopPaste
100
AcDbLine
 10
26.64200158
 20
29.23759964
 30
0.0
 11
27.35800218
 21
29.23759964
 31
0.0
  0
LINE
  5
365
330
1F
100
AcDbEntity
  8
TopPaste
100
AcDbLine
 10
27.35800218
 20
29.23759964
 30
0.0
 11
27.35800218
 21
28.77559904
 31
0.0
  0
LINE
  5
366
330
1F
100
AcDbEntity
  8
TopPaste
100
AcDbLine
 10
27.35800218
 20
28.77559904
 30
0.0
 11
26.64200158
 21
28.77559904
 31
0.0
  0
LINE
  5
367
330
1F
100
AcDbEntity
  8
TopPaste
100
AcDbLine
 10
27.35799964
 20
25.73759902
 30
0.0
 11
27.35799964
 21
25.27559842
 31
0.0
  0
LINE
  5
368
330
1F
100
AcDbEntity
  8
TopPaste
100
AcDbLine
 10
27.35799964
 20
25.27559842
 30
0.0
 11
26.64199904
 21
25.27559842
 31
0.0
  0
LINE
  5
369
330
1F
100
AcDbEntity
  8
TopPaste
100
AcDbLine
 10
26.64199904
 20
25.27559842
 30
0.0
 11
26.64199904
 21
25.73759902
 31
0.0
  0
LINE
  5
36A
330
1F
100
AcDbEntity
  8
TopPaste
100
AcDbLine
 10
26.64199904
 20
25.73759902
 30
0.0
 11
27.35799964
 21
25.73759902
 31
0.0
  0
LINE
  5
36B
330
1F
100
AcDbEntity
  8
TopPaste
100
AcDbLine
 10
27.35799964
 20
27.32439798
 30
0.0
 11
27.35799964
 21
26.86239738
 31
0.0
  0
LINE
  5
36C
330
1F
100
AcDbEntity
  8
TopPaste
100
AcDbLine
 10
27.35799964
 20
26.86239738
 30
0.0
 11
26.64199904
 21
26.86239738
 31
0.0
  0
LINE
  5
36D
330
1F
100
AcDbEntity
  8
TopPaste
100
AcDbLine
 10
26.64199904
 20
26.86239738
 30
0.0
 11
26.64199904
 21
27.32439798
 31
0.0
  0
LINE
  5
36E
330
1F
100
AcDbEntity
  8
TopPaste
100
AcDbLine
 10
26.64199904
 20
27.32439798
 30
0.0
 11
27.35799964
 21
27.32439798
 31
0.0
  0
ENDSEC
  0
SECTION
  2
OBJECTS
  0
DICTIONARY
  5
C
330
0
100
AcDbDictionary
281
     1
  3
ACAD_DETAILVIEWSTYLE
350
376
  3
ACAD_GROUP
350
D
  3
ACAD_LAYOUT
350
1A
  3
ACAD_MATERIAL
350
43
  3
ACAD_MLEADERSTYLE
350
6B
  3
ACAD_MLINESTYLE
350
17
  3
ACAD_PLOTSETTINGS
350
19
  3
ACAD_PLOTSTYLENAME
350
E
  3
ACAD_SCALELIST
350
47
  3
ACAD_SECTIONVIEWSTYLE
350
377
  3
ACAD_TABLESTYLE
350
69
  3
ACAD_VISUALSTYLE
350
2A
  3
ACDB_RECOMPOSE_DATA
350
373
  3
AcDbVariableDictionary
350
36F
  0
SUN
  5
6D
330
29
100
AcDbSun
 90
        1
290
     0
 63
     7
421
 16777215
 40
1.0
291
     1
 91
  2455826
 92
 54000000
292
     0
 70
     2
 71
   256
280
     1
  0
DICTIONARY
  5
376
102
{ACAD_REACTORS
330
C
102
}
330
C
100
AcDbDictionary
281
     1
  0
DICTIONARY
  5
D
102
{ACAD_REACTORS
330
C
102
}
330
C
100
AcDbDictionary
281
     1
  0
DICTIONARY
  5
1A
102
{ACAD_REACTORS
330
C
102
}
330
C
100
AcDbDictionary
281
     1
  3
Layout1
350
1E
  3
Layout2
350
26
  3
Model
350
22
  0
DICTIONARY
  5
43
102
{ACAD_REACTORS
330
C
102
}
330
C
100
AcDbDictionary
281
     1
  3
ByBlock
350
45
  3
ByLayer
350
44
  3
Global
350
46
  0
DICTIONARY
  5
6B
102
{ACAD_REACTORS
330
C
102
}
330
C
100
AcDbDictionary
281
     1
  3
Standard
350
6C
  0
DICTIONARY
  5
17
102
{ACAD_REACTORS
330
C
102
}
330
C
100
AcDbDictionary
281
     1
  3
Standard
350
18
  0
DICTIONARY
  5
19
102
{ACAD_REACTORS
330
C
102
}
330
C
100
AcDbDictionary
281
     1
  0
ACDBDICTIONARYWDFLT
  5
E
102
{ACAD_REACTORS
330
C
102
}
330
C
100
AcDbDictionary
281
     1
  3
Normal
350
F
100
AcDbDictionaryWithDefault
340
F
  0
DICTIONARY
  5
47
102
{ACAD_REACTORS
330
C
102
}
330
C
100
AcDbDictionary
281
     1
  3
A0
350
48
  3
A1
350
49
  3
A2
350
4A
  3
A3
350
4B
  3
A4
350
4C
  3
A5
350
4D
  3
A6
350
4E
  3
A7
350
4F
  3
A8
350
50
  3
A9
350
51
  3
B0
350
52
  3
B1
350
53
  3
B2
350
54
  3
B3
350
55
  3
B4
350
56
  3
B5
350
57
  3
B6
350
58
  3
B7
350
59
  3
B8
350
5A
  3
B9
350
5B
  3
C0
350
5C
  3
C1
350
5D
  3
C2
350
5E
  3
C3
350
5F
  3
C4
350
60
  3
C5
350
61
  3
C6
350
62
  3
C7
350
63
  3
C8
350
64
  3
C9
350
65
  3
D0
350
66
  3
D1
350
67
  3
D2
350
68
  0
DICTIONARY
  5
377
102
{ACAD_REACTORS
330
C
102
}
330
C
100
AcDbDictionary
281
     1
  0
DICTIONARY
  5
69
102
{ACAD_REACTORS
330
C
102
}
330
C
100
AcDbDictionary
281
     1
  3
Standard
350
6A
  0
DICTIONARY
  5
2A
102
{ACAD_REACTORS
330
C
102
}
330
C
100
AcDbDictionary
281
     1
  3
2dWireframe
350
2F
  3
Basic
350
32
  3
Brighten
350
36
  3
ColorChange
350
3A
  3
Conceptual
350
34
  3
Dim
350
35
  3
EdgeColorOff
350
3D
  3
Facepattern
350
39
  3
Flat
350
2B
  3
FlatWithEdges
350
2C
  3
Gouraud
350
2D
  3
GouraudWithEdges
350
2E
  3
Hidden
350
31
  3
JitterOff
350
3B
  3
Linepattern
350
38
  3
OverhangOff
350
3C
  3
Realistic
350
33
  3
Shaded
350
42
  3
Shaded with edges
350
41
  3
Shades of Gray
350
3E
  3
Sketchy
350
3F
  3
Thicken
350
37
  3
Wireframe
350
30
  3
X-Ray
350
40
  0
XRECORD
  5
373
102
{ACAD_REACTORS
330
C
102
}
330
C
100
AcDbXrecord
280
     1
 90
        1
330
6A
  0
DICTIONARY
  5
36F
102
{ACAD_REACTORS
330
C
102
}
330
C
100
AcDbDictionary
281
     1
  3
CANNOSCALE
350
370
  3
CMLEADERSTYLE
350
375
  3
CTABLESTYLE
350
374
  0
LAYOUT
  5
1E
102
{ACAD_REACTORS
330
1A
102
}
330
1A
100
AcDbPlotSettings
  1

  2
none_device
  4

  6

 40
0.0
 41
0.0
 42
0.0
 43
0.0
 44
0.0
 45
0.0
 46
0.0
 47
0.0
 48
0.0
 49
0.0
140
0.0
141
0.0
142
1.0
143
1.0
 70
   688
 72
     1
 73
     0
 74
     5
  7

 75
    16
 76
     0
 77
     2
 78
   300
147
1.0
148
0.0
149
0.0
100
AcDbLayout
  1
Layout1
 70
     1
 71
     1
 10
0.0
 20
0.0
 11
420.0
 21
297.0
 12
0.0
 22
0.0
 32
0.0
 14
1.000000000000000E+20
 24
1.000000000000000E+20
 34
1.000000000000000E+20
 15
-1.000000000000000E+20
 25
-1.000000000000000E+20
 35
-1.000000000000000E+20
146
0.0
 13
0.0
 23
0.0
 33
0.0
 16
1.0
 26
0.0
 36
0.0
 17
0.0
 27
1.0
 37
0.0
 76
     0
330
1B
  0
LAYOUT
  5
26
102
{ACAD_REACTORS
330
1A
102
}
330
1A
100
AcDbPlotSettings
  1

  2
none_device
  4

  6

 40
0.0
 41
0.0
 42
0.0
 43
0.0
 44
0.0
 45
0.0
 46
0.0
 47
0.0
 48
0.0
 49
0.0
140
0.0
141
0.0
142
1.0
143
1.0
 70
   688
 72
     1
 73
     0
 74
     5
  7

 75
    16
 76
     0
 77
     2
 78
   300
147
1.0
148
0.0
149
0.0
100
AcDbLayout
  1
Layout2
 70
     1
 71
     2
 10
0.0
 20
0.0
 11
0.0
 21
0.0
 12
0.0
 22
0.0
 32
0.0
 14
0.0
 24
0.0
 34
0.0
 15
0.0
 25
0.0
 35
0.0
146
0.0
 13
0.0
 23
0.0
 33
0.0
 16
1.0
 26
0.0
 36
0.0
 17
0.0
 27
1.0
 37
0.0
 76
     0
330
23
  0
LAYOUT
  5
22
102
{ACAD_REACTORS
330
1A
102
}
330
1A
100
AcDbPlotSettings
  1

  2
none_device
  4
Letter_(8.50_x_11.00_Inches)
  6

 40
6.35
 41
6.35
 42
6.35000508
 43
6.35000508
 44
215.9
 45
279.4
 46
0.0
 47
0.0
 48
0.0
 49
0.0
140
0.0
141
0.0
142
1.0
143
1.0
 70
  1712
 72
     1
 73
     0
 74
     0
  7

 75
     0
 76
     0
 77
     2
 78
   300
147
1.0
148
0.0
149
0.0
100
AcDbLayout
  1
Model
 70
     1
 71
     0
 10
-3.36769964
 20
-20.59999436
 11
270.71126706
 21
71.09998988
 12
0.0
 22
0.0
 32
0.0
 14
1.000000000000000E+20
 24
1.000000000000000E+20
 34
1.000000000000000E+20
 15
-1.000000000000000E+20
 25
-1.000000000000000E+20
 35
-1.000000000000000E+20
146
0.0
 13
0.0
 23
0.0
 33
0.0
 16
1.0
 26
0.0
 36
0.0
 17
0.0
 27
1.0
 37
0.0
 76
     0
330
1F
331
29
  0
MATERIAL
  5
45
102
{ACAD_REACTORS
330
43
102
}
330
43
100
AcDbMaterial
  1
ByBlock
 72
     1
 94
      127
  0
MATERIAL
  5
44
102
{ACAD_REACTORS
330
43
102
}
330
43
100
AcDbMaterial
  1
ByLayer
 72
     1
 94
      127
  0
MATERIAL
  5
46
102
{ACAD_REACTORS
330
43
102
}
330
43
100
AcDbMaterial
  1
Global
 72
     1
 94
      127
  0
MLEADERSTYLE
  5
6C
102
{ACAD_REACTORS
330
6B
102
}
330
6B
100
AcDbMLeaderStyle
179
     2
170
     2
171
     1
172
     0
 90
        2
 40
0.0
 41
0.0
173
     1
 91
-1056964608
340
14
 92
       -2
290
     1
 42
2.0
291
     1
 43
8.0
  3
Standard
341
0
 44
4.0
300

342
11
174
     1
178
     6
175
     1
176
     0
 93
-1056964608
 45
4.0
292
     0
297
     0
 46
4.0
343
0
 94
-1056964608
 47
1.0
 49
1.0
140
1.0
293
     1
141
0.0
294
     1
177
     0
142
1.0
295
     0
296
     0
143
3.75
271
     0
272
     9
273
     9
298
     0
  0
MLINESTYLE
  5
18
102
{ACAD_REACTORS
330
17
102
}
330
17
100
AcDbMlineStyle
  2
Standard
 70
     0
  3

 62
   256
 51
90.0
 52
90.0
 71
     2
 49
0.5
 62
   256
  6
BYLAYER
 49
-0.5
 62
   256
  6
BYLAYER
  0
ACDBPLACEHOLDER
  5
F
102
{ACAD_REACTORS
330
E
102
}
330
E
  0
SCALE
  5
48
102
{ACAD_REACTORS
330
47
102
}
330
47
100
AcDbScale
 70
     0
300
1:1
140
1.0
141
1.0
290
     1
  0
SCALE
  5
49
102
{ACAD_REACTORS
330
47
102
}
330
47
100
AcDbScale
 70
     0
300
1:2
140
1.0
141
2.0
290
     0
  0
SCALE
  5
4A
102
{ACAD_REACTORS
330
47
102
}
330
47
100
AcDbScale
 70
     0
300
1:4
140
1.0
141
4.0
290
     0
  0
SCALE
  5
4B
102
{ACAD_REACTORS
330
47
102
}
330
47
100
AcDbScale
 70
     0
300
1:5
140
1.0
141
5.0
290
     0
  0
SCALE
  5
4C
102
{ACAD_REACTORS
330
47
102
}
330
47
100
AcDbScale
 70
     0
300
1:8
140
1.0
141
8.0
290
     0
  0
SCALE
  5
4D
102
{ACAD_REACTORS
330
47
102
}
330
47
100
AcDbScale
 70
     0
300
1:10
140
1.0
141
10.0
290
     0
  0
SCALE
  5
4E
102
{ACAD_REACTORS
330
47
102
}
330
47
100
AcDbScale
 70
     0
300
1:16
140
1.0
141
16.0
290
     0
  0
SCALE
  5
4F
102
{ACAD_REACTORS
330
47
102
}
330
47
100
AcDbScale
 70
     0
300
1:20
140
1.0
141
20.0
290
     0
  0
SCALE
  5
50
102
{ACAD_REACTORS
330
47
102
}
330
47
100
AcDbScale
 70
     0
300
1:30
140
1.0
141
30.0
290
     0
  0
SCALE
  5
51
102
{ACAD_REACTORS
330
47
102
}
330
47
100
AcDbScale
 70
     0
300
1:40
140
1.0
141
40.0
290
     0
  0
SCALE
  5
52
102
{ACAD_REACTORS
330
47
102
}
330
47
100
AcDbScale
 70
     0
300
1:50
140
1.0
141
50.0
290
     0
  0
SCALE
  5
53
102
{ACAD_REACTORS
330
47
102
}
330
47
100
AcDbScale
 70
     0
300
1:100
140
1.0
141
100.0
290
     0
  0
SCALE
  5
54
102
{ACAD_REACTORS
330
47
102
}
330
47
100
AcDbScale
 70
     0
300
2:1
140
2.0
141
1.0
290
     0
  0
SCALE
  5
55
102
{ACAD_REACTORS
330
47
102
}
330
47
100
AcDbScale
 70
     0
300
4:1
140
4.0
141
1.0
290
     0
  0
SCALE
  5
56
102
{ACAD_REACTORS
330
47
102
}
330
47
100
AcDbScale
 70
     0
300
8:1
140
8.0
141
1.0
290
     0
  0
SCALE
  5
57
102
{ACAD_REACTORS
330
47
102
}
330
47
100
AcDbScale
 70
     0
300
10:1
140
10.0
141
1.0
290
     0
  0
SCALE
  5
58
102
{ACAD_REACTORS
330
47
102
}
330
47
100
AcDbScale
 70
     0
300
100:1
140
100.0
141
1.0
290
     0
  0
SCALE
  5
59
102
{ACAD_REACTORS
330
47
102
}
330
47
100
AcDbScale
 70
     0
300
1/128" = 1'-0"
140
0.0078125
141
12.0
290
     0
  0
SCALE
  5
5A
102
{ACAD_REACTORS
330
47
102
}
330
47
100
AcDbScale
 70
     0
300
1/64" = 1'-0"
140
0.015625
141
12.0
290
     0
  0
SCALE
  5
5B
102
{ACAD_REACTORS
330
47
102
}
330
47
100
AcDbScale
 70
     0
300
1/32" = 1'-0"
140
0.03125
141
12.0
290
     0
  0
SCALE
  5
5C
102
{ACAD_REACTORS
330
47
102
}
330
47
100
AcDbScale
 70
     0
300
1/16" = 1'-0"
140
0.0625
141
12.0
290
     0
  0
SCALE
  5
5D
102
{ACAD_REACTORS
330
47
102
}
330
47
100
AcDbScale
 70
     0
300
3/32" = 1'-0"
140
0.09375
141
12.0
290
     0
  0
SCALE
  5
5E
102
{ACAD_REACTORS
330
47
102
}
330
47
100
AcDbScale
 70
     0
300
1/8" = 1'-0"
140
0.125
141
12.0
290
     0
  0
SCALE
  5
5F
102
{ACAD_REACTORS
330
47
102
}
330
47
100
AcDbScale
 70
     0
300
3/16" = 1'-0"
140
0.1875
141
12.0
290
     0
  0
SCALE
  5
60
102
{ACAD_REACTORS
330
47
102
}
330
47
100
AcDbScale
 70
     0
300
1/4" = 1'-0"
140
0.25
141
12.0
290
     0
  0
SCALE
  5
61
102
{ACAD_REACTORS
330
47
102
}
330
47
100
AcDbScale
 70
     0
300
3/8" = 1'-0"
140
0.375
141
12.0
290
     0
  0
SCALE
  5
62
102
{ACAD_REACTORS
330
47
102
}
330
47
100
AcDbScale
 70
     0
300
1/2" = 1'-0"
140
0.5
141
12.0
290
     0
  0
SCALE
  5
63
102
{ACAD_REACTORS
330
47
102
}
330
47
100
AcDbScale
 70
     0
300
3/4" = 1'-0"
140
0.75
141
12.0
290
     0
  0
SCALE
  5
64
102
{ACAD_REACTORS
330
47
102
}
330
47
100
AcDbScale
 70
     0
300
1" = 1'-0"
140
1.0
141
12.0
290
     0
  0
SCALE
  5
65
102
{ACAD_REACTORS
330
47
102
}
330
47
100
AcDbScale
 70
     0
300
1-1/2" = 1'-0"
140
1.5
141
12.0
290
     0
  0
SCALE
  5
66
102
{ACAD_REACTORS
330
47
102
}
330
47
100
AcDbScale
 70
     0
300
3" = 1'-0"
140
3.0
141
12.0
290
     0
  0
SCALE
  5
67
102
{ACAD_REACTORS
330
47
102
}
330
47
100
AcDbScale
 70
     0
300
6" = 1'-0"
140
6.0
141
12.0
290
     0
  0
SCALE
  5
68
102
{ACAD_REACTORS
330
47
102
}
330
47
100
AcDbScale
 70
     0
300
1'-0" = 1'-0"
140
12.0
141
12.0
290
     0
  0
TABLESTYLE
  5
6A
102
{ACAD_REACTORS
330
69
102
}
102
{ACAD_XDICTIONARY
360
371
102
}
330
69
100
AcDbTableStyle
  3
Standard
 70
     0
 71
     0
 40
0.06
 41
0.06
280
     0
281
     0
  7
Standard
140
4.5
170
     2
 62
     0
 63
   257
283
     0
 90
        4
 91
        0
  1

274
    -2
284
     1
 64
     0
275
    -2
285
     1
 65
     0
276
    -2
286
     1
 66
     0
277
    -2
287
     1
 67
     0
278
    -2
288
     1
 68
     0
279
    -2
289
     1
 69
     0
  7
Standard
140
6.0
170
     5
 62
     0
 63
   257
283
     0
 90
        4
 91
        0
  1

274
    -2
284
     1
 64
     0
275
    -2
285
     1
 65
     0
276
    -2
286
     1
 66
     0
277
    -2
287
     1
 67
     0
278
    -2
288
     1
 68
     0
279
    -2
289
     1
 69
     0
  7
Standard
140
4.5
170
     5
 62
     0
 63
   257
283
     0
 90
        4
 91
        0
  1

274
    -2
284
     1
 64
     0
275
    -2
285
     1
 65
     0
276
    -2
286
     1
 66
     0
277
    -2
287
     1
 67
     0
278
    -2
288
     1
 68
     0
279
    -2
289
     1
 69
     0
  0
VISUALSTYLE
  5
2F
102
{ACAD_REACTORS
330
2A
102
}
330
2A
100
AcDbVisualStyle
  2
2dWireframe
 70
     4
177
     3
291
     0
 70
    58
 90
        0
176
     1
 90
        2
176
     1
 90
        0
176
     1
 90
        0
176
     1
 40
0.6
176
     1
 40
30.0
176
     1
 62
     7
420
 16777215
176
     1
 90
        1
176
     1
 90
        4
176
     1
 62
     7
176
     1
 62
   257
176
     1
 90
        1
176
     1
 90
        1
176
     1
 40
1.0
176
     1
 90
        0
176
     1
 62
   257
176
     1
 40
1.0
176
     1
 90
        1
176
     1
 90
        6
176
     1
 90
        2
176
     1
 62
     7
176
     1
 90
        5
176
     1
 90
        0
176
     1
 90
        0
176
     1
290
     0
176
     1
 90
        1
176
     1
 40
0.0
176
     1
 90
        0
176
     1
290
     1
176
     1
290
     1
176
     1
290
     0
176
     1
290
     0
176
     1
290
     0
176
     1
290
     0
176
     1
290
     0
176
     1
290
     0
176
     1
290
     0
176
     1
 90
       50
176
     1
 40
0.0
176
     1
 40
1.0
176
     1
 90
        0
176
     1
 62
    18
420
        0
176
     1
 90
       50
176
     1
 90
        3
176
     1
 62
     5
420
      255
176
     1
290
     0
176
     1
 90
       50
176
     1
 90
       50
176
     1
 90
       50
176
     1
290
     0
176
     1
 90
       50
176
     1
 62
   256
176
     0
 40
1.0
176
     0
 90
        2
176
     1
  1
strokes_ogs.tif
176
     1
290
     0
176
     1
 40
1.0
176
     1
 40
1.0
176
     1
  0
VISUALSTYLE
  5
32
102
{ACAD_REACTORS
330
2A
102
}
330
2A
100
AcDbVisualStyle
  2
Basic
 70
     7
177
     3
291
     1
 70
    58
 90
        1
176
     1
 90
        0
176
     1
 90
        1
176
     1
 90
        0
176
     1
 40
0.6
176
     1
 40
30.0
176
     1
 62
     7
420
 16777215
176
     1
 90
        0
176
     1
 90
        4
176
     1
 62
     7
176
     1
 62
   257
176
     1
 90
        1
176
     1
 90
        1
176
     1
 40
1.0
176
     1
 90
        8
176
     1
 62
     7
176
     1
 40
1.0
176
     1
 90
        1
176
     1
 90
        6
176
     1
 90
        2
176
     1
 62
     7
176
     1
 90
        5
176
     1
 90
        0
176
     1
 90
        0
176
     1
290
     0
176
     1
 90
        1
176
     1
 40
0.0
176
     1
 90
        0
176
     1
290
     0
176
     1
290
     1
176
     1
290
     1
176
     1
290
     0
176
     1
290
     0
176
     1
290
     0
176
     1
290
     0
176
     1
290
     0
176
     1
290
     0
176
     1
 90
       50
176
     1
 40
0.0
176
     1
 40
1.0
176
     1
 90
        0
176
     1
 62
    18
420
        0
176
     1
 90
       50
176
     1
 90
        3
176
     1
 62
     5
420
      255
176
     1
290
     0
176
     1
 90
       50
176
     1
 90
       50
176
     1
 90
       50
176
     1
290
     0
176
     1
 90
       50
176
     1
 62
   256
176
     0
 40
1.0
176
     0
 90
        2
176
     1
  1
strokes_ogs.tif
176
     1
290
     0
176
     1
 40
1.0
176
     1
 40
1.0
176
     1
  0
VISUALSTYLE
  5
36
102
{ACAD_REACTORS
330
2A
102
}
330
2A
100
AcDbVisualStyle
  2
Brighten
 70
    12
177
     3
291
     1
 70
    58
 90
        2
176
     1
 90
        2
176
     1
 90
        0
176
     1
 90
        0
176
     1
 40
0.6
176
     1
 40
30.0
176
     1
 62
     7
420
 16777215
176
     1
 90
        1
176
     1
 90
        4
176
     1
 62
     7
176
     1
 62
   257
176
     1
 90
        1
176
     1
 90
        1
176
     1
 40
1.0
176
     1
 90
        8
176
     1
 62
     7
176
     1
 40
1.0
176
     1
 90
        1
176
     1
 90
        6
176
     1
 90
        2
176
     1
 62
     7
176
     1
 90
        5
176
     1
 90
        0
176
     1
 90
        0
176
     1
290
     0
176
     1
 90
        1
176
     1
 40
50.0
176
     1
 90
        0
176
     1
290
     0
176
     1
290
     1
176
     1
290
     1
176
     1
290
     0
176
     1
290
     0
176
     1
290
     0
176
     1
290
     0
176
     1
290
     0
176
     1
290
     0
176
     1
 90
       50
176
     1
 40
0.0
176
     1
 40
1.0
176
     1
 90
        0
176
     1
 62
    18
420
        0
176
     1
 90
       50
176
     1
 90
        3
176
     1
 62
     5
420
      255
176
     1
290
     0
176
     1
 90
       50
176
     1
 90
       50
176
     1
 90
       50
176
     1
290
     0
176
     1
 90
       50
176
     1
 62
   256
176
     0
 40
1.0
176
     0
 90
        2
176
     1
  1
strokes_ogs.tif
176
     1
290
     0
176
     1
 40
1.0
176
     1
 40
1.0
176
     1
  0
VISUALSTYLE
  5
3A
102
{ACAD_REACTORS
330
2A
102
}
330
2A
100
AcDbVisualStyle
  2
ColorChange
 70
    16
177
     3
291
     1
 70
    58
 90
        2
176
     1
 90
        2
176
     1
 90
        3
176
     1
 90
        0
176
     1
 40
0.6
176
     1
 40
30.0
176
     1
 62
     8
420
  8421504
176
     1
 90
        1
176
     1
 90
        4
176
     1
 62
     7
176
     1
 62
   257
176
     1
 90
        1
176
     1
 90
        1
176
     1
 40
1.0
176
     1
 90
        8
176
     1
 62
     8
420
  8421504
176
     1
 40
1.0
176
     1
 90
        1
176
     1
 90
        6
176
     1
 90
        2
176
     1
 62
     7
176
     1
 90
        5
176
     1
 90
        0
176
     1
 90
        0
176
     1
290
     0
176
     1
 90
        1
176
     1
 40
0.0
176
     1
 90
        0
176
     1
290
     0
176
     1
290
     1
176
     1
290
     1
176
     1
290
     0
176
     1
290
     0
176
     1
290
     0
176
     1
290
     0
176
     1
290
     0
176
     1
290
     0
176
     1
 90
       50
176
     1
 40
0.0
176
     1
 40
1.0
176
     1
 90
        0
176
     1
 62
    18
420
        0
176
     1
 90
       50
176
     1
 90
        3
176
     1
 62
     5
420
      255
176
     1
290
     0
176
     1
 90
       50
176
     1
 90
       50
176
     1
 90
       50
176
     1
290
     0
176
     1
 90
       50
176
     1
 62
   256
176
     0
 40
1.0
176
     0
 90
        2
176
     1
  1
strokes_ogs.tif
176
     1
290
     0
176
     1
 40
1.0
176
     1
 40
1.0
176
     1
  0
VISUALSTYLE
  5
34
102
{ACAD_REACTORS
330
2A
102
}
330
2A
100
AcDbVisualStyle
  2
Conceptual
 70
     9
177
     3
291
     0
 70
    58
 90
        3
176
     1
 90
        2
176
     1
 90
        0
176
     1
 90
        0
176
     1
 40
0.6
176
     1
 40
30.0
176
     1
 62
     7
420
 16777215
176
     1
 90
        2
176
     1
 90
        2
176
     1
 62
     7
176
     1
 62
   257
176
     1
 90
        1
176
     1
 90
        1
176
     1
 40
179.0
176
     1
 90
        8
176
     1
 62
     7
176
     1
 40
1.0
176
     1
 90
        1
176
     1
 90
        6
176
     1
 90
        2
176
     1
 62
     7
176
     1
 90
        3
176
     1
 90
        0
176
     1
 90
        0
176
     1
290
     0
176
     1
 90
        1
176
     1
 40
0.0
176
     1
 90
        0
176
     1
290
     0
176
     1
290
     1
176
     1
290
     1
176
     1
290
     0
176
     1
290
     0
176
     1
290
     0
176
     1
290
     0
176
     1
290
     0
176
     1
290
     0
176
     1
 90
       50
176
     1
 40
0.0
176
     1
 40
1.0
176
     1
 90
        0
176
     1
 62
    18
420
        0
176
     1
 90
       50
176
     1
 90
        3
176
     1
 62
     5
420
      255
176
     1
290
     0
176
     1
 90
       50
176
     1
 90
       50
176
     1
 90
       50
176
     1
290
     0
176
     1
 90
       50
176
     1
 62
   256
176
     0
 40
1.0
176
     0
 90
        2
176
     1
  1
strokes_ogs.tif
176
     1
290
     0
176
     1
 40
1.0
176
     1
 40
1.0
176
     1
  0
VISUALSTYLE
  5
35
102
{ACAD_REACTORS
330
2A
102
}
330
2A
100
AcDbVisualStyle
  2
Dim
 70
    11
177
     3
291
     1
 70
    58
 90
        2
176
     1
 90
        2
176
     1
 90
        0
176
     1
 90
        0
176
     1
 40
0.6
176
     1
 40
30.0
176
     1
 62
     7
420
 16777215
176
     1
 90
        1
176
     1
 90
        4
176
     1
 62
     7
176
     1
 62
   257
176
     1
 90
        1
176
     1
 90
        1
176
     1
 40
1.0
176
     1
 90
        8
176
     1
 62
     7
176
     1
 40
1.0
176
     1
 90
        1
176
     1
 90
        6
176
     1
 90
        2
176
     1
 62
     7
176
     1
 90
        5
176
     1
 90
        0
176
     1
 90
        0
176
     1
290
     0
176
     1
 90
        1
176
     1
 40
-50.0
176
     1
 90
        0
176
     1
290
     0
176
     1
290
     1
176
     1
290
     1
176
     1
290
     0
176
     1
290
     0
176
     1
290
     0
176
     1
290
     0
176
     1
290
     0
176
     1
290
     0
176
     1
 90
       50
176
     1
 40
0.0
176
     1
 40
1.0
176
     1
 90
        0
176
     1
 62
    18
420
        0
176
     1
 90
       50
176
     1
 90
        3
176
     1
 62
     5
420
      255
176
     1
290
     0
176
     1
 90
       50
176
     1
 90
       50
176
     1
 90
       50
176
     1
290
     0
176
     1
 90
       50
176
     1
 62
   256
176
     0
 40
1.0
176
     0
 90
        2
176
     1
  1
strokes_ogs.tif
176
     1
290
     0
176
     1
 40
1.0
176
     1
 40
1.0
176
     1
  0
VISUALSTYLE
  5
3D
102
{ACAD_REACTORS
330
2A
102
}
330
2A
100
AcDbVisualStyle
  2
EdgeColorOff
 70
    22
177
     3
291
     1
 70
    58
 90
        2
176
     0
 90
        2
176
     0
 90
        0
176
     0
 90
        0
176
     0
 40
0.6
176
     0
 40
30.0
176
     0
 62
     7
420
 16777215
176
     0
 90
        1
176
     0
 90
        4
176
     0
 62
     7
176
     0
 62
   257
176
     0
 90
        1
176
     0
 90
        1
176
     0
 40
1.0
176
     0
 90
        8
176
     2
 62
     7
176
     0
 40
1.0
176
     0
 90
        1
176
     0
 90
        6
176
     0
 90
        2
176
     0
 62
     7
176
     0
 90
        5
176
     0
 90
        0
176
     0
 90
        0
176
     0
290
     0
176
     0
 90
        1
176
     0
 40
0.0
176
     0
 90
        0
176
     0
290
     0
176
     0
290
     1
176
     0
290
     1
176
     0
290
     0
176
     0
290
     0
176
     0
290
     0
176
     0
290
     0
176
     0
290
     0
176
     0
290
     0
176
     0
 90
       50
176
     0
 40
0.0
176
     0
 40
1.0
176
     0
 90
        0
176
     0
 62
    18
420
        0
176
     0
 90
       50
176
     0
 90
        3
176
     0
 62
     5
420
      255
176
     0
290
     0
176
     0
 90
       50
176
     0
 90
       50
176
     0
 90
       50
176
     0
290
     0
176
     0
 90
       50
176
     0
 62
   256
176
     0
 40
1.0
176
     0
 90
        2
176
     0
  1
strokes_ogs.tif
176
     0
290
     0
176
     0
 40
1.0
176
     0
 40
1.0
176
     0
  0
VISUALSTYLE
  5
39
102
{ACAD_REACTORS
330
2A
102
}
330
2A
100
AcDbVisualStyle
  2
Facepattern
 70
    15
177
     3
291
     1
 70
    58
 90
        2
176
     1
 90
        2
176
     1
 90
        0
176
     1
 90
        0
176
     1
 40
0.6
176
     1
 40
30.0
176
     1
 62
     7
420
 16777215
176
     1
 90
        1
176
     1
 90
        4
176
     1
 62
     7
176
     1
 62
   257
176
     1
 90
        1
176
     1
 90
        1
176
     1
 40
1.0
176
     1
 90
        8
176
     1
 62
     7
176
     1
 40
1.0
176
     1
 90
        1
176
     1
 90
        6
176
     1
 90
        2
176
     1
 62
     7
176
     1
 90
        5
176
     1
 90
        0
176
     1
 90
        0
176
     1
290
     0
176
     1
 90
        1
176
     1
 40
0.0
176
     1
 90
        0
176
     1
290
     0
176
     1
290
     1
176
     1
290
     1
176
     1
290
     0
176
     1
290
     0
176
     1
290
     0
176
     1
290
     0
176
     1
290
     0
176
     1
290
     0
176
     1
 90
       50
176
     1
 40
0.0
176
     1
 40
1.0
176
     1
 90
        0
176
     1
 62
    18
420
        0
176
     1
 90
       50
176
     1
 90
        3
176
     1
 62
     5
420
      255
176
     1
290
     0
176
     1
 90
       50
176
     1
 90
       50
176
     1
 90
       50
176
     1
290
     0
176
     1
 90
       50
176
     1
 62
   256
176
     0
 40
1.0
176
     0
 90
        2
176
     1
  1
strokes_ogs.tif
176
     1
290
     0
176
     1
 40
1.0
176
     1
 40
1.0
176
     1
  0
VISUALSTYLE
  5
2B
102
{ACAD_REACTORS
330
2A
102
}
330
2A
100
AcDbVisualStyle
  2
Flat
 70
     0
177
     3
291
     1
 70
    58
 90
        2
176
     1
 90
        1
176
     1
 90
        1
176
     1
 90
        2
176
     1
 40
0.6
176
     1
 40
30.0
176
     1
 62
     7
420
 16777215
176
     1
 90
        0
176
     1
 90
        0
176
     1
 62
     7
176
     1
 62
   257
176
     1
 90
        1
176
     1
 90
        1
176
     1
 40
1.0
176
     1
 90
        8
176
     1
 62
     7
176
     1
 40
1.0
176
     1
 90
        1
176
     1
 90
        6
176
     1
 90
        2
176
     1
 62
     7
176
     1
 90
        5
176
     1
 90
        0
176
     1
 90
        0
176
     1
290
     0
176
     1
 90
       13
176
     1
 40
0.0
176
     1
 90
        0
176
     1
290
     0
176
     1
290
     1
176
     1
290
     1
176
     1
290
     0
176
     1
290
     0
176
     1
290
     0
176
     1
290
     0
176
     1
290
     0
176
     1
290
     0
176
     1
 90
       50
176
     1
 40
0.0
176
     1
 40
1.0
176
     1
 90
        0
176
     1
 62
    18
420
        0
176
     1
 90
       50
176
     1
 90
        3
176
     1
 62
     5
420
      255
176
     1
290
     0
176
     1
 90
       50
176
     1
 90
       50
176
     1
 90
       50
176
     1
290
     0
176
     1
 90
       50
176
     1
 62
   256
176
     0
 40
1.0
176
     0
 90
        2
176
     1
  1
strokes_ogs.tif
176
     1
290
     0
176
     1
 40
1.0
176
     1
 40
1.0
176
     1
  0
VISUALSTYLE
  5
2C
102
{ACAD_REACTORS
330
2A
102
}
330
2A
100
AcDbVisualStyle
  2
FlatWithEdges
 70
     1
177
     3
291
     1
 70
    58
 90
        2
176
     1
 90
        1
176
     1
 90
        1
176
     1
 90
        2
176
     1
 40
0.6
176
     1
 40
30.0
176
     1
 62
     7
420
 16777215
176
     1
 90
        1
176
     1
 90
        0
176
     1
 62
     7
176
     1
 62
   257
176
     1
 90
        1
176
     1
 90
        1
176
     1
 40
1.0
176
     1
 90
        0
176
     1
 62
   257
176
     1
 40
1.0
176
     1
 90
        1
176
     1
 90
        6
176
     1
 90
        2
176
     1
 62
     7
176
     1
 90
        5
176
     1
 90
        0
176
     1
 90
        0
176
     1
290
     0
176
     1
 90
       13
176
     1
 40
0.0
176
     1
 90
        0
176
     1
290
     0
176
     1
290
     1
176
     1
290
     1
176
     1
290
     0
176
     1
290
     0
176
     1
290
     0
176
     1
290
     0
176
     1
290
     0
176
     1
290
     0
176
     1
 90
       50
176
     1
 40
0.0
176
     1
 40
1.0
176
     1
 90
        0
176
     1
 62
    18
420
        0
176
     1
 90
       50
176
     1
 90
        3
176
     1
 62
     5
420
      255
176
     1
290
     0
176
     1
 90
       50
176
     1
 90
       50
176
     1
 90
       50
176
     1
290
     0
176
     1
 90
       50
176
     1
 62
   256
176
     0
 40
1.0
176
     0
 90
        2
176
     1
  1
strokes_ogs.tif
176
     1
290
     0
176
     1
 40
1.0
176
     1
 40
1.0
176
     1
  0
VISUALSTYLE
  5
2D
102
{ACAD_REACTORS
330
2A
102
}
330
2A
100
AcDbVisualStyle
  2
Gouraud
 70
     2
177
     3
291
     1
 70
    58
 90
        2
176
     1
 90
        2
176
     1
 90
        1
176
     1
 90
        2
176
     1
 40
0.6
176
     1
 40
30.0
176
     1
 62
     7
420
 16777215
176
     1
 90
        0
176
     1
 90
        0
176
     1
 62
     7
176
     1
 62
   257
176
     1
 90
        1
176
     1
 90
        1
176
     1
 40
1.0
176
     1
 90
        0
176
     1
 62
     7
176
     1
 40
1.0
176
     1
 90
        1
176
     1
 90
        6
176
     1
 90
        2
176
     1
 62
     7
176
     1
 90
        5
176
     1
 90
        0
176
     1
 90
        0
176
     1
290
     0
176
     1
 90
       13
176
     1
 40
0.0
176
     1
 90
        0
176
     1
290
     0
176
     1
290
     1
176
     1
290
     1
176
     1
290
     0
176
     1
290
     0
176
     1
290
     0
176
     1
290
     0
176
     1
290
     0
176
     1
290
     0
176
     1
 90
       50
176
     1
 40
0.0
176
     1
 40
1.0
176
     1
 90
        0
176
     1
 62
    18
420
        0
176
     1
 90
       50
176
     1
 90
        3
176
     1
 62
     5
420
      255
176
     1
290
     0
176
     1
 90
       50
176
     1
 90
       50
176
     1
 90
       50
176
     1
290
     0
176
     1
 90
       50
176
     1
 62
   256
176
     0
 40
1.0
176
     0
 90
        2
176
     1
  1
strokes_ogs.tif
176
     1
290
     0
176
     1
 40
1.0
176
     1
 40
1.0
176
     1
  0
VISUALSTYLE
  5
2E
102
{ACAD_REACTORS
330
2A
102
}
330
2A
100
AcDbVisualStyle
  2
GouraudWithEdges
 70
     3
177
     3
291
     1
 70
    58
 90
        2
176
     1
 90
        2
176
     1
 90
        1
176
     1
 90
        2
176
     1
 40
0.6
176
     1
 40
30.0
176
     1
 62
     7
420
 16777215
176
     1
 90
        1
176
     1
 90
        0
176
     1
 62
     7
176
     1
 62
   257
176
     1
 90
        1
176
     1
 90
        1
176
     1
 40
1.0
176
     1
 90
        0
176
     1
 62
   257
176
     1
 40
1.0
176
     1
 90
        1
176
     1
 90
        6
176
     1
 90
        2
176
     1
 62
     7
176
     1
 90
        5
176
     1
 90
        0
176
     1
 90
        0
176
     1
290
     0
176
     1
 90
       13
176
     1
 40
0.0
176
     1
 90
        0
176
     1
290
     0
176
     1
290
     1
176
     1
290
     1
176
     1
290
     0
176
     1
290
     0
176
     1
290
     0
176
     1
290
     0
176
     1
290
     0
176
     1
290
     0
176
     1
 90
       50
176
     1
 40
0.0
176
     1
 40
1.0
176
     1
 90
        0
176
     1
 62
    18
420
        0
176
     1
 90
       50
176
     1
 90
        3
176
     1
 62
     5
420
      255
176
     1
290
     0
176
     1
 90
       50
176
     1
 90
       50
176
     1
 90
       50
176
     1
290
     0
176
     1
 90
       50
176
     1
 62
   256
176
     0
 40
1.0
176
     0
 90
        2
176
     1
  1
strokes_ogs.tif
176
     1
290
     0
176
     1
 40
1.0
176
     1
 40
1.0
176
     1
  0
VISUALSTYLE
  5
31
102
{ACAD_REACTORS
330
2A
102
}
330
2A
100
AcDbVisualStyle
  2
Hidden
 70
     6
177
     3
291
     0
 70
    58
 90
        1
176
     1
 90
        2
176
     1
 90
        2
176
     1
 90
        0
176
     1
 40
0.6
176
     1
 40
30.0
176
     1
 62
     7
420
 16777215
176
     1
 90
        2
176
     1
 90
        2
176
     1
 62
     7
176
     1
 62
   257
176
     1
 90
        2
176
     1
 90
        1
176
     1
 40
40.0
176
     1
 90
        0
176
     1
 62
   257
176
     1
 40
1.0
176
     1
 90
        1
176
     1
 90
        6
176
     1
 90
        2
176
     1
 62
     7
176
     1
 90
        3
176
     1
 90
        0
176
     1
 90
        0
176
     1
290
     0
176
     1
 90
        1
176
     1
 40
0.0
176
     1
 90
        0
176
     1
290
     0
176
     1
290
     1
176
     1
290
     1
176
     1
290
     0
176
     1
290
     0
176
     1
290
     0
176
     1
290
     0
176
     1
290
     0
176
     1
290
     0
176
     1
 90
       50
176
     1
 40
0.0
176
     1
 40
1.0
176
     1
 90
        0
176
     1
 62
    18
420
        0
176
     1
 90
       50
176
     1
 90
        3
176
     1
 62
     5
420
      255
176
     1
290
     0
176
     1
 90
       50
176
     1
 90
       50
176
     1
 90
       50
176
     1
290
     0
176
     1
 90
       50
176
     1
 62
   256
176
     0
 40
1.0
176
     0
 90
        2
176
     1
  1
strokes_ogs.tif
176
     1
290
     0
176
     1
 40
1.0
176
     1
 40
1.0
176
     1
  0
VISUALSTYLE
  5
3B
102
{ACAD_REACTORS
330
2A
102
}
330
2A
100
AcDbVisualStyle
  2
JitterOff
 70
    20
177
     3
291
     1
 70
    58
 90
        2
176
     0
 90
        2
176
     0
 90
        0
176
     0
 90
        0
176
     0
 40
0.6
176
     0
 40
30.0
176
     0
 62
     7
420
 16777215
176
     0
 90
        1
176
     0
 90
        4
176
     0
 62
     7
176
     0
 62
   257
176
     0
 90
        1
176
     0
 90
        1
176
     0
 40
1.0
176
     0
 90
       10
176
     2
 62
     7
176
     0
 40
1.0
176
     0
 90
        1
176
     0
 90
        6
176
     0
 90
        2
176
     0
 62
     7
176
     0
 90
        5
176
     0
 90
        0
176
     0
 90
        0
176
     0
290
     0
176
     0
 90
        1
176
     0
 40
0.0
176
     0
 90
        0
176
     0
290
     0
176
     0
290
     1
176
     0
290
     1
176
     0
290
     0
176
     0
290
     0
176
     0
290
     0
176
     0
290
     0
176
     0
290
     0
176
     0
290
     0
176
     0
 90
       50
176
     0
 40
0.0
176
     0
 40
1.0
176
     0
 90
        0
176
     0
 62
    18
420
        0
176
     0
 90
       50
176
     0
 90
        3
176
     0
 62
     5
420
      255
176
     0
290
     0
176
     0
 90
       50
176
     0
 90
       50
176
     0
 90
       50
176
     0
290
     0
176
     0
 90
       50
176
     0
 62
   256
176
     0
 40
1.0
176
     0
 90
        2
176
     0
  1
strokes_ogs.tif
176
     0
290
     0
176
     0
 40
1.0
176
     0
 40
1.0
176
     0
  0
VISUALSTYLE
  5
38
102
{ACAD_REACTORS
330
2A
102
}
330
2A
100
AcDbVisualStyle
  2
Linepattern
 70
    14
177
     3
291
     1
 70
    58
 90
        2
176
     1
 90
        2
176
     1
 90
        0
176
     1
 90
        0
176
     1
 40
0.6
176
     1
 40
30.0
176
     1
 62
     7
420
 16777215
176
     1
 90
        1
176
     1
 90
        4
176
     1
 62
     7
176
     1
 62
   257
176
     1
 90
        7
176
     1
 90
        7
176
     1
 40
1.0
176
     1
 90
        8
176
     1
 62
     7
176
     1
 40
1.0
176
     1
 90
        1
176
     1
 90
        6
176
     1
 90
        2
176
     1
 62
     7
176
     1
 90
        5
176
     1
 90
        0
176
     1
 90
        0
176
     1
290
     0
176
     1
 90
        1
176
     1
 40
0.0
176
     1
 90
        0
176
     1
290
     0
176
     1
290
     1
176
     1
290
     1
176
     1
290
     0
176
     1
290
     0
176
     1
290
     0
176
     1
290
     0
176
     1
290
     0
176
     1
290
     0
176
     1
 90
       50
176
     1
 40
0.0
176
     1
 40
1.0
176
     1
 90
        0
176
     1
 62
    18
420
        0
176
     1
 90
       50
176
     1
 90
        3
176
     1
 62
     5
420
      255
176
     1
290
     0
176
     1
 90
       50
176
     1
 90
       50
176
     1
 90
       50
176
     1
290
     0
176
     1
 90
       50
176
     1
 62
   256
176
     0
 40
1.0
176
     0
 90
        2
176
     1
  1
strokes_ogs.tif
176
     1
290
     0
176
     1
 40
1.0
176
     1
 40
1.0
176
     1
  0
VISUALSTYLE
  5
3C
102
{ACAD_REACTORS
330
2A
102
}
330
2A
100
AcDbVisualStyle
  2
OverhangOff
 70
    21
177
     3
291
     1
 70
    58
 90
        2
176
     0
 90
        2
176
     0
 90
        0
176
     0
 90
        0
176
     0
 40
0.6
176
     0
 40
30.0
176
     0
 62
     7
420
 16777215
176
     0
 90
        1
176
     0
 90
        4
176
     0
 62
     7
176
     0
 62
   257
176
     0
 90
        1
176
     0
 90
        1
176
     0
 40
1.0
176
     0
 90
        9
176
     2
 62
     7
176
     0
 40
1.0
176
     0
 90
        1
176
     0
 90
        6
176
     0
 90
        2
176
     0
 62
     7
176
     0
 90
        5
176
     0
 90
        0
176
     0
 90
        0
176
     0
290
     0
176
     0
 90
        1
176
     0
 40
0.0
176
     0
 90
        0
176
     0
290
     0
176
     0
290
     1
176
     0
290
     1
176
     0
290
     0
176
     0
290
     0
176
     0
290
     0
176
     0
290
     0
176
     0
290
     0
176
     0
290
     0
176
     0
 90
       50
176
     0
 40
0.0
176
     0
 40
1.0
176
     0
 90
        0
176
     0
 62
    18
420
        0
176
     0
 90
       50
176
     0
 90
        3
176
     0
 62
     5
420
      255
176
     0
290
     0
176
     0
 90
       50
176
     0
 90
       50
176
     0
 90
       50
176
     0
290
     0
176
     0
 90
       50
176
     0
 62
   256
176
     0
 40
1.0
176
     0
 90
        2
176
     0
  1
strokes_ogs.tif
176
     0
290
     0
176
     0
 40
1.0
176
     0
 40
1.0
176
     0
  0
VISUALSTYLE
  5
33
102
{ACAD_REACTORS
330
2A
102
}
330
2A
100
AcDbVisualStyle
  2
Realistic
 70
     8
177
     3
291
     0
 70
    58
 90
        2
176
     1
 90
        3
176
     1
 90
        0
176
     1
 90
        2
176
     1
 40
0.6
176
     1
 40
30.0
176
     1
 62
     7
420
 16777215
176
     1
 90
        0
176
     1
 90
        0
176
     1
 62
     7
176
     1
 62
   257
176
     1
 90
        1
176
     1
 90
        1
176
     1
 40
1.0
176
     1
 90
        8
176
     1
 62
   257
176
     1
 40
1.0
176
     1
 90
        1
176
     1
 90
        6
176
     1
 90
        2
176
     1
 62
     7
176
     1
 90
        3
176
     1
 90
        0
176
     1
 90
        0
176
     1
290
     0
176
     1
 90
       13
176
     1
 40
0.0
176
     1
 90
        0
176
     1
290
     0
176
     1
290
     1
176
     1
290
     1
176
     1
290
     0
176
     1
290
     0
176
     1
290
     0
176
     1
290
     0
176
     1
290
     0
176
     1
290
     0
176
     1
 90
       50
176
     1
 40
0.0
176
     1
 40
1.0
176
     1
 90
        0
176
     1
 62
    18
420
        0
176
     1
 90
       50
176
     1
 90
        3
176
     1
 62
     5
420
      255
176
     1
290
     0
176
     1
 90
       50
176
     1
 90
       50
176
     1
 90
       50
176
     1
290
     0
176
     1
 90
       50
176
     1
 62
   256
176
     0
 40
1.0
176
     0
 90
        2
176
     1
  1
strokes_ogs.tif
176
     1
290
     0
176
     1
 40
1.0
176
     1
 40
1.0
176
     1
  0
VISUALSTYLE
  5
42
102
{ACAD_REACTORS
330
2A
102
}
330
2A
100
AcDbVisualStyle
  2
Shaded
 70
    27
177
     3
291
     0
 70
    58
 90
        2
176
     1
 90
        2
176
     1
 90
        1
176
     1
 90
        2
176
     1
 40
0.6
176
     1
 40
30.0
176
     1
 62
     7
420
 16777215
176
     1
 90
        0
176
     1
 90
        4
176
     1
 62
     7
176
     1
 62
   257
176
     1
 90
        1
176
     1
 90
        1
176
     1
 40
1.0
176
     1
 90
        8
176
     1
 62
   257
176
     1
 40
1.0
176
     1
 90
        1
176
     1
 90
        6
176
     1
 90
        2
176
     1
 62
     8
420
  7895160
176
     1
 90
        3
176
     1
 90
        0
176
     1
 90
        0
176
     1
290
     0
176
     1
 90
        5
176
     1
 40
0.0
176
     1
 90
        0
176
     1
290
     0
176
     1
290
     1
176
     1
290
     1
176
     1
290
     0
176
     1
290
     0
176
     1
290
     0
176
     1
290
     0
176
     1
290
     0
176
     1
290
     0
176
     1
 90
       50
176
     1
 40
0.0
176
     1
 40
1.0
176
     1
 90
        0
176
     1
 62
    18
420
        0
176
     1
 90
       50
176
     1
 90
        3
176
     1
 62
     5
420
      255
176
     1
290
     0
176
     1
 90
       50
176
     1
 90
       50
176
     1
 90
       50
176
     1
290
     0
176
     1
 90
       50
176
     1
 62
   256
176
     0
 40
1.0
176
     0
 90
        2
176
     1
  1
strokes_ogs.tif
176
     1
290
     0
176
     1
 40
1.0
176
     1
 40
1.0
176
     1
  0
VISUALSTYLE
  5
41
102
{ACAD_REACTORS
330
2A
102
}
330
2A
100
AcDbVisualStyle
  2
Shaded with edges
 70
    26
177
     3
291
     0
 70
    58
 90
        2
176
     1
 90
        2
176
     1
 90
        1
176
     1
 90
        2
176
     1
 40
0.6
176
     1
 40
30.0
176
     1
 62
     7
420
 16777215
176
     1
 90
        1
176
     1
 90
       10
176
     1
 62
     7
176
     1
 62
   257
176
     1
 90
        2
176
     1
 90
        1
176
     1
 40
1.0
176
     1
 90
        8
176
     1
 62
   257
176
     1
 40
1.0
176
     1
 90
        1
176
     1
 90
        6
176
     1
 90
        2
176
     1
 62
     7
176
     1
 90
        3
176
     1
 90
        0
176
     1
 90
        0
176
     1
290
     0
176
     1
 90
        5
176
     1
 40
0.0
176
     1
 90
        0
176
     1
290
     0
176
     1
290
     1
176
     1
290
     1
176
     1
290
     0
176
     1
290
     0
176
     1
290
     0
176
     1
290
     0
176
     1
290
     0
176
     1
290
     0
176
     1
 90
       50
176
     1
 40
0.0
176
     1
 40
1.0
176
     1
 90
        0
176
     1
 62
    18
420
        0
176
     1
 90
       50
176
     1
 90
        3
176
     1
 62
     5
420
      255
176
     1
290
     0
176
     1
 90
       50
176
     1
 90
       50
176
     1
 90
       50
176
     1
290
     0
176
     1
 90
       50
176
     1
 62
   256
176
     0
 40
1.0
176
     0
 90
        2
176
     1
  1
strokes_ogs.tif
176
     1
290
     0
176
     1
 40
1.0
176
     1
 40
1.0
176
     1
  0
VISUALSTYLE
  5
3E
102
{ACAD_REACTORS
330
2A
102
}
330
2A
100
AcDbVisualStyle
  2
Shades of Gray
 70
    23
177
     3
291
     0
 70
    58
 90
        2
176
     1
 90
        2
176
     1
 90
        3
176
     1
 90
        0
176
     1
 40
0.6
176
     1
 40
30.0
176
     1
 62
     7
420
 16777215
176
     1
 90
        2
176
     1
 90
        2
176
     1
 62
     7
176
     1
 62
     7
176
     1
 90
        1
176
     1
 90
        1
176
     1
 40
40.0
176
     1
 90
        8
176
     1
 62
     7
176
     1
 40
1.0
176
     1
 90
        1
176
     1
 90
        6
176
     1
 90
        2
176
     1
 62
     7
176
     1
 90
        3
176
     1
 90
        0
176
     1
 90
        0
176
     1
290
     0
176
     1
 90
        1
176
     1
 40
0.0
176
     1
 90
        0
176
     1
290
     0
176
     1
290
     1
176
     1
290
     1
176
     1
290
     0
176
     1
290
     0
176
     1
290
     0
176
     1
290
     0
176
     1
290
     0
176
     1
290
     0
176
     1
 90
       50
176
     1
 40
0.0
176
     1
 40
1.0
176
     1
 90
        0
176
     1
 62
    18
420
        0
176
     1
 90
       50
176
     1
 90
        3
176
     1
 62
     5
420
      255
176
     1
290
     0
176
     1
 90
       50
176
     1
 90
       50
176
     1
 90
       50
176
     1
290
     0
176
     1
 90
       50
176
     1
 62
   256
176
     0
 40
1.0
176
     0
 90
        2
176
     1
  1
strokes_ogs.tif
176
     1
290
     0
176
     1
 40
1.0
176
     1
 40
1.0
176
     1
  0
VISUALSTYLE
  5
3F
102
{ACAD_REACTORS
330
2A
102
}
330
2A
100
AcDbVisualStyle
  2
Sketchy
 70
    24
177
     3
291
     0
 70
    58
 90
        1
176
     1
 90
        2
176
     1
 90
        2
176
     1
 90
        0
176
     1
 40
0.6
176
     1
 40
30.0
176
     1
 62
     7
420
 16777215
176
     1
 90
        2
176
     1
 90
        2
176
     1
 62
     7
176
     1
 62
     7
176
     1
 90
        1
176
     1
 90
        1
176
     1
 40
40.0
176
     1
 90
       11
176
     1
 62
     7
176
     1
 40
1.0
176
     1
 90
        1
176
     1
 90
        6
176
     1
 90
        2
176
     1
 62
     7
176
     1
 90
        6
176
     1
 90
        0
176
     1
 90
        0
176
     1
290
     0
176
     1
 90
        1
176
     1
 40
0.0
176
     1
 90
        0
176
     1
290
     0
176
     1
290
     1
176
     1
290
     1
176
     1
290
     0
176
     1
290
     0
176
     1
290
     0
176
     1
290
     0
176
     1
290
     0
176
     1
290
     0
176
     1
 90
       50
176
     1
 40
0.0
176
     1
 40
1.0
176
     1
 90
        0
176
     1
 62
    18
420
        0
176
     1
 90
       50
176
     1
 90
        3
176
     1
 62
     5
420
      255
176
     1
290
     0
176
     1
 90
       50
176
     1
 90
       50
176
     1
 90
       50
176
     1
290
     0
176
     1
 90
       50
176
     1
 62
   256
176
     0
 40
1.0
176
     0
 90
        2
176
     1
  1
strokes_ogs.tif
176
     1
290
     0
176
     1
 40
1.0
176
     1
 40
1.0
176
     1
  0
VISUALSTYLE
  5
37
102
{ACAD_REACTORS
330
2A
102
}
330
2A
100
AcDbVisualStyle
  2
Thicken
 70
    13
177
     3
291
     1
 70
    58
 90
        2
176
     1
 90
        2
176
     1
 90
        0
176
     1
 90
        0
176
     1
 40
0.6
176
     1
 40
30.0
176
     1
 62
     7
420
 16777215
176
     1
 90
        1
176
     1
 90
        4
176
     1
 62
     7
176
     1
 62
   257
176
     1
 90
        1
176
     1
 90
        1
176
     1
 40
1.0
176
     1
 90
       12
176
     1
 62
     7
176
     1
 40
1.0
176
     1
 90
        1
176
     1
 90
        6
176
     1
 90
        2
176
     1
 62
     7
176
     1
 90
        5
176
     1
 90
        0
176
     1
 90
        0
176
     1
290
     0
176
     1
 90
        1
176
     1
 40
0.0
176
     1
 90
        0
176
     1
290
     0
176
     1
290
     1
176
     1
290
     1
176
     1
290
     0
176
     1
290
     0
176
     1
290
     0
176
     1
290
     0
176
     1
290
     0
176
     1
290
     0
176
     1
 90
       50
176
     1
 40
0.0
176
     1
 40
1.0
176
     1
 90
        0
176
     1
 62
    18
420
        0
176
     1
 90
       50
176
     1
 90
        3
176
     1
 62
     5
420
      255
176
     1
290
     0
176
     1
 90
       50
176
     1
 90
       50
176
     1
 90
       50
176
     1
290
     0
176
     1
 90
       50
176
     1
 62
   256
176
     0
 40
1.0
176
     0
 90
        2
176
     1
  1
strokes_ogs.tif
176
     1
290
     0
176
     1
 40
1.0
176
     1
 40
1.0
176
     1
  0
VISUALSTYLE
  5
30
102
{ACAD_REACTORS
330
2A
102
}
330
2A
100
AcDbVisualStyle
  2
Wireframe
 70
     5
177
     3
291
     0
 70
    58
 90
        0
176
     1
 90
        2
176
     1
 90
        0
176
     1
 90
        0
176
     1
 40
0.6
176
     1
 40
30.0
176
     1
 62
     7
420
 16777215
176
     1
 90
        1
176
     1
 90
        4
176
     1
 62
     7
176
     1
 62
   257
176
     1
 90
        1
176
     1
 90
        1
176
     1
 40
1.0
176
     1
 90
        0
176
     1
 62
   257
176
     1
 40
1.0
176
     1
 90
        1
176
     1
 90
        6
176
     1
 90
        2
176
     1
 62
     7
176
     1
 90
        3
176
     1
 90
        0
176
     1
 90
        0
176
     1
290
     0
176
     1
 90
        1
176
     1
 40
0.0
176
     1
 90
        0
176
     1
290
     0
176
     1
290
     1
176
     1
290
     1
176
     1
290
     0
176
     1
290
     0
176
     1
290
     0
176
     1
290
     0
176
     1
290
     0
176
     1
290
     0
176
     1
 90
       50
176
     1
 40
0.0
176
     1
 40
1.0
176
     1
 90
        0
176
     1
 62
    18
420
        0
176
     1
 90
       50
176
     1
 90
        3
176
     1
 62
     5
420
      255
176
     1
290
     0
176
     1
 90
       50
176
     1
 90
       50
176
     1
 90
       50
176
     1
290
     0
176
     1
 90
       50
176
     1
 62
   256
176
     0
 40
1.0
176
     0
 90
        2
176
     1
  1
strokes_ogs.tif
176
     1
290
     0
176
     1
 40
1.0
176
     1
 40
1.0
176
     1
  0
VISUALSTYLE
  5
40
102
{ACAD_REACTORS
330
2A
102
}
330
2A
100
AcDbVisualStyle
  2
X-Ray
 70
    25
177
     3
291
     0
 70
    58
 90
        2
176
     1
 90
        2
176
     1
 90
        1
176
     1
 90
        1
176
     1
 40
0.5
176
     1
 40
30.0
176
     1
 62
     7
420
 16777215
176
     1
 90
        1
176
     1
 90
        0
176
     1
 62
     7
176
     1
 62
   257
176
     1
 90
        1
176
     1
 90
        1
176
     1
 40
1.0
176
     1
 90
        8
176
     1
 62
     7
176
     1
 40
1.0
176
     1
 90
        1
176
     1
 90
        6
176
     1
 90
        2
176
     1
 62
     7
176
     1
 90
        3
176
     1
 90
        0
176
     1
 90
        0
176
     1
290
     0
176
     1
 90
       13
176
     1
 40
0.0
176
     1
 90
        0
176
     1
290
     0
176
     1
290
     1
176
     1
290
     1
176
     1
290
     0
176
     1
290
     0
176
     1
290
     0
176
     1
290
     0
176
     1
290
     0
176
     1
290
     0
176
     1
 90
       50
176
     1
 40
0.0
176
     1
 40
1.0
176
     1
 90
        0
176
     1
 62
    18
420
        0
176
     1
 90
       50
176
     1
 90
        3
176
     1
 62
     5
420
      255
176
     1
290
     0
176
     1
 90
       50
176
     1
 90
       50
176
     1
 90
       50
176
     1
290
     0
176
     1
 90
       50
176
     1
 62
   256
176
     0
 40
1.0
176
     0
 90
        2
176
     1
  1
strokes_ogs.tif
176
     1
290
     0
176
     1
 40
1.0
176
     1
 40
1.0
176
     1
  0
DICTIONARYVAR
  5
370
102
{ACAD_REACTORS
330
36F
102
}
330
36F
100
DictionaryVariables
280
     0
  1
1:1
  0
DICTIONARYVAR
  5
375
102
{ACAD_REACTORS
330
36F
102
}
330
36F
100
DictionaryVariables
280
     0
  1
Standard
  0
DICTIONARYVAR
  5
374
102
{ACAD_REACTORS
330
36F
102
}
330
36F
100
DictionaryVariables
280
     0
  1
Standard
  0
DICTIONARY
  5
371
330
6A
100
AcDbDictionary
280
     1
281
     1
  3
ACAD_ROUNDTRIP_2008_TABLESTYLE_CELLSTYLEMAP
360
372
  0
CELLSTYLEMAP
  5
372
102
{ACAD_REACTORS
330
371
102
}
330
371
100
AcDbCellStyleMap
 90
        3
300
CELLSTYLE
  1
TABLEFORMAT_BEGIN
 90
        5
170
     1
 91
        0
 92
    32768
 62
   257
 93
        1
300
CONTENTFORMAT
  1
CONTENTFORMAT_BEGIN
 90
        0
 91
        0
 92
        4
 93
        0
300

 40
0.0
140
1.0
 94
        5
 62
     0
340
11
144
6.0
309
CONTENTFORMAT_END
171
     1
301
MARGIN
  1
CELLMARGIN_BEGIN
 40
1.5
 40
1.5
 40
1.5
 40
1.5
 40
1.5
 40
1.5
309
CELLMARGIN_END
 94
        6
 95
        1
302
GRIDFORMAT
  1
GRIDFORMAT_BEGIN
 90
        0
 91
        1
 62
     0
 92
       -2
340
14
 93
        0
 40
0.045
309
GRIDFORMAT_END
 95
        2
302
GRIDFORMAT
  1
GRIDFORMAT_BEGIN
 90
        0
 91
        1
 62
     0
 92
       -2
340
14
 93
        0
 40
0.045
309
GRIDFORMAT_END
 95
        4
302
GRIDFORMAT
  1
GRIDFORMAT_BEGIN
 90
        0
 91
        1
 62
     0
 92
       -2
340
14
 93
        0
 40
0.045
309
GRIDFORMAT_END
 95
        8
302
GRIDFORMAT
  1
GRIDFORMAT_BEGIN
 90
        0
 91
        1
 62
     0
 92
       -2
340
14
 93
        0
 40
0.045
309
GRIDFORMAT_END
 95
       16
302
GRIDFORMAT
  1
GRIDFORMAT_BEGIN
 90
        0
 91
        1
 62
     0
 92
       -2
340
14
 93
        0
 40
0.045
309
GRIDFORMAT_END
 95
       32
302
GRIDFORMAT
  1
GRIDFORMAT_BEGIN
 90
        0
 91
        1
 62
     0
 92
       -2
340
14
 93
        0
 40
0.045
309
GRIDFORMAT_END
309
TABLEFORMAT_END
  1
CELLSTYLE_BEGIN
 90
        1
 91
        1
300
_TITLE
309
CELLSTYLE_END
300
CELLSTYLE
  1
TABLEFORMAT_BEGIN
 90
        5
170
     1
 91
        0
 92
        0
 62
   257
 93
        1
300
CONTENTFORMAT
  1
CONTENTFORMAT_BEGIN
 90
        0
 91
        0
 92
        4
 93
        0
300

 40
0.0
140
1.0
 94
        5
 62
     0
340
11
144
4.5
309
CONTENTFORMAT_END
171
     1
301
MARGIN
  1
CELLMARGIN_BEGIN
 40
1.5
 40
1.5
 40
1.5
 40
1.5
 40
1.5
 40
1.5
309
CELLMARGIN_END
 94
        6
 95
        1
302
GRIDFORMAT
  1
GRIDFORMAT_BEGIN
 90
        0
 91
        1
 62
     0
 92
       -2
340
14
 93
        0
 40
0.045
309
GRIDFORMAT_END
 95
        2
302
GRIDFORMAT
  1
GRIDFORMAT_BEGIN
 90
        0
 91
        1
 62
     0
 92
       -2
340
14
 93
        0
 40
0.045
309
GRIDFORMAT_END
 95
        4
302
GRIDFORMAT
  1
GRIDFORMAT_BEGIN
 90
        0
 91
        1
 62
     0
 92
       -2
340
14
 93
        0
 40
0.045
309
GRIDFORMAT_END
 95
        8
302
GRIDFORMAT
  1
GRIDFORMAT_BEGIN
 90
        0
 91
        1
 62
     0
 92
       -2
340
14
 93
        0
 40
0.045
309
GRIDFORMAT_END
 95
       16
302
GRIDFORMAT
  1
GRIDFORMAT_BEGIN
 90
        0
 91
        1
 62
     0
 92
       -2
340
14
 93
        0
 40
0.045
309
GRIDFORMAT_END
 95
       32
302
GRIDFORMAT
  1
GRIDFORMAT_BEGIN
 90
        0
 91
        1
 62
     0
 92
       -2
340
14
 93
        0
 40
0.045
309
GRIDFORMAT_END
309
TABLEFORMAT_END
  1
CELLSTYLE_BEGIN
 90
        2
 91
        1
300
_HEADER
309
CELLSTYLE_END
300
CELLSTYLE
  1
TABLEFORMAT_BEGIN
 90
        5
170
     1
 91
        0
 92
        0
 62
   257
 93
        1
300
CONTENTFORMAT
  1
CONTENTFORMAT_BEGIN
 90
        0
 91
        0
 92
        4
 93
        0
300

 40
0.0
140
1.0
 94
        2
 62
     0
340
11
144
4.5
309
CONTENTFORMAT_END
171
     1
301
MARGIN
  1
CELLMARGIN_BEGIN
 40
1.5
 40
1.5
 40
1.5
 40
1.5
 40
1.5
 40
1.5
309
CELLMARGIN_END
 94
        6
 95
        1
302
GRIDFORMAT
  1
GRIDFORMAT_BEGIN
 90
        0
 91
        1
 62
     0
 92
       -2
340
14
 93
        0
 40
0.045
309
GRIDFORMAT_END
 95
        2
302
GRIDFORMAT
  1
GRIDFORMAT_BEGIN
 90
        0
 91
        1
 62
     0
 92
       -2
340
14
 93
        0
 40
0.045
309
GRIDFORMAT_END
 95
        4
302
GRIDFORMAT
  1
GRIDFORMAT_BEGIN
 90
        0
 91
        1
 62
     0
 92
       -2
340
14
 93
        0
 40
0.045
309
GRIDFORMAT_END
 95
        8
302
GRIDFORMAT
  1
GRIDFORMAT_BEGIN
 90
        0
 91
        1
 62
     0
 92
       -2
340
14
 93
        0
 40
0.045
309
GRIDFORMAT_END
 95
       16
302
GRIDFORMAT
  1
GRIDFORMAT_BEGIN
 90
        0
 91
        1
 62
     0
 92
       -2
340
14
 93
        0
 40
0.045
309
GRIDFORMAT_END
 95
       32
302
GRIDFORMAT
  1
GRIDFORMAT_BEGIN
 90
        0
 91
        1
 62
     0
 92
       -2
340
14
 93
        0
 40
0.045
309
GRIDFORMAT_END
309
TABLEFORMAT_END
  1
CELLSTYLE_BEGIN
 90
        3
 91
        2
300
_DATA
309
CELLSTYLE_END
  0
ENDSEC
  0
EOF
