G04*
G04 #@! TF.GenerationSoftware,Altium Limited,Altium Designer,21.6.4 (81)*
G04*
G04 Layer_Color=65535*
%FSLAX25Y25*%
%MOIN*%
G70*
G04*
G04 #@! TF.SameCoordinates,C5008740-255C-4452-9732-2E8642EA51F4*
G04*
G04*
G04 #@! TF.FilePolarity,Positive*
G04*
G01*
G75*
%ADD10C,0.01000*%
%ADD11C,0.00984*%
%ADD12C,0.00800*%
%ADD13C,0.00787*%
G36*
X421711Y347474D02*
Y347431D01*
X421668D01*
Y347387D01*
Y347344D01*
Y347300D01*
X421624D01*
Y347257D01*
Y347213D01*
X421581D01*
Y347169D01*
Y347126D01*
Y347082D01*
X421537D01*
Y347039D01*
Y346995D01*
X421581D01*
Y346952D01*
X421494D01*
Y346908D01*
Y346865D01*
Y346821D01*
Y346778D01*
Y346734D01*
X421450D01*
Y346691D01*
Y346647D01*
Y346604D01*
Y346560D01*
X421407D01*
Y346516D01*
Y346473D01*
X421363D01*
Y346429D01*
Y346386D01*
Y346342D01*
X421319D01*
Y346299D01*
Y346255D01*
Y346212D01*
X421276D01*
Y346168D01*
Y346125D01*
Y346081D01*
X421232D01*
Y346038D01*
Y345994D01*
Y345951D01*
X421189D01*
Y345907D01*
Y345864D01*
X421145D01*
Y345820D01*
Y345777D01*
X421189D01*
Y345733D01*
X421102D01*
Y345689D01*
Y345646D01*
Y345602D01*
Y345559D01*
Y345515D01*
X421058D01*
Y345472D01*
Y345428D01*
Y345385D01*
X421015D01*
Y345341D01*
Y345298D01*
Y345254D01*
X420971D01*
Y345211D01*
Y345167D01*
Y345124D01*
X420928D01*
Y345080D01*
Y345037D01*
Y344993D01*
X420884D01*
Y344949D01*
Y344906D01*
Y344862D01*
X418229D01*
Y344906D01*
Y344949D01*
X418272D01*
Y344993D01*
Y345037D01*
X418316D01*
Y345080D01*
Y345124D01*
Y345167D01*
Y345211D01*
X418359D01*
Y345254D01*
Y345298D01*
Y345341D01*
X418403D01*
Y345385D01*
Y345428D01*
X418446D01*
Y345472D01*
Y345515D01*
Y345559D01*
X418490D01*
Y345602D01*
Y345646D01*
Y345689D01*
X418533D01*
Y345733D01*
Y345777D01*
Y345820D01*
X418577D01*
Y345864D01*
Y345907D01*
X418620D01*
Y345951D01*
Y345994D01*
Y346038D01*
Y346081D01*
Y346125D01*
Y346168D01*
X418708D01*
Y346212D01*
Y346255D01*
Y346299D01*
Y346342D01*
Y346386D01*
X418751D01*
Y346429D01*
Y346473D01*
Y346516D01*
X418795D01*
Y346560D01*
Y346604D01*
Y346647D01*
X418838D01*
Y346691D01*
Y346734D01*
Y346778D01*
X418882D01*
Y346821D01*
Y346865D01*
Y346908D01*
X418925D01*
Y346952D01*
Y346995D01*
Y347039D01*
X418969D01*
Y347082D01*
Y347126D01*
Y347169D01*
X419012D01*
Y347213D01*
Y347257D01*
Y347300D01*
Y347344D01*
Y347387D01*
X419056D01*
Y347431D01*
Y347474D01*
Y347518D01*
X421711D01*
Y347474D01*
D02*
G37*
G36*
X411177D02*
Y347431D01*
Y347387D01*
X411133D01*
Y347344D01*
Y347300D01*
X411090D01*
Y347257D01*
Y347213D01*
Y347169D01*
X411046D01*
Y347126D01*
Y347082D01*
Y347039D01*
X411002D01*
Y346995D01*
Y346952D01*
Y346908D01*
Y346865D01*
X410959D01*
Y346821D01*
Y346778D01*
X410915D01*
Y346734D01*
Y346691D01*
Y346647D01*
X410872D01*
Y346604D01*
Y346560D01*
Y346516D01*
X410828D01*
Y346473D01*
Y346429D01*
Y346386D01*
X410785D01*
Y346342D01*
Y346299D01*
Y346255D01*
Y346212D01*
Y346168D01*
X410741D01*
Y346125D01*
Y346081D01*
Y346038D01*
X410698D01*
Y345994D01*
Y345951D01*
X410654D01*
Y345907D01*
Y345864D01*
Y345820D01*
X410611D01*
Y345777D01*
Y345733D01*
Y345689D01*
X410567D01*
Y345646D01*
Y345602D01*
Y345559D01*
X410524D01*
Y345515D01*
Y345472D01*
X410480D01*
Y345428D01*
Y345385D01*
Y345341D01*
Y345298D01*
X410436D01*
Y345254D01*
Y345211D01*
Y345167D01*
X410393D01*
Y345124D01*
Y345080D01*
X410349D01*
Y345037D01*
Y344993D01*
Y344949D01*
Y344906D01*
Y344862D01*
X407694D01*
Y344906D01*
X407738D01*
Y344949D01*
Y344993D01*
X407781D01*
Y345037D01*
Y345080D01*
Y345124D01*
X407825D01*
Y345167D01*
Y345211D01*
X407781D01*
Y345254D01*
X407868D01*
Y345298D01*
Y345341D01*
Y345385D01*
Y345428D01*
Y345472D01*
X407912D01*
Y345515D01*
Y345559D01*
Y345602D01*
Y345646D01*
X407955D01*
Y345689D01*
Y345733D01*
Y345777D01*
X407999D01*
Y345820D01*
Y345864D01*
X408042D01*
Y345907D01*
Y345951D01*
Y345994D01*
X408086D01*
Y346038D01*
Y346081D01*
Y346125D01*
X408129D01*
Y346168D01*
Y346212D01*
X408173D01*
Y346255D01*
Y346299D01*
Y346342D01*
X408216D01*
Y346386D01*
Y346429D01*
Y346473D01*
X408260D01*
Y346516D01*
Y346560D01*
Y346604D01*
X408303D01*
Y346647D01*
Y346691D01*
Y346734D01*
Y346778D01*
Y346821D01*
X408391D01*
Y346865D01*
Y346908D01*
X408347D01*
Y346952D01*
X408391D01*
Y346995D01*
Y347039D01*
Y347082D01*
Y347126D01*
X408434D01*
Y347169D01*
Y347213D01*
X408478D01*
Y347257D01*
Y347300D01*
Y347344D01*
X408521D01*
Y347387D01*
Y347431D01*
Y347474D01*
X408565D01*
Y347518D01*
X411177D01*
Y347474D01*
D02*
G37*
G36*
X401687D02*
X401643D01*
Y347431D01*
Y347387D01*
Y347344D01*
X401600D01*
Y347300D01*
Y347257D01*
X401556D01*
Y347213D01*
Y347169D01*
Y347126D01*
X401512D01*
Y347082D01*
Y347039D01*
Y346995D01*
X401469D01*
Y346952D01*
Y346908D01*
Y346865D01*
X401425D01*
Y346821D01*
Y346778D01*
X401382D01*
Y346734D01*
Y346691D01*
Y346647D01*
Y346604D01*
Y346560D01*
Y346516D01*
X401295D01*
Y346473D01*
Y346429D01*
Y346386D01*
Y346342D01*
Y346299D01*
X401251D01*
Y346255D01*
Y346212D01*
Y346168D01*
X401208D01*
Y346125D01*
Y346081D01*
Y346038D01*
X401164D01*
Y345994D01*
Y345951D01*
Y345907D01*
X401121D01*
Y345864D01*
Y345820D01*
Y345777D01*
X401077D01*
Y345733D01*
Y345689D01*
Y345646D01*
X401034D01*
Y345602D01*
Y345559D01*
Y345515D01*
X400990D01*
Y345472D01*
Y345428D01*
X400947D01*
Y345385D01*
Y345341D01*
Y345298D01*
X400903D01*
Y345254D01*
Y345211D01*
Y345167D01*
X400859D01*
Y345124D01*
Y345080D01*
Y345037D01*
Y344993D01*
Y344949D01*
X400816D01*
Y344906D01*
Y344862D01*
Y344819D01*
X400772D01*
Y344775D01*
Y344732D01*
Y344688D01*
X400729D01*
Y344645D01*
Y344601D01*
X400685D01*
Y344558D01*
Y344514D01*
Y344471D01*
X400642D01*
Y344427D01*
Y344384D01*
Y344340D01*
Y344296D01*
X400598D01*
Y344253D01*
Y344209D01*
Y344166D01*
X400555D01*
Y344122D01*
Y344079D01*
X400511D01*
Y344035D01*
Y343992D01*
X400555D01*
Y343948D01*
X400468D01*
Y343905D01*
Y343861D01*
Y343817D01*
Y343774D01*
Y343730D01*
X400424D01*
Y343687D01*
Y343643D01*
Y343600D01*
X400381D01*
Y343556D01*
Y343513D01*
Y343469D01*
X400337D01*
Y343426D01*
Y343382D01*
Y343339D01*
X400294D01*
Y343295D01*
Y343252D01*
X400250D01*
Y343208D01*
Y343165D01*
Y343121D01*
X400207D01*
Y343077D01*
Y343034D01*
Y342990D01*
X400163D01*
Y342947D01*
Y342903D01*
X400119D01*
Y342860D01*
Y342816D01*
Y342773D01*
Y342729D01*
X400076D01*
Y342686D01*
Y342642D01*
X400119D01*
Y342599D01*
X400032D01*
Y342555D01*
Y342512D01*
Y342468D01*
Y342425D01*
Y342381D01*
X399989D01*
Y342337D01*
Y342294D01*
Y342250D01*
X399945D01*
Y342207D01*
Y342163D01*
Y342120D01*
X399902D01*
Y342076D01*
Y342033D01*
Y341989D01*
X399858D01*
Y341946D01*
X399815D01*
Y341902D01*
Y341859D01*
X399771D01*
Y341815D01*
Y341772D01*
X399728D01*
Y341728D01*
Y341685D01*
X399684D01*
Y341641D01*
Y341597D01*
X399641D01*
Y341554D01*
X399597D01*
Y341510D01*
Y341467D01*
Y341423D01*
X399553D01*
Y341380D01*
Y341336D01*
X399510D01*
Y341293D01*
X399466D01*
Y341249D01*
X399423D01*
Y341206D01*
Y341162D01*
X399336D01*
Y341119D01*
Y341075D01*
X399292D01*
Y341032D01*
Y340988D01*
X399205D01*
Y340945D01*
Y340901D01*
X399162D01*
Y340857D01*
X399075D01*
Y340814D01*
Y340770D01*
X399031D01*
Y340727D01*
X398944D01*
Y340683D01*
Y340640D01*
X398857D01*
Y340596D01*
Y340553D01*
X398770D01*
Y340509D01*
Y340466D01*
X398683D01*
Y340422D01*
X398639D01*
Y340378D01*
X398596D01*
Y340335D01*
X398465D01*
Y340292D01*
X398422D01*
Y340248D01*
X398378D01*
Y340204D01*
X398291D01*
Y340161D01*
X398248D01*
Y340117D01*
X398161D01*
Y340074D01*
X398074D01*
Y340030D01*
X398030D01*
Y339987D01*
X397943D01*
Y339943D01*
X397856D01*
Y339900D01*
X397682D01*
Y339856D01*
X397638D01*
Y339813D01*
X397508D01*
Y339769D01*
X397377D01*
Y339726D01*
X397246D01*
Y339682D01*
X397116D01*
Y339638D01*
X397029D01*
Y339595D01*
X396811D01*
Y339551D01*
X396593D01*
Y339508D01*
X395287D01*
Y339551D01*
X395113D01*
Y339595D01*
X394983D01*
Y339638D01*
X394852D01*
Y339682D01*
X394722D01*
Y339726D01*
X394635D01*
Y339769D01*
X394547D01*
Y339813D01*
X394460D01*
Y339856D01*
X394417D01*
Y339900D01*
X394286D01*
Y339943D01*
X394243D01*
Y339987D01*
X394199D01*
Y340030D01*
X394112D01*
Y340074D01*
X394069D01*
Y340117D01*
X394025D01*
Y340161D01*
Y340204D01*
X393982D01*
Y340248D01*
X393938D01*
Y340292D01*
Y340335D01*
X393851D01*
Y340378D01*
X393807D01*
Y340422D01*
Y340466D01*
X393764D01*
Y340509D01*
X393807D01*
Y340553D01*
X393720D01*
Y340596D01*
Y340640D01*
Y340683D01*
Y340727D01*
X393677D01*
Y340770D01*
Y340814D01*
X393633D01*
Y340857D01*
Y340901D01*
Y340945D01*
X393590D01*
Y340988D01*
Y341032D01*
Y341075D01*
Y341119D01*
Y341162D01*
X393546D01*
Y341206D01*
Y341249D01*
Y341293D01*
Y341336D01*
Y341380D01*
Y341423D01*
Y341467D01*
Y341510D01*
Y341554D01*
Y341597D01*
X393590D01*
Y341641D01*
Y341685D01*
Y341728D01*
Y341772D01*
Y341815D01*
Y341859D01*
X393633D01*
Y341902D01*
Y341946D01*
Y341989D01*
Y342033D01*
X393677D01*
Y342076D01*
Y342120D01*
Y342163D01*
X393720D01*
Y342207D01*
Y342250D01*
Y342294D01*
Y342337D01*
Y342381D01*
Y342425D01*
X393764D01*
Y342468D01*
X393807D01*
Y342512D01*
X393764D01*
Y342555D01*
X393807D01*
Y342599D01*
Y342642D01*
Y342686D01*
X393851D01*
Y342729D01*
Y342773D01*
Y342816D01*
X393894D01*
Y342860D01*
Y342903D01*
X393938D01*
Y342947D01*
Y342990D01*
Y343034D01*
X393982D01*
Y343077D01*
Y343121D01*
Y343165D01*
X394025D01*
Y343208D01*
Y343252D01*
Y343295D01*
X394069D01*
Y343339D01*
X394025D01*
Y343382D01*
X394112D01*
Y343426D01*
Y343469D01*
Y343513D01*
Y343556D01*
Y343600D01*
Y343643D01*
X394156D01*
Y343687D01*
Y343730D01*
X394199D01*
Y343774D01*
Y343817D01*
Y343861D01*
Y343905D01*
X394243D01*
Y343948D01*
Y343992D01*
Y344035D01*
X394286D01*
Y344079D01*
Y344122D01*
X394330D01*
Y344166D01*
Y344209D01*
Y344253D01*
X394373D01*
Y344296D01*
Y344340D01*
Y344384D01*
X394417D01*
Y344427D01*
Y344471D01*
Y344514D01*
X394460D01*
Y344558D01*
Y344601D01*
X394504D01*
Y344645D01*
Y344688D01*
Y344732D01*
X394547D01*
Y344775D01*
Y344819D01*
Y344862D01*
Y344906D01*
Y344949D01*
Y344993D01*
X394635D01*
Y345037D01*
X394591D01*
Y345080D01*
X394635D01*
Y345124D01*
Y345167D01*
Y345211D01*
X394678D01*
Y345254D01*
Y345298D01*
Y345341D01*
X394722D01*
Y345385D01*
Y345428D01*
Y345472D01*
X394765D01*
Y345515D01*
Y345559D01*
Y345602D01*
X394809D01*
Y345646D01*
Y345689D01*
Y345733D01*
X394852D01*
Y345777D01*
Y345820D01*
X394896D01*
Y345864D01*
Y345907D01*
Y345951D01*
X394939D01*
Y345994D01*
Y346038D01*
Y346081D01*
X394983D01*
Y346125D01*
Y346168D01*
Y346212D01*
X395026D01*
Y346255D01*
Y346299D01*
X394983D01*
Y346342D01*
X395070D01*
Y346386D01*
Y346429D01*
Y346473D01*
Y346516D01*
Y346560D01*
X395113D01*
Y346604D01*
Y346647D01*
X395157D01*
Y346691D01*
Y346734D01*
Y346778D01*
X395200D01*
Y346821D01*
Y346865D01*
Y346908D01*
X395244D01*
Y346952D01*
Y346995D01*
Y347039D01*
Y347082D01*
X395287D01*
Y347126D01*
Y347169D01*
X395331D01*
Y347213D01*
Y347257D01*
Y347300D01*
X395374D01*
Y347344D01*
Y347387D01*
Y347431D01*
Y347474D01*
Y347518D01*
X397333D01*
Y347474D01*
Y347431D01*
X397290D01*
Y347387D01*
Y347344D01*
Y347300D01*
X397246D01*
Y347257D01*
Y347213D01*
X397203D01*
Y347169D01*
Y347126D01*
Y347082D01*
X397159D01*
Y347039D01*
Y346995D01*
Y346952D01*
X397116D01*
Y346908D01*
Y346865D01*
Y346821D01*
X397072D01*
Y346778D01*
X397116D01*
Y346734D01*
X397029D01*
Y346691D01*
Y346647D01*
Y346604D01*
Y346560D01*
Y346516D01*
Y346473D01*
X396985D01*
Y346429D01*
Y346386D01*
X396942D01*
Y346342D01*
Y346299D01*
Y346255D01*
X396898D01*
Y346212D01*
Y346168D01*
Y346125D01*
Y346081D01*
X396855D01*
Y346038D01*
Y345994D01*
Y345951D01*
X396811D01*
Y345907D01*
Y345864D01*
X396767D01*
Y345820D01*
Y345777D01*
Y345733D01*
X396724D01*
Y345689D01*
Y345646D01*
X396680D01*
Y345602D01*
Y345559D01*
Y345515D01*
X396637D01*
Y345472D01*
Y345428D01*
X396680D01*
Y345385D01*
X396593D01*
Y345341D01*
Y345298D01*
Y345254D01*
Y345211D01*
Y345167D01*
Y345124D01*
X396550D01*
Y345080D01*
Y345037D01*
X396506D01*
Y344993D01*
Y344949D01*
Y344906D01*
X396463D01*
Y344862D01*
Y344819D01*
Y344775D01*
X396419D01*
Y344732D01*
Y344688D01*
X396376D01*
Y344645D01*
Y344601D01*
Y344558D01*
Y344514D01*
X396332D01*
Y344471D01*
Y344427D01*
Y344384D01*
X396289D01*
Y344340D01*
Y344296D01*
Y344253D01*
X396245D01*
Y344209D01*
X396289D01*
Y344166D01*
X396202D01*
Y344122D01*
Y344079D01*
Y344035D01*
X396158D01*
Y343992D01*
Y343948D01*
Y343905D01*
Y343861D01*
Y343817D01*
Y343774D01*
X396071D01*
Y343730D01*
X396114D01*
Y343687D01*
X396071D01*
Y343643D01*
Y343600D01*
Y343556D01*
X396027D01*
Y343513D01*
Y343469D01*
Y343426D01*
X395984D01*
Y343382D01*
Y343339D01*
X395940D01*
Y343295D01*
Y343252D01*
Y343208D01*
X395897D01*
Y343165D01*
Y343121D01*
Y343077D01*
X395853D01*
Y343034D01*
Y342990D01*
Y342947D01*
X395810D01*
Y342903D01*
Y342860D01*
Y342816D01*
X395766D01*
Y342773D01*
Y342729D01*
Y342686D01*
Y342642D01*
Y342599D01*
Y342555D01*
X395723D01*
Y342512D01*
Y342468D01*
X395679D01*
Y342425D01*
Y342381D01*
Y342337D01*
X395636D01*
Y342294D01*
Y342250D01*
Y342207D01*
X395592D01*
Y342163D01*
Y342120D01*
Y342076D01*
Y342033D01*
Y341989D01*
Y341946D01*
Y341902D01*
Y341859D01*
Y341815D01*
Y341772D01*
X395636D01*
Y341728D01*
Y341685D01*
X395679D01*
Y341641D01*
Y341597D01*
X395723D01*
Y341554D01*
X395766D01*
Y341510D01*
X395810D01*
Y341467D01*
X395897D01*
Y341423D01*
X395984D01*
Y341380D01*
X396114D01*
Y341336D01*
X396289D01*
Y341293D01*
X396767D01*
Y341336D01*
X396985D01*
Y341380D01*
X397072D01*
Y341423D01*
X397203D01*
Y341467D01*
X397333D01*
Y341510D01*
X397377D01*
Y341554D01*
X397508D01*
Y341597D01*
X397551D01*
Y341641D01*
X397595D01*
Y341685D01*
X397682D01*
Y341728D01*
X397725D01*
Y341772D01*
X397769D01*
Y341815D01*
X397812D01*
Y341859D01*
Y341902D01*
X397856D01*
Y341946D01*
X397943D01*
Y341989D01*
Y342033D01*
X397986D01*
Y342076D01*
Y342120D01*
Y342163D01*
Y342207D01*
Y342250D01*
X398074D01*
Y342294D01*
Y342337D01*
X398030D01*
Y342381D01*
X398074D01*
Y342425D01*
Y342468D01*
X398117D01*
Y342512D01*
Y342555D01*
Y342599D01*
X398161D01*
Y342642D01*
Y342686D01*
Y342729D01*
X398204D01*
Y342773D01*
Y342816D01*
X398248D01*
Y342860D01*
Y342903D01*
Y342947D01*
X398291D01*
Y342990D01*
Y343034D01*
Y343077D01*
X398335D01*
Y343121D01*
Y343165D01*
Y343208D01*
X398378D01*
Y343252D01*
Y343295D01*
X398422D01*
Y343339D01*
Y343382D01*
Y343426D01*
X398465D01*
Y343469D01*
Y343513D01*
X398422D01*
Y343556D01*
X398509D01*
Y343600D01*
Y343643D01*
Y343687D01*
Y343730D01*
Y343774D01*
Y343817D01*
X398552D01*
Y343861D01*
Y343905D01*
Y343948D01*
X398596D01*
Y343992D01*
Y344035D01*
X398639D01*
Y344079D01*
Y344122D01*
Y344166D01*
X398683D01*
Y344209D01*
Y344253D01*
Y344296D01*
X398726D01*
Y344340D01*
Y344384D01*
Y344427D01*
X398770D01*
Y344471D01*
Y344514D01*
Y344558D01*
X398814D01*
Y344601D01*
Y344645D01*
Y344688D01*
Y344732D01*
Y344775D01*
X398901D01*
Y344819D01*
Y344862D01*
X398857D01*
Y344906D01*
X398901D01*
Y344949D01*
Y344993D01*
X398944D01*
Y345037D01*
Y345080D01*
Y345124D01*
X398988D01*
Y345167D01*
Y345211D01*
Y345254D01*
Y345298D01*
X399031D01*
Y345341D01*
Y345385D01*
X399075D01*
Y345428D01*
Y345472D01*
Y345515D01*
X399118D01*
Y345559D01*
Y345602D01*
Y345646D01*
X399162D01*
Y345689D01*
Y345733D01*
Y345777D01*
X399205D01*
Y345820D01*
Y345864D01*
X399249D01*
Y345907D01*
Y345951D01*
Y345994D01*
X399292D01*
Y346038D01*
Y346081D01*
X399249D01*
Y346125D01*
X399336D01*
Y346168D01*
Y346212D01*
Y346255D01*
Y346299D01*
Y346342D01*
X399379D01*
Y346386D01*
Y346429D01*
Y346473D01*
X399423D01*
Y346516D01*
Y346560D01*
Y346604D01*
X399466D01*
Y346647D01*
Y346691D01*
Y346734D01*
X399510D01*
Y346778D01*
Y346821D01*
Y346865D01*
X399553D01*
Y346908D01*
Y346952D01*
Y346995D01*
X399597D01*
Y347039D01*
Y347082D01*
Y347126D01*
X399641D01*
Y347169D01*
Y347213D01*
Y347257D01*
X399684D01*
Y347300D01*
X399641D01*
Y347344D01*
X399728D01*
Y347387D01*
Y347431D01*
X399684D01*
Y347474D01*
X399771D01*
Y347518D01*
X401687D01*
Y347474D01*
D02*
G37*
G36*
X416444D02*
X416400D01*
Y347431D01*
Y347387D01*
Y347344D01*
Y347300D01*
Y347257D01*
X416357D01*
Y347213D01*
Y347169D01*
Y347126D01*
X416313D01*
Y347082D01*
Y347039D01*
Y346995D01*
X416270D01*
Y346952D01*
Y346908D01*
Y346865D01*
X416226D01*
Y346821D01*
Y346778D01*
Y346734D01*
X416183D01*
Y346691D01*
Y346647D01*
Y346604D01*
X416139D01*
Y346560D01*
Y346516D01*
Y346473D01*
X416096D01*
Y346429D01*
Y346386D01*
X416052D01*
Y346342D01*
Y346299D01*
Y346255D01*
X416009D01*
Y346212D01*
Y346168D01*
Y346125D01*
X415965D01*
Y346081D01*
Y346038D01*
Y345994D01*
Y345951D01*
Y345907D01*
X415878D01*
Y345864D01*
Y345820D01*
X415921D01*
Y345777D01*
X415878D01*
Y345733D01*
Y345689D01*
Y345646D01*
X415835D01*
Y345602D01*
Y345559D01*
Y345515D01*
X415791D01*
Y345472D01*
Y345428D01*
X415747D01*
Y345385D01*
Y345341D01*
Y345298D01*
X415704D01*
Y345254D01*
Y345211D01*
Y345167D01*
Y345124D01*
X415660D01*
Y345080D01*
Y345037D01*
X415617D01*
Y344993D01*
Y344949D01*
Y344906D01*
Y344862D01*
X418229D01*
Y344819D01*
X418185D01*
Y344775D01*
Y344732D01*
Y344688D01*
X418142D01*
Y344645D01*
Y344601D01*
X418098D01*
Y344558D01*
Y344514D01*
X418142D01*
Y344471D01*
X418055D01*
Y344427D01*
Y344384D01*
Y344340D01*
Y344296D01*
Y344253D01*
X418011D01*
Y344209D01*
Y344166D01*
Y344122D01*
X417968D01*
Y344079D01*
Y344035D01*
Y343992D01*
X417924D01*
Y343948D01*
Y343905D01*
Y343861D01*
X417880D01*
Y343817D01*
Y343774D01*
X417837D01*
Y343730D01*
Y343687D01*
Y343643D01*
X417793D01*
Y343600D01*
Y343556D01*
Y343513D01*
Y343469D01*
X417750D01*
Y343426D01*
Y343382D01*
Y343339D01*
X417706D01*
Y343295D01*
X417750D01*
Y343252D01*
X417663D01*
Y343208D01*
Y343165D01*
Y343121D01*
Y343077D01*
Y343034D01*
X417619D01*
Y342990D01*
Y342947D01*
Y342903D01*
X417576D01*
Y342860D01*
Y342816D01*
Y342773D01*
X417532D01*
Y342729D01*
Y342686D01*
Y342642D01*
X417489D01*
Y342599D01*
Y342555D01*
Y342512D01*
X417445D01*
Y342468D01*
Y342425D01*
X417402D01*
Y342381D01*
Y342337D01*
Y342294D01*
Y342250D01*
X420014D01*
Y342207D01*
X419970D01*
Y342163D01*
Y342120D01*
Y342076D01*
X419927D01*
Y342033D01*
Y341989D01*
X419883D01*
Y341946D01*
Y341902D01*
Y341859D01*
X419927D01*
Y341815D01*
X419839D01*
Y341772D01*
Y341728D01*
Y341685D01*
Y341641D01*
Y341597D01*
X419796D01*
Y341554D01*
X419752D01*
Y341510D01*
X419796D01*
Y341467D01*
X419752D01*
Y341423D01*
Y341380D01*
Y341336D01*
X419709D01*
Y341293D01*
Y341249D01*
X419665D01*
Y341206D01*
Y341162D01*
Y341119D01*
X419622D01*
Y341075D01*
Y341032D01*
Y340988D01*
X419578D01*
Y340945D01*
Y340901D01*
Y340857D01*
X419535D01*
Y340814D01*
Y340770D01*
Y340727D01*
X419491D01*
Y340683D01*
Y340640D01*
X419448D01*
Y340596D01*
Y340553D01*
Y340509D01*
X419404D01*
Y340466D01*
Y340422D01*
Y340378D01*
Y340335D01*
Y340292D01*
Y340248D01*
X419317D01*
Y340204D01*
Y340161D01*
X419361D01*
Y340117D01*
X419317D01*
Y340074D01*
Y340030D01*
Y339987D01*
X419274D01*
Y339943D01*
Y339900D01*
X419230D01*
Y339856D01*
Y339813D01*
Y339769D01*
X419186D01*
Y339726D01*
Y339682D01*
Y339638D01*
X419143D01*
Y339595D01*
X416531D01*
Y339638D01*
Y339682D01*
Y339726D01*
X416574D01*
Y339769D01*
Y339813D01*
X416618D01*
Y339856D01*
Y339900D01*
Y339943D01*
X416662D01*
Y339987D01*
Y340030D01*
Y340074D01*
X416705D01*
Y340117D01*
Y340161D01*
Y340204D01*
X416749D01*
Y340248D01*
Y340292D01*
X416792D01*
Y340335D01*
Y340378D01*
Y340422D01*
Y340466D01*
X416836D01*
Y340509D01*
Y340553D01*
Y340596D01*
X416879D01*
Y340640D01*
X416836D01*
Y340683D01*
X416923D01*
Y340727D01*
Y340770D01*
X416879D01*
Y340814D01*
X416923D01*
Y340857D01*
Y340901D01*
Y340945D01*
X416966D01*
Y340988D01*
Y341032D01*
X417010D01*
Y341075D01*
Y341119D01*
Y341162D01*
X417053D01*
Y341206D01*
Y341249D01*
Y341293D01*
X417097D01*
Y341336D01*
Y341380D01*
Y341423D01*
X417140D01*
Y341467D01*
Y341510D01*
Y341554D01*
X417184D01*
Y341597D01*
Y341641D01*
X417228D01*
Y341685D01*
Y341728D01*
Y341772D01*
X417271D01*
Y341815D01*
Y341859D01*
Y341902D01*
X417315D01*
Y341946D01*
Y341989D01*
X417271D01*
Y342033D01*
X417358D01*
Y342076D01*
Y342120D01*
Y342163D01*
Y342207D01*
Y342250D01*
X414790D01*
Y342207D01*
Y342163D01*
X414746D01*
Y342120D01*
Y342076D01*
X414703D01*
Y342033D01*
Y341989D01*
Y341946D01*
X414659D01*
Y341902D01*
Y341859D01*
X414703D01*
Y341815D01*
X414616D01*
Y341772D01*
Y341728D01*
Y341685D01*
Y341641D01*
Y341597D01*
X414572D01*
Y341554D01*
Y341510D01*
Y341467D01*
X414529D01*
Y341423D01*
Y341380D01*
Y341336D01*
X414485D01*
Y341293D01*
Y341249D01*
X414441D01*
Y341206D01*
Y341162D01*
Y341119D01*
X414398D01*
Y341075D01*
Y341032D01*
Y340988D01*
X414354D01*
Y340945D01*
Y340901D01*
Y340857D01*
X414311D01*
Y340814D01*
Y340770D01*
Y340727D01*
X414267D01*
Y340683D01*
Y340640D01*
X414311D01*
Y340596D01*
X414224D01*
Y340553D01*
Y340509D01*
Y340466D01*
Y340422D01*
Y340378D01*
Y340335D01*
X414180D01*
Y340292D01*
Y340248D01*
X414137D01*
Y340204D01*
Y340161D01*
Y340117D01*
X414093D01*
Y340074D01*
Y340030D01*
Y339987D01*
X414050D01*
Y339943D01*
Y339900D01*
X414006D01*
Y339856D01*
Y339813D01*
Y339769D01*
X413963D01*
Y339726D01*
Y339682D01*
Y339638D01*
X413919D01*
Y339595D01*
X411307D01*
Y339638D01*
Y339682D01*
Y339726D01*
X411351D01*
Y339769D01*
Y339813D01*
X411394D01*
Y339856D01*
Y339900D01*
Y339943D01*
X411438D01*
Y339987D01*
Y340030D01*
Y340074D01*
X411481D01*
Y340117D01*
Y340161D01*
Y340204D01*
X411525D01*
Y340248D01*
Y340292D01*
X411568D01*
Y340335D01*
Y340378D01*
Y340422D01*
X411612D01*
Y340466D01*
Y340509D01*
Y340553D01*
X411655D01*
Y340596D01*
Y340640D01*
X411699D01*
Y340683D01*
Y340727D01*
Y340770D01*
Y340814D01*
X411742D01*
Y340857D01*
Y340901D01*
Y340945D01*
Y340988D01*
Y341032D01*
X411786D01*
Y341075D01*
X411830D01*
Y341119D01*
X411786D01*
Y341162D01*
X411830D01*
Y341206D01*
Y341249D01*
Y341293D01*
X411873D01*
Y341336D01*
Y341380D01*
Y341423D01*
X411917D01*
Y341467D01*
Y341510D01*
Y341554D01*
X411960D01*
Y341597D01*
Y341641D01*
X412004D01*
Y341685D01*
Y341728D01*
Y341772D01*
X412047D01*
Y341815D01*
Y341859D01*
Y341902D01*
X412091D01*
Y341946D01*
Y341989D01*
X412134D01*
Y342033D01*
Y342076D01*
Y342120D01*
X412178D01*
Y342163D01*
Y342207D01*
Y342250D01*
X409566D01*
Y342294D01*
Y342337D01*
X409609D01*
Y342381D01*
Y342425D01*
X409566D01*
Y342468D01*
X409653D01*
Y342512D01*
Y342555D01*
Y342599D01*
Y342642D01*
Y342686D01*
Y342729D01*
X409696D01*
Y342773D01*
Y342816D01*
X409740D01*
Y342860D01*
Y342903D01*
Y342947D01*
X409784D01*
Y342990D01*
Y343034D01*
Y343077D01*
X409827D01*
Y343121D01*
Y343165D01*
Y343208D01*
X409871D01*
Y343252D01*
Y343295D01*
X409914D01*
Y343339D01*
Y343382D01*
Y343426D01*
X409958D01*
Y343469D01*
Y343513D01*
Y343556D01*
X410001D01*
Y343600D01*
X409958D01*
Y343643D01*
X410001D01*
Y343687D01*
X410045D01*
Y343730D01*
Y343774D01*
Y343817D01*
Y343861D01*
Y343905D01*
X410088D01*
Y343948D01*
Y343992D01*
Y344035D01*
X410132D01*
Y344079D01*
Y344122D01*
Y344166D01*
X410175D01*
Y344209D01*
Y344253D01*
Y344296D01*
X410219D01*
Y344340D01*
Y344384D01*
Y344427D01*
X410262D01*
Y344471D01*
Y344514D01*
Y344558D01*
X410306D01*
Y344601D01*
Y344645D01*
X410349D01*
Y344688D01*
Y344732D01*
Y344775D01*
X410393D01*
Y344819D01*
Y344862D01*
X413005D01*
Y344906D01*
Y344949D01*
Y344993D01*
X413048D01*
Y345037D01*
X413005D01*
Y345080D01*
X413092D01*
Y345124D01*
Y345167D01*
Y345211D01*
Y345254D01*
Y345298D01*
Y345341D01*
Y345385D01*
X413135D01*
Y345428D01*
Y345472D01*
X413179D01*
Y345515D01*
Y345559D01*
Y345602D01*
X413223D01*
Y345646D01*
Y345689D01*
Y345733D01*
X413266D01*
Y345777D01*
Y345820D01*
X413310D01*
Y345864D01*
Y345907D01*
Y345951D01*
X413353D01*
Y345994D01*
Y346038D01*
Y346081D01*
X413397D01*
Y346125D01*
Y346168D01*
Y346212D01*
X413440D01*
Y346255D01*
X413397D01*
Y346299D01*
Y346342D01*
X413484D01*
Y346386D01*
Y346429D01*
Y346473D01*
Y346516D01*
Y346560D01*
X413527D01*
Y346604D01*
Y346647D01*
X413571D01*
Y346691D01*
Y346734D01*
Y346778D01*
X413614D01*
Y346821D01*
Y346865D01*
Y346908D01*
Y346952D01*
X413658D01*
Y346995D01*
Y347039D01*
Y347082D01*
X413701D01*
Y347126D01*
Y347169D01*
X413745D01*
Y347213D01*
Y347257D01*
Y347300D01*
X413789D01*
Y347344D01*
Y347387D01*
Y347431D01*
X413832D01*
Y347474D01*
Y347518D01*
X416444D01*
Y347474D01*
D02*
G37*
G36*
X409522Y342207D02*
Y342163D01*
Y342120D01*
Y342076D01*
X409479D01*
Y342033D01*
Y341989D01*
X409435D01*
Y341946D01*
Y341902D01*
Y341859D01*
X409392D01*
Y341815D01*
Y341772D01*
Y341728D01*
X409348D01*
Y341685D01*
Y341641D01*
X409305D01*
Y341597D01*
Y341554D01*
Y341510D01*
X409261D01*
Y341467D01*
Y341423D01*
Y341380D01*
X409218D01*
Y341336D01*
Y341293D01*
Y341249D01*
X409174D01*
Y341206D01*
Y341162D01*
X409131D01*
Y341119D01*
Y341075D01*
Y341032D01*
X409087D01*
Y340988D01*
Y340945D01*
Y340901D01*
Y340857D01*
Y340814D01*
Y340770D01*
Y340727D01*
X409000D01*
Y340683D01*
X409044D01*
Y340640D01*
X409000D01*
Y340596D01*
Y340553D01*
Y340509D01*
X408956D01*
Y340466D01*
Y340422D01*
Y340378D01*
X408913D01*
Y340335D01*
Y340292D01*
X408869D01*
Y340248D01*
Y340204D01*
Y340161D01*
X408826D01*
Y340117D01*
Y340074D01*
Y340030D01*
X408782D01*
Y339987D01*
Y339943D01*
Y339900D01*
X408739D01*
Y339856D01*
Y339813D01*
X408695D01*
Y339769D01*
Y339726D01*
Y339682D01*
Y339638D01*
Y339595D01*
X406040D01*
Y339638D01*
X406083D01*
Y339682D01*
Y339726D01*
Y339769D01*
X406127D01*
Y339813D01*
Y339856D01*
X406170D01*
Y339900D01*
Y339943D01*
X406127D01*
Y339987D01*
X406214D01*
Y340030D01*
Y340074D01*
Y340117D01*
Y340161D01*
Y340204D01*
X406257D01*
Y340248D01*
Y340292D01*
Y340335D01*
X406301D01*
Y340378D01*
Y340422D01*
Y340466D01*
X406345D01*
Y340509D01*
Y340553D01*
Y340596D01*
X406388D01*
Y340640D01*
Y340683D01*
X406432D01*
Y340727D01*
Y340770D01*
Y340814D01*
X406475D01*
Y340857D01*
Y340901D01*
Y340945D01*
Y340988D01*
X406519D01*
Y341032D01*
Y341075D01*
Y341119D01*
X406562D01*
Y341162D01*
X406519D01*
Y341206D01*
X406606D01*
Y341249D01*
Y341293D01*
Y341336D01*
Y341380D01*
Y341423D01*
Y341467D01*
X406649D01*
Y341510D01*
Y341554D01*
X406693D01*
Y341597D01*
Y341641D01*
Y341685D01*
X406736D01*
Y341728D01*
Y341772D01*
Y341815D01*
X406780D01*
Y341859D01*
Y341902D01*
Y341946D01*
X406823D01*
Y341989D01*
Y342033D01*
X406867D01*
Y342076D01*
Y342120D01*
Y342163D01*
X406910D01*
Y342207D01*
Y342250D01*
X409522D01*
Y342207D01*
D02*
G37*
G36*
X407868Y347474D02*
X407825D01*
Y347431D01*
Y347387D01*
Y347344D01*
X407781D01*
Y347300D01*
Y347257D01*
X407738D01*
Y347213D01*
Y347169D01*
Y347126D01*
Y347082D01*
Y347039D01*
Y346995D01*
X407694D01*
Y346952D01*
Y346908D01*
Y346865D01*
X407651D01*
Y346821D01*
Y346778D01*
X407607D01*
Y346734D01*
Y346691D01*
Y346647D01*
X407563D01*
Y346604D01*
Y346560D01*
Y346516D01*
X407520D01*
Y346473D01*
Y346429D01*
Y346386D01*
X407476D01*
Y346342D01*
Y346299D01*
X407433D01*
Y346255D01*
Y346212D01*
Y346168D01*
X407389D01*
Y346125D01*
Y346081D01*
Y346038D01*
Y345994D01*
X407346D01*
Y345951D01*
Y345907D01*
Y345864D01*
Y345820D01*
Y345777D01*
X407302D01*
Y345733D01*
Y345689D01*
X405343D01*
Y345646D01*
X405300D01*
Y345602D01*
Y345559D01*
Y345515D01*
X405256D01*
Y345472D01*
Y345428D01*
Y345385D01*
Y345341D01*
Y345298D01*
Y345254D01*
X405169D01*
Y345211D01*
Y345167D01*
X405213D01*
Y345124D01*
X405126D01*
Y345080D01*
Y345037D01*
Y344993D01*
Y344949D01*
Y344906D01*
X405082D01*
Y344862D01*
Y344819D01*
Y344775D01*
X405039D01*
Y344732D01*
Y344688D01*
X404995D01*
Y344645D01*
Y344601D01*
Y344558D01*
X404951D01*
Y344514D01*
Y344471D01*
Y344427D01*
X404908D01*
Y344384D01*
Y344340D01*
Y344296D01*
X404864D01*
Y344253D01*
Y344209D01*
Y344166D01*
X404821D01*
Y344122D01*
Y344079D01*
Y344035D01*
Y343992D01*
Y343948D01*
X404734D01*
Y343905D01*
Y343861D01*
Y343817D01*
Y343774D01*
Y343730D01*
Y343687D01*
X404690D01*
Y343643D01*
Y343600D01*
Y343556D01*
X404647D01*
Y343513D01*
Y343469D01*
Y343426D01*
X404603D01*
Y343382D01*
Y343339D01*
X404560D01*
Y343295D01*
Y343252D01*
Y343208D01*
X404516D01*
Y343165D01*
Y343121D01*
Y343077D01*
X404473D01*
Y343034D01*
Y342990D01*
Y342947D01*
X404429D01*
Y342903D01*
Y342860D01*
X404386D01*
Y342816D01*
Y342773D01*
Y342729D01*
X404342D01*
Y342686D01*
Y342642D01*
X404386D01*
Y342599D01*
X404298D01*
Y342555D01*
Y342512D01*
Y342468D01*
Y342425D01*
Y342381D01*
X404255D01*
Y342337D01*
Y342294D01*
Y342250D01*
X404212D01*
Y342207D01*
Y342163D01*
Y342120D01*
Y342076D01*
X404168D01*
Y342033D01*
Y341989D01*
X404124D01*
Y341946D01*
Y341902D01*
Y341859D01*
X404081D01*
Y341815D01*
Y341772D01*
Y341728D01*
X404037D01*
Y341685D01*
Y341641D01*
X403994D01*
Y341597D01*
Y341554D01*
Y341510D01*
X403950D01*
Y341467D01*
Y341423D01*
X403994D01*
Y341380D01*
X403907D01*
Y341336D01*
Y341293D01*
Y341249D01*
Y341206D01*
Y341162D01*
X403863D01*
Y341119D01*
Y341075D01*
Y341032D01*
X403820D01*
Y340988D01*
Y340945D01*
Y340901D01*
X403776D01*
Y340857D01*
Y340814D01*
Y340770D01*
X403733D01*
Y340727D01*
Y340683D01*
Y340640D01*
X403689D01*
Y340596D01*
Y340553D01*
Y340509D01*
X403646D01*
Y340466D01*
Y340422D01*
Y340378D01*
X403602D01*
Y340335D01*
Y340292D01*
X403558D01*
Y340248D01*
Y340204D01*
Y340161D01*
X403515D01*
Y340117D01*
Y340074D01*
X403558D01*
Y340030D01*
X403471D01*
Y339987D01*
Y339943D01*
Y339900D01*
Y339856D01*
Y339813D01*
X403428D01*
Y339769D01*
Y339726D01*
Y339682D01*
X403384D01*
Y339638D01*
Y339595D01*
X401382D01*
Y339638D01*
X401425D01*
Y339682D01*
Y339726D01*
Y339769D01*
Y339813D01*
Y339856D01*
X401512D01*
Y339900D01*
Y339943D01*
X401469D01*
Y339987D01*
X401512D01*
Y340030D01*
Y340074D01*
Y340117D01*
X401556D01*
Y340161D01*
Y340204D01*
X401600D01*
Y340248D01*
Y340292D01*
Y340335D01*
X401643D01*
Y340378D01*
Y340422D01*
Y340466D01*
X401687D01*
Y340509D01*
Y340553D01*
Y340596D01*
X401730D01*
Y340640D01*
Y340683D01*
X401774D01*
Y340727D01*
Y340770D01*
Y340814D01*
X401817D01*
Y340857D01*
Y340901D01*
Y340945D01*
X401861D01*
Y340988D01*
Y341032D01*
Y341075D01*
X401904D01*
Y341119D01*
X401861D01*
Y341162D01*
X401948D01*
Y341206D01*
Y341249D01*
X401904D01*
Y341293D01*
X401948D01*
Y341336D01*
Y341380D01*
Y341423D01*
Y341467D01*
X401991D01*
Y341510D01*
Y341554D01*
X402035D01*
Y341597D01*
Y341641D01*
Y341685D01*
X402078D01*
Y341728D01*
Y341772D01*
Y341815D01*
X402122D01*
Y341859D01*
Y341902D01*
Y341946D01*
X402166D01*
Y341989D01*
Y342033D01*
X402209D01*
Y342076D01*
Y342120D01*
Y342163D01*
X402252D01*
Y342207D01*
Y342250D01*
Y342294D01*
Y342337D01*
Y342381D01*
X402340D01*
Y342425D01*
Y342468D01*
Y342512D01*
Y342555D01*
Y342599D01*
Y342642D01*
X402383D01*
Y342686D01*
Y342729D01*
Y342773D01*
X402427D01*
Y342816D01*
Y342860D01*
X402470D01*
Y342903D01*
Y342947D01*
Y342990D01*
Y343034D01*
X402514D01*
Y343077D01*
Y343121D01*
Y343165D01*
X402557D01*
Y343208D01*
Y343252D01*
X402601D01*
Y343295D01*
Y343339D01*
Y343382D01*
X402644D01*
Y343426D01*
Y343469D01*
Y343513D01*
X402688D01*
Y343556D01*
Y343600D01*
Y343643D01*
X402731D01*
Y343687D01*
X402688D01*
Y343730D01*
X402775D01*
Y343774D01*
Y343817D01*
Y343861D01*
Y343905D01*
Y343948D01*
Y343992D01*
X402818D01*
Y344035D01*
Y344079D01*
Y344122D01*
X402862D01*
Y344166D01*
Y344209D01*
X402906D01*
Y344253D01*
Y344296D01*
Y344340D01*
X402949D01*
Y344384D01*
Y344427D01*
Y344471D01*
X402993D01*
Y344514D01*
Y344558D01*
X403036D01*
Y344601D01*
Y344645D01*
Y344688D01*
Y344732D01*
X403080D01*
Y344775D01*
Y344819D01*
Y344862D01*
X403123D01*
Y344906D01*
Y344949D01*
X403080D01*
Y344993D01*
X403167D01*
Y345037D01*
Y345080D01*
Y345124D01*
Y345167D01*
Y345211D01*
X403210D01*
Y345254D01*
Y345298D01*
Y345341D01*
X403254D01*
Y345385D01*
Y345428D01*
X403297D01*
Y345472D01*
Y345515D01*
Y345559D01*
X403341D01*
Y345602D01*
Y345646D01*
Y345689D01*
X401425D01*
Y345733D01*
Y345777D01*
Y345820D01*
X401512D01*
Y345864D01*
Y345907D01*
X401469D01*
Y345951D01*
X401512D01*
Y345994D01*
Y346038D01*
Y346081D01*
X401556D01*
Y346125D01*
Y346168D01*
Y346212D01*
X401600D01*
Y346255D01*
Y346299D01*
Y346342D01*
X401643D01*
Y346386D01*
Y346429D01*
X401687D01*
Y346473D01*
Y346516D01*
Y346560D01*
X401730D01*
Y346604D01*
Y346647D01*
Y346691D01*
X401774D01*
Y346734D01*
Y346778D01*
X401817D01*
Y346821D01*
Y346865D01*
Y346908D01*
X401861D01*
Y346952D01*
Y346995D01*
Y347039D01*
X401904D01*
Y347082D01*
Y347126D01*
X401861D01*
Y347169D01*
X401948D01*
Y347213D01*
Y347257D01*
Y347300D01*
Y347344D01*
Y347387D01*
Y347431D01*
X401991D01*
Y347474D01*
Y347518D01*
X407868D01*
Y347474D01*
D02*
G37*
G36*
X391239Y347605D02*
Y347561D01*
X391674D01*
Y347518D01*
X391805D01*
Y347474D01*
X391979D01*
Y347431D01*
X392066D01*
Y347387D01*
X392197D01*
Y347344D01*
X392284D01*
Y347300D01*
X392371D01*
Y347257D01*
X392458D01*
Y347213D01*
X392501D01*
Y347169D01*
X392632D01*
Y347126D01*
X392719D01*
Y347082D01*
Y347039D01*
X392806D01*
Y346995D01*
X392850D01*
Y346952D01*
X392893D01*
Y346908D01*
X392937D01*
Y346865D01*
X392980D01*
Y346821D01*
X393024D01*
Y346778D01*
X393067D01*
Y346734D01*
X393154D01*
Y346691D01*
Y346647D01*
X393241D01*
Y346604D01*
X393198D01*
Y346560D01*
X393241D01*
Y346516D01*
X393328D01*
Y346473D01*
Y346429D01*
Y346386D01*
X393372D01*
Y346342D01*
X393416D01*
Y346299D01*
Y346255D01*
X393459D01*
Y346212D01*
X393503D01*
Y346168D01*
Y346125D01*
Y346081D01*
X393546D01*
Y346038D01*
Y345994D01*
X393590D01*
Y345951D01*
Y345907D01*
Y345864D01*
Y345820D01*
Y345777D01*
X393677D01*
Y345733D01*
X393633D01*
Y345689D01*
Y345646D01*
Y345602D01*
X393677D01*
Y345559D01*
Y345515D01*
Y345472D01*
Y345428D01*
Y345385D01*
Y345341D01*
X393720D01*
Y345298D01*
Y345254D01*
Y345211D01*
Y345167D01*
Y345124D01*
Y345080D01*
Y345037D01*
Y344993D01*
Y344949D01*
Y344906D01*
Y344862D01*
Y344819D01*
Y344775D01*
Y344732D01*
Y344688D01*
Y344645D01*
X393677D01*
Y344601D01*
Y344558D01*
Y344514D01*
Y344471D01*
Y344427D01*
Y344384D01*
Y344340D01*
Y344296D01*
X393633D01*
Y344253D01*
Y344209D01*
Y344166D01*
X393677D01*
Y344122D01*
X393590D01*
Y344079D01*
Y344035D01*
Y343992D01*
Y343948D01*
Y343905D01*
Y343861D01*
Y343817D01*
Y343774D01*
X393546D01*
Y343730D01*
Y343687D01*
Y343643D01*
X393503D01*
Y343600D01*
Y343556D01*
Y343513D01*
X393459D01*
Y343469D01*
Y343426D01*
Y343382D01*
X393416D01*
Y343339D01*
Y343295D01*
X393372D01*
Y343252D01*
Y343208D01*
X393328D01*
Y343165D01*
Y343121D01*
Y343077D01*
X393285D01*
Y343034D01*
Y342990D01*
X393241D01*
Y342947D01*
X393198D01*
Y342903D01*
Y342860D01*
X393241D01*
Y342816D01*
X393154D01*
Y342773D01*
Y342729D01*
Y342686D01*
Y342642D01*
X393111D01*
Y342599D01*
Y342555D01*
X393067D01*
Y342512D01*
X393024D01*
Y342468D01*
X392980D01*
Y342425D01*
Y342381D01*
X392937D01*
Y342337D01*
Y342294D01*
Y342250D01*
X392850D01*
Y342207D01*
Y342163D01*
X392806D01*
Y342120D01*
X392850D01*
Y342076D01*
X392719D01*
Y342033D01*
Y341989D01*
Y341946D01*
X392675D01*
Y341902D01*
Y341859D01*
X392632D01*
Y341815D01*
X392588D01*
Y341772D01*
X392545D01*
Y341728D01*
Y341685D01*
X392501D01*
Y341641D01*
X392458D01*
Y341597D01*
X392371D01*
Y341554D01*
X392414D01*
Y341510D01*
X392371D01*
Y341467D01*
X392327D01*
Y341423D01*
X392284D01*
Y341380D01*
X392240D01*
Y341336D01*
X392197D01*
Y341293D01*
X392153D01*
Y341249D01*
X392110D01*
Y341206D01*
Y341162D01*
Y341119D01*
Y341075D01*
Y341032D01*
X392153D01*
Y340988D01*
Y340945D01*
Y340901D01*
X392197D01*
Y340857D01*
Y340814D01*
Y340770D01*
Y340727D01*
X392240D01*
Y340683D01*
Y340640D01*
Y340596D01*
X392284D01*
Y340553D01*
Y340509D01*
Y340466D01*
X392327D01*
Y340422D01*
Y340378D01*
Y340335D01*
Y340292D01*
Y340248D01*
Y340204D01*
X392371D01*
Y340161D01*
Y340117D01*
Y340074D01*
X392414D01*
Y340030D01*
Y339987D01*
Y339943D01*
Y339900D01*
X392458D01*
Y339856D01*
Y339813D01*
X392414D01*
Y339769D01*
Y339726D01*
Y339682D01*
X392371D01*
Y339638D01*
X392414D01*
Y339595D01*
X390325D01*
Y339638D01*
X390281D01*
Y339682D01*
Y339726D01*
Y339769D01*
Y339813D01*
Y339856D01*
Y339900D01*
X390020D01*
Y339856D01*
X389933D01*
Y339813D01*
X389802D01*
Y339769D01*
X389715D01*
Y339726D01*
X389585D01*
Y339682D01*
X389411D01*
Y339638D01*
X389323D01*
Y339595D01*
X389106D01*
Y339551D01*
X388888D01*
Y339508D01*
X387278D01*
Y339551D01*
X387103D01*
Y339595D01*
X386973D01*
Y339638D01*
X386842D01*
Y339682D01*
X386755D01*
Y339726D01*
X386668D01*
Y339769D01*
X386538D01*
Y339813D01*
X386451D01*
Y339856D01*
X386363D01*
Y339900D01*
X386276D01*
Y339943D01*
X386189D01*
Y339987D01*
X386146D01*
Y340030D01*
X386102D01*
Y340074D01*
X386015D01*
Y340117D01*
Y340161D01*
X385928D01*
Y340204D01*
X385884D01*
Y340248D01*
X385841D01*
Y340292D01*
X385798D01*
Y340335D01*
X385754D01*
Y340378D01*
X385710D01*
Y340422D01*
X385667D01*
Y340466D01*
X385623D01*
Y340509D01*
X385580D01*
Y340553D01*
Y340596D01*
X385536D01*
Y340640D01*
X385493D01*
Y340683D01*
X385536D01*
Y340727D01*
X385493D01*
Y340770D01*
X385449D01*
Y340814D01*
X385406D01*
Y340857D01*
Y340901D01*
X385362D01*
Y340945D01*
Y340988D01*
Y341032D01*
X385319D01*
Y341075D01*
Y341119D01*
X385275D01*
Y341162D01*
Y341206D01*
Y341249D01*
X385232D01*
Y341293D01*
Y341336D01*
Y341380D01*
X385188D01*
Y341423D01*
Y341467D01*
Y341510D01*
Y341554D01*
X385144D01*
Y341597D01*
Y341641D01*
Y341685D01*
Y341728D01*
Y341772D01*
Y341815D01*
Y341859D01*
Y341902D01*
Y341946D01*
Y341989D01*
Y342033D01*
Y342076D01*
Y342120D01*
Y342163D01*
Y342207D01*
Y342250D01*
Y342294D01*
Y342337D01*
Y342381D01*
Y342425D01*
Y342468D01*
Y342512D01*
Y342555D01*
Y342599D01*
Y342642D01*
Y342686D01*
Y342729D01*
X385188D01*
Y342773D01*
Y342816D01*
Y342860D01*
Y342903D01*
X385232D01*
Y342947D01*
Y342990D01*
Y343034D01*
Y343077D01*
Y343121D01*
X385275D01*
Y343165D01*
Y343208D01*
Y343252D01*
X385319D01*
Y343295D01*
Y343339D01*
Y343382D01*
X385362D01*
Y343426D01*
Y343469D01*
Y343513D01*
X385406D01*
Y343556D01*
Y343600D01*
Y343643D01*
X385449D01*
Y343687D01*
Y343730D01*
X385493D01*
Y343774D01*
Y343817D01*
Y343861D01*
X385536D01*
Y343905D01*
X385493D01*
Y343948D01*
X385580D01*
Y343992D01*
Y344035D01*
Y344079D01*
Y344122D01*
X385623D01*
Y344166D01*
Y344209D01*
X385667D01*
Y344253D01*
Y344296D01*
X385710D01*
Y344340D01*
Y344384D01*
X385754D01*
Y344427D01*
Y344471D01*
X385798D01*
Y344514D01*
Y344558D01*
X385841D01*
Y344601D01*
X385884D01*
Y344645D01*
Y344688D01*
X385928D01*
Y344732D01*
X385884D01*
Y344775D01*
X385928D01*
Y344819D01*
X386015D01*
Y344862D01*
Y344906D01*
Y344949D01*
X386059D01*
Y344993D01*
X386102D01*
Y345037D01*
X386146D01*
Y345080D01*
Y345124D01*
X386189D01*
Y345167D01*
X386233D01*
Y345211D01*
Y345254D01*
X386276D01*
Y345298D01*
X386320D01*
Y345341D01*
X386363D01*
Y345385D01*
Y345428D01*
X386407D01*
Y345472D01*
X386451D01*
Y345515D01*
X386494D01*
Y345559D01*
Y345602D01*
X386538D01*
Y345646D01*
X386581D01*
Y345689D01*
X386625D01*
Y345733D01*
X386668D01*
Y345777D01*
X386712D01*
Y345820D01*
X386755D01*
Y345864D01*
X386799D01*
Y345907D01*
X386842D01*
Y345951D01*
X386886D01*
Y345994D01*
X386929D01*
Y346038D01*
X386973D01*
Y346081D01*
X387016D01*
Y346125D01*
X387060D01*
Y346168D01*
X387103D01*
Y346212D01*
X387147D01*
Y346255D01*
X387234D01*
Y346299D01*
Y346342D01*
X387321D01*
Y346386D01*
X387365D01*
Y346429D01*
X387452D01*
Y346473D01*
X387495D01*
Y346516D01*
X387539D01*
Y346560D01*
X387582D01*
Y346604D01*
X387669D01*
Y346647D01*
X387756D01*
Y346691D01*
Y346734D01*
X387887D01*
Y346778D01*
X387930D01*
Y346821D01*
X388018D01*
Y346865D01*
X388061D01*
Y346908D01*
X388148D01*
Y346952D01*
X388235D01*
Y346995D01*
X388322D01*
Y347039D01*
X388409D01*
Y347082D01*
X388496D01*
Y347126D01*
X388583D01*
Y347169D01*
X388758D01*
Y347213D01*
X388801D01*
Y347257D01*
X388932D01*
Y347300D01*
X389062D01*
Y347344D01*
X389149D01*
Y347387D01*
X389323D01*
Y347431D01*
X389454D01*
Y347474D01*
X389585D01*
Y347518D01*
X389759D01*
Y347561D01*
X390281D01*
Y347605D01*
Y347648D01*
X391239D01*
Y347605D01*
D02*
G37*
G36*
X418969Y338811D02*
X418925D01*
Y338768D01*
X418969D01*
Y338724D01*
X418882D01*
Y338681D01*
Y338637D01*
Y338594D01*
Y338550D01*
Y338507D01*
X418838D01*
Y338463D01*
Y338420D01*
Y338376D01*
X418795D01*
Y338333D01*
Y338289D01*
Y338246D01*
X418751D01*
Y338202D01*
Y338158D01*
X418708D01*
Y338115D01*
Y338071D01*
Y338028D01*
X418664D01*
Y337984D01*
Y337941D01*
Y337897D01*
X418620D01*
Y337854D01*
Y337810D01*
Y337767D01*
X418577D01*
Y337723D01*
Y337680D01*
Y337636D01*
X418533D01*
Y337593D01*
X418577D01*
Y337549D01*
X418490D01*
Y337505D01*
Y337462D01*
X418533D01*
Y337418D01*
X418490D01*
Y337375D01*
Y337331D01*
Y337288D01*
X418446D01*
Y337244D01*
Y337201D01*
Y337157D01*
X418403D01*
Y337114D01*
Y337070D01*
Y337027D01*
X418359D01*
Y336983D01*
Y336940D01*
Y336896D01*
X418316D01*
Y336852D01*
Y336809D01*
X418272D01*
Y336765D01*
Y336722D01*
Y336678D01*
X418229D01*
Y336635D01*
Y336591D01*
Y336548D01*
X418185D01*
Y336504D01*
Y336461D01*
X418142D01*
Y336417D01*
Y336374D01*
Y336330D01*
X418098D01*
Y336286D01*
Y336243D01*
X418142D01*
Y336199D01*
X418055D01*
Y336156D01*
Y336112D01*
Y336069D01*
Y336025D01*
Y335982D01*
X418011D01*
Y335938D01*
Y335895D01*
Y335851D01*
X417968D01*
Y335808D01*
Y335764D01*
Y335721D01*
Y335677D01*
X417924D01*
Y335634D01*
Y335590D01*
Y335546D01*
X417880D01*
Y335503D01*
Y335459D01*
X417837D01*
Y335416D01*
Y335372D01*
Y335329D01*
X417793D01*
Y335285D01*
Y335242D01*
Y335198D01*
X417750D01*
Y335155D01*
Y335111D01*
Y335068D01*
X417706D01*
Y335024D01*
X417750D01*
Y334981D01*
X417663D01*
Y334937D01*
Y334893D01*
Y334850D01*
Y334806D01*
Y334763D01*
Y334719D01*
X417619D01*
Y334676D01*
Y334632D01*
X417576D01*
Y334589D01*
Y334545D01*
Y334502D01*
X382489D01*
Y334545D01*
Y334589D01*
X382576D01*
Y334632D01*
Y334676D01*
Y334719D01*
Y334763D01*
Y334806D01*
Y334850D01*
X382620D01*
Y334893D01*
Y334937D01*
Y334981D01*
X382663D01*
Y335024D01*
Y335068D01*
X382707D01*
Y335111D01*
Y335155D01*
Y335198D01*
X382750D01*
Y335242D01*
Y335285D01*
Y335329D01*
X382794D01*
Y335372D01*
Y335416D01*
X382837D01*
Y335459D01*
Y335503D01*
Y335546D01*
X382881D01*
Y335590D01*
Y335634D01*
Y335677D01*
X382924D01*
Y335721D01*
Y335764D01*
Y335808D01*
X382968D01*
Y335851D01*
Y335895D01*
Y335938D01*
Y335982D01*
Y336025D01*
Y336069D01*
X383011D01*
Y336112D01*
Y336156D01*
Y336199D01*
X383055D01*
Y336243D01*
Y336286D01*
Y336330D01*
X383099D01*
Y336374D01*
Y336417D01*
X383142D01*
Y336461D01*
Y336504D01*
Y336548D01*
X383186D01*
Y336591D01*
Y336635D01*
Y336678D01*
X383229D01*
Y336722D01*
Y336765D01*
X383273D01*
Y336809D01*
Y336852D01*
Y336896D01*
X383316D01*
Y336940D01*
Y336983D01*
Y337027D01*
X383360D01*
Y337070D01*
Y337114D01*
Y337157D01*
X383403D01*
Y337201D01*
Y337244D01*
Y337288D01*
Y337331D01*
Y337375D01*
X383490D01*
Y337418D01*
Y337462D01*
X383447D01*
Y337505D01*
X383490D01*
Y337549D01*
Y337593D01*
Y337636D01*
X383534D01*
Y337680D01*
Y337723D01*
Y337767D01*
X383577D01*
Y337810D01*
Y337854D01*
Y337897D01*
X383621D01*
Y337941D01*
Y337984D01*
Y338028D01*
X383664D01*
Y338071D01*
Y338115D01*
X383708D01*
Y338158D01*
Y338202D01*
Y338246D01*
X383752D01*
Y338289D01*
Y338333D01*
Y338376D01*
X383795D01*
Y338420D01*
Y338463D01*
Y338507D01*
Y338550D01*
Y338594D01*
X383839D01*
Y338637D01*
Y338681D01*
Y338724D01*
X383926D01*
Y338768D01*
Y338811D01*
X383882D01*
Y338855D01*
X418969D01*
Y338811D01*
D02*
G37*
%LPC*%
G36*
X415573Y344862D02*
X413048D01*
Y344819D01*
X412961D01*
Y344775D01*
Y344732D01*
Y344688D01*
Y344645D01*
Y344601D01*
X412918D01*
Y344558D01*
Y344514D01*
Y344471D01*
X412874D01*
Y344427D01*
Y344384D01*
Y344340D01*
X412831D01*
Y344296D01*
Y344253D01*
X412787D01*
Y344209D01*
Y344166D01*
Y344122D01*
X412744D01*
Y344079D01*
Y344035D01*
Y343992D01*
X412700D01*
Y343948D01*
Y343905D01*
Y343861D01*
X412657D01*
Y343817D01*
Y343774D01*
Y343730D01*
X412613D01*
Y343687D01*
Y343643D01*
Y343600D01*
X412570D01*
Y343556D01*
Y343513D01*
Y343469D01*
X412526D01*
Y343426D01*
Y343382D01*
Y343339D01*
Y343295D01*
Y343252D01*
X412439D01*
Y343208D01*
Y343165D01*
X412483D01*
Y343121D01*
X412439D01*
Y343077D01*
Y343034D01*
X412395D01*
Y342990D01*
Y342947D01*
Y342903D01*
X412352D01*
Y342860D01*
Y342816D01*
Y342773D01*
X412308D01*
Y342729D01*
Y342686D01*
Y342642D01*
X412265D01*
Y342599D01*
Y342555D01*
Y342512D01*
X412221D01*
Y342468D01*
Y342425D01*
X412178D01*
Y342381D01*
Y342337D01*
Y342294D01*
Y342250D01*
X414746D01*
Y342294D01*
Y342337D01*
Y342381D01*
X414790D01*
Y342425D01*
Y342468D01*
X414833D01*
Y342512D01*
Y342555D01*
Y342599D01*
X414877D01*
Y342642D01*
Y342686D01*
Y342729D01*
X414920D01*
Y342773D01*
Y342816D01*
X414964D01*
Y342860D01*
Y342903D01*
Y342947D01*
X415007D01*
Y342990D01*
Y343034D01*
Y343077D01*
X415051D01*
Y343121D01*
Y343165D01*
Y343208D01*
X415094D01*
Y343252D01*
Y343295D01*
X415138D01*
Y343339D01*
Y343382D01*
Y343426D01*
X415181D01*
Y343469D01*
Y343513D01*
Y343556D01*
Y343600D01*
Y343643D01*
Y343687D01*
Y343730D01*
X415269D01*
Y343774D01*
X415225D01*
Y343817D01*
X415269D01*
Y343861D01*
Y343905D01*
Y343948D01*
X415312D01*
Y343992D01*
Y344035D01*
X415356D01*
Y344079D01*
Y344122D01*
Y344166D01*
X415399D01*
Y344209D01*
Y344253D01*
Y344296D01*
X415443D01*
Y344340D01*
Y344384D01*
Y344427D01*
X415486D01*
Y344471D01*
Y344514D01*
Y344558D01*
X415530D01*
Y344601D01*
Y344645D01*
X415573D01*
Y344688D01*
Y344732D01*
Y344775D01*
Y344819D01*
Y344862D01*
D02*
G37*
G36*
X390630Y345646D02*
X389585D01*
Y345602D01*
X389541D01*
Y345559D01*
X389411D01*
Y345515D01*
X389193D01*
Y345472D01*
X389149D01*
Y345428D01*
X389019D01*
Y345385D01*
X388975D01*
Y345341D01*
X388888D01*
Y345298D01*
X388801D01*
Y345254D01*
X388758D01*
Y345211D01*
X388671D01*
Y345167D01*
X388627D01*
Y345124D01*
X388540D01*
Y345080D01*
X388496D01*
Y345037D01*
X388409D01*
Y344993D01*
X388366D01*
Y344949D01*
X388322D01*
Y344906D01*
X388279D01*
Y344862D01*
X388235D01*
Y344819D01*
X388192D01*
Y344775D01*
X388148D01*
Y344732D01*
X388105D01*
Y344688D01*
X388061D01*
Y344645D01*
Y344601D01*
X388018D01*
Y344558D01*
X387974D01*
Y344514D01*
X387930D01*
Y344471D01*
Y344427D01*
X387887D01*
Y344384D01*
X387843D01*
Y344340D01*
Y344296D01*
X387756D01*
Y344253D01*
Y344209D01*
Y344166D01*
X387713D01*
Y344122D01*
X387669D01*
Y344079D01*
Y344035D01*
X387626D01*
Y343992D01*
Y343948D01*
Y343905D01*
Y343861D01*
X387539D01*
Y343817D01*
Y343774D01*
Y343730D01*
Y343687D01*
X387495D01*
Y343643D01*
Y343600D01*
X387452D01*
Y343556D01*
Y343513D01*
Y343469D01*
X387408D01*
Y343426D01*
Y343382D01*
Y343339D01*
X387365D01*
Y343295D01*
Y343252D01*
Y343208D01*
Y343165D01*
Y343121D01*
X387321D01*
Y343077D01*
Y343034D01*
Y342990D01*
Y342947D01*
Y342903D01*
Y342860D01*
Y342816D01*
Y342773D01*
Y342729D01*
Y342686D01*
Y342642D01*
Y342599D01*
Y342555D01*
Y342512D01*
Y342468D01*
Y342425D01*
Y342381D01*
X387365D01*
Y342337D01*
Y342294D01*
Y342250D01*
X387408D01*
Y342207D01*
Y342163D01*
Y342120D01*
X387452D01*
Y342076D01*
Y342033D01*
X387495D01*
Y341989D01*
Y341946D01*
X387539D01*
Y341902D01*
Y341859D01*
X387626D01*
Y341815D01*
Y341772D01*
X387713D01*
Y341728D01*
Y341685D01*
X387800D01*
Y341641D01*
X387843D01*
Y341597D01*
X387887D01*
Y341554D01*
X388061D01*
Y341510D01*
Y341467D01*
X388279D01*
Y341423D01*
X388453D01*
Y341380D01*
X388975D01*
Y341423D01*
X389236D01*
Y341467D01*
X389498D01*
Y341510D01*
Y341554D01*
X389715D01*
Y341597D01*
X389759D01*
Y341641D01*
X389846D01*
Y341685D01*
X389890D01*
Y341728D01*
Y341772D01*
X389846D01*
Y341815D01*
Y341859D01*
Y341902D01*
Y341946D01*
Y341989D01*
Y342033D01*
Y342076D01*
Y342120D01*
X389802D01*
Y342163D01*
Y342207D01*
Y342250D01*
Y342294D01*
Y342337D01*
X389759D01*
Y342381D01*
Y342425D01*
Y342468D01*
Y342512D01*
X389715D01*
Y342555D01*
Y342599D01*
Y342642D01*
Y342686D01*
Y342729D01*
X389672D01*
Y342773D01*
Y342816D01*
Y342860D01*
Y342903D01*
Y342947D01*
Y342990D01*
Y343034D01*
X389715D01*
Y343077D01*
Y343121D01*
Y343165D01*
X389759D01*
Y343208D01*
X391283D01*
Y343252D01*
X391326D01*
Y343295D01*
Y343339D01*
X391370D01*
Y343382D01*
Y343426D01*
Y343469D01*
X391413D01*
Y343513D01*
Y343556D01*
Y343600D01*
X391457D01*
Y343643D01*
Y343687D01*
Y343730D01*
X391500D01*
Y343774D01*
Y343817D01*
Y343861D01*
Y343905D01*
X391544D01*
Y343948D01*
Y343992D01*
Y344035D01*
Y344079D01*
Y344122D01*
Y344166D01*
Y344209D01*
Y344253D01*
X391587D01*
Y344296D01*
Y344340D01*
Y344384D01*
Y344427D01*
X391544D01*
Y344471D01*
Y344514D01*
Y344558D01*
Y344601D01*
Y344645D01*
Y344688D01*
X391500D01*
Y344732D01*
Y344775D01*
Y344819D01*
X391457D01*
Y344862D01*
Y344906D01*
Y344949D01*
X391413D01*
Y344993D01*
Y345037D01*
X391370D01*
Y345080D01*
Y345124D01*
X391283D01*
Y345167D01*
X391239D01*
Y345211D01*
Y345254D01*
X391195D01*
Y345298D01*
X391152D01*
Y345341D01*
X391065D01*
Y345385D01*
X391021D01*
Y345428D01*
X390978D01*
Y345472D01*
X390934D01*
Y345515D01*
X390760D01*
Y345559D01*
X390673D01*
Y345602D01*
X390630D01*
Y345646D01*
D02*
G37*
G36*
X403733Y338158D02*
X402818D01*
Y338115D01*
X402731D01*
Y338071D01*
X402644D01*
Y338028D01*
X402514D01*
Y337984D01*
X402470D01*
Y337941D01*
X402383D01*
Y337897D01*
X402340D01*
Y337854D01*
X402296D01*
Y337810D01*
X402209D01*
Y337767D01*
Y337723D01*
X402122D01*
Y337680D01*
X402078D01*
Y337636D01*
Y337593D01*
X402035D01*
Y337549D01*
X401991D01*
Y337505D01*
Y337462D01*
X401948D01*
Y337418D01*
Y337375D01*
X401904D01*
Y337331D01*
Y337288D01*
X401861D01*
Y337244D01*
Y337201D01*
X401817D01*
Y337157D01*
Y337114D01*
Y337070D01*
Y337027D01*
Y336983D01*
Y336940D01*
Y336896D01*
Y336852D01*
Y336809D01*
Y336765D01*
Y336722D01*
X401861D01*
Y336678D01*
Y336635D01*
X401904D01*
Y336591D01*
X401948D01*
Y336548D01*
X401991D01*
Y336504D01*
X402078D01*
Y336461D01*
X402166D01*
Y336417D01*
X402252D01*
Y336374D01*
X402427D01*
Y336330D01*
X402949D01*
Y336286D01*
X402993D01*
Y336243D01*
X403080D01*
Y336199D01*
Y336156D01*
Y336112D01*
Y336069D01*
Y336025D01*
X403036D01*
Y335982D01*
X402993D01*
Y335938D01*
X402906D01*
Y335895D01*
X402862D01*
Y335851D01*
X402340D01*
Y335895D01*
X402252D01*
Y335938D01*
Y335982D01*
X402209D01*
Y336025D01*
Y336069D01*
Y336112D01*
X401469D01*
Y336069D01*
X401425D01*
Y336025D01*
Y335982D01*
Y335938D01*
X401382D01*
Y335895D01*
Y335851D01*
Y335808D01*
Y335764D01*
Y335721D01*
X401425D01*
Y335677D01*
Y335634D01*
Y335590D01*
Y335546D01*
X401469D01*
Y335503D01*
X401512D01*
Y335459D01*
Y335416D01*
X401600D01*
Y335372D01*
X401643D01*
Y335329D01*
X401730D01*
Y335285D01*
X401817D01*
Y335242D01*
X401904D01*
Y335198D01*
X401991D01*
Y335155D01*
X402688D01*
Y335198D01*
X402862D01*
Y335242D01*
X402993D01*
Y335285D01*
X403080D01*
Y335329D01*
X403123D01*
Y335372D01*
X403210D01*
Y335416D01*
X403341D01*
Y335459D01*
X403384D01*
Y335503D01*
X403471D01*
Y335546D01*
Y335590D01*
X403515D01*
Y335634D01*
X403558D01*
Y335677D01*
X403602D01*
Y335721D01*
X403646D01*
Y335764D01*
Y335808D01*
X403733D01*
Y335851D01*
Y335895D01*
Y335938D01*
X403776D01*
Y335982D01*
X403820D01*
Y336025D01*
Y336069D01*
Y336112D01*
Y336156D01*
X403863D01*
Y336199D01*
Y336243D01*
Y336286D01*
Y336330D01*
Y336374D01*
Y336417D01*
Y336461D01*
Y336504D01*
Y336548D01*
Y336591D01*
X403820D01*
Y336635D01*
Y336678D01*
X403776D01*
Y336722D01*
X403733D01*
Y336765D01*
X403646D01*
Y336809D01*
X403558D01*
Y336852D01*
X403515D01*
Y336896D01*
X403167D01*
Y336940D01*
X402862D01*
Y336983D01*
X402688D01*
Y337027D01*
X402601D01*
Y337070D01*
Y337114D01*
Y337157D01*
Y337201D01*
Y337244D01*
Y337288D01*
Y337331D01*
X402644D01*
Y337375D01*
X402688D01*
Y337418D01*
X402775D01*
Y337462D01*
X402862D01*
Y337505D01*
X403080D01*
Y337549D01*
X403123D01*
Y337505D01*
X403297D01*
Y337462D01*
X403341D01*
Y337418D01*
X403384D01*
Y337375D01*
X403428D01*
Y337331D01*
Y337288D01*
Y337244D01*
Y337201D01*
X404081D01*
Y337244D01*
X404124D01*
Y337288D01*
Y337331D01*
Y337375D01*
Y337418D01*
X404168D01*
Y337462D01*
Y337505D01*
Y337549D01*
Y337593D01*
Y337636D01*
X404124D01*
Y337680D01*
Y337723D01*
Y337767D01*
X404081D01*
Y337810D01*
Y337854D01*
X404037D01*
Y337897D01*
Y337941D01*
X403950D01*
Y337984D01*
Y338028D01*
X403907D01*
Y338071D01*
X403776D01*
Y338115D01*
X403733D01*
Y338158D01*
D02*
G37*
G36*
X387495D02*
X387191D01*
Y338115D01*
X387147D01*
Y338071D01*
X387103D01*
Y338028D01*
X387060D01*
Y337984D01*
X387016D01*
Y337941D01*
X386929D01*
Y337897D01*
X386886D01*
Y337854D01*
X386842D01*
Y337810D01*
X386799D01*
Y337767D01*
X386712D01*
Y337723D01*
X386668D01*
Y337680D01*
Y337636D01*
X386581D01*
Y337593D01*
X386494D01*
Y337549D01*
X386451D01*
Y337505D01*
X386407D01*
Y337462D01*
X386363D01*
Y337418D01*
X386276D01*
Y337375D01*
Y337331D01*
X386233D01*
Y337288D01*
X386102D01*
Y337244D01*
Y337201D01*
X386059D01*
Y337157D01*
X386015D01*
Y337114D01*
X385928D01*
Y337070D01*
X385884D01*
Y337027D01*
X385841D01*
Y336983D01*
X385798D01*
Y336940D01*
X385710D01*
Y336896D01*
X385623D01*
Y336940D01*
X385580D01*
Y336983D01*
Y337027D01*
Y337070D01*
Y337114D01*
X385493D01*
Y337157D01*
X385536D01*
Y337201D01*
X385449D01*
Y337244D01*
Y337288D01*
X385406D01*
Y337331D01*
Y337375D01*
X385362D01*
Y337418D01*
Y337462D01*
X385319D01*
Y337505D01*
X385275D01*
Y337549D01*
Y337593D01*
X385232D01*
Y337636D01*
Y337680D01*
X385188D01*
Y337723D01*
X385144D01*
Y337767D01*
Y337810D01*
Y337854D01*
X385057D01*
Y337897D01*
Y337941D01*
X385014D01*
Y337984D01*
Y338028D01*
Y338071D01*
X384970D01*
Y338115D01*
Y338158D01*
X384622D01*
Y338115D01*
Y338071D01*
Y338028D01*
Y337984D01*
Y337941D01*
X384579D01*
Y337897D01*
X384535D01*
Y337854D01*
X384579D01*
Y337810D01*
Y337767D01*
X384491D01*
Y337723D01*
Y337680D01*
Y337636D01*
Y337593D01*
Y337549D01*
X384448D01*
Y337505D01*
Y337462D01*
Y337418D01*
X384404D01*
Y337375D01*
Y337331D01*
Y337288D01*
X384361D01*
Y337244D01*
Y337201D01*
X384317D01*
Y337157D01*
Y337114D01*
Y337070D01*
X384274D01*
Y337027D01*
Y336983D01*
Y336940D01*
X384230D01*
Y336896D01*
Y336852D01*
X384187D01*
Y336809D01*
Y336765D01*
Y336722D01*
Y336678D01*
Y336635D01*
Y336591D01*
X384100D01*
Y336548D01*
Y336504D01*
X384143D01*
Y336461D01*
X384100D01*
Y336417D01*
Y336374D01*
X384056D01*
Y336330D01*
Y336286D01*
Y336243D01*
Y336199D01*
X384013D01*
Y336156D01*
Y336112D01*
Y336069D01*
X383969D01*
Y336025D01*
Y335982D01*
X383926D01*
Y335938D01*
Y335895D01*
Y335851D01*
X383882D01*
Y335808D01*
Y335764D01*
Y335721D01*
X383839D01*
Y335677D01*
Y335634D01*
Y335590D01*
X383795D01*
Y335546D01*
Y335503D01*
X383752D01*
Y335459D01*
Y335416D01*
Y335372D01*
X383708D01*
Y335329D01*
Y335285D01*
Y335242D01*
Y335198D01*
X384491D01*
Y335242D01*
Y335285D01*
Y335329D01*
X384535D01*
Y335372D01*
Y335416D01*
X384579D01*
Y335459D01*
Y335503D01*
Y335546D01*
X384622D01*
Y335590D01*
Y335634D01*
Y335677D01*
X384666D01*
Y335721D01*
Y335764D01*
Y335808D01*
X384709D01*
Y335851D01*
Y335895D01*
Y335938D01*
X384753D01*
Y335982D01*
Y336025D01*
Y336069D01*
Y336112D01*
Y336156D01*
Y336199D01*
X384796D01*
Y336243D01*
Y336286D01*
Y336330D01*
X384840D01*
Y336374D01*
Y336417D01*
X384883D01*
Y336461D01*
Y336504D01*
X384927D01*
Y336461D01*
Y336417D01*
X384970D01*
Y336374D01*
X385014D01*
Y336330D01*
Y336286D01*
Y336243D01*
X385057D01*
Y336199D01*
X385101D01*
Y336156D01*
Y336112D01*
X385144D01*
Y336069D01*
X385188D01*
Y336025D01*
Y335982D01*
X385232D01*
Y335938D01*
X385275D01*
Y335895D01*
Y335851D01*
X385406D01*
Y335895D01*
X385449D01*
Y335938D01*
X385493D01*
Y335982D01*
X385580D01*
Y336025D01*
X385623D01*
Y336069D01*
X385667D01*
Y336112D01*
X385710D01*
Y336156D01*
X385798D01*
Y336199D01*
X385841D01*
Y336243D01*
X385884D01*
Y336286D01*
X385928D01*
Y336330D01*
X386015D01*
Y336374D01*
X386059D01*
Y336417D01*
X386146D01*
Y336461D01*
X386189D01*
Y336417D01*
Y336374D01*
X386146D01*
Y336330D01*
Y336286D01*
Y336243D01*
X386102D01*
Y336199D01*
Y336156D01*
Y336112D01*
X386059D01*
Y336069D01*
Y336025D01*
Y335982D01*
X386015D01*
Y335938D01*
Y335895D01*
X385972D01*
Y335851D01*
Y335808D01*
Y335764D01*
X385928D01*
Y335721D01*
Y335677D01*
X385972D01*
Y335634D01*
X385884D01*
Y335590D01*
Y335546D01*
X385841D01*
Y335503D01*
Y335459D01*
Y335416D01*
Y335372D01*
Y335329D01*
Y335285D01*
X385798D01*
Y335242D01*
Y335198D01*
X386538D01*
Y335242D01*
X386581D01*
Y335285D01*
Y335329D01*
Y335372D01*
X386625D01*
Y335416D01*
Y335459D01*
X386668D01*
Y335503D01*
Y335546D01*
Y335590D01*
X386712D01*
Y335634D01*
Y335677D01*
Y335721D01*
X386755D01*
Y335764D01*
Y335808D01*
X386799D01*
Y335851D01*
Y335895D01*
Y335938D01*
X386842D01*
Y335982D01*
Y336025D01*
Y336069D01*
Y336112D01*
Y336156D01*
Y336199D01*
X386929D01*
Y336243D01*
Y336286D01*
Y336330D01*
Y336374D01*
Y336417D01*
X386973D01*
Y336461D01*
Y336504D01*
Y336548D01*
X387016D01*
Y336591D01*
Y336635D01*
Y336678D01*
Y336722D01*
X387060D01*
Y336765D01*
Y336809D01*
X387103D01*
Y336852D01*
Y336896D01*
Y336940D01*
X387147D01*
Y336983D01*
Y337027D01*
Y337070D01*
X387191D01*
Y337114D01*
Y337157D01*
X387234D01*
Y337201D01*
Y337244D01*
Y337288D01*
Y337331D01*
Y337375D01*
Y337418D01*
X387278D01*
Y337462D01*
Y337505D01*
Y337549D01*
X387321D01*
Y337593D01*
Y337636D01*
X387365D01*
Y337680D01*
Y337723D01*
Y337767D01*
X387408D01*
Y337810D01*
Y337854D01*
Y337897D01*
X387452D01*
Y337941D01*
Y337984D01*
Y338028D01*
X387495D01*
Y338071D01*
Y338115D01*
Y338158D01*
D02*
G37*
G36*
X417750D02*
X415617D01*
Y338115D01*
X415530D01*
Y338071D01*
Y338028D01*
Y337984D01*
X415486D01*
Y337941D01*
Y337897D01*
X415530D01*
Y337854D01*
X415443D01*
Y337810D01*
Y337767D01*
Y337723D01*
Y337680D01*
Y337636D01*
Y337593D01*
X415399D01*
Y337549D01*
Y337505D01*
Y337462D01*
X416052D01*
Y337418D01*
Y337375D01*
Y337331D01*
X416009D01*
Y337288D01*
Y337244D01*
X415965D01*
Y337201D01*
Y337157D01*
Y337114D01*
Y337070D01*
Y337027D01*
Y336983D01*
X415878D01*
Y336940D01*
Y336896D01*
Y336852D01*
Y336809D01*
Y336765D01*
Y336722D01*
X415835D01*
Y336678D01*
Y336635D01*
Y336591D01*
X415791D01*
Y336548D01*
Y336504D01*
Y336461D01*
X415747D01*
Y336417D01*
Y336374D01*
X415704D01*
Y336330D01*
Y336286D01*
Y336243D01*
X415660D01*
Y336199D01*
Y336156D01*
Y336112D01*
X415617D01*
Y336069D01*
Y336025D01*
Y335982D01*
X415573D01*
Y335938D01*
Y335895D01*
X415530D01*
Y335851D01*
Y335808D01*
Y335764D01*
X415486D01*
Y335721D01*
Y335677D01*
X415530D01*
Y335634D01*
X415443D01*
Y335590D01*
Y335546D01*
Y335503D01*
Y335459D01*
Y335416D01*
Y335372D01*
X415399D01*
Y335329D01*
Y335285D01*
Y335242D01*
Y335198D01*
X416096D01*
Y335242D01*
Y335285D01*
X416139D01*
Y335329D01*
Y335372D01*
Y335416D01*
X416183D01*
Y335459D01*
Y335503D01*
Y335546D01*
X416226D01*
Y335590D01*
Y335634D01*
Y335677D01*
X416270D01*
Y335721D01*
Y335764D01*
Y335808D01*
X416313D01*
Y335851D01*
Y335895D01*
Y335938D01*
X416357D01*
Y335982D01*
Y336025D01*
X416400D01*
Y336069D01*
Y336112D01*
Y336156D01*
X416444D01*
Y336199D01*
Y336243D01*
Y336286D01*
X416488D01*
Y336330D01*
X416444D01*
Y336374D01*
X416531D01*
Y336417D01*
Y336461D01*
Y336504D01*
Y336548D01*
Y336591D01*
Y336635D01*
X416574D01*
Y336678D01*
Y336722D01*
Y336765D01*
X416618D01*
Y336809D01*
Y336852D01*
X416662D01*
Y336896D01*
Y336940D01*
Y336983D01*
Y337027D01*
X416705D01*
Y337070D01*
Y337114D01*
Y337157D01*
X416749D01*
Y337201D01*
Y337244D01*
X416792D01*
Y337288D01*
Y337331D01*
Y337375D01*
X416836D01*
Y337418D01*
Y337462D01*
X417532D01*
Y337505D01*
X417576D01*
Y337549D01*
Y337593D01*
X417619D01*
Y337636D01*
Y337680D01*
Y337723D01*
X417663D01*
Y337767D01*
Y337810D01*
Y337854D01*
X417706D01*
Y337897D01*
Y337941D01*
Y337984D01*
X417750D01*
Y338028D01*
Y338071D01*
Y338115D01*
Y338158D01*
D02*
G37*
G36*
X414050D02*
X412526D01*
Y338115D01*
Y338071D01*
Y338028D01*
Y337984D01*
X412439D01*
Y337941D01*
Y337897D01*
X412483D01*
Y337854D01*
X412439D01*
Y337810D01*
Y337767D01*
Y337723D01*
X412395D01*
Y337680D01*
Y337636D01*
Y337593D01*
X412352D01*
Y337549D01*
Y337505D01*
Y337462D01*
X412308D01*
Y337418D01*
Y337375D01*
Y337331D01*
X412265D01*
Y337288D01*
Y337244D01*
X412221D01*
Y337201D01*
Y337157D01*
Y337114D01*
X412178D01*
Y337070D01*
Y337027D01*
Y336983D01*
X412134D01*
Y336940D01*
Y336896D01*
Y336852D01*
Y336809D01*
Y336765D01*
X412047D01*
Y336722D01*
Y336678D01*
X412091D01*
Y336635D01*
X412004D01*
Y336591D01*
Y336548D01*
Y336504D01*
Y336461D01*
Y336417D01*
Y336374D01*
X411960D01*
Y336330D01*
Y336286D01*
X411917D01*
Y336243D01*
Y336199D01*
Y336156D01*
X411873D01*
Y336112D01*
Y336069D01*
Y336025D01*
Y335982D01*
X411830D01*
Y335938D01*
Y335895D01*
X411786D01*
Y335851D01*
Y335808D01*
Y335764D01*
X411742D01*
Y335721D01*
Y335677D01*
Y335634D01*
X411699D01*
Y335590D01*
Y335546D01*
Y335503D01*
X411655D01*
Y335459D01*
X411699D01*
Y335416D01*
X411612D01*
Y335372D01*
Y335329D01*
Y335285D01*
Y335242D01*
Y335198D01*
X412352D01*
Y335242D01*
Y335285D01*
Y335329D01*
X412395D01*
Y335372D01*
Y335416D01*
X412439D01*
Y335459D01*
Y335503D01*
Y335546D01*
X412483D01*
Y335590D01*
Y335634D01*
Y335677D01*
X412526D01*
Y335721D01*
Y335764D01*
Y335808D01*
X412570D01*
Y335851D01*
Y335895D01*
Y335938D01*
Y335982D01*
Y336025D01*
X412613D01*
Y336069D01*
X413005D01*
Y336025D01*
Y335982D01*
Y335938D01*
X413048D01*
Y335895D01*
Y335851D01*
Y335808D01*
X413092D01*
Y335764D01*
Y335721D01*
Y335677D01*
Y335634D01*
X413135D01*
Y335590D01*
Y335546D01*
Y335503D01*
Y335459D01*
X413179D01*
Y335416D01*
Y335372D01*
Y335329D01*
X413223D01*
Y335285D01*
Y335242D01*
Y335198D01*
X414050D01*
Y335242D01*
X414093D01*
Y335285D01*
Y335329D01*
Y335372D01*
Y335416D01*
X414050D01*
Y335459D01*
Y335503D01*
Y335546D01*
X414006D01*
Y335590D01*
Y335634D01*
Y335677D01*
X413963D01*
Y335721D01*
Y335764D01*
Y335808D01*
Y335851D01*
X413919D01*
Y335895D01*
Y335938D01*
Y335982D01*
Y336025D01*
Y336069D01*
Y336112D01*
X413832D01*
Y336156D01*
X413875D01*
Y336199D01*
X413832D01*
Y336243D01*
X413875D01*
Y336286D01*
X413919D01*
Y336330D01*
X414006D01*
Y336374D01*
X414050D01*
Y336417D01*
X414137D01*
Y336461D01*
Y336504D01*
X414224D01*
Y336548D01*
Y336591D01*
X414267D01*
Y336635D01*
Y336678D01*
X414354D01*
Y336722D01*
Y336765D01*
X414398D01*
Y336809D01*
Y336852D01*
X414441D01*
Y336896D01*
X414485D01*
Y336940D01*
Y336983D01*
Y337027D01*
X414529D01*
Y337070D01*
Y337114D01*
Y337157D01*
X414572D01*
Y337201D01*
Y337244D01*
Y337288D01*
X414616D01*
Y337331D01*
Y337375D01*
Y337418D01*
Y337462D01*
Y337505D01*
Y337549D01*
Y337593D01*
X414572D01*
Y337636D01*
Y337680D01*
Y337723D01*
X414529D01*
Y337767D01*
Y337810D01*
X414485D01*
Y337854D01*
X414441D01*
Y337897D01*
Y337941D01*
X414398D01*
Y337984D01*
X414311D01*
Y338028D01*
X414267D01*
Y338071D01*
X414180D01*
Y338115D01*
X414050D01*
Y338158D01*
D02*
G37*
G36*
X406954D02*
X405430D01*
Y338115D01*
Y338071D01*
Y338028D01*
X405387D01*
Y337984D01*
Y337941D01*
Y337897D01*
X405343D01*
Y337854D01*
Y337810D01*
Y337767D01*
X405300D01*
Y337723D01*
Y337680D01*
X405256D01*
Y337636D01*
Y337593D01*
Y337549D01*
Y337505D01*
Y337462D01*
Y337418D01*
X405169D01*
Y337375D01*
Y337331D01*
X405213D01*
Y337288D01*
X405126D01*
Y337244D01*
Y337201D01*
Y337157D01*
Y337114D01*
Y337070D01*
X405082D01*
Y337027D01*
Y336983D01*
Y336940D01*
X405039D01*
Y336896D01*
Y336852D01*
X404995D01*
Y336809D01*
Y336765D01*
Y336722D01*
X404951D01*
Y336678D01*
Y336635D01*
Y336591D01*
Y336548D01*
X404908D01*
Y336504D01*
Y336461D01*
X404864D01*
Y336417D01*
Y336374D01*
Y336330D01*
X404821D01*
Y336286D01*
Y336243D01*
Y336199D01*
Y336156D01*
Y336112D01*
Y336069D01*
X404734D01*
Y336025D01*
Y335982D01*
Y335938D01*
Y335895D01*
Y335851D01*
X404690D01*
Y335808D01*
Y335764D01*
Y335721D01*
X404647D01*
Y335677D01*
Y335634D01*
Y335590D01*
X404603D01*
Y335546D01*
Y335503D01*
X404560D01*
Y335459D01*
Y335416D01*
Y335372D01*
X404516D01*
Y335329D01*
Y335285D01*
Y335242D01*
Y335198D01*
X405213D01*
Y335242D01*
X405300D01*
Y335285D01*
Y335329D01*
Y335372D01*
X405343D01*
Y335416D01*
X405300D01*
Y335459D01*
X405343D01*
Y335503D01*
X405387D01*
Y335546D01*
Y335590D01*
Y335634D01*
Y335677D01*
Y335721D01*
X405430D01*
Y335764D01*
Y335808D01*
X405474D01*
Y335851D01*
Y335895D01*
Y335938D01*
X406214D01*
Y335982D01*
X406388D01*
Y336025D01*
X406519D01*
Y336069D01*
X406606D01*
Y336112D01*
X406693D01*
Y336156D01*
X406736D01*
Y336199D01*
X406823D01*
Y336243D01*
X406867D01*
Y336286D01*
X406910D01*
Y336330D01*
X406997D01*
Y336374D01*
X407041D01*
Y336417D01*
X407085D01*
Y336461D01*
Y336504D01*
X407128D01*
Y336548D01*
X407172D01*
Y336591D01*
X407215D01*
Y336635D01*
Y336678D01*
X407259D01*
Y336722D01*
X407302D01*
Y336765D01*
X407346D01*
Y336809D01*
Y336852D01*
X407389D01*
Y336896D01*
Y336940D01*
X407433D01*
Y336983D01*
Y337027D01*
X407389D01*
Y337070D01*
X407476D01*
Y337114D01*
Y337157D01*
Y337201D01*
Y337244D01*
Y337288D01*
Y337331D01*
Y337375D01*
Y337418D01*
Y337462D01*
Y337505D01*
Y337549D01*
Y337593D01*
Y337636D01*
Y337680D01*
Y337723D01*
X407433D01*
Y337767D01*
Y337810D01*
X407389D01*
Y337854D01*
Y337897D01*
X407346D01*
Y337941D01*
X407259D01*
Y337984D01*
X407215D01*
Y338028D01*
X407172D01*
Y338071D01*
X407085D01*
Y338115D01*
X406954D01*
Y338158D01*
D02*
G37*
G36*
X400511D02*
X398988D01*
Y338115D01*
Y338071D01*
X398944D01*
Y338028D01*
Y337984D01*
Y337941D01*
X398901D01*
Y337897D01*
Y337854D01*
Y337810D01*
X398857D01*
Y337767D01*
Y337723D01*
X398814D01*
Y337680D01*
Y337636D01*
Y337593D01*
X398770D01*
Y337549D01*
Y337505D01*
Y337462D01*
Y337418D01*
Y337375D01*
Y337331D01*
X398683D01*
Y337288D01*
Y337244D01*
Y337201D01*
Y337157D01*
Y337114D01*
Y337070D01*
X398639D01*
Y337027D01*
Y336983D01*
Y336940D01*
X398596D01*
Y336896D01*
Y336852D01*
X398552D01*
Y336809D01*
Y336765D01*
Y336722D01*
X398509D01*
Y336678D01*
Y336635D01*
Y336591D01*
X398465D01*
Y336548D01*
Y336504D01*
Y336461D01*
X398422D01*
Y336417D01*
Y336374D01*
X398378D01*
Y336330D01*
Y336286D01*
Y336243D01*
Y336199D01*
Y336156D01*
Y336112D01*
X398291D01*
Y336069D01*
X398335D01*
Y336025D01*
X398291D01*
Y335982D01*
X398248D01*
Y335938D01*
Y335895D01*
Y335851D01*
Y335808D01*
Y335764D01*
X398204D01*
Y335721D01*
Y335677D01*
Y335634D01*
Y335590D01*
X398161D01*
Y335546D01*
Y335503D01*
X398117D01*
Y335459D01*
Y335416D01*
Y335372D01*
X398074D01*
Y335329D01*
Y335285D01*
Y335242D01*
Y335198D01*
X398814D01*
Y335242D01*
Y335285D01*
Y335329D01*
Y335372D01*
Y335416D01*
X398901D01*
Y335459D01*
Y335503D01*
Y335546D01*
Y335590D01*
Y335634D01*
X398944D01*
Y335677D01*
Y335721D01*
Y335764D01*
X398988D01*
Y335808D01*
Y335851D01*
X399031D01*
Y335895D01*
Y335938D01*
Y335982D01*
X399075D01*
Y336025D01*
Y336069D01*
X399466D01*
Y336025D01*
Y335982D01*
X399510D01*
Y335938D01*
Y335895D01*
Y335851D01*
Y335808D01*
X399553D01*
Y335764D01*
X399510D01*
Y335721D01*
Y335677D01*
X399597D01*
Y335634D01*
Y335590D01*
Y335546D01*
Y335503D01*
Y335459D01*
Y335416D01*
Y335372D01*
X399641D01*
Y335329D01*
Y335285D01*
Y335242D01*
Y335198D01*
X400555D01*
Y335242D01*
Y335285D01*
Y335329D01*
Y335372D01*
Y335416D01*
Y335459D01*
X400511D01*
Y335503D01*
Y335546D01*
Y335590D01*
X400468D01*
Y335634D01*
Y335677D01*
Y335721D01*
X400424D01*
Y335764D01*
Y335808D01*
Y335851D01*
X400381D01*
Y335895D01*
Y335938D01*
Y335982D01*
X400337D01*
Y336025D01*
Y336069D01*
Y336112D01*
X400294D01*
Y336156D01*
Y336199D01*
Y336243D01*
X400337D01*
Y336286D01*
Y336330D01*
X400468D01*
Y336374D01*
X400511D01*
Y336417D01*
X400598D01*
Y336461D01*
Y336504D01*
X400642D01*
Y336548D01*
X400685D01*
Y336591D01*
X400729D01*
Y336635D01*
Y336678D01*
X400772D01*
Y336722D01*
X400816D01*
Y336765D01*
X400859D01*
Y336809D01*
X400903D01*
Y336852D01*
Y336896D01*
X400947D01*
Y336940D01*
X400903D01*
Y336983D01*
X400990D01*
Y337027D01*
Y337070D01*
Y337114D01*
Y337157D01*
Y337201D01*
Y337244D01*
X401034D01*
Y337288D01*
Y337331D01*
Y337375D01*
Y337418D01*
Y337462D01*
Y337505D01*
Y337549D01*
Y337593D01*
Y337636D01*
X400990D01*
Y337680D01*
Y337723D01*
Y337767D01*
Y337810D01*
X400903D01*
Y337854D01*
X400947D01*
Y337897D01*
X400903D01*
Y337941D01*
X400816D01*
Y337984D01*
Y338028D01*
X400729D01*
Y338071D01*
X400642D01*
Y338115D01*
X400511D01*
Y338158D01*
D02*
G37*
G36*
X394330D02*
X392153D01*
Y338115D01*
Y338071D01*
X392110D01*
Y338028D01*
Y337984D01*
Y337941D01*
X392066D01*
Y337897D01*
Y337854D01*
Y337810D01*
X392022D01*
Y337767D01*
Y337723D01*
Y337680D01*
X391979D01*
Y337636D01*
Y337593D01*
Y337549D01*
X391935D01*
Y337505D01*
Y337462D01*
X392675D01*
Y337418D01*
X392632D01*
Y337375D01*
Y337331D01*
Y337288D01*
X392588D01*
Y337244D01*
Y337201D01*
X392545D01*
Y337157D01*
Y337114D01*
Y337070D01*
X392501D01*
Y337027D01*
Y336983D01*
Y336940D01*
X392458D01*
Y336896D01*
Y336852D01*
X392414D01*
Y336809D01*
Y336765D01*
Y336722D01*
Y336678D01*
X392371D01*
Y336635D01*
Y336591D01*
X392414D01*
Y336548D01*
X392327D01*
Y336504D01*
Y336461D01*
Y336417D01*
Y336374D01*
Y336330D01*
X392284D01*
Y336286D01*
Y336243D01*
Y336199D01*
X392240D01*
Y336156D01*
Y336112D01*
Y336069D01*
X392197D01*
Y336025D01*
Y335982D01*
X392153D01*
Y335938D01*
Y335895D01*
Y335851D01*
X392110D01*
Y335808D01*
Y335764D01*
Y335721D01*
X392066D01*
Y335677D01*
Y335634D01*
Y335590D01*
X392022D01*
Y335546D01*
Y335503D01*
X391979D01*
Y335459D01*
Y335416D01*
Y335372D01*
X391935D01*
Y335329D01*
Y335285D01*
Y335242D01*
Y335198D01*
X392675D01*
Y335242D01*
Y335285D01*
X392719D01*
Y335329D01*
Y335372D01*
Y335416D01*
X392763D01*
Y335459D01*
Y335503D01*
X392806D01*
Y335546D01*
Y335590D01*
X392763D01*
Y335634D01*
X392850D01*
Y335677D01*
Y335721D01*
Y335764D01*
X392893D01*
Y335808D01*
Y335851D01*
Y335895D01*
Y335938D01*
Y335982D01*
X392937D01*
Y336025D01*
Y336069D01*
Y336112D01*
X392980D01*
Y336156D01*
Y336199D01*
Y336243D01*
X393024D01*
Y336286D01*
Y336330D01*
X393067D01*
Y336374D01*
Y336417D01*
Y336461D01*
X393111D01*
Y336504D01*
Y336548D01*
Y336591D01*
X393154D01*
Y336635D01*
Y336678D01*
Y336722D01*
X393198D01*
Y336765D01*
Y336809D01*
Y336852D01*
X393241D01*
Y336896D01*
Y336940D01*
X393198D01*
Y336983D01*
X393285D01*
Y337027D01*
Y337070D01*
Y337114D01*
Y337157D01*
Y337201D01*
X393328D01*
Y337244D01*
Y337288D01*
Y337331D01*
X393372D01*
Y337375D01*
Y337418D01*
Y337462D01*
X394112D01*
Y337505D01*
Y337549D01*
Y337593D01*
X394156D01*
Y337636D01*
Y337680D01*
X394199D01*
Y337723D01*
Y337767D01*
Y337810D01*
X394243D01*
Y337854D01*
Y337897D01*
Y337941D01*
X394286D01*
Y337984D01*
Y338028D01*
X394330D01*
Y338071D01*
Y338115D01*
Y338158D01*
D02*
G37*
G36*
X410524D02*
X409609D01*
Y338115D01*
X409479D01*
Y338071D01*
X409348D01*
Y338028D01*
X409261D01*
Y337984D01*
X409174D01*
Y337941D01*
X409087D01*
Y337897D01*
X409044D01*
Y337854D01*
X409000D01*
Y337810D01*
X408913D01*
Y337767D01*
X408869D01*
Y337723D01*
X408782D01*
Y337680D01*
X408739D01*
Y337636D01*
X408695D01*
Y337593D01*
X408652D01*
Y337549D01*
X408608D01*
Y337505D01*
X408565D01*
Y337462D01*
X408521D01*
Y337418D01*
Y337375D01*
X408478D01*
Y337331D01*
X408434D01*
Y337288D01*
X408391D01*
Y337244D01*
Y337201D01*
X408303D01*
Y337157D01*
Y337114D01*
X408260D01*
Y337070D01*
Y337027D01*
Y336983D01*
Y336940D01*
X408173D01*
Y336896D01*
Y336852D01*
Y336809D01*
X408129D01*
Y336765D01*
Y336722D01*
Y336678D01*
X408086D01*
Y336635D01*
Y336591D01*
Y336548D01*
X408042D01*
Y336504D01*
Y336461D01*
Y336417D01*
Y336374D01*
X407999D01*
Y336330D01*
Y336286D01*
Y336243D01*
Y336199D01*
Y336156D01*
Y336112D01*
Y336069D01*
Y336025D01*
Y335982D01*
Y335938D01*
X408042D01*
Y335895D01*
Y335851D01*
Y335808D01*
X408086D01*
Y335764D01*
Y335721D01*
Y335677D01*
X408129D01*
Y335634D01*
Y335590D01*
X408173D01*
Y335546D01*
X408216D01*
Y335503D01*
X408260D01*
Y335459D01*
X408303D01*
Y335416D01*
X408347D01*
Y335372D01*
X408391D01*
Y335329D01*
X408478D01*
Y335285D01*
X408565D01*
Y335242D01*
X408652D01*
Y335198D01*
X408782D01*
Y335155D01*
X409435D01*
Y335198D01*
X409566D01*
Y335242D01*
X409740D01*
Y335285D01*
X409827D01*
Y335329D01*
X409958D01*
Y335372D01*
X410001D01*
Y335416D01*
X410132D01*
Y335459D01*
X410175D01*
Y335503D01*
X410262D01*
Y335546D01*
X410306D01*
Y335590D01*
X410393D01*
Y335634D01*
Y335677D01*
X410436D01*
Y335721D01*
X410480D01*
Y335764D01*
X410524D01*
Y335808D01*
X410611D01*
Y335851D01*
X410654D01*
Y335895D01*
Y335938D01*
X410698D01*
Y335982D01*
X410785D01*
Y336025D01*
Y336069D01*
X410828D01*
Y336112D01*
X410872D01*
Y336156D01*
Y336199D01*
X410915D01*
Y336243D01*
Y336286D01*
Y336330D01*
X410959D01*
Y336374D01*
X411002D01*
Y336417D01*
Y336461D01*
X411046D01*
Y336504D01*
Y336548D01*
Y336591D01*
X411090D01*
Y336635D01*
Y336678D01*
Y336722D01*
X411133D01*
Y336765D01*
Y336809D01*
Y336852D01*
X411177D01*
Y336896D01*
Y336940D01*
Y336983D01*
Y337027D01*
Y337070D01*
X411220D01*
Y337114D01*
Y337157D01*
Y337201D01*
Y337244D01*
Y337288D01*
X411177D01*
Y337331D01*
Y337375D01*
Y337418D01*
Y337462D01*
Y337505D01*
X411133D01*
Y337549D01*
Y337593D01*
Y337636D01*
X411090D01*
Y337680D01*
Y337723D01*
X411046D01*
Y337767D01*
X411002D01*
Y337810D01*
X410959D01*
Y337854D01*
X410915D01*
Y337897D01*
Y337941D01*
X410828D01*
Y337984D01*
Y338028D01*
X410698D01*
Y338071D01*
X410611D01*
Y338115D01*
X410524D01*
Y338158D01*
D02*
G37*
G36*
X397029D02*
X396027D01*
Y338115D01*
X395940D01*
Y338071D01*
X395810D01*
Y338028D01*
X395723D01*
Y337984D01*
X395636D01*
Y337941D01*
X395549D01*
Y337897D01*
X395505D01*
Y337854D01*
X395418D01*
Y337810D01*
X395374D01*
Y337767D01*
X395331D01*
Y337723D01*
X395244D01*
Y337680D01*
X395200D01*
Y337636D01*
X395113D01*
Y337593D01*
Y337549D01*
X395026D01*
Y337505D01*
Y337462D01*
Y337418D01*
X394939D01*
Y337375D01*
Y337331D01*
X394896D01*
Y337288D01*
X394809D01*
Y337244D01*
Y337201D01*
Y337157D01*
X394765D01*
Y337114D01*
X394722D01*
Y337070D01*
Y337027D01*
X394678D01*
Y336983D01*
Y336940D01*
X394635D01*
Y336896D01*
X394591D01*
Y336852D01*
Y336809D01*
Y336765D01*
X394547D01*
Y336722D01*
Y336678D01*
Y336635D01*
X394504D01*
Y336591D01*
Y336548D01*
Y336504D01*
Y336461D01*
Y336417D01*
Y336374D01*
Y336330D01*
Y336286D01*
Y336243D01*
X394417D01*
Y336199D01*
Y336156D01*
Y336112D01*
Y336069D01*
Y336025D01*
X394504D01*
Y335982D01*
Y335938D01*
Y335895D01*
Y335851D01*
Y335808D01*
Y335764D01*
Y335721D01*
X394547D01*
Y335677D01*
Y335634D01*
X394591D01*
Y335590D01*
Y335546D01*
X394635D01*
Y335503D01*
X394722D01*
Y335459D01*
Y335416D01*
X394809D01*
Y335372D01*
X394896D01*
Y335329D01*
X394939D01*
Y335285D01*
X395026D01*
Y335242D01*
X395113D01*
Y335198D01*
X395244D01*
Y335155D01*
X395853D01*
Y335198D01*
X396071D01*
Y335242D01*
X396202D01*
Y335285D01*
X396289D01*
Y335329D01*
X396376D01*
Y335372D01*
X396463D01*
Y335416D01*
X396550D01*
Y335459D01*
X396637D01*
Y335503D01*
X396724D01*
Y335546D01*
X396767D01*
Y335590D01*
X396811D01*
Y335634D01*
X396855D01*
Y335677D01*
X396942D01*
Y335721D01*
X396985D01*
Y335764D01*
X397029D01*
Y335808D01*
X397116D01*
Y335851D01*
Y335895D01*
Y335938D01*
X397159D01*
Y335982D01*
X397203D01*
Y336025D01*
X397246D01*
Y336069D01*
Y336112D01*
X397290D01*
Y336156D01*
X397333D01*
Y336199D01*
Y336243D01*
X397377D01*
Y336286D01*
Y336330D01*
X397421D01*
Y336374D01*
X397464D01*
Y336417D01*
Y336461D01*
X397508D01*
Y336504D01*
X397464D01*
Y336548D01*
X397551D01*
Y336591D01*
Y336635D01*
Y336678D01*
Y336722D01*
Y336765D01*
Y336809D01*
X397595D01*
Y336852D01*
Y336896D01*
Y336940D01*
Y336983D01*
Y337027D01*
X397638D01*
Y337070D01*
Y337114D01*
Y337157D01*
Y337201D01*
Y337244D01*
Y337288D01*
Y337331D01*
Y337375D01*
X397595D01*
Y337418D01*
Y337462D01*
Y337505D01*
Y337549D01*
X397551D01*
Y337593D01*
Y337636D01*
Y337680D01*
Y337723D01*
X397508D01*
Y337767D01*
X397464D01*
Y337810D01*
X397421D01*
Y337854D01*
X397377D01*
Y337897D01*
X397333D01*
Y337941D01*
X397290D01*
Y337984D01*
X397246D01*
Y338028D01*
X397159D01*
Y338071D01*
X397072D01*
Y338115D01*
X397029D01*
Y338158D01*
D02*
G37*
G36*
X390455D02*
X389498D01*
Y338115D01*
X389367D01*
Y338071D01*
X389280D01*
Y338028D01*
X389149D01*
Y337984D01*
X389062D01*
Y337941D01*
X389019D01*
Y337897D01*
X388975D01*
Y337854D01*
X388888D01*
Y337810D01*
X388845D01*
Y337767D01*
X388758D01*
Y337723D01*
X388671D01*
Y337680D01*
Y337636D01*
X388583D01*
Y337593D01*
X388540D01*
Y337549D01*
Y337505D01*
X388453D01*
Y337462D01*
Y337418D01*
X388366D01*
Y337375D01*
Y337331D01*
Y337288D01*
X388279D01*
Y337244D01*
X388235D01*
Y337201D01*
Y337157D01*
X388192D01*
Y337114D01*
Y337070D01*
X388148D01*
Y337027D01*
Y336983D01*
X388105D01*
Y336940D01*
Y336896D01*
X388061D01*
Y336852D01*
Y336809D01*
Y336765D01*
Y336722D01*
X388018D01*
Y336678D01*
X387974D01*
Y336635D01*
X388018D01*
Y336591D01*
X387930D01*
Y336548D01*
Y336504D01*
Y336461D01*
Y336417D01*
Y336374D01*
Y336330D01*
Y336286D01*
Y336243D01*
Y336199D01*
Y336156D01*
Y336112D01*
Y336069D01*
Y336025D01*
Y335982D01*
Y335938D01*
Y335895D01*
Y335851D01*
Y335808D01*
Y335764D01*
X388018D01*
Y335721D01*
Y335677D01*
Y335634D01*
X388061D01*
Y335590D01*
Y335546D01*
Y335503D01*
X388148D01*
Y335459D01*
Y335416D01*
X388235D01*
Y335372D01*
X388322D01*
Y335329D01*
X388366D01*
Y335285D01*
X388453D01*
Y335242D01*
X388540D01*
Y335198D01*
X388714D01*
Y335155D01*
X389323D01*
Y335198D01*
X389498D01*
Y335242D01*
X389628D01*
Y335285D01*
X389759D01*
Y335329D01*
X389846D01*
Y335372D01*
X389890D01*
Y335416D01*
X390064D01*
Y335459D01*
Y335503D01*
X390194D01*
Y335546D01*
Y335590D01*
X390238D01*
Y335634D01*
X390325D01*
Y335677D01*
X390368D01*
Y335721D01*
X390412D01*
Y335764D01*
X390455D01*
Y335808D01*
X390543D01*
Y335851D01*
Y335895D01*
X390586D01*
Y335938D01*
X390630D01*
Y335982D01*
Y336025D01*
X390673D01*
Y336069D01*
X390717D01*
Y336112D01*
Y336156D01*
X390760D01*
Y336199D01*
X390804D01*
Y336243D01*
X390847D01*
Y336286D01*
Y336330D01*
X390891D01*
Y336374D01*
Y336417D01*
X390934D01*
Y336461D01*
Y336504D01*
Y336548D01*
X390978D01*
Y336591D01*
Y336635D01*
X391021D01*
Y336678D01*
Y336722D01*
Y336765D01*
X391065D01*
Y336809D01*
Y336852D01*
Y336896D01*
Y336940D01*
X391108D01*
Y336983D01*
Y337027D01*
Y337070D01*
Y337114D01*
Y337157D01*
Y337201D01*
Y337244D01*
Y337288D01*
Y337331D01*
Y337375D01*
Y337418D01*
X391065D01*
Y337462D01*
Y337505D01*
Y337549D01*
Y337593D01*
X391021D01*
Y337636D01*
Y337680D01*
X390978D01*
Y337723D01*
X390934D01*
Y337767D01*
X390891D01*
Y337810D01*
Y337854D01*
X390847D01*
Y337897D01*
X390804D01*
Y337941D01*
X390717D01*
Y337984D01*
X390673D01*
Y338028D01*
X390586D01*
Y338071D01*
X390499D01*
Y338115D01*
X390455D01*
Y338158D01*
D02*
G37*
%LPD*%
G36*
X413745Y337418D02*
X413789D01*
Y337375D01*
Y337331D01*
Y337288D01*
Y337244D01*
Y337201D01*
Y337157D01*
Y337114D01*
Y337070D01*
Y337027D01*
Y336983D01*
X413745D01*
Y336940D01*
X413701D01*
Y336896D01*
X413614D01*
Y336852D01*
Y336809D01*
X413484D01*
Y336765D01*
X412874D01*
Y336809D01*
Y336852D01*
X412918D01*
Y336896D01*
Y336940D01*
Y336983D01*
Y337027D01*
X412961D01*
Y337070D01*
Y337114D01*
Y337157D01*
X413005D01*
Y337201D01*
Y337244D01*
X413048D01*
Y337288D01*
Y337331D01*
X413005D01*
Y337375D01*
X413092D01*
Y337418D01*
Y337462D01*
X413745D01*
Y337418D01*
D02*
G37*
G36*
X406606D02*
X406649D01*
Y337375D01*
X406693D01*
Y337331D01*
Y337288D01*
X406736D01*
Y337244D01*
Y337201D01*
X406693D01*
Y337157D01*
Y337114D01*
Y337070D01*
Y337027D01*
X406649D01*
Y336983D01*
Y336940D01*
X406606D01*
Y336896D01*
X406562D01*
Y336852D01*
Y336809D01*
X406519D01*
Y336765D01*
X406475D01*
Y336722D01*
X406432D01*
Y336678D01*
X406345D01*
Y336635D01*
X405691D01*
Y336678D01*
Y336722D01*
X405779D01*
Y336765D01*
Y336809D01*
Y336852D01*
Y336896D01*
Y336940D01*
X405822D01*
Y336983D01*
Y337027D01*
Y337070D01*
X405866D01*
Y337114D01*
Y337157D01*
X405909D01*
Y337201D01*
Y337244D01*
Y337288D01*
X405953D01*
Y337331D01*
Y337375D01*
Y337418D01*
X405996D01*
Y337462D01*
X406606D01*
Y337418D01*
D02*
G37*
G36*
X400163D02*
X400207D01*
Y337375D01*
X400250D01*
Y337331D01*
Y337288D01*
X400294D01*
Y337244D01*
X400250D01*
Y337201D01*
Y337157D01*
Y337114D01*
Y337070D01*
X400207D01*
Y337027D01*
Y336983D01*
X400163D01*
Y336940D01*
Y336896D01*
X400119D01*
Y336852D01*
X400076D01*
Y336809D01*
X399989D01*
Y336765D01*
X399336D01*
Y336809D01*
Y336852D01*
Y336896D01*
Y336940D01*
Y336983D01*
X399379D01*
Y337027D01*
Y337070D01*
X399423D01*
Y337114D01*
Y337157D01*
Y337201D01*
X399466D01*
Y337244D01*
Y337288D01*
Y337331D01*
X399510D01*
Y337375D01*
Y337418D01*
Y337462D01*
X400163D01*
Y337418D01*
D02*
G37*
G36*
X410001D02*
X410132D01*
Y337375D01*
X410175D01*
Y337331D01*
X410262D01*
Y337288D01*
X410306D01*
Y337244D01*
Y337201D01*
X410349D01*
Y337157D01*
Y337114D01*
Y337070D01*
Y337027D01*
Y336983D01*
Y336940D01*
Y336896D01*
Y336852D01*
Y336809D01*
Y336765D01*
Y336722D01*
Y336678D01*
Y336635D01*
X410306D01*
Y336591D01*
Y336548D01*
Y336504D01*
X410262D01*
Y336461D01*
X410219D01*
Y336417D01*
Y336374D01*
X410175D01*
Y336330D01*
X410132D01*
Y336286D01*
X410088D01*
Y336243D01*
Y336199D01*
X410001D01*
Y336156D01*
Y336112D01*
X409914D01*
Y336069D01*
X409827D01*
Y336025D01*
Y335982D01*
X409653D01*
Y335938D01*
X409566D01*
Y335895D01*
X409174D01*
Y335938D01*
X409044D01*
Y335982D01*
X408956D01*
Y336025D01*
Y336069D01*
X408869D01*
Y336112D01*
Y336156D01*
X408826D01*
Y336199D01*
Y336243D01*
Y336286D01*
Y336330D01*
Y336374D01*
Y336417D01*
Y336461D01*
Y336504D01*
Y336548D01*
Y336591D01*
Y336635D01*
X408869D01*
Y336678D01*
Y336722D01*
Y336765D01*
X408913D01*
Y336809D01*
X408956D01*
Y336852D01*
Y336896D01*
X409000D01*
Y336940D01*
Y336983D01*
X409044D01*
Y337027D01*
X409087D01*
Y337070D01*
X409131D01*
Y337114D01*
Y337157D01*
X409218D01*
Y337201D01*
X409261D01*
Y337244D01*
X409305D01*
Y337288D01*
X409392D01*
Y337331D01*
X409479D01*
Y337375D01*
X409566D01*
Y337418D01*
X409653D01*
Y337462D01*
X410001D01*
Y337418D01*
D02*
G37*
G36*
X396463D02*
X396593D01*
Y337375D01*
X396680D01*
Y337331D01*
Y337288D01*
X396724D01*
Y337244D01*
X396767D01*
Y337201D01*
Y337157D01*
X396811D01*
Y337114D01*
Y337070D01*
Y337027D01*
Y336983D01*
Y336940D01*
Y336896D01*
Y336852D01*
Y336809D01*
Y336765D01*
Y336722D01*
X396767D01*
Y336678D01*
Y336635D01*
Y336591D01*
X396724D01*
Y336548D01*
Y336504D01*
X396680D01*
Y336461D01*
Y336417D01*
Y336374D01*
X396637D01*
Y336330D01*
X396593D01*
Y336286D01*
X396550D01*
Y336243D01*
X396506D01*
Y336199D01*
Y336156D01*
X396419D01*
Y336112D01*
X396376D01*
Y336069D01*
X396289D01*
Y336025D01*
X396245D01*
Y335982D01*
X396114D01*
Y335938D01*
X395984D01*
Y335895D01*
X395636D01*
Y335938D01*
X395505D01*
Y335982D01*
X395374D01*
Y336025D01*
Y336069D01*
Y336112D01*
X395331D01*
Y336156D01*
Y336199D01*
X395287D01*
Y336243D01*
Y336286D01*
Y336330D01*
Y336374D01*
Y336417D01*
Y336461D01*
Y336504D01*
Y336548D01*
Y336591D01*
X395331D01*
Y336635D01*
Y336678D01*
Y336722D01*
X395374D01*
Y336765D01*
Y336809D01*
Y336852D01*
X395462D01*
Y336896D01*
X395418D01*
Y336940D01*
X395462D01*
Y336983D01*
Y337027D01*
X395505D01*
Y337070D01*
X395549D01*
Y337114D01*
X395592D01*
Y337157D01*
X395679D01*
Y337201D01*
Y337244D01*
X395766D01*
Y337288D01*
X395810D01*
Y337331D01*
X395897D01*
Y337375D01*
X395984D01*
Y337418D01*
X396114D01*
Y337462D01*
X396463D01*
Y337418D01*
D02*
G37*
G36*
X389890D02*
X390020D01*
Y337375D01*
X390107D01*
Y337331D01*
X390151D01*
Y337288D01*
X390194D01*
Y337244D01*
X390238D01*
Y337201D01*
Y337157D01*
Y337114D01*
Y337070D01*
X390281D01*
Y337027D01*
Y336983D01*
Y336940D01*
Y336896D01*
Y336852D01*
X390238D01*
Y336809D01*
Y336765D01*
Y336722D01*
Y336678D01*
X390194D01*
Y336635D01*
Y336591D01*
X390238D01*
Y336548D01*
X390151D01*
Y336504D01*
Y336461D01*
X390107D01*
Y336417D01*
Y336374D01*
X390064D01*
Y336330D01*
X390020D01*
Y336286D01*
Y336243D01*
X389977D01*
Y336199D01*
X389933D01*
Y336156D01*
X389890D01*
Y336112D01*
X389802D01*
Y336069D01*
X389759D01*
Y336025D01*
X389715D01*
Y335982D01*
X389541D01*
Y335938D01*
X389411D01*
Y335895D01*
X389062D01*
Y335938D01*
X388932D01*
Y335982D01*
X388888D01*
Y336025D01*
X388845D01*
Y336069D01*
X388801D01*
Y336112D01*
X388758D01*
Y336156D01*
Y336199D01*
Y336243D01*
X388714D01*
Y336286D01*
Y336330D01*
Y336374D01*
Y336417D01*
Y336461D01*
Y336504D01*
X388758D01*
Y336548D01*
Y336591D01*
Y336635D01*
Y336678D01*
X388801D01*
Y336722D01*
Y336765D01*
X388845D01*
Y336809D01*
Y336852D01*
X388888D01*
Y336896D01*
Y336940D01*
X388932D01*
Y336983D01*
X388975D01*
Y337027D01*
X388932D01*
Y337070D01*
X389019D01*
Y337114D01*
Y337157D01*
X389106D01*
Y337201D01*
X389149D01*
Y337244D01*
X389236D01*
Y337288D01*
Y337331D01*
X389323D01*
Y337375D01*
X389454D01*
Y337418D01*
X389585D01*
Y337462D01*
X389890D01*
Y337418D01*
D02*
G37*
D10*
X414405Y378126D02*
X413656Y378559D01*
Y377693D01*
X414405Y378126D01*
X382405Y403126D02*
X381656Y403559D01*
Y402693D01*
X382405Y403126D01*
X402154Y412811D02*
X401268Y413399D01*
X400293Y413821D01*
X399259Y414065D01*
X398198Y414122D01*
X397143Y413992D01*
X396128Y413677D01*
X395184Y413188D01*
Y403064D02*
X396128Y402575D01*
X397143Y402260D01*
X398198Y402130D01*
X399259Y402187D01*
X400293Y402431D01*
X401268Y402853D01*
X402154Y403441D01*
X351091Y412878D02*
X351678Y413763D01*
X352101Y414738D01*
X352344Y415773D01*
X352402Y416834D01*
X352271Y417889D01*
X351956Y418904D01*
X351467Y419847D01*
X341343Y419847D02*
X340855Y418904D01*
X340540Y417889D01*
X340409Y416834D01*
X340466Y415773D01*
X340710Y414738D01*
X341132Y413763D01*
X341720Y412878D01*
Y366374D02*
X341132Y365489D01*
X340710Y364514D01*
X340466Y363479D01*
X340409Y362418D01*
X340540Y361363D01*
X340855Y360348D01*
X341343Y359405D01*
X351467D02*
X351956Y360348D01*
X352271Y361363D01*
X352402Y362418D01*
X352344Y363479D01*
X352101Y364514D01*
X351678Y365489D01*
X351091Y366374D01*
X333405Y376126D02*
X332656Y376559D01*
Y375693D01*
X333405Y376126D01*
X292467Y359405D02*
X292956Y360348D01*
X293271Y361363D01*
X293402Y362418D01*
X293344Y363479D01*
X293101Y364514D01*
X292678Y365489D01*
X292091Y366374D01*
X282720Y366374D02*
X282133Y365489D01*
X281710Y364514D01*
X281467Y363479D01*
X281409Y362418D01*
X281540Y361363D01*
X281855Y360348D01*
X282344Y359405D01*
X274406Y376126D02*
X273656Y376559D01*
Y375693D01*
X274406Y376126D01*
X292091Y412878D02*
X292678Y413763D01*
X293101Y414738D01*
X293344Y415773D01*
X293402Y416834D01*
X293271Y417889D01*
X292956Y418904D01*
X292467Y419847D01*
X282344Y419847D02*
X281855Y418904D01*
X281540Y417889D01*
X281409Y416834D01*
X281467Y415773D01*
X281710Y414738D01*
X282133Y413763D01*
X282720Y412878D01*
X394000Y266500D02*
X393887Y267501D01*
X393554Y268453D01*
X393018Y269306D01*
X392306Y270018D01*
X391453Y270554D01*
X390501Y270887D01*
X389500Y271000D01*
X388499Y270887D01*
X387547Y270554D01*
X386694Y270018D01*
X385982Y269306D01*
X385446Y268453D01*
X385113Y267501D01*
X385000Y266500D01*
X385113Y265499D01*
X385446Y264547D01*
X385982Y263694D01*
X386694Y262982D01*
X387547Y262446D01*
X388499Y262113D01*
X389500Y262000D01*
X390501Y262113D01*
X391453Y262446D01*
X392306Y262982D01*
X393018Y263694D01*
X393554Y264547D01*
X393887Y265499D01*
X394000Y266500D01*
X455500Y318000D02*
X455387Y319001D01*
X455054Y319953D01*
X454518Y320806D01*
X453806Y321518D01*
X452952Y322054D01*
X452001Y322387D01*
X451000Y322500D01*
X449999Y322387D01*
X449048Y322054D01*
X448194Y321518D01*
X447482Y320806D01*
X446946Y319953D01*
X446613Y319001D01*
X446500Y318000D01*
X446613Y316999D01*
X446946Y316048D01*
X447482Y315194D01*
X448194Y314482D01*
X449048Y313946D01*
X449999Y313613D01*
X451000Y313500D01*
X452001Y313613D01*
X452952Y313946D01*
X453806Y314482D01*
X454518Y315194D01*
X455054Y316048D01*
X455387Y316999D01*
X455500Y318000D01*
X454000Y295000D02*
X453887Y296001D01*
X453554Y296953D01*
X453018Y297806D01*
X452306Y298518D01*
X451452Y299054D01*
X450501Y299387D01*
X449500Y299500D01*
X448499Y299387D01*
X447547Y299054D01*
X446694Y298518D01*
X445982Y297806D01*
X445446Y296953D01*
X445113Y296001D01*
X445000Y295000D01*
X445113Y293999D01*
X445446Y293047D01*
X445982Y292194D01*
X446694Y291482D01*
X447547Y290946D01*
X448499Y290613D01*
X449500Y290500D01*
X450501Y290613D01*
X451452Y290946D01*
X452306Y291482D01*
X453018Y292194D01*
X453554Y293047D01*
X453887Y293999D01*
X454000Y295000D01*
X317402Y320728D02*
X316445Y320538D01*
X315634Y319996D01*
X315092Y319185D01*
X314902Y318228D01*
X315092Y317272D01*
X315634Y316461D01*
X316445Y315919D01*
X317402Y315728D01*
X316445Y315538D01*
X315634Y314996D01*
X315092Y314185D01*
X314902Y313228D01*
X315092Y312272D01*
X315634Y311461D01*
X316445Y310919D01*
X317402Y310728D01*
X316445Y310538D01*
X315634Y309996D01*
X315092Y309185D01*
X314902Y308228D01*
X315092Y307272D01*
X315634Y306461D01*
X316445Y305919D01*
X317402Y305728D01*
X389405Y400126D02*
X411406D01*
X389405Y378126D02*
X411406D01*
X381405D02*
Y401126D01*
X360405Y378126D02*
Y401126D01*
X389405Y416126D02*
X404906D01*
Y412626D02*
Y416126D01*
Y400126D02*
Y403626D01*
X389405Y400126D02*
X404906D01*
X354405Y410126D02*
Y425626D01*
X350905Y410126D02*
X354405D01*
X338405D02*
X341905D01*
X338405D02*
Y425626D01*
Y353626D02*
Y369126D01*
X341905D01*
X350905D02*
X354405D01*
Y353626D02*
Y369126D01*
X354906Y378626D02*
Y400626D01*
X332906Y378626D02*
Y400626D01*
X295406Y353626D02*
Y369126D01*
X291905D02*
X295406D01*
X279405D02*
X282906D01*
X279405Y353626D02*
Y369126D01*
X295905Y378626D02*
Y400626D01*
X273905Y378626D02*
Y400626D01*
X295406Y410126D02*
Y425626D01*
X291905Y410126D02*
X295406D01*
X279405D02*
X282906D01*
X279405D02*
Y425626D01*
X384500Y276000D02*
X388500D01*
X417500Y291000D02*
X443500D01*
X417500D02*
Y322500D01*
X443500D01*
Y291000D02*
Y322500D01*
X424374Y277000D02*
Y278000D01*
Y288000D02*
Y289000D01*
X330803Y312673D02*
X331803D01*
X341803D02*
X342803D01*
X346303D02*
X347303D01*
X357303D02*
X358303D01*
X267417Y215984D02*
Y254984D01*
X305417Y215984D02*
Y254984D01*
X274417Y259484D02*
X298039D01*
X267417Y215984D02*
X305417D01*
X309551D02*
Y254984D01*
X371551Y215984D02*
Y254984D01*
X316929Y270984D02*
X364173D01*
X309551Y215984D02*
X371551D01*
X257402Y303228D02*
Y305728D01*
Y323228D02*
X258902Y328228D01*
X260902D02*
X262402D01*
X252402D02*
X253902D01*
X257402Y303228D02*
X258902Y298228D01*
X257402Y320728D02*
Y323228D01*
Y320728D02*
X287402D01*
Y323228D01*
X252402Y298228D02*
X253902D01*
X260902D02*
X262402D01*
X257402Y305728D02*
X287402D01*
Y303228D02*
Y305728D01*
X317402Y320728D02*
Y323228D01*
Y303228D02*
Y305728D01*
X322402Y293228D02*
Y333228D01*
X242402D02*
X322402D01*
X242402Y293228D02*
Y333228D01*
Y293228D02*
X322402D01*
X443903Y351999D02*
X439904D01*
X438904Y350999D01*
Y349000D01*
X439904Y348000D01*
X443903D01*
X444902Y349000D01*
Y350999D01*
X442903Y349999D02*
X444902Y351999D01*
Y350999D02*
X443903Y351999D01*
X438904Y353998D02*
X443903D01*
X444902Y354998D01*
Y356997D01*
X443903Y357997D01*
X438904D01*
Y359996D02*
Y363995D01*
Y361996D01*
X444902D01*
Y365994D02*
X438904D01*
X440904Y367993D01*
X438904Y369993D01*
X444902D01*
X439904Y375991D02*
X438904Y374991D01*
Y372992D01*
X439904Y371992D01*
X440904D01*
X441903Y372992D01*
Y374991D01*
X442903Y375991D01*
X443903D01*
X444902Y374991D01*
Y372992D01*
X443903Y371992D01*
X448502Y348000D02*
X454500D01*
Y350999D01*
X453500Y351999D01*
X452501D01*
X451501Y350999D01*
Y348000D01*
Y350999D01*
X450501Y351999D01*
X449502D01*
X448502Y350999D01*
Y348000D01*
X449502Y357997D02*
X448502Y356997D01*
Y354998D01*
X449502Y353998D01*
X450501D01*
X451501Y354998D01*
Y356997D01*
X452501Y357997D01*
X453500D01*
X454500Y356997D01*
Y354998D01*
X453500Y353998D01*
X454500Y359996D02*
X448502D01*
Y362995D01*
X449502Y363995D01*
X451501D01*
X452501Y362995D01*
Y359996D01*
X448502Y365994D02*
X454500D01*
Y368993D01*
X453500Y369993D01*
X449502D01*
X448502Y368993D01*
Y365994D01*
Y377990D02*
X452501D01*
X454500Y379990D01*
X452501Y381989D01*
X448502D01*
X449502Y383988D02*
X448502Y384988D01*
Y386987D01*
X449502Y387987D01*
X453500D01*
X454500Y386987D01*
Y384988D01*
X453500Y383988D01*
X449502D01*
X454500Y393985D02*
Y389986D01*
X450501Y393985D01*
X449502D01*
X448502Y392985D01*
Y390986D01*
X449502Y389986D01*
X392739Y360459D02*
X392073Y361125D01*
X390740D01*
X390073Y360459D01*
Y357793D01*
X390740Y357127D01*
X392073D01*
X392739Y357793D01*
X394072Y361125D02*
X396738D01*
Y360459D01*
X394072Y357793D01*
Y357127D01*
X400739Y354459D02*
X400073Y355125D01*
X398740D01*
X398073Y354459D01*
Y351793D01*
X398740Y351127D01*
X400073D01*
X400739Y351793D01*
X404738Y355125D02*
X402072D01*
Y353126D01*
X403405Y353792D01*
X404071D01*
X404738Y353126D01*
Y351793D01*
X404071Y351127D01*
X402738D01*
X402072Y351793D01*
X417573Y400125D02*
Y396793D01*
X418240Y396127D01*
X419573D01*
X420239Y396793D01*
Y400125D01*
X421572Y399459D02*
X422238Y400125D01*
X423571D01*
X424238Y399459D01*
Y398792D01*
X423571Y398126D01*
X422905D01*
X423571D01*
X424238Y397460D01*
Y396793D01*
X423571Y396127D01*
X422238D01*
X421572Y396793D01*
X401407Y357127D02*
Y361125D01*
X403406D01*
X404073Y360459D01*
Y359126D01*
X403406Y358459D01*
X401407D01*
X402740D02*
X404073Y357127D01*
X405406D02*
X406739D01*
X406072D01*
Y361125D01*
X405406Y360459D01*
X410737Y357127D02*
Y361125D01*
X408738Y359126D01*
X411404D01*
X355240Y407125D02*
Y403793D01*
X355906Y403127D01*
X357239D01*
X357906Y403793D01*
Y407125D01*
X359238Y403127D02*
X360571D01*
X359905D01*
Y407125D01*
X359238Y406459D01*
X384405Y363459D02*
X383739Y364125D01*
X382406D01*
X381740Y363459D01*
Y360793D01*
X382406Y360127D01*
X383739D01*
X384405Y360793D01*
X385738Y360127D02*
X387071D01*
X386405D01*
Y364125D01*
X385738Y363459D01*
X414405Y403628D02*
X410406D01*
Y405627D01*
X411073Y406293D01*
X412405D01*
X413072Y405627D01*
Y403628D01*
Y404960D02*
X414405Y406293D01*
Y407626D02*
Y408959D01*
Y408293D01*
X410406D01*
X411073Y407626D01*
X410406Y413624D02*
X411073Y412291D01*
X412405Y410959D01*
X413738D01*
X414405Y411625D01*
Y412958D01*
X413738Y413624D01*
X413072D01*
X412405Y412958D01*
Y410959D01*
X381907Y430127D02*
Y434125D01*
X383907D01*
X384573Y433459D01*
Y432126D01*
X383907Y431460D01*
X381907D01*
X383240D02*
X384573Y430127D01*
X385906D02*
X387239D01*
X386572D01*
Y434125D01*
X385906Y433459D01*
X391904Y434125D02*
X389238D01*
Y432126D01*
X390571Y432792D01*
X391237D01*
X391904Y432126D01*
Y430793D01*
X391237Y430127D01*
X389905D01*
X389238Y430793D01*
X407573Y421459D02*
X406906Y420793D01*
Y419460D01*
X407573Y418794D01*
X410238D01*
X410905Y419460D01*
Y420793D01*
X410238Y421459D01*
X406906Y425458D02*
X407573Y424125D01*
X408906Y422792D01*
X410238D01*
X410905Y423459D01*
Y424792D01*
X410238Y425458D01*
X409572D01*
X408906Y424792D01*
Y422792D01*
X393907Y430127D02*
Y434125D01*
X395906D01*
X396573Y433459D01*
Y432126D01*
X395906Y431460D01*
X393907D01*
X395240D02*
X396573Y430127D01*
X397906D02*
X399239D01*
X398572D01*
Y434125D01*
X397906Y433459D01*
X401238Y434125D02*
X403904D01*
Y433459D01*
X401238Y430793D01*
Y430127D01*
X339908D02*
Y434125D01*
X341907D01*
X342574Y433459D01*
Y432126D01*
X341907Y431460D01*
X339908D01*
X341241D02*
X342574Y430127D01*
X343906D02*
X345239D01*
X344573D01*
Y434125D01*
X343906Y433459D01*
X347239D02*
X347905Y434125D01*
X349238D01*
X349904Y433459D01*
Y430793D01*
X349238Y430127D01*
X347905D01*
X347239Y430793D01*
Y433459D01*
X351237Y434125D02*
Y430127D01*
X353237D01*
X353903Y430793D01*
Y431460D01*
X353237Y432126D01*
X351237D01*
X353237D01*
X353903Y432792D01*
Y433459D01*
X353237Y434125D01*
X351237D01*
X371240Y414459D02*
X370573Y415125D01*
X369240D01*
X368574Y414459D01*
Y411793D01*
X369240Y411127D01*
X370573D01*
X371240Y411793D01*
X374572Y411127D02*
Y415125D01*
X372573Y413126D01*
X375238D01*
X376571Y415125D02*
Y411127D01*
X378571D01*
X379237Y411793D01*
Y412460D01*
X378571Y413126D01*
X376571D01*
X378571D01*
X379237Y413792D01*
Y414459D01*
X378571Y415125D01*
X376571D01*
X368741Y417127D02*
Y421125D01*
X370740D01*
X371407Y420459D01*
Y419126D01*
X370740Y418460D01*
X368741D01*
X370074D02*
X371407Y417127D01*
X372740D02*
X374073D01*
X373406D01*
Y421125D01*
X372740Y420459D01*
X376072Y417127D02*
X377405D01*
X376738D01*
Y421125D01*
X376072Y420459D01*
X379404Y421125D02*
Y417127D01*
X381404D01*
X382070Y417793D01*
Y418460D01*
X381404Y419126D01*
X379404D01*
X381404D01*
X382070Y419792D01*
Y420459D01*
X381404Y421125D01*
X379404D01*
X369074Y423627D02*
Y427625D01*
X371073D01*
X371740Y426959D01*
Y425626D01*
X371073Y424960D01*
X369074D01*
X370407D02*
X371740Y423627D01*
X373073Y424293D02*
X373739Y423627D01*
X375072D01*
X375738Y424293D01*
Y426959D01*
X375072Y427625D01*
X373739D01*
X373073Y426959D01*
Y426292D01*
X373739Y425626D01*
X375738D01*
X377071Y427625D02*
Y423627D01*
X379071D01*
X379737Y424293D01*
Y424960D01*
X379071Y425626D01*
X377071D01*
X379071D01*
X379737Y426292D01*
Y426959D01*
X379071Y427625D01*
X377071D01*
X361074Y351127D02*
Y355125D01*
X363073D01*
X363740Y354459D01*
Y353126D01*
X363073Y352460D01*
X361074D01*
X362407D02*
X363740Y351127D01*
X365073Y355125D02*
X367738D01*
Y354459D01*
X365073Y351793D01*
Y351127D01*
X369071Y355125D02*
Y351127D01*
X371071D01*
X371737Y351793D01*
Y352460D01*
X371071Y353126D01*
X369071D01*
X371071D01*
X371737Y353792D01*
Y354459D01*
X371071Y355125D01*
X369071D01*
X361074Y345127D02*
Y349125D01*
X363073D01*
X363740Y348459D01*
Y347126D01*
X363073Y346460D01*
X361074D01*
X362407D02*
X363740Y345127D01*
X365073Y348459D02*
X365739Y349125D01*
X367072D01*
X367738Y348459D01*
Y347792D01*
X367072Y347126D01*
X367738Y346460D01*
Y345793D01*
X367072Y345127D01*
X365739D01*
X365073Y345793D01*
Y346460D01*
X365739Y347126D01*
X365073Y347792D01*
Y348459D01*
X365739Y347126D02*
X367072D01*
X369071Y349125D02*
Y345127D01*
X371071D01*
X371737Y345793D01*
Y346460D01*
X371071Y347126D01*
X369071D01*
X371071D01*
X371737Y347792D01*
Y348459D01*
X371071Y349125D01*
X369071D01*
X322408Y424127D02*
Y428125D01*
X324407D01*
X325074Y427459D01*
Y426126D01*
X324407Y425459D01*
X322408D01*
X323741D02*
X325074Y424127D01*
X326407D02*
X327739D01*
X327073D01*
Y428125D01*
X326407Y427459D01*
X332404Y424127D02*
X329739D01*
X332404Y426792D01*
Y427459D01*
X331738Y428125D01*
X330405D01*
X329739Y427459D01*
X333737Y428125D02*
Y424127D01*
X335737D01*
X336403Y424793D01*
Y425459D01*
X335737Y426126D01*
X333737D01*
X335737D01*
X336403Y426792D01*
Y427459D01*
X335737Y428125D01*
X333737D01*
X322408Y430127D02*
Y434125D01*
X324407D01*
X325074Y433459D01*
Y432126D01*
X324407Y431460D01*
X322408D01*
X323741D02*
X325074Y430127D01*
X326407D02*
X327739D01*
X327073D01*
Y434125D01*
X326407Y433459D01*
X329739D02*
X330405Y434125D01*
X331738D01*
X332404Y433459D01*
Y432792D01*
X331738Y432126D01*
X331072D01*
X331738D01*
X332404Y431460D01*
Y430793D01*
X331738Y430127D01*
X330405D01*
X329739Y430793D01*
X333737Y434125D02*
Y430127D01*
X335737D01*
X336403Y430793D01*
Y431460D01*
X335737Y432126D01*
X333737D01*
X335737D01*
X336403Y432792D01*
Y433459D01*
X335737Y434125D01*
X333737D01*
X313574Y352127D02*
Y356125D01*
X315573D01*
X316240Y355459D01*
Y354126D01*
X315573Y353460D01*
X313574D01*
X314907D02*
X316240Y352127D01*
X319572D02*
Y356125D01*
X317573Y354126D01*
X320238D01*
X321571Y356125D02*
Y352127D01*
X323571D01*
X324237Y352793D01*
Y353460D01*
X323571Y354126D01*
X321571D01*
X323571D01*
X324237Y354792D01*
Y355459D01*
X323571Y356125D01*
X321571D01*
X331074Y345127D02*
Y349125D01*
X333073D01*
X333740Y348459D01*
Y347126D01*
X333073Y346460D01*
X331074D01*
X332407D02*
X333740Y345127D01*
X337738Y349125D02*
X335073D01*
Y347126D01*
X336405Y347792D01*
X337072D01*
X337738Y347126D01*
Y345793D01*
X337072Y345127D01*
X335739D01*
X335073Y345793D01*
X339071Y349125D02*
Y345127D01*
X341071D01*
X341737Y345793D01*
Y346460D01*
X341071Y347126D01*
X339071D01*
X341071D01*
X341737Y347792D01*
Y348459D01*
X341071Y349125D01*
X339071D01*
X313574Y358127D02*
Y362125D01*
X315573D01*
X316240Y361459D01*
Y360126D01*
X315573Y359459D01*
X313574D01*
X314907D02*
X316240Y358127D01*
X320238Y362125D02*
X318905Y361459D01*
X317573Y360126D01*
Y358793D01*
X318239Y358127D01*
X319572D01*
X320238Y358793D01*
Y359459D01*
X319572Y360126D01*
X317573D01*
X321571Y362125D02*
Y358127D01*
X323571D01*
X324237Y358793D01*
Y359459D01*
X323571Y360126D01*
X321571D01*
X323571D01*
X324237Y360792D01*
Y361459D01*
X323571Y362125D01*
X321571D01*
X321574Y408625D02*
Y405293D01*
X322240Y404627D01*
X323573D01*
X324240Y405293D01*
Y408625D01*
X328238Y404627D02*
X325573D01*
X328238Y407292D01*
Y407959D01*
X327572Y408625D01*
X326239D01*
X325573Y407959D01*
X329571Y408625D02*
Y404627D01*
X331571D01*
X332237Y405293D01*
Y405960D01*
X331571Y406626D01*
X329571D01*
X331571D01*
X332237Y407292D01*
Y407959D01*
X331571Y408625D01*
X329571D01*
X310740Y400959D02*
X310073Y401625D01*
X308740D01*
X308074Y400959D01*
Y398293D01*
X308740Y397627D01*
X310073D01*
X310740Y398293D01*
X312073Y400959D02*
X312739Y401625D01*
X314072D01*
X314738Y400959D01*
Y400292D01*
X314072Y399626D01*
X313405D01*
X314072D01*
X314738Y398959D01*
Y398293D01*
X314072Y397627D01*
X312739D01*
X312073Y398293D01*
X316071Y401625D02*
Y397627D01*
X318071D01*
X318737Y398293D01*
Y398959D01*
X318071Y399626D01*
X316071D01*
X318071D01*
X318737Y400292D01*
Y400959D01*
X318071Y401625D01*
X316071D01*
X308074Y391627D02*
Y395625D01*
X310073D01*
X310740Y394959D01*
Y393626D01*
X310073Y392959D01*
X308074D01*
X309407D02*
X310740Y391627D01*
X312073Y394959D02*
X312739Y395625D01*
X314072D01*
X314738Y394959D01*
Y394292D01*
X314072Y393626D01*
X313405D01*
X314072D01*
X314738Y392959D01*
Y392293D01*
X314072Y391627D01*
X312739D01*
X312073Y392293D01*
X316071Y395625D02*
Y391627D01*
X318071D01*
X318737Y392293D01*
Y392959D01*
X318071Y393626D01*
X316071D01*
X318071D01*
X318737Y394292D01*
Y394959D01*
X318071Y395625D01*
X316071D01*
X308074Y385627D02*
Y389625D01*
X310073D01*
X310740Y388959D01*
Y387626D01*
X310073Y386960D01*
X308074D01*
X309407D02*
X310740Y385627D01*
X314738D02*
X312073D01*
X314738Y388292D01*
Y388959D01*
X314072Y389625D01*
X312739D01*
X312073Y388959D01*
X316071Y389625D02*
Y385627D01*
X318071D01*
X318737Y386293D01*
Y386960D01*
X318071Y387626D01*
X316071D01*
X318071D01*
X318737Y388292D01*
Y388959D01*
X318071Y389625D01*
X316071D01*
X307907Y379627D02*
Y383625D01*
X309907D01*
X310573Y382959D01*
Y381626D01*
X309907Y380960D01*
X307907D01*
X309240D02*
X310573Y379627D01*
X311906D02*
X313239D01*
X312572D01*
Y383625D01*
X311906Y382959D01*
X315238Y383625D02*
Y379627D01*
X317237D01*
X317904Y380293D01*
Y380960D01*
X317237Y381626D01*
X315238D01*
X317237D01*
X317904Y382292D01*
Y382959D01*
X317237Y383625D01*
X315238D01*
X316240Y367459D02*
X315573Y368125D01*
X314240D01*
X313574Y367459D01*
Y364793D01*
X314240Y364127D01*
X315573D01*
X316240Y364793D01*
X320238Y364127D02*
X317573D01*
X320238Y366792D01*
Y367459D01*
X319572Y368125D01*
X318239D01*
X317573Y367459D01*
X321571Y368125D02*
Y364127D01*
X323571D01*
X324237Y364793D01*
Y365459D01*
X323571Y366126D01*
X321571D01*
X323571D01*
X324237Y366792D01*
Y367459D01*
X323571Y368125D01*
X321571D01*
X282074Y345127D02*
Y349125D01*
X284073D01*
X284740Y348459D01*
Y347126D01*
X284073Y346460D01*
X282074D01*
X283407D02*
X284740Y345127D01*
X288738Y349125D02*
X286073D01*
Y347126D01*
X287405Y347792D01*
X288072D01*
X288738Y347126D01*
Y345793D01*
X288072Y345127D01*
X286739D01*
X286073Y345793D01*
X290071Y345127D02*
Y347792D01*
X291404Y349125D01*
X292737Y347792D01*
Y345127D01*
Y347126D01*
X290071D01*
X297574Y345127D02*
Y349125D01*
X299573D01*
X300240Y348459D01*
Y347126D01*
X299573Y346460D01*
X297574D01*
X298907D02*
X300240Y345127D01*
X301573Y348459D02*
X302239Y349125D01*
X303572D01*
X304238Y348459D01*
Y347792D01*
X303572Y347126D01*
X304238Y346460D01*
Y345793D01*
X303572Y345127D01*
X302239D01*
X301573Y345793D01*
Y346460D01*
X302239Y347126D01*
X301573Y347792D01*
Y348459D01*
X302239Y347126D02*
X303572D01*
X305571Y345127D02*
Y347792D01*
X306904Y349125D01*
X308237Y347792D01*
Y345127D01*
Y347126D01*
X305571D01*
X263408Y424127D02*
Y428125D01*
X265407D01*
X266074Y427459D01*
Y426126D01*
X265407Y425459D01*
X263408D01*
X264741D02*
X266074Y424127D01*
X267407D02*
X268739D01*
X268073D01*
Y428125D01*
X267407Y427459D01*
X273405Y424127D02*
X270739D01*
X273405Y426792D01*
Y427459D01*
X272738Y428125D01*
X271405D01*
X270739Y427459D01*
X274737Y424127D02*
Y426792D01*
X276070Y428125D01*
X277403Y426792D01*
Y424127D01*
Y426126D01*
X274737D01*
X257240Y367959D02*
X256573Y368625D01*
X255240D01*
X254574Y367959D01*
Y365293D01*
X255240Y364627D01*
X256573D01*
X257240Y365293D01*
X261238Y364627D02*
X258573D01*
X261238Y367292D01*
Y367959D01*
X260572Y368625D01*
X259239D01*
X258573Y367959D01*
X262571Y364627D02*
Y367292D01*
X263904Y368625D01*
X265237Y367292D01*
Y364627D01*
Y366626D01*
X262571D01*
X251740Y401459D02*
X251073Y402125D01*
X249740D01*
X249074Y401459D01*
Y398793D01*
X249740Y398127D01*
X251073D01*
X251740Y398793D01*
X253073Y401459D02*
X253739Y402125D01*
X255072D01*
X255738Y401459D01*
Y400792D01*
X255072Y400126D01*
X254405D01*
X255072D01*
X255738Y399460D01*
Y398793D01*
X255072Y398127D01*
X253739D01*
X253073Y398793D01*
X257071Y398127D02*
Y400792D01*
X258404Y402125D01*
X259737Y400792D01*
Y398127D01*
Y400126D01*
X257071D01*
X263408Y430127D02*
Y434125D01*
X265407D01*
X266074Y433459D01*
Y432126D01*
X265407Y431460D01*
X263408D01*
X264741D02*
X266074Y430127D01*
X267407D02*
X268739D01*
X268073D01*
Y434125D01*
X267407Y433459D01*
X270739D02*
X271405Y434125D01*
X272738D01*
X273405Y433459D01*
Y432792D01*
X272738Y432126D01*
X272072D01*
X272738D01*
X273405Y431460D01*
Y430793D01*
X272738Y430127D01*
X271405D01*
X270739Y430793D01*
X274737Y430127D02*
Y432792D01*
X276070Y434125D01*
X277403Y432792D01*
Y430127D01*
Y432126D01*
X274737D01*
X262574Y408625D02*
Y405293D01*
X263240Y404627D01*
X264573D01*
X265240Y405293D01*
Y408625D01*
X269238Y404627D02*
X266573D01*
X269238Y407292D01*
Y407959D01*
X268572Y408625D01*
X267239D01*
X266573Y407959D01*
X270571Y404627D02*
Y407292D01*
X271904Y408625D01*
X273237Y407292D01*
Y404627D01*
Y406626D01*
X270571D01*
X254574Y352127D02*
Y356125D01*
X256573D01*
X257240Y355459D01*
Y354126D01*
X256573Y353460D01*
X254574D01*
X255907D02*
X257240Y352127D01*
X260572D02*
Y356125D01*
X258573Y354126D01*
X261238D01*
X262571Y352127D02*
Y354792D01*
X263904Y356125D01*
X265237Y354792D01*
Y352127D01*
Y354126D01*
X262571D01*
X254574Y358127D02*
Y362125D01*
X256573D01*
X257240Y361459D01*
Y360126D01*
X256573Y359459D01*
X254574D01*
X255907D02*
X257240Y358127D01*
X261238Y362125D02*
X259906Y361459D01*
X258573Y360126D01*
Y358793D01*
X259239Y358127D01*
X260572D01*
X261238Y358793D01*
Y359459D01*
X260572Y360126D01*
X258573D01*
X262571Y358127D02*
Y360792D01*
X263904Y362125D01*
X265237Y360792D01*
Y358127D01*
Y360126D01*
X262571D01*
X248907Y379627D02*
Y383625D01*
X250906D01*
X251573Y382959D01*
Y381626D01*
X250906Y380960D01*
X248907D01*
X250240D02*
X251573Y379627D01*
X252906D02*
X254239D01*
X253572D01*
Y383625D01*
X252906Y382959D01*
X256238Y379627D02*
Y382292D01*
X257571Y383625D01*
X258904Y382292D01*
Y379627D01*
Y381626D01*
X256238D01*
X249074Y385627D02*
Y389625D01*
X251073D01*
X251740Y388959D01*
Y387626D01*
X251073Y386960D01*
X249074D01*
X250407D02*
X251740Y385627D01*
X255738D02*
X253073D01*
X255738Y388292D01*
Y388959D01*
X255072Y389625D01*
X253739D01*
X253073Y388959D01*
X257071Y385627D02*
Y388292D01*
X258404Y389625D01*
X259737Y388292D01*
Y385627D01*
Y387626D01*
X257071D01*
X249074Y392127D02*
Y396125D01*
X251073D01*
X251740Y395459D01*
Y394126D01*
X251073Y393460D01*
X249074D01*
X250407D02*
X251740Y392127D01*
X253073Y395459D02*
X253739Y396125D01*
X255072D01*
X255738Y395459D01*
Y394792D01*
X255072Y394126D01*
X254405D01*
X255072D01*
X255738Y393460D01*
Y392793D01*
X255072Y392127D01*
X253739D01*
X253073Y392793D01*
X257071Y392127D02*
Y394792D01*
X258404Y396125D01*
X259737Y394792D01*
Y392127D01*
Y394126D01*
X257071D01*
X280908Y430127D02*
Y434125D01*
X282907D01*
X283574Y433459D01*
Y432126D01*
X282907Y431460D01*
X280908D01*
X282241D02*
X283574Y430127D01*
X284907D02*
X286239D01*
X285573D01*
Y434125D01*
X284907Y433459D01*
X288239D02*
X288905Y434125D01*
X290238D01*
X290904Y433459D01*
Y430793D01*
X290238Y430127D01*
X288905D01*
X288239Y430793D01*
Y433459D01*
X292237Y430127D02*
Y432792D01*
X293570Y434125D01*
X294903Y432792D01*
Y430127D01*
Y432126D01*
X292237D01*
X309574Y423627D02*
Y427625D01*
X311573D01*
X312240Y426959D01*
Y425626D01*
X311573Y424960D01*
X309574D01*
X310907D02*
X312240Y423627D01*
X313573Y424293D02*
X314239Y423627D01*
X315572D01*
X316238Y424293D01*
Y426959D01*
X315572Y427625D01*
X314239D01*
X313573Y426959D01*
Y426292D01*
X314239Y425626D01*
X316238D01*
X317571Y423627D02*
Y426292D01*
X318904Y427625D01*
X320237Y426292D01*
Y423627D01*
Y425626D01*
X317571D01*
X309741Y417127D02*
Y421125D01*
X311740D01*
X312407Y420459D01*
Y419126D01*
X311740Y418460D01*
X309741D01*
X311074D02*
X312407Y417127D01*
X313740D02*
X315073D01*
X314406D01*
Y421125D01*
X313740Y420459D01*
X317072Y417127D02*
X318405D01*
X317738D01*
Y421125D01*
X317072Y420459D01*
X320404Y417127D02*
Y419792D01*
X321737Y421125D01*
X323070Y419792D01*
Y417127D01*
Y419126D01*
X320404D01*
X312240Y414459D02*
X311573Y415125D01*
X310240D01*
X309574Y414459D01*
Y411793D01*
X310240Y411127D01*
X311573D01*
X312240Y411793D01*
X315572Y411127D02*
Y415125D01*
X313573Y413126D01*
X316238D01*
X317571Y411127D02*
Y413792D01*
X318904Y415125D01*
X320237Y413792D01*
Y411127D01*
Y413126D01*
X317571D01*
X297574Y351127D02*
Y355125D01*
X299573D01*
X300240Y354459D01*
Y353126D01*
X299573Y352460D01*
X297574D01*
X298907D02*
X300240Y351127D01*
X301573Y355125D02*
X304238D01*
Y354459D01*
X301573Y351793D01*
Y351127D01*
X305571D02*
Y353792D01*
X306904Y355125D01*
X308237Y353792D01*
Y351127D01*
Y353126D01*
X305571D01*
X381499Y286832D02*
X377501D01*
Y284832D01*
X378167Y284166D01*
X380833D01*
X381499Y284832D01*
Y286832D01*
X380833Y280167D02*
X381499Y280834D01*
Y282166D01*
X380833Y282833D01*
X380166D01*
X379500Y282166D01*
Y280834D01*
X378834Y280167D01*
X378167D01*
X377501Y280834D01*
Y282166D01*
X378167Y282833D01*
X380833Y278834D02*
X381499Y278168D01*
Y276835D01*
X380833Y276168D01*
X380166D01*
X379500Y276835D01*
Y277501D01*
Y276835D01*
X378834Y276168D01*
X378167D01*
X377501Y276835D01*
Y278168D01*
X378167Y278834D01*
X371001Y286832D02*
X374999D01*
Y284832D01*
X374333Y284166D01*
X373000D01*
X372334Y284832D01*
Y286832D01*
Y285499D02*
X371001Y284166D01*
Y280167D02*
Y282833D01*
X373666Y280167D01*
X374333D01*
X374999Y280834D01*
Y282166D01*
X374333Y282833D01*
X371001Y276835D02*
X374999D01*
X373000Y278834D01*
Y276168D01*
X407834Y327833D02*
X407168Y328499D01*
X405835D01*
X405168Y327833D01*
Y325167D01*
X405835Y324501D01*
X407168D01*
X407834Y325167D01*
X411833Y324501D02*
X409167D01*
X411833Y327166D01*
Y327833D01*
X411166Y328499D01*
X409834D01*
X409167Y327833D01*
X415832Y328499D02*
X413166D01*
Y326500D01*
X414499Y327166D01*
X415165D01*
X415832Y326500D01*
Y325167D01*
X415165Y324501D01*
X413832D01*
X413166Y325167D01*
X371001Y299832D02*
X374999D01*
Y297832D01*
X374333Y297166D01*
X373000D01*
X372334Y297832D01*
Y299832D01*
Y298499D02*
X371001Y297166D01*
Y293167D02*
Y295833D01*
X373666Y293167D01*
X374333D01*
X374999Y293834D01*
Y295166D01*
X374333Y295833D01*
X371001Y289168D02*
Y291834D01*
X373666Y289168D01*
X374333D01*
X374999Y289835D01*
Y291168D01*
X374333Y291834D01*
X377501Y299832D02*
X381499D01*
Y297832D01*
X380833Y297166D01*
X379500D01*
X378834Y297832D01*
Y299832D01*
Y298499D02*
X377501Y297166D01*
Y293167D02*
Y295833D01*
X380166Y293167D01*
X380833D01*
X381499Y293834D01*
Y295166D01*
X380833Y295833D01*
Y291834D02*
X381499Y291168D01*
Y289835D01*
X380833Y289168D01*
X380166D01*
X379500Y289835D01*
Y290501D01*
Y289835D01*
X378834Y289168D01*
X378167D01*
X377501Y289835D01*
Y291168D01*
X378167Y291834D01*
X405834Y262833D02*
X405168Y263499D01*
X403835D01*
X403168Y262833D01*
Y260167D01*
X403835Y259501D01*
X405168D01*
X405834Y260167D01*
X409833Y259501D02*
X407167D01*
X409833Y262166D01*
Y262833D01*
X409166Y263499D01*
X407834D01*
X407167Y262833D01*
X413832Y259501D02*
X411166D01*
X413832Y262166D01*
Y262833D01*
X413165Y263499D01*
X411832D01*
X411166Y262833D01*
X384168Y259499D02*
X386834D01*
X385501D01*
Y255501D01*
X388167D02*
Y259499D01*
X390166D01*
X390833Y258833D01*
Y257500D01*
X390166Y256834D01*
X388167D01*
X392166Y258833D02*
X392832Y259499D01*
X394165D01*
X394832Y258833D01*
Y258166D01*
X394165Y257500D01*
X393499D01*
X394165D01*
X394832Y256834D01*
Y256167D01*
X394165Y255501D01*
X392832D01*
X392166Y256167D01*
X395334Y327833D02*
X394668Y328499D01*
X393335D01*
X392668Y327833D01*
Y325167D01*
X393335Y324501D01*
X394668D01*
X395334Y325167D01*
X399333Y324501D02*
X396667D01*
X399333Y327166D01*
Y327833D01*
X398666Y328499D01*
X397334D01*
X396667Y327833D01*
X402665Y324501D02*
Y328499D01*
X400666Y326500D01*
X403332D01*
X426668Y328999D02*
Y325001D01*
X429334D01*
X433332D02*
X430666D01*
X433332Y327666D01*
Y328333D01*
X432666Y328999D01*
X431333D01*
X430666Y328333D01*
X445335Y329499D02*
X448001D01*
X446668D01*
Y325501D01*
X449334D02*
Y329499D01*
X451333D01*
X451999Y328833D01*
Y327500D01*
X451333Y326834D01*
X449334D01*
X453332Y325501D02*
X454665D01*
X453999D01*
Y329499D01*
X453332Y328833D01*
X406168Y256999D02*
Y253667D01*
X406834Y253001D01*
X408167D01*
X408834Y253667D01*
Y256999D01*
X410167D02*
X412832D01*
Y256333D01*
X410167Y253667D01*
Y253001D01*
X407001Y249833D02*
X406334Y250499D01*
X405001D01*
X404335Y249833D01*
Y247167D01*
X405001Y246501D01*
X406334D01*
X407001Y247167D01*
X410999Y246501D02*
X408334D01*
X410999Y249166D01*
Y249833D01*
X410333Y250499D01*
X409000D01*
X408334Y249833D01*
X412332Y246501D02*
X413665D01*
X412999D01*
Y250499D01*
X412332Y249833D01*
X442168Y274999D02*
Y271001D01*
X444167D01*
X444834Y271667D01*
Y274333D01*
X444167Y274999D01*
X442168D01*
X448832Y271001D02*
X446167D01*
X448832Y273666D01*
Y274333D01*
X448166Y274999D01*
X446833D01*
X446167Y274333D01*
X426602Y262502D02*
X425936Y263169D01*
X424603D01*
X423936Y262502D01*
Y259836D01*
X424603Y259170D01*
X425936D01*
X426602Y259836D01*
X430601Y259170D02*
X427935D01*
X430601Y261836D01*
Y262502D01*
X429934Y263169D01*
X428601D01*
X427935Y262502D01*
X431933D02*
X432600Y263169D01*
X433933D01*
X434599Y262502D01*
Y261836D01*
X433933Y261169D01*
X433266D01*
X433933D01*
X434599Y260503D01*
Y259836D01*
X433933Y259170D01*
X432600D01*
X431933Y259836D01*
X447668Y306499D02*
X450334D01*
X449001D01*
Y302501D01*
X451667D02*
Y306499D01*
X453666D01*
X454333Y305833D01*
Y304500D01*
X453666Y303834D01*
X451667D01*
X458332Y302501D02*
X455666D01*
X458332Y305166D01*
Y305833D01*
X457665Y306499D01*
X456332D01*
X455666Y305833D01*
X333471Y287673D02*
Y283674D01*
X335470D01*
X336137Y284340D01*
Y287006D01*
X335470Y287673D01*
X333471D01*
X339469Y283674D02*
Y287673D01*
X337470Y285673D01*
X340135D01*
X348971Y287673D02*
Y283674D01*
X350970D01*
X351637Y284340D01*
Y287006D01*
X350970Y287673D01*
X348971D01*
X352970Y287006D02*
X353636Y287673D01*
X354969D01*
X355635Y287006D01*
Y286340D01*
X354969Y285673D01*
X354303D01*
X354969D01*
X355635Y285007D01*
Y284340D01*
X354969Y283674D01*
X353636D01*
X352970Y284340D01*
X336137Y333840D02*
Y336506D01*
X335470Y337173D01*
X334137D01*
X333471Y336506D01*
Y333840D01*
X334137Y333174D01*
X335470D01*
X334804Y334507D02*
X336137Y333174D01*
X335470D02*
X336137Y333840D01*
X340135Y333174D02*
X337470D01*
X340135Y335840D01*
Y336506D01*
X339469Y337173D01*
X338136D01*
X337470Y336506D01*
X360472Y317174D02*
Y321173D01*
X362471D01*
X363137Y320506D01*
Y319173D01*
X362471Y318507D01*
X360472D01*
X361804D02*
X363137Y317174D01*
X367136D02*
X364470D01*
X367136Y319840D01*
Y320506D01*
X366470Y321173D01*
X365137D01*
X364470Y320506D01*
X368469Y317840D02*
X369135Y317174D01*
X370468D01*
X371135Y317840D01*
Y320506D01*
X370468Y321173D01*
X369135D01*
X368469Y320506D01*
Y319840D01*
X369135Y319173D01*
X371135D01*
X360472Y323674D02*
Y327673D01*
X362471D01*
X363137Y327006D01*
Y325673D01*
X362471Y325007D01*
X360472D01*
X361804D02*
X363137Y323674D01*
X367136D02*
X364470D01*
X367136Y326340D01*
Y327006D01*
X366470Y327673D01*
X365137D01*
X364470Y327006D01*
X368469D02*
X369135Y327673D01*
X370468D01*
X371135Y327006D01*
Y326340D01*
X370468Y325673D01*
X371135Y325007D01*
Y324340D01*
X370468Y323674D01*
X369135D01*
X368469Y324340D01*
Y325007D01*
X369135Y325673D01*
X368469Y326340D01*
Y327006D01*
X369135Y325673D02*
X370468D01*
X360553Y329620D02*
Y333619D01*
X362552D01*
X363219Y332953D01*
Y331620D01*
X362552Y330953D01*
X360553D01*
X361886D02*
X363219Y329620D01*
X364552Y332953D02*
X365218Y333619D01*
X366551D01*
X367217Y332953D01*
Y332286D01*
X366551Y331620D01*
X365884D01*
X366551D01*
X367217Y330953D01*
Y330287D01*
X366551Y329620D01*
X365218D01*
X364552Y330287D01*
X368550Y332953D02*
X369217Y333619D01*
X370550D01*
X371216Y332953D01*
Y330287D01*
X370550Y329620D01*
X369217D01*
X368550Y330287D01*
Y332953D01*
X265733Y266779D02*
X263733D01*
X264733D01*
Y261780D01*
X263733Y260781D01*
X262734D01*
X261734Y261780D01*
X271731Y266779D02*
X267732D01*
Y263779D01*
X269731Y264779D01*
X270731D01*
X271731Y263779D01*
Y261780D01*
X270731Y260781D01*
X268732D01*
X267732Y261780D01*
X305103Y276621D02*
X303103D01*
X304103D01*
Y271623D01*
X303103Y270623D01*
X302104D01*
X301104Y271623D01*
X311101Y276621D02*
X309101Y275621D01*
X307102Y273622D01*
Y271623D01*
X308102Y270623D01*
X310101D01*
X311101Y271623D01*
Y272622D01*
X310101Y273622D01*
X307102D01*
X304400Y323225D02*
X305400Y324225D01*
Y326224D01*
X304400Y327224D01*
X300401D01*
X299401Y326224D01*
Y324225D01*
X300401Y323225D01*
X302401D01*
Y325224D01*
X305400Y317227D02*
Y321226D01*
X302401D01*
X303400Y319226D01*
Y318227D01*
X302401Y317227D01*
X300401D01*
X299401Y318227D01*
Y320226D01*
X300401Y321226D01*
X305400Y315228D02*
X301401D01*
X299401Y313228D01*
X301401Y311229D01*
X305400D01*
X302401Y309230D02*
Y305231D01*
X299401Y299233D02*
Y303232D01*
X303400Y299233D01*
X304400D01*
X305400Y300233D01*
Y302232D01*
X304400Y303232D01*
D11*
X401506Y286675D02*
X400768Y287101D01*
Y286249D01*
X401506Y286675D01*
X344382Y327898D02*
X343644Y328324D01*
Y327471D01*
X344382Y327898D01*
D12*
X394406Y372126D02*
X399406D01*
X387405D02*
X392406D01*
X394406Y378126D02*
X399406D01*
X387405D02*
X392406D01*
X399406Y372126D02*
Y378126D01*
X387405Y372126D02*
Y378126D01*
X391406Y372126D02*
X397905D01*
X404906D02*
X411406D01*
X391406Y363126D02*
X397905D01*
X404906D02*
X411406D01*
X391406D02*
Y372126D01*
X411406Y363126D02*
Y372126D01*
X399406D02*
Y378126D01*
X411406Y372126D02*
Y378126D01*
X399406D02*
X404405D01*
X406405D02*
X411406D01*
X399406Y372126D02*
X404405D01*
X406405D02*
X411406D01*
X381405Y366126D02*
Y371126D01*
Y373126D02*
Y378126D01*
X387405Y366126D02*
Y371126D01*
Y373126D02*
Y378126D01*
X381405Y366126D02*
X387405D01*
X381405Y378126D02*
X387405D01*
X386906Y416126D02*
X392905D01*
X386906Y428126D02*
X392905D01*
X386906Y416126D02*
Y421126D01*
Y423126D02*
Y428126D01*
X392905Y416126D02*
Y421126D01*
Y423126D02*
Y428126D01*
X398905Y416126D02*
Y421126D01*
Y423126D02*
Y428126D01*
X404906Y416126D02*
Y421126D01*
Y423126D02*
Y428126D01*
X398905Y416126D02*
X404906D01*
X398905Y428126D02*
X404906D01*
X392905D02*
X398905D01*
X392905Y416126D02*
X398905D01*
Y423126D02*
Y428126D01*
Y416126D02*
Y421126D01*
X392905Y423126D02*
Y428126D01*
Y416126D02*
Y421126D01*
X354405Y416126D02*
X359405D01*
X361405D02*
X366406D01*
X354405Y410126D02*
X359405D01*
X361405D02*
X366406D01*
X354405D02*
Y416126D01*
X366406Y410126D02*
Y416126D01*
Y422126D01*
X354405Y416126D02*
Y422126D01*
X361405Y416126D02*
X366406D01*
X354405D02*
X359405D01*
X361405Y422126D02*
X366406D01*
X354405D02*
X359405D01*
X354405D02*
Y428126D01*
X366406Y422126D02*
Y428126D01*
X354405D02*
X359405D01*
X361405D02*
X366406D01*
X354405Y422126D02*
X359405D01*
X361405D02*
X366406D01*
X354405Y369126D02*
X359405D01*
X361405D02*
X366406D01*
X354405Y363126D02*
X359405D01*
X361405D02*
X366406D01*
X354405D02*
Y369126D01*
X366406Y363126D02*
Y369126D01*
X354405Y363126D02*
X359405D01*
X361405D02*
X366406D01*
X354405Y357126D02*
X359405D01*
X361405D02*
X366406D01*
X354405D02*
Y363126D01*
X366406Y357126D02*
Y363126D01*
X326406Y410126D02*
Y416126D01*
X338405Y410126D02*
Y416126D01*
X326406D02*
X331405D01*
X333405D02*
X338405D01*
X326406Y410126D02*
X331405D01*
X333405D02*
X338405D01*
X326406Y416126D02*
Y422126D01*
X338405Y416126D02*
Y422126D01*
X326406D02*
X331405D01*
X333405D02*
X338405D01*
X326406Y416126D02*
X331405D01*
X333405D02*
X338405D01*
Y351126D02*
Y357126D01*
X326406Y351126D02*
Y357126D01*
X333405Y351126D02*
X338405D01*
X326406D02*
X331405D01*
X333405Y357126D02*
X338405D01*
X326406D02*
X331405D01*
X326406D02*
Y363126D01*
X338405Y357126D02*
Y363126D01*
X326406D02*
X331405D01*
X333405D02*
X338405D01*
X326406Y357126D02*
X331405D01*
X333405D02*
X338405D01*
X327906Y396626D02*
X332906D01*
X320905D02*
X325905D01*
X327906Y402626D02*
X332906D01*
X320905D02*
X325905D01*
X332906Y396626D02*
Y402626D01*
X320905Y396626D02*
Y402626D01*
Y390626D02*
Y396626D01*
X332906Y390626D02*
Y396626D01*
X320905D02*
X325905D01*
X327906D02*
X332906D01*
X320905Y390626D02*
X325905D01*
X327906D02*
X332906D01*
Y384626D02*
Y390626D01*
X320905Y384626D02*
Y390626D01*
X327906Y384626D02*
X332906D01*
X320905D02*
X325905D01*
X327906Y390626D02*
X332906D01*
X320905D02*
X325905D01*
X320905Y378626D02*
Y384626D01*
X332906Y378626D02*
Y384626D01*
X320905D02*
X325905D01*
X327906D02*
X332906D01*
X320905Y378626D02*
X325905D01*
X327906D02*
X332906D01*
X333405Y363126D02*
X338405D01*
X326406D02*
X331405D01*
X333405Y369126D02*
X338405D01*
X326406D02*
X331405D01*
X338405Y363126D02*
Y369126D01*
X326406Y363126D02*
Y369126D01*
X307405Y357126D02*
Y363126D01*
X295406Y357126D02*
Y363126D01*
X302406Y357126D02*
X307405D01*
X295406D02*
X300406D01*
X302406Y363126D02*
X307405D01*
X295406D02*
X300406D01*
X267406Y410126D02*
Y416126D01*
X279405Y410126D02*
Y416126D01*
X267406D02*
X272406D01*
X274406D02*
X279405D01*
X267406Y410126D02*
X272406D01*
X274406D02*
X279405D01*
X274406Y363126D02*
X279405D01*
X267406D02*
X272406D01*
X274406Y369126D02*
X279405D01*
X267406D02*
X272406D01*
X279405Y363126D02*
Y369126D01*
X267406Y363126D02*
Y369126D01*
X261906Y396626D02*
Y402626D01*
X273905Y396626D02*
Y402626D01*
X261906D02*
X266905D01*
X268905D02*
X273905D01*
X261906Y396626D02*
X266905D01*
X268905D02*
X273905D01*
X267406Y416126D02*
Y422126D01*
X279405Y416126D02*
Y422126D01*
X267406D02*
X272406D01*
X274406D02*
X279405D01*
X267406Y416126D02*
X272406D01*
X274406D02*
X279405D01*
Y351126D02*
Y357126D01*
X267406Y351126D02*
Y357126D01*
X274406Y351126D02*
X279405D01*
X267406D02*
X272406D01*
X274406Y357126D02*
X279405D01*
X267406D02*
X272406D01*
X267406D02*
Y363126D01*
X279405Y357126D02*
Y363126D01*
X267406D02*
X272406D01*
X274406D02*
X279405D01*
X267406Y357126D02*
X272406D01*
X274406D02*
X279405D01*
X268905Y378626D02*
X273905D01*
X261906D02*
X266905D01*
X268905Y384626D02*
X273905D01*
X261906D02*
X266905D01*
X273905Y378626D02*
Y384626D01*
X261906Y378626D02*
Y384626D01*
Y390626D02*
X266905D01*
X268905D02*
X273905D01*
X261906Y384626D02*
X266905D01*
X268905D02*
X273905D01*
X261906D02*
Y390626D01*
X273905Y384626D02*
Y390626D01*
X268905D02*
X273905D01*
X261906D02*
X266905D01*
X268905Y396626D02*
X273905D01*
X261906D02*
X266905D01*
X273905Y390626D02*
Y396626D01*
X261906Y390626D02*
Y396626D01*
X295406Y422126D02*
Y428126D01*
X307405Y422126D02*
Y428126D01*
X295406D02*
X300406D01*
X302406D02*
X307405D01*
X295406Y422126D02*
X300406D01*
X302406D02*
X307405D01*
Y416126D02*
Y422126D01*
X295406Y416126D02*
Y422126D01*
X302406Y416126D02*
X307405D01*
X295406D02*
X300406D01*
X302406Y422126D02*
X307405D01*
X295406D02*
X300406D01*
X295406Y416126D02*
X300406D01*
X302406D02*
X307405D01*
X295406Y410126D02*
X300406D01*
X302406D02*
X307405D01*
X295406D02*
Y416126D01*
X307405Y410126D02*
Y416126D01*
Y363126D02*
Y369126D01*
X295406Y363126D02*
Y369126D01*
X302406Y363126D02*
X307405D01*
X295406D02*
X300406D01*
X302406Y369126D02*
X307405D01*
X295406D02*
X300406D01*
X389500Y288500D02*
X395500D01*
X389500Y276500D02*
X395500D01*
Y283500D02*
Y288500D01*
Y276500D02*
Y281500D01*
X389500Y283500D02*
Y288500D01*
Y276500D02*
Y281500D01*
X417500Y315500D02*
Y322500D01*
Y302500D02*
Y309500D01*
X404500Y315500D02*
Y322500D01*
Y302500D02*
Y309500D01*
Y322500D02*
X417500D01*
X404500Y302500D02*
X417500D01*
X389500Y300500D02*
X395500D01*
X389500Y288500D02*
X395500D01*
Y295500D02*
Y300500D01*
Y288500D02*
Y293500D01*
X389500Y295500D02*
Y300500D01*
Y288500D02*
Y293500D01*
X383500Y300500D02*
X389500D01*
X383500Y288500D02*
X389500D01*
Y295500D02*
Y300500D01*
Y288500D02*
Y293500D01*
X383500Y295500D02*
Y300500D01*
Y288500D02*
Y293500D01*
X397614Y274528D02*
X404114D01*
X411114D02*
X417614D01*
X397614Y265528D02*
X404114D01*
X411114D02*
X417614D01*
X397614D02*
Y274528D01*
X417614Y265528D02*
Y274528D01*
X404500Y315500D02*
Y322500D01*
Y302500D02*
Y309500D01*
X391500Y315500D02*
Y322500D01*
Y302500D02*
Y309500D01*
Y322500D02*
X404500D01*
X391500Y302500D02*
X404500D01*
X402447Y298060D02*
X407447D01*
X409447D02*
X414447D01*
X402447Y292060D02*
X407447D01*
X409447D02*
X414447D01*
X402447D02*
Y298060D01*
X414447Y292060D02*
Y298060D01*
X418284Y265528D02*
Y274528D01*
X438283Y265528D02*
Y274528D01*
X418284D02*
X424784D01*
X431783D02*
X438283D01*
X418284Y265528D02*
X424784D01*
X431783D02*
X438283D01*
X346303Y316173D02*
Y322173D01*
X358303Y316173D02*
Y322173D01*
X346303D02*
X351303D01*
X353303D02*
X358303D01*
X346303Y316173D02*
X351303D01*
X353303D02*
X358303D01*
X353303Y322173D02*
X358303D01*
X346303D02*
X351303D01*
X353303Y328173D02*
X358303D01*
X346303D02*
X351303D01*
X358303Y322173D02*
Y328173D01*
X346303Y322173D02*
Y328173D01*
X346406Y328196D02*
Y334196D01*
X358406Y328196D02*
Y334196D01*
X346406D02*
X351406D01*
X353406D02*
X358406D01*
X346406Y328196D02*
X351406D01*
X353406D02*
X358406D01*
D13*
X406044Y276242D02*
X417067D01*
X406044Y289628D02*
X417067D01*
X425819Y277094D02*
X443929D01*
X425819Y288906D02*
X443929D01*
Y277094D02*
Y278079D01*
X425819Y277094D02*
Y278079D01*
X443929Y287921D02*
Y288906D01*
X425819Y287921D02*
Y288906D01*
X433477Y280451D02*
Y285451D01*
Y282951D02*
X435977Y280451D01*
X433477Y282951D02*
X435977Y285451D01*
Y280451D02*
Y285451D01*
X330898Y293118D02*
Y311228D01*
X342709Y293118D02*
Y311228D01*
X330898Y293118D02*
X331882D01*
X330898Y311228D02*
X331882D01*
X341724Y293118D02*
X342709D01*
X341724Y311228D02*
X342709D01*
X334255Y303571D02*
X339255D01*
X334255Y301071D02*
X336755Y303571D01*
X339255Y301071D01*
X334255D02*
X339255D01*
X346398Y293118D02*
Y311228D01*
X358209Y293118D02*
Y311228D01*
X346398Y293118D02*
X347382D01*
X346398Y311228D02*
X347382D01*
X357224Y293118D02*
X358209D01*
X357224Y311228D02*
X358209D01*
X349755Y303571D02*
X354755D01*
X349755Y301071D02*
X352255Y303571D01*
X354755Y301071D01*
X349755D02*
X354755D01*
X330898Y320417D02*
X334047D01*
X330898D02*
Y324354D01*
X339559Y320417D02*
X342709D01*
Y324354D01*
M02*
