G04*
G04 #@! TF.GenerationSoftware,Altium Limited,Altium Designer,21.6.4 (81)*
G04*
G04 Layer_Color=16711935*
%FSLAX25Y25*%
%MOIN*%
G70*
G04*
G04 #@! TF.SameCoordinates,C5008740-255C-4452-9732-2E8642EA51F4*
G04*
G04*
G04 #@! TF.FilePolarity,Negative*
G04*
G01*
G75*
%ADD53C,0.11811*%
%ADD54C,0.20485*%
%ADD55C,0.02800*%
%ADD56C,0.08800*%
%ADD57C,0.13811*%
%ADD58C,0.06800*%
%ADD59C,0.03950*%
D53*
X240000Y245000D02*
D03*
X420000Y233000D02*
D03*
X238500Y404000D02*
D03*
D54*
X246575Y226575D02*
D03*
X443425Y423425D02*
D03*
X246575D02*
D03*
X443425Y226575D02*
D03*
D55*
X246575Y235075D02*
D03*
X255075Y226575D02*
D03*
X252575Y232575D02*
D03*
X246575Y218075D02*
D03*
X238075Y226575D02*
D03*
X240575Y232575D02*
D03*
Y220575D02*
D03*
X252575D02*
D03*
X443425Y431925D02*
D03*
X451925Y423425D02*
D03*
X449425Y429425D02*
D03*
X443425Y414925D02*
D03*
X434925Y423425D02*
D03*
X437425Y429425D02*
D03*
Y417425D02*
D03*
X449425D02*
D03*
X246575Y431925D02*
D03*
X255075Y423425D02*
D03*
X252575Y429425D02*
D03*
X246575Y414925D02*
D03*
X238075Y423425D02*
D03*
X240575Y429425D02*
D03*
Y417425D02*
D03*
X252575D02*
D03*
X443425Y235075D02*
D03*
X451925Y226575D02*
D03*
X449425Y232575D02*
D03*
X443425Y218075D02*
D03*
X434925Y226575D02*
D03*
X437425Y232575D02*
D03*
Y220575D02*
D03*
X449425D02*
D03*
D56*
X280512Y250984D02*
D03*
X292323D02*
D03*
X334646Y262803D02*
D03*
X346457D02*
D03*
X334646Y250984D02*
D03*
X346457D02*
D03*
X358268D02*
D03*
Y262803D02*
D03*
X322835Y250984D02*
D03*
Y262803D02*
D03*
D57*
X286417Y233984D02*
D03*
X349803D02*
D03*
X331299D02*
D03*
D58*
X247402Y328228D02*
D03*
Y298228D02*
D03*
X267402Y328228D02*
D03*
Y298228D02*
D03*
X287402Y328228D02*
D03*
Y298228D02*
D03*
X317402Y328228D02*
D03*
Y298228D02*
D03*
D59*
X318925Y434425D02*
D03*
X250500Y377000D02*
D03*
X264500Y376500D02*
D03*
X370500Y389000D02*
D03*
X363500Y392000D02*
D03*
X350000Y386500D02*
D03*
X355230Y399771D02*
D03*
X342581Y398159D02*
D03*
X319500Y387500D02*
D03*
X371070Y394834D02*
D03*
X368500Y408000D02*
D03*
X279067Y394584D02*
D03*
X332000Y404425D02*
D03*
X323500Y404000D02*
D03*
X315500Y409000D02*
D03*
X351000Y430500D02*
D03*
X294000Y342000D02*
D03*
X315000D02*
D03*
X405512Y396654D02*
D03*
X398622Y414370D02*
D03*
X396654Y404528D02*
D03*
Y388779D02*
D03*
X398500Y314000D02*
D03*
X410500D02*
D03*
X400166Y283013D02*
D03*
X430000Y270000D02*
D03*
X406111Y270048D02*
D03*
X390000Y274500D02*
D03*
M02*
