G04*
G04 #@! TF.GenerationSoftware,Altium Limited,Altium Designer,21.6.4 (81)*
G04*
G04 Layer_Color=16711935*
%FSLAX25Y25*%
%MOIN*%
G70*
G04*
G04 #@! TF.SameCoordinates,D17FD3BD-2CFD-4191-9111-5C193D633D97*
G04*
G04*
G04 #@! TF.FilePolarity,Positive*
G04*
G01*
G75*
%ADD69C,0.06000*%
D69*
X243000Y245000D02*
X242837Y245974D01*
X242367Y246843D01*
X241641Y247512D01*
X240737Y247908D01*
X239752Y247990D01*
X238795Y247747D01*
X237968Y247207D01*
X237362Y246428D01*
X237041Y245494D01*
Y244506D01*
X237362Y243572D01*
X237968Y242793D01*
X238795Y242253D01*
X239752Y242010D01*
X240737Y242092D01*
X241641Y242489D01*
X242367Y243157D01*
X242837Y244026D01*
X243000Y245000D01*
X423000Y233000D02*
X422837Y233974D01*
X422367Y234843D01*
X421641Y235511D01*
X420737Y235908D01*
X419752Y235990D01*
X418795Y235747D01*
X417968Y235207D01*
X417362Y234428D01*
X417041Y233494D01*
Y232506D01*
X417362Y231572D01*
X417968Y230793D01*
X418795Y230253D01*
X419752Y230010D01*
X420737Y230092D01*
X421641Y230488D01*
X422367Y231157D01*
X422837Y232026D01*
X423000Y233000D01*
X241500Y404000D02*
X241337Y404974D01*
X240867Y405843D01*
X240141Y406511D01*
X239236Y406908D01*
X238252Y406990D01*
X237295Y406747D01*
X236468Y406207D01*
X235862Y405428D01*
X235541Y404494D01*
Y403506D01*
X235862Y402572D01*
X236468Y401793D01*
X237295Y401253D01*
X238252Y401010D01*
X239236Y401092D01*
X240141Y401488D01*
X240867Y402157D01*
X241337Y403026D01*
X241500Y404000D01*
M02*
