G04*
G04 #@! TF.GenerationSoftware,Altium Limited,Altium Designer,20.1.14 (287)*
G04*
G04 Layer_Color=16711935*
%FSLAX25Y25*%
%MOIN*%
G70*
G04*
G04 #@! TF.SameCoordinates,C2F43883-CFBE-4391-8D32-2E69E091BBB5*
G04*
G04*
G04 #@! TF.FilePolarity,Positive*
G04*
G01*
G75*
%ADD100C,0.06000*%
D100*
X243000Y245000D02*
X242837Y245974D01*
X242367Y246843D01*
X241641Y247512D01*
X240737Y247908D01*
X239752Y247990D01*
X238795Y247747D01*
X237968Y247207D01*
X237362Y246428D01*
X237041Y245494D01*
Y244506D01*
X237362Y243572D01*
X237968Y242793D01*
X238795Y242253D01*
X239752Y242010D01*
X240737Y242092D01*
X241641Y242489D01*
X242367Y243157D01*
X242837Y244026D01*
X243000Y245000D01*
X453000D02*
X452837Y245974D01*
X452367Y246843D01*
X451641Y247512D01*
X450737Y247908D01*
X449752Y247990D01*
X448795Y247747D01*
X447968Y247207D01*
X447362Y246428D01*
X447041Y245494D01*
Y244506D01*
X447362Y243572D01*
X447968Y242793D01*
X448795Y242253D01*
X449752Y242010D01*
X450737Y242092D01*
X451641Y242489D01*
X452367Y243157D01*
X452837Y244026D01*
X453000Y245000D01*
X425500Y417500D02*
X425337Y418474D01*
X424867Y419343D01*
X424141Y420012D01*
X423237Y420408D01*
X422252Y420490D01*
X421295Y420247D01*
X420468Y419707D01*
X419862Y418928D01*
X419541Y417994D01*
Y417006D01*
X419862Y416072D01*
X420468Y415293D01*
X421295Y414753D01*
X422252Y414510D01*
X423237Y414592D01*
X424141Y414989D01*
X424867Y415657D01*
X425337Y416526D01*
X425500Y417500D01*
M02*
