G04*
G04 #@! TF.GenerationSoftware,Altium Limited,Altium Designer,20.1.14 (287)*
G04*
G04 Layer_Color=16711935*
%FSLAX25Y25*%
%MOIN*%
G70*
G04*
G04 #@! TF.SameCoordinates,C2F43883-CFBE-4391-8D32-2E69E091BBB5*
G04*
G04*
G04 #@! TF.FilePolarity,Negative*
G04*
G01*
G75*
%ADD14R,0.10000X0.18000*%
%ADD16C,0.11811*%
%ADD22R,0.03800X0.04800*%
%ADD25R,0.04800X0.03800*%
%ADD47C,0.07800*%
%ADD48C,0.02800*%
%ADD49C,0.20485*%
%ADD50C,0.04800*%
%ADD51C,0.08800*%
%ADD52C,0.13811*%
%ADD53R,0.06706X0.06706*%
%ADD54C,0.06706*%
%ADD55C,0.06800*%
D14*
X234500Y368500D02*
D03*
D16*
X240000Y245000D02*
D03*
X450000D02*
D03*
X422500Y417500D02*
D03*
D22*
X347624Y334000D02*
D03*
X341376D02*
D03*
X347624Y340000D02*
D03*
X341376D02*
D03*
Y310000D02*
D03*
X347624D02*
D03*
X341376Y316000D02*
D03*
X347624D02*
D03*
D25*
X317500Y321876D02*
D03*
Y328124D02*
D03*
X353500Y321876D02*
D03*
Y328124D02*
D03*
X329500D02*
D03*
Y321876D02*
D03*
X335500Y328124D02*
D03*
Y321876D02*
D03*
X359500D02*
D03*
Y328124D02*
D03*
X323500Y321876D02*
D03*
Y328124D02*
D03*
D47*
X401525Y219475D02*
D03*
X391525D02*
D03*
X449000Y353500D02*
D03*
Y343500D02*
D03*
D48*
X252575Y417425D02*
D03*
X240575D02*
D03*
Y429425D02*
D03*
X238075Y423425D02*
D03*
X246575Y414925D02*
D03*
X252575Y429425D02*
D03*
X255075Y423425D02*
D03*
X246575Y431925D02*
D03*
X443425D02*
D03*
X451925Y423425D02*
D03*
X449425Y429425D02*
D03*
X443425Y414925D02*
D03*
X434925Y423425D02*
D03*
X437425Y429425D02*
D03*
Y417425D02*
D03*
X449425D02*
D03*
X246575Y235075D02*
D03*
X255075Y226575D02*
D03*
X252575Y232575D02*
D03*
X246575Y218075D02*
D03*
X238075Y226575D02*
D03*
X240575Y232575D02*
D03*
Y220575D02*
D03*
X252575D02*
D03*
X443425Y235075D02*
D03*
X451925Y226575D02*
D03*
X449425Y232575D02*
D03*
X443425Y218075D02*
D03*
X434925Y226575D02*
D03*
X437425Y232575D02*
D03*
Y220575D02*
D03*
X449425D02*
D03*
D49*
X246575Y423425D02*
D03*
X443425D02*
D03*
X246575Y226575D02*
D03*
X443425D02*
D03*
D50*
X283000Y269000D02*
D03*
Y264000D02*
D03*
X278000D02*
D03*
Y269000D02*
D03*
X273000D02*
D03*
Y264000D02*
D03*
X288000D02*
D03*
Y269000D02*
D03*
X293000D02*
D03*
Y264000D02*
D03*
D51*
X446343Y385000D02*
D03*
X426657D02*
D03*
X326783Y268319D02*
D03*
Y256500D02*
D03*
X362216Y268319D02*
D03*
Y256500D02*
D03*
X350406D02*
D03*
X338595D02*
D03*
X350406Y268319D02*
D03*
X338595D02*
D03*
D52*
X335248Y239500D02*
D03*
X353752D02*
D03*
D53*
X235000Y275000D02*
D03*
D54*
Y285000D02*
D03*
Y295000D02*
D03*
D55*
X235000Y305000D02*
D03*
X255000D02*
D03*
X235000Y315000D02*
D03*
X255000D02*
D03*
X235000Y345000D02*
D03*
X255000D02*
D03*
M02*
