M48
;Layer_Color=9474304
;FILE_FORMAT=2:5
INCH,TZ
;TYPE=PLATED
T1F00S00C0.01000
T2F00S00C0.01575
T3F00S00C0.02500
T4F00S00C0.03000
T5F00S00C0.03500
T6F00S00C0.03543
T7F00S00C0.04000
T8F00S00C0.11811
T9F00S00C0.13780
%
T01
X437425Y220575
X443425Y218075
X449425Y220575
X451925Y226575
X449425Y232575
X443425Y235075
X437425Y232575
X434925Y226575
X255075
X252575Y232575
X246575Y235075
X240575Y232575
X238075Y226575
X240575Y220575
X246575Y218075
X252575Y220575
Y417425
X246575Y414925
X240575Y417425
X238075Y423425
X240575Y429425
X246575Y431925
X252575Y429425
X255075Y423425
X434925
X437425Y429425
X443425Y431925
X449425Y429425
X451925Y423425
X449425Y417425
X443425Y414925
X437425Y417425
T02
X316000Y250000
Y278000
X322000
X325000Y285625
X330000Y282000
X338500
X343500Y277500
X343111Y305425
X335500Y310000
X330000Y294000
X320500Y301500
X313500
X365000Y300000
Y305000
X368500Y285000
X378500
X380500Y256500
X395000Y258000
X384500Y243500
X381000Y231500
Y225000
X396500Y231500
X420500Y243500
Y265000
X412000Y271000
Y278000
X432575
X425000Y299000
Y308000
X255000Y289500
X248500
Y264000
X255000Y254000
X290000Y245575
Y238000
X298500
X291000Y318000
Y327000
Y333000
X294500Y341000
X308075Y348500
Y353000
X304925Y361500
Y367500
X312000Y372500
Y386500
X301000Y383000
X296500Y382240
X287216Y380216
X285500Y368000
X277500Y355000
X259076Y355576
X259000Y364500
X262500Y380000
X265000Y384000
X252500Y389500
X264500Y415000
X270000
X275000
X277500Y427000
X305000Y438000
X305075Y410972
X308500Y333000
X263778Y341278
X248500Y315000
X313000Y328000
X315500Y348500
X325575Y349000
X322500Y353000
X332500Y352575
X335911Y355232
X337174Y336674
X332500Y336500
X343500Y337000
X353500Y340000
X351500Y362500
X344500Y368000
X346500Y380000
X369000
X368972Y375028
X369000Y353000
X374000
Y345000
X366000Y325000
X359500Y317500
X379500Y319500
X412000Y321000
X429500Y349000
X459500Y338000
X409000Y383000
X399500Y389500
X389000Y368500
X390000Y412000
X371500Y414500
X366461Y414483
X362311Y414501
X361500Y400000
X357469Y403532
X372500Y402500
X366000Y395575
X335500Y401500
X334000Y415000
X329000
X329500Y433000
X336500Y427000
X379000Y433000
X324000Y384000
X316000
Y378500
X315500Y362500
X329500Y317500
T03
X273000Y264000
X278000
X283000
Y269000
X278000
X273000
X288000
Y264000
X293000
Y269000
T04
X235000Y305000
X255000
Y315000
X235000
Y345000
X255000
T05
X426657Y385000
X446343
T06
X235000Y275000
Y285000
Y295000
T07
X326783Y256500
X338595
X350406
X362216
Y268319
X350406
X338595
X326783
X391525Y219475
X401525
X449000Y343500
Y353500
T08
X335248Y239500
X353752
T09
X443425Y226575
X246575
Y423425
X443425
M30
