G04*
G04 #@! TF.GenerationSoftware,Altium Limited,Altium Designer,21.6.4 (81)*
G04*
G04 Layer_Physical_Order=1*
G04 Layer_Color=255*
%FSLAX25Y25*%
%MOIN*%
G70*
G04*
G04 #@! TF.SameCoordinates,C5008740-255C-4452-9732-2E8642EA51F4*
G04*
G04*
G04 #@! TF.FilePolarity,Positive*
G04*
G01*
G75*
%ADD10C,0.01000*%
%ADD14R,0.03000X0.04000*%
%ADD15R,0.04700X0.07100*%
%ADD16R,0.07000X0.02500*%
%ADD17R,0.01772X0.06000*%
%ADD18R,0.04000X0.03000*%
%ADD19R,0.07000X0.05000*%
%ADD20R,0.07000X0.06300*%
%ADD21R,0.05000X0.07000*%
%ADD22R,0.06300X0.07000*%
%ADD23R,0.02500X0.07000*%
%ADD24R,0.03500X0.03500*%
%ADD25R,0.11024X0.05118*%
%ADD26C,0.04500*%
%ADD27R,0.22441X0.07087*%
%ADD28R,0.07301X0.02410*%
G04:AMPARAMS|DCode=29|XSize=73.01mil|YSize=24.1mil|CornerRadius=12.05mil|HoleSize=0mil|Usage=FLASHONLY|Rotation=0.000|XOffset=0mil|YOffset=0mil|HoleType=Round|Shape=RoundedRectangle|*
%AMROUNDEDRECTD29*
21,1,0.07301,0.00000,0,0,0.0*
21,1,0.04891,0.02410,0,0,0.0*
1,1,0.02410,0.02445,0.00000*
1,1,0.02410,-0.02445,0.00000*
1,1,0.02410,-0.02445,0.00000*
1,1,0.02410,0.02445,0.00000*
%
%ADD29ROUNDEDRECTD29*%
%ADD30R,0.09843X0.06693*%
%ADD31R,0.06693X0.09843*%
%ADD32R,0.02362X0.03937*%
%ADD33C,0.03937*%
%ADD60C,0.02000*%
%ADD61C,0.19685*%
%ADD62C,0.02000*%
%ADD63C,0.08000*%
%ADD64C,0.06000*%
%ADD65C,0.03150*%
D10*
X368720Y381747D02*
X370925Y383953D01*
X374453D02*
X374500Y384000D01*
X370925Y383953D02*
X374453D01*
X368720Y378582D02*
Y381747D01*
X365787Y382709D02*
X369004Y385925D01*
X366161Y396725D02*
X366729Y396157D01*
X362920Y396402D02*
Y400735D01*
X362612Y396094D02*
X362920Y396402D01*
X369004Y385925D02*
X371774D01*
X374186Y388337D01*
X362920Y400735D02*
X363228Y401043D01*
X366161Y396725D02*
Y398543D01*
X366729Y395575D02*
Y396157D01*
X374186Y388337D02*
Y397139D01*
X355230Y399771D02*
Y400023D01*
X357279Y402779D02*
X364326Y409826D01*
X355230Y400023D02*
X357279Y402072D01*
Y402779D01*
X341406Y398376D02*
X342364D01*
X342581Y398159D01*
X370988Y394916D02*
X371070Y394834D01*
X370988Y394916D02*
Y400961D01*
X370905Y401043D02*
X370988Y400961D01*
X373464Y401043D02*
X373838Y400670D01*
Y397486D02*
Y400670D01*
Y397486D02*
X374186Y397139D01*
X365787Y378209D02*
Y382709D01*
X368423Y401120D02*
Y407923D01*
X368347Y401043D02*
X368423Y401120D01*
Y407923D02*
X368500Y408000D01*
X370720Y411280D02*
X376024Y405976D01*
X364326Y409826D02*
X365568D01*
X367021Y411280D02*
X370720D01*
X365568Y409826D02*
X367021Y411280D01*
X365787Y398917D02*
Y401043D01*
Y398917D02*
X366161Y398543D01*
X337030Y394000D02*
X341406Y398376D01*
X376024Y401043D02*
Y405976D01*
X336655Y393626D02*
X337030Y394000D01*
X341406Y398376D02*
Y400626D01*
X330029Y393626D02*
X336655D01*
X323782Y381626D02*
Y382126D01*
X326905Y385250D01*
X323782Y393126D02*
Y393626D01*
X326905Y385250D02*
Y390002D01*
X323782Y393126D02*
X326905Y390002D01*
X378405Y394626D02*
X378494Y394715D01*
Y400955D01*
X378583Y401043D01*
X410433Y361221D02*
X414370Y365158D01*
X363601Y374670D02*
X377051Y361221D01*
X410433D01*
X380968Y378209D02*
X382906Y376272D01*
Y376250D02*
Y376272D01*
X408529Y375126D02*
X412276D01*
X414370Y365158D02*
Y373031D01*
X412276Y375126D02*
X414370Y373031D01*
X378583Y378209D02*
X380968D01*
X382906Y376250D02*
X383906Y375250D01*
X368347Y378209D02*
X368720Y378582D01*
X363228Y378209D02*
X363601Y377836D01*
Y374670D02*
Y377836D01*
X329282Y413126D02*
Y419126D01*
X264782Y381626D02*
Y382126D01*
X267905Y385250D01*
X264782Y393126D02*
Y393626D01*
Y393126D02*
X267905Y390002D01*
Y385250D02*
Y390002D01*
X304529Y360126D02*
Y366126D01*
X352362Y256890D02*
Y265383D01*
X346457Y250984D02*
X352362Y256890D01*
D14*
X390282Y375126D02*
D03*
X396529D02*
D03*
X408529D02*
D03*
X402282D02*
D03*
X363529Y413126D02*
D03*
X357282D02*
D03*
Y419126D02*
D03*
X363529D02*
D03*
Y425126D02*
D03*
X357282D02*
D03*
X363529Y366126D02*
D03*
X357282D02*
D03*
X363529Y360126D02*
D03*
X357282D02*
D03*
X335529Y413126D02*
D03*
X329282D02*
D03*
X335529Y419126D02*
D03*
X329282D02*
D03*
Y354126D02*
D03*
X335529D02*
D03*
Y360126D02*
D03*
X329282D02*
D03*
X323782Y399626D02*
D03*
X330029D02*
D03*
Y393626D02*
D03*
X323782D02*
D03*
Y387626D02*
D03*
X330029D02*
D03*
Y381626D02*
D03*
X323782D02*
D03*
X329282Y366126D02*
D03*
X335529D02*
D03*
X298282Y360126D02*
D03*
X304529D02*
D03*
X276529Y413126D02*
D03*
X270282D02*
D03*
Y366126D02*
D03*
X276529D02*
D03*
X271029Y399626D02*
D03*
X264782D02*
D03*
X276529Y419126D02*
D03*
X270282D02*
D03*
Y354126D02*
D03*
X276529D02*
D03*
Y360126D02*
D03*
X270282D02*
D03*
X264782Y381626D02*
D03*
X271029D02*
D03*
Y387626D02*
D03*
X264782D02*
D03*
Y393626D02*
D03*
X271029D02*
D03*
X304529Y425126D02*
D03*
X298282D02*
D03*
Y419126D02*
D03*
X304529D02*
D03*
Y413126D02*
D03*
X298282D02*
D03*
Y366126D02*
D03*
X304529D02*
D03*
X411571Y295060D02*
D03*
X405324D02*
D03*
X355427Y319173D02*
D03*
X349180D02*
D03*
Y325173D02*
D03*
X355427D02*
D03*
X355530Y331196D02*
D03*
X349283D02*
D03*
D15*
X408014Y367626D02*
D03*
X394797D02*
D03*
X414222Y270028D02*
D03*
X401006D02*
D03*
X434892D02*
D03*
X421675D02*
D03*
D16*
X389405Y386626D02*
D03*
Y381626D02*
D03*
Y396626D02*
D03*
Y391626D02*
D03*
X411406Y386626D02*
D03*
Y381626D02*
D03*
Y396626D02*
D03*
Y391626D02*
D03*
D17*
X363228Y378209D02*
D03*
X365787D02*
D03*
X368347D02*
D03*
X370905D02*
D03*
X373464D02*
D03*
X376024D02*
D03*
X378583D02*
D03*
X368347Y401043D02*
D03*
X370905D02*
D03*
X378583D02*
D03*
X373464D02*
D03*
X376024D02*
D03*
X363228D02*
D03*
X365787D02*
D03*
D18*
X384405Y375250D02*
D03*
Y369002D02*
D03*
X389906Y425250D02*
D03*
Y419002D02*
D03*
X401905Y425250D02*
D03*
Y419002D02*
D03*
X395905D02*
D03*
Y425250D02*
D03*
X392500Y279376D02*
D03*
Y285624D02*
D03*
Y291376D02*
D03*
Y297624D02*
D03*
X386500Y291376D02*
D03*
Y297624D02*
D03*
D19*
X390305Y404189D02*
D03*
Y412063D02*
D03*
D20*
X404405Y408126D02*
D03*
D21*
X342469Y424726D02*
D03*
X350342D02*
D03*
Y354526D02*
D03*
X342469D02*
D03*
X283469D02*
D03*
X291342D02*
D03*
X283469Y424726D02*
D03*
X291342D02*
D03*
D22*
X346406Y410626D02*
D03*
Y368626D02*
D03*
X287405D02*
D03*
Y410626D02*
D03*
D23*
X341406Y400626D02*
D03*
X336405D02*
D03*
X351406D02*
D03*
X346406D02*
D03*
X341406Y378626D02*
D03*
X336405D02*
D03*
X351406D02*
D03*
X346406D02*
D03*
X282405Y400626D02*
D03*
X277406D02*
D03*
X292406D02*
D03*
X287405D02*
D03*
X282405Y378626D02*
D03*
X277406D02*
D03*
X292406D02*
D03*
X287405D02*
D03*
D24*
X386500Y285500D02*
D03*
Y279500D02*
D03*
D25*
X411000Y306101D02*
D03*
Y318899D02*
D03*
X398000Y306101D02*
D03*
Y318899D02*
D03*
D26*
X389500Y266500D02*
D03*
X451000Y318000D02*
D03*
X449500Y295000D02*
D03*
D27*
X430500Y296000D02*
D03*
Y317500D02*
D03*
D28*
X407027Y286675D02*
D03*
D29*
Y282935D02*
D03*
Y279195D02*
D03*
X416084D02*
D03*
Y282935D02*
D03*
Y286675D02*
D03*
D30*
X442748Y283000D02*
D03*
X427000D02*
D03*
D31*
X336803Y294299D02*
D03*
Y310047D02*
D03*
X352303Y294299D02*
D03*
Y310047D02*
D03*
D32*
X336803Y318449D02*
D03*
X333063Y327898D02*
D03*
X340543D02*
D03*
D33*
X240000Y245000D02*
D03*
X420000Y233000D02*
D03*
X238500Y404000D02*
D03*
D60*
X386500Y285500D02*
Y291376D01*
X369500Y438000D02*
X375000Y432500D01*
X328500Y438000D02*
X369500D01*
X398101Y306000D02*
X411000D01*
X274500Y438000D02*
X328500D01*
X316000Y431500D02*
X318925Y434425D01*
X261000Y424500D02*
X274500Y438000D01*
X411000Y306000D02*
X418000D01*
X319500Y429000D02*
X328500Y438000D01*
X395000Y299624D02*
Y306101D01*
X250500Y377000D02*
Y400500D01*
X264641Y381485D02*
X264782Y381626D01*
X264641Y376641D02*
Y381485D01*
X264500Y376500D02*
X264641Y376641D01*
X250500Y400500D02*
X261000Y411000D01*
Y424500D01*
X370280Y388780D02*
X370500Y389000D01*
X368209Y392000D02*
X371043Y394834D01*
X363500Y392000D02*
X368209D01*
X371043Y394834D02*
X371070D01*
X365116Y386500D02*
X367396Y388780D01*
X370280D01*
X350000Y386500D02*
X365116D01*
X319500Y387500D02*
X319563Y387563D01*
X323719D01*
X323782Y387626D01*
X314500Y430000D02*
X316000Y431500D01*
X315500Y409000D02*
Y409311D01*
X314500Y410311D02*
X315500Y409311D01*
X314500Y410311D02*
Y430000D01*
X293500Y431500D02*
X316000D01*
X293500Y431500D02*
X293500Y431500D01*
X287500Y431500D02*
X293500D01*
X278756Y394584D02*
X279067D01*
X271029Y393626D02*
X277798D01*
X278756Y394584D01*
X278863Y394788D02*
X282155Y398080D01*
X287890Y390610D02*
X292156Y394876D01*
Y400376D01*
X292406Y400626D01*
X332000Y404114D02*
Y404425D01*
Y404114D02*
X333467Y402647D01*
X323500Y404000D02*
X323641Y403859D01*
Y399767D02*
Y403859D01*
Y399767D02*
X323782Y399626D01*
X363529Y412626D02*
Y413126D01*
X348555Y408126D02*
X359029D01*
X363529Y412626D01*
X346406Y410276D02*
X348555Y408126D01*
X333467Y400626D02*
X336405D01*
X330529D02*
X333467D01*
Y402647D01*
X350342Y429843D02*
X351000Y430500D01*
X350342Y424726D02*
Y429843D01*
Y424726D02*
X350743Y425126D01*
X357282D01*
X330029Y399626D02*
Y400126D01*
X330529Y400626D01*
X322782Y394626D02*
X323282D01*
X321536Y395826D02*
X321582D01*
X322782Y394626D01*
X323782Y393626D02*
Y394126D01*
X323282Y394626D02*
X323782Y394126D01*
X319500Y397862D02*
Y429000D01*
Y397862D02*
X321536Y395826D01*
X323282Y381126D02*
X323782Y381626D01*
X282155Y400376D02*
X282405Y400626D01*
X282155Y398080D02*
Y400376D01*
X311000Y343056D02*
X323500Y355556D01*
X306700Y344200D02*
X312000Y349500D01*
X282405Y385126D02*
X287890Y390610D01*
X288390D01*
X312000Y367000D01*
Y349500D02*
Y367000D01*
X282405Y378626D02*
Y385126D01*
X279906Y387626D02*
X282405Y385126D01*
X271029Y387626D02*
X279906D01*
X323500Y355556D02*
Y367665D01*
X328667Y372832D01*
X337908D02*
X339456Y374380D01*
Y374426D01*
X341406Y376376D01*
Y378626D01*
X328667Y372832D02*
X337908D01*
X341406Y385126D02*
X351155Y394876D01*
Y400376D01*
X338906Y387626D02*
X341406Y385126D01*
X351155Y400376D02*
X351406Y400626D01*
X341406Y378626D02*
Y385126D01*
X330029Y387626D02*
X338906D01*
X342469Y336469D02*
Y353726D01*
X255500Y401000D02*
X258500Y404000D01*
X255500Y378000D02*
Y401000D01*
Y378000D02*
X263500Y370000D01*
X258500Y404000D02*
X264500D01*
Y422500D02*
X273500Y431500D01*
X264500Y404000D02*
Y422500D01*
Y404000D02*
X267155D01*
X289843Y426226D02*
X291342Y424726D01*
X289843Y426226D02*
Y429157D01*
X273500Y431500D02*
X287500D01*
X289843Y429157D01*
X267155Y404000D02*
X271029Y400126D01*
Y399626D02*
Y400126D01*
X263500Y351500D02*
Y370000D01*
X273000Y342000D02*
X294000D01*
X263500Y351500D02*
X273000Y342000D01*
X283469Y354526D02*
X284968Y353026D01*
Y351031D02*
Y353026D01*
Y351031D02*
X294000Y342000D01*
X335529Y353626D02*
Y354126D01*
X323903Y342000D02*
X335529Y353626D01*
X315000Y342000D02*
X323903D01*
X342069Y354126D02*
X342469Y353726D01*
X335529Y354126D02*
X342069D01*
X277155Y399626D02*
X277406Y399876D01*
X271029Y399626D02*
X277155D01*
X277406Y399876D02*
Y400626D01*
X291342Y424726D02*
X291742Y425126D01*
X298282D01*
X283068Y354126D02*
X283469Y354526D01*
X276529Y354126D02*
X283068D01*
X329906Y376407D02*
X336374D01*
X336405Y376376D01*
Y378626D01*
X329967Y376188D02*
Y381564D01*
X330029Y381626D01*
X384173Y325173D02*
X419000Y360000D01*
Y376281D01*
X413656Y381626D02*
X419000Y376281D01*
X411406Y381626D02*
X413656D01*
X355427Y325173D02*
X384173D01*
X355478Y331145D02*
X355530Y331196D01*
X355427Y325173D02*
X355478Y325225D01*
Y331145D01*
X388148Y324648D02*
X426000Y362500D01*
Y417500D01*
X411000Y432500D02*
X426000Y417500D01*
X384672Y432500D02*
X411000D01*
X375000D02*
X384672D01*
X383500Y417869D02*
Y431328D01*
X384672Y432500D01*
X411406Y408126D02*
X417406Y402126D01*
Y393798D02*
Y402126D01*
X415234Y391626D02*
X417406Y393798D01*
X363529Y359626D02*
Y360126D01*
Y366126D01*
X390220Y375188D02*
X390282Y375126D01*
X396029Y368858D02*
Y374626D01*
X395297Y367126D02*
X399606D01*
X393447Y369002D02*
X394797Y367652D01*
Y367626D02*
X396029Y368858D01*
X394797Y367626D02*
X395297Y367126D01*
X394797Y367626D02*
Y367652D01*
X411406Y391626D02*
X415234D01*
X405526Y396640D02*
X411392D01*
X411406Y396626D01*
X404755Y408126D02*
X411406D01*
X403905Y386626D02*
X411406D01*
X401405Y384126D02*
X403905Y386626D01*
X401405Y377298D02*
X401782Y376921D01*
X401405Y377298D02*
Y384126D01*
X385446Y383290D02*
X385491D01*
X387156Y381626D01*
X401782Y375626D02*
Y376921D01*
X406664Y368976D02*
X408014Y367626D01*
X402282Y374626D02*
X406664Y370244D01*
Y368976D02*
Y370244D01*
X401782Y375626D02*
X402282Y375126D01*
Y374626D02*
Y375126D01*
X396029Y374626D02*
X396529Y375126D01*
X384105Y384630D02*
X385446Y383290D01*
X384105Y384630D02*
Y406863D01*
X384405Y369002D02*
X393447D01*
X384467Y375188D02*
X390220D01*
X390282Y375126D02*
Y381376D01*
X387156Y381626D02*
X389405D01*
X390032D02*
X390282Y381376D01*
X389405Y381626D02*
X390032D01*
X384405Y375250D02*
X384467Y375188D01*
X383906Y375250D02*
X384405D01*
X389906Y413500D02*
Y419002D01*
X384105Y406863D02*
X389705Y412463D01*
X390644Y404528D02*
X396654D01*
X398842Y414590D02*
Y418939D01*
X398622Y414370D02*
X398842Y414590D01*
X383500Y417869D02*
X387868Y413500D01*
X389705Y412463D02*
X389906D01*
X387868Y413500D02*
X389906D01*
Y412463D02*
Y413500D01*
X404755Y408126D02*
X406906Y410276D01*
Y420750D01*
X405512Y396654D02*
X405526Y396640D01*
X404405Y408126D02*
X404755D01*
X396342Y388779D02*
X396654D01*
X363529Y413126D02*
Y419126D01*
Y425126D01*
X398842Y418939D02*
X398905Y419002D01*
X389844Y425188D02*
X389906Y425250D01*
X395905D02*
X401905D01*
X402406D01*
X389906D02*
X395905D01*
X402406D02*
X406906Y420750D01*
X393746Y391376D02*
X396342Y388779D01*
X389405Y386626D02*
X389655Y386876D01*
X389405Y391626D02*
X389655Y391376D01*
X394439Y386876D02*
X396342Y388779D01*
X389655Y386876D02*
X394439D01*
X390305Y404189D02*
X390644Y404528D01*
X389655Y391376D02*
X393746D01*
X342484Y419016D02*
X342500Y419000D01*
X342563Y419063D01*
X335592D02*
X342437D01*
X342500Y419000D01*
X342469Y424726D02*
X342484Y424710D01*
Y419016D02*
Y424710D01*
X342563Y419063D02*
X357219D01*
X357282Y413126D02*
Y419126D01*
X357219Y419063D02*
X357282Y419126D01*
X350374Y354557D02*
Y360094D01*
X350406Y360126D01*
X352406Y372126D02*
Y372437D01*
X351656Y373187D02*
X352406Y372437D01*
X350342Y354526D02*
X350374Y354557D01*
X350406Y360126D02*
X357282D01*
X335529Y419126D02*
X335592Y419063D01*
X335529Y360126D02*
X350406D01*
X329282Y354126D02*
Y360126D01*
X335529D02*
Y366126D01*
X329282Y360126D02*
Y366126D01*
X335529Y413126D02*
X344255D01*
X346406Y410626D02*
Y410976D01*
Y410276D02*
Y410626D01*
X344255Y413126D02*
X346406Y410976D01*
Y400626D02*
Y410276D01*
X351406Y378626D02*
X351656Y378376D01*
X329282Y366126D02*
X329782Y366626D01*
Y367126D01*
X332610Y369954D01*
X351656Y373187D02*
Y378376D01*
X346406Y368626D02*
Y368976D01*
Y368276D02*
X348555Y366126D01*
X346406Y368976D02*
Y378626D01*
X348555Y366126D02*
X357282D01*
X345077Y369954D02*
X346406Y368626D01*
X332610Y369954D02*
X345077D01*
X291374Y360094D02*
X291406Y360126D01*
X291342Y354526D02*
X291374Y354557D01*
X287405Y368276D02*
X289556Y366126D01*
X291374Y354557D02*
Y360094D01*
X276529Y413126D02*
X285256D01*
X270282D02*
X270344Y413064D01*
X287405Y410276D02*
Y410626D01*
X285256Y413126D02*
X287405Y410976D01*
Y410626D02*
Y410976D01*
X270344Y407188D02*
Y413064D01*
Y407188D02*
X270406Y407126D01*
X287405Y368626D02*
Y368976D01*
Y368276D02*
Y368626D01*
X264782Y399126D02*
Y399626D01*
X264282Y398626D02*
X264782Y399126D01*
X261405Y398626D02*
X264282D01*
X264782Y399626D02*
Y400126D01*
X276529Y419126D02*
X283405D01*
X270282Y413126D02*
Y419126D01*
X287405Y400626D02*
Y410276D01*
X270282Y354126D02*
Y360126D01*
Y366126D01*
Y366626D01*
X270967Y381564D02*
X271029Y381626D01*
X270967Y376188D02*
Y381564D01*
X270905Y376126D02*
X270967Y376188D01*
X260405Y397626D02*
X261405Y398626D01*
X260405Y389126D02*
X261906Y387626D01*
X264782D01*
X260405Y389126D02*
Y397626D01*
X287405Y368976D02*
Y378626D01*
X270905Y376126D02*
X277155D01*
X277406Y376376D02*
Y378626D01*
X274782Y371126D02*
X285256D01*
X277155Y376126D02*
X277406Y376376D01*
X270282Y366626D02*
X274782Y371126D01*
X285256D02*
X287405Y368976D01*
X276529Y360126D02*
Y366126D01*
X287405Y410276D02*
X289556Y408126D01*
X283437Y424694D02*
X283469Y424726D01*
X283405Y419126D02*
X298282D01*
X283405D02*
X283437Y419158D01*
Y424694D01*
X291406Y360126D02*
X298282D01*
X276529D02*
X291406D01*
X298282Y413126D02*
Y419126D01*
X304529Y412626D02*
Y413126D01*
Y419126D02*
Y425126D01*
Y413126D02*
Y419126D01*
X300029Y408126D02*
X304529Y412626D01*
X293121Y372342D02*
Y372653D01*
X292655Y373118D02*
X293121Y372653D01*
X289556Y366126D02*
X298282D01*
X292406Y378626D02*
X292655Y378376D01*
Y373118D02*
Y378376D01*
X289556Y408126D02*
X300029D01*
X311000Y295500D02*
Y343056D01*
Y295500D02*
X318500Y288000D01*
X327181Y318449D02*
X336803D01*
X317402Y328228D02*
X327181Y318449D01*
X336803Y310047D02*
Y318449D01*
X344078Y301822D02*
X348382Y306126D01*
X322078Y301822D02*
X344078D01*
X349957Y306126D02*
X352303Y308472D01*
Y310047D01*
X348382Y306126D02*
X349957D01*
X318484Y298228D02*
X322078Y301822D01*
X317402Y298228D02*
X318484D01*
X329745Y288000D02*
X352362Y265383D01*
X318500Y288000D02*
X329745D01*
X340000Y334000D02*
X342469Y336469D01*
X349283Y331196D02*
Y331696D01*
X348782Y332196D02*
X349283Y331696D01*
X348283Y332196D02*
X348782D01*
X346479Y334000D02*
X348283Y332196D01*
X340000Y334000D02*
X346479D01*
X337000Y331000D02*
X340000Y334000D01*
X337000Y325307D02*
Y331000D01*
Y325307D02*
X346934Y315373D01*
X348552D01*
X352303Y311622D01*
Y310047D02*
Y311622D01*
X367000Y259717D02*
Y293776D01*
X352303Y308472D02*
X367000Y293776D01*
X358268Y250984D02*
X367000Y259717D01*
X306700Y292800D02*
X317500Y282000D01*
X327260D02*
X346457Y262803D01*
X317500Y282000D02*
X327260D01*
X306700Y292800D02*
Y344200D01*
X352362Y265383D02*
Y265383D01*
X358268Y250984D02*
X396379D01*
X414222Y268828D01*
X388148Y313000D02*
Y324648D01*
X253819Y334646D02*
X271654D01*
X247402Y328228D02*
X253819Y334646D01*
X271654D02*
X294291Y312008D01*
X395047Y306101D02*
X398000D01*
X388148Y313000D02*
X395047Y306101D01*
X414222Y268828D02*
Y270028D01*
X398000Y318899D02*
X398500Y318399D01*
Y314000D02*
Y318399D01*
X410500D02*
X411000Y318899D01*
X410500Y314000D02*
Y318399D01*
X391500Y276311D02*
Y278876D01*
X386500Y279500D02*
X387250Y278750D01*
Y277561D02*
Y278750D01*
X392500Y285624D02*
Y291376D01*
X390000Y274500D02*
Y274811D01*
X391500Y276311D01*
X387250Y277561D02*
X390000Y274811D01*
X393500Y284624D02*
Y285124D01*
X391500Y278876D02*
X392000Y279376D01*
X392500D01*
X393500Y284624D02*
X398850Y279273D01*
Y277850D02*
Y279273D01*
X400166Y283013D02*
X400205Y282974D01*
X406988D01*
X398850Y279273D02*
X406948D01*
X393000Y285624D02*
X393500Y285124D01*
X392500Y285624D02*
X393000D01*
X398000Y306101D02*
X398101Y306000D01*
X393000Y297624D02*
X395000Y299624D01*
X392500Y297624D02*
X393000D01*
X386500D02*
X392500D01*
X416084Y273089D02*
Y279195D01*
X415500Y286864D02*
Y290624D01*
X422500Y314957D02*
X425043Y317500D01*
X422500Y310500D02*
Y314957D01*
X418000Y306000D02*
X422500Y310500D01*
X401006Y270028D02*
X406091D01*
X406111Y270048D01*
X389978Y266978D02*
Y268978D01*
X398850Y277850D01*
X389500Y266500D02*
X389978Y266978D01*
X425043Y317500D02*
X430500D01*
X431000Y318000D01*
X451000D01*
X405324Y292254D02*
Y295060D01*
X406988Y282974D02*
X407027Y282935D01*
X406948Y279273D02*
X407027Y279195D01*
Y286675D02*
Y290551D01*
X411624Y294500D02*
Y295000D01*
Y294500D02*
X415500Y290624D01*
X405324Y292254D02*
X407027Y290551D01*
X435858Y283000D02*
X442748D01*
X425425D02*
X427000D01*
X421907Y286675D02*
X423079Y285503D01*
Y285347D02*
Y285503D01*
Y285347D02*
X425425Y283000D01*
X434864Y270000D02*
X434892Y270028D01*
X430000Y270000D02*
X434864D01*
X415500Y286864D02*
X415689Y286675D01*
X416084D01*
X418419D01*
X421907D01*
X416084Y279195D02*
Y282935D01*
X414222Y271228D02*
X416084Y273089D01*
X414222Y270028D02*
Y271228D01*
Y270028D02*
X421675D01*
X418419Y286675D02*
X420280Y288536D01*
X422823Y296000D02*
X430500D01*
X420280Y293457D02*
X422823Y296000D01*
X420280Y288536D02*
Y293457D01*
X430500Y296000D02*
X431500Y295000D01*
X449500D01*
X259842Y281496D02*
X280512Y260827D01*
Y250984D02*
Y260827D01*
X259842Y281496D02*
Y320669D01*
X267402Y328228D01*
Y288701D02*
X292323Y263779D01*
Y250984D02*
Y263779D01*
X267402Y288701D02*
Y298228D01*
X269685Y243110D02*
X326772D01*
X334646Y250984D01*
X247402Y265394D02*
X269685Y243110D01*
X247402Y265394D02*
Y298228D01*
X300197Y285456D02*
Y314961D01*
Y285456D02*
X322835Y262818D01*
X287402Y327756D02*
X300197Y314961D01*
X294291Y279528D02*
X322835Y250984D01*
X294291Y279528D02*
Y312008D01*
X322835Y262803D02*
Y262818D01*
X287402Y327756D02*
Y328228D01*
X336803Y294299D02*
X352303D01*
X340724Y326929D02*
X344783D01*
X340543Y327110D02*
X340724Y326929D01*
X340543Y327110D02*
Y327898D01*
X332933Y328028D02*
X333063Y327898D01*
X332933Y328028D02*
Y333043D01*
X333081Y333191D01*
Y333451D01*
X349180Y319173D02*
Y325224D01*
X344783Y326929D02*
X345988Y325725D01*
X355427Y319173D02*
X360303D01*
X345988Y325725D02*
X348680D01*
X349180Y325224D01*
D61*
X246575Y226575D02*
D03*
X443425Y423425D02*
D03*
X246575D02*
D03*
X443425Y226575D02*
D03*
D62*
X246575Y235075D02*
D03*
X255075Y226575D02*
D03*
X252575Y232575D02*
D03*
X246575Y218075D02*
D03*
X238075Y226575D02*
D03*
X240575Y232575D02*
D03*
Y220575D02*
D03*
X252575D02*
D03*
X443425Y431925D02*
D03*
X451925Y423425D02*
D03*
X449425Y429425D02*
D03*
X443425Y414925D02*
D03*
X434925Y423425D02*
D03*
X437425Y429425D02*
D03*
Y417425D02*
D03*
X449425D02*
D03*
X246575Y431925D02*
D03*
X255075Y423425D02*
D03*
X252575Y429425D02*
D03*
X246575Y414925D02*
D03*
X238075Y423425D02*
D03*
X240575Y429425D02*
D03*
Y417425D02*
D03*
X252575D02*
D03*
X443425Y235075D02*
D03*
X451925Y226575D02*
D03*
X449425Y232575D02*
D03*
X443425Y218075D02*
D03*
X434925Y226575D02*
D03*
X437425Y232575D02*
D03*
Y220575D02*
D03*
X449425D02*
D03*
D63*
X280512Y250984D02*
D03*
X292323D02*
D03*
X334646Y262803D02*
D03*
X346457D02*
D03*
X334646Y250984D02*
D03*
X346457D02*
D03*
X358268D02*
D03*
Y262803D02*
D03*
X322835Y250984D02*
D03*
Y262803D02*
D03*
D64*
X247402Y328228D02*
D03*
Y298228D02*
D03*
X267402Y328228D02*
D03*
Y298228D02*
D03*
X287402Y328228D02*
D03*
Y298228D02*
D03*
X317402Y328228D02*
D03*
Y298228D02*
D03*
D65*
X318925Y434425D02*
D03*
X250500Y377000D02*
D03*
X264500Y376500D02*
D03*
X374500Y384000D02*
D03*
X362612Y396094D02*
D03*
X366729Y395575D02*
D03*
X370500Y389000D02*
D03*
X363500Y392000D02*
D03*
X350000Y386500D02*
D03*
X355230Y399771D02*
D03*
X342581Y398159D02*
D03*
X319500Y387500D02*
D03*
X371070Y394834D02*
D03*
X368500Y408000D02*
D03*
X279067Y394584D02*
D03*
X332000Y404425D02*
D03*
X323500Y404000D02*
D03*
X315500Y409000D02*
D03*
X351000Y430500D02*
D03*
X294000Y342000D02*
D03*
X315000D02*
D03*
X329906Y376407D02*
D03*
X378405Y394626D02*
D03*
X405512Y396654D02*
D03*
X398622Y414370D02*
D03*
X396654Y404528D02*
D03*
X399606Y367126D02*
D03*
X396654Y388779D02*
D03*
X350406Y360126D02*
D03*
X352406Y372126D02*
D03*
X342500Y419000D02*
D03*
X270905Y376126D02*
D03*
X260500Y393250D02*
D03*
X293121Y372342D02*
D03*
X291406Y360126D02*
D03*
X283405Y419126D02*
D03*
X270406Y407126D02*
D03*
X398500Y314000D02*
D03*
X410500D02*
D03*
X400166Y283013D02*
D03*
X435858Y283000D02*
D03*
X430000Y270000D02*
D03*
X406111Y270048D02*
D03*
X390000Y274500D02*
D03*
X333081Y333451D02*
D03*
X360303Y319173D02*
D03*
M02*
