G04*
G04 #@! TF.GenerationSoftware,Altium Limited,Altium Designer,21.6.4 (81)*
G04*
G04 Layer_Color=8388736*
%FSLAX25Y25*%
%MOIN*%
G70*
G04*
G04 #@! TF.SameCoordinates,C5008740-255C-4452-9732-2E8642EA51F4*
G04*
G04*
G04 #@! TF.FilePolarity,Negative*
G04*
G01*
G75*
%ADD34R,0.03800X0.04800*%
%ADD35R,0.05500X0.07900*%
%ADD36R,0.07800X0.03300*%
%ADD37R,0.02572X0.06800*%
%ADD38R,0.04800X0.03800*%
%ADD39R,0.07800X0.05800*%
%ADD40R,0.07800X0.07100*%
%ADD41R,0.05800X0.07800*%
%ADD42R,0.07100X0.07800*%
%ADD43R,0.03300X0.07800*%
%ADD44R,0.04300X0.04300*%
%ADD45R,0.11824X0.05918*%
%ADD46C,0.05300*%
%ADD47R,0.23241X0.07887*%
%ADD48R,0.08101X0.03210*%
G04:AMPARAMS|DCode=49|XSize=81.01mil|YSize=32.1mil|CornerRadius=16.05mil|HoleSize=0mil|Usage=FLASHONLY|Rotation=0.000|XOffset=0mil|YOffset=0mil|HoleType=Round|Shape=RoundedRectangle|*
%AMROUNDEDRECTD49*
21,1,0.08101,0.00000,0,0,0.0*
21,1,0.04891,0.03210,0,0,0.0*
1,1,0.03210,0.02445,0.00000*
1,1,0.03210,-0.02445,0.00000*
1,1,0.03210,-0.02445,0.00000*
1,1,0.03210,0.02445,0.00000*
%
%ADD49ROUNDEDRECTD49*%
%ADD50R,0.10642X0.07493*%
%ADD51R,0.07493X0.10642*%
%ADD52R,0.03162X0.04737*%
%ADD53C,0.11811*%
%ADD54C,0.20485*%
%ADD55C,0.02800*%
%ADD56C,0.08800*%
%ADD57C,0.13811*%
%ADD58C,0.06800*%
%ADD59C,0.03950*%
D34*
X390282Y375126D02*
D03*
X396529D02*
D03*
X408529D02*
D03*
X402282D02*
D03*
X363529Y413126D02*
D03*
X357282D02*
D03*
Y419126D02*
D03*
X363529D02*
D03*
Y425126D02*
D03*
X357282D02*
D03*
X363529Y366126D02*
D03*
X357282D02*
D03*
X363529Y360126D02*
D03*
X357282D02*
D03*
X335529Y413126D02*
D03*
X329282D02*
D03*
X335529Y419126D02*
D03*
X329282D02*
D03*
Y354126D02*
D03*
X335529D02*
D03*
Y360126D02*
D03*
X329282D02*
D03*
X323782Y399626D02*
D03*
X330029D02*
D03*
Y393626D02*
D03*
X323782D02*
D03*
Y387626D02*
D03*
X330029D02*
D03*
Y381626D02*
D03*
X323782D02*
D03*
X329282Y366126D02*
D03*
X335529D02*
D03*
X298282Y360126D02*
D03*
X304529D02*
D03*
X276529Y413126D02*
D03*
X270282D02*
D03*
Y366126D02*
D03*
X276529D02*
D03*
X271029Y399626D02*
D03*
X264782D02*
D03*
X276529Y419126D02*
D03*
X270282D02*
D03*
Y354126D02*
D03*
X276529D02*
D03*
Y360126D02*
D03*
X270282D02*
D03*
X264782Y381626D02*
D03*
X271029D02*
D03*
Y387626D02*
D03*
X264782D02*
D03*
Y393626D02*
D03*
X271029D02*
D03*
X304529Y425126D02*
D03*
X298282D02*
D03*
Y419126D02*
D03*
X304529D02*
D03*
Y413126D02*
D03*
X298282D02*
D03*
Y366126D02*
D03*
X304529D02*
D03*
X411571Y295060D02*
D03*
X405324D02*
D03*
X355427Y319173D02*
D03*
X349180D02*
D03*
Y325173D02*
D03*
X355427D02*
D03*
X355530Y331196D02*
D03*
X349283D02*
D03*
D35*
X408014Y367626D02*
D03*
X394797D02*
D03*
X414222Y270028D02*
D03*
X401006D02*
D03*
X434892D02*
D03*
X421675D02*
D03*
D36*
X389405Y386626D02*
D03*
Y381626D02*
D03*
Y396626D02*
D03*
Y391626D02*
D03*
X411406Y386626D02*
D03*
Y381626D02*
D03*
Y396626D02*
D03*
Y391626D02*
D03*
D37*
X363228Y378209D02*
D03*
X365787D02*
D03*
X368347D02*
D03*
X370905D02*
D03*
X373464D02*
D03*
X376024D02*
D03*
X378583D02*
D03*
X368347Y401043D02*
D03*
X370905D02*
D03*
X378583D02*
D03*
X373464D02*
D03*
X376024D02*
D03*
X363228D02*
D03*
X365787D02*
D03*
D38*
X384405Y375250D02*
D03*
Y369002D02*
D03*
X389906Y425250D02*
D03*
Y419002D02*
D03*
X401905Y425250D02*
D03*
Y419002D02*
D03*
X395905D02*
D03*
Y425250D02*
D03*
X392500Y279376D02*
D03*
Y285624D02*
D03*
Y291376D02*
D03*
Y297624D02*
D03*
X386500Y291376D02*
D03*
Y297624D02*
D03*
D39*
X390305Y404189D02*
D03*
Y412063D02*
D03*
D40*
X404405Y408126D02*
D03*
D41*
X342469Y424726D02*
D03*
X350342D02*
D03*
Y354526D02*
D03*
X342469D02*
D03*
X283469D02*
D03*
X291342D02*
D03*
X283469Y424726D02*
D03*
X291342D02*
D03*
D42*
X346406Y410626D02*
D03*
Y368626D02*
D03*
X287405D02*
D03*
Y410626D02*
D03*
D43*
X341406Y400626D02*
D03*
X336405D02*
D03*
X351406D02*
D03*
X346406D02*
D03*
X341406Y378626D02*
D03*
X336405D02*
D03*
X351406D02*
D03*
X346406D02*
D03*
X282405Y400626D02*
D03*
X277406D02*
D03*
X292406D02*
D03*
X287405D02*
D03*
X282405Y378626D02*
D03*
X277406D02*
D03*
X292406D02*
D03*
X287405D02*
D03*
D44*
X386500Y285500D02*
D03*
Y279500D02*
D03*
D45*
X411000Y306101D02*
D03*
Y318899D02*
D03*
X398000Y306101D02*
D03*
Y318899D02*
D03*
D46*
X389500Y266500D02*
D03*
X451000Y318000D02*
D03*
X449500Y295000D02*
D03*
D47*
X430500Y296000D02*
D03*
Y317500D02*
D03*
D48*
X407027Y286675D02*
D03*
D49*
Y282935D02*
D03*
Y279195D02*
D03*
X416084D02*
D03*
Y282935D02*
D03*
Y286675D02*
D03*
D50*
X442748Y283000D02*
D03*
X427000D02*
D03*
D51*
X336803Y294299D02*
D03*
Y310047D02*
D03*
X352303Y294299D02*
D03*
Y310047D02*
D03*
D52*
X336803Y318449D02*
D03*
X333063Y327898D02*
D03*
X340543D02*
D03*
D53*
X240000Y245000D02*
D03*
X420000Y233000D02*
D03*
X238500Y404000D02*
D03*
D54*
X246575Y226575D02*
D03*
X443425Y423425D02*
D03*
X246575D02*
D03*
X443425Y226575D02*
D03*
D55*
X246575Y235075D02*
D03*
X255075Y226575D02*
D03*
X252575Y232575D02*
D03*
X246575Y218075D02*
D03*
X238075Y226575D02*
D03*
X240575Y232575D02*
D03*
Y220575D02*
D03*
X252575D02*
D03*
X443425Y431925D02*
D03*
X451925Y423425D02*
D03*
X449425Y429425D02*
D03*
X443425Y414925D02*
D03*
X434925Y423425D02*
D03*
X437425Y429425D02*
D03*
Y417425D02*
D03*
X449425D02*
D03*
X246575Y431925D02*
D03*
X255075Y423425D02*
D03*
X252575Y429425D02*
D03*
X246575Y414925D02*
D03*
X238075Y423425D02*
D03*
X240575Y429425D02*
D03*
Y417425D02*
D03*
X252575D02*
D03*
X443425Y235075D02*
D03*
X451925Y226575D02*
D03*
X449425Y232575D02*
D03*
X443425Y218075D02*
D03*
X434925Y226575D02*
D03*
X437425Y232575D02*
D03*
Y220575D02*
D03*
X449425D02*
D03*
D56*
X280512Y250984D02*
D03*
X292323D02*
D03*
X334646Y262803D02*
D03*
X346457D02*
D03*
X334646Y250984D02*
D03*
X346457D02*
D03*
X358268D02*
D03*
Y262803D02*
D03*
X322835Y250984D02*
D03*
Y262803D02*
D03*
D57*
X286417Y233984D02*
D03*
X349803D02*
D03*
X331299D02*
D03*
D58*
X247402Y328228D02*
D03*
Y298228D02*
D03*
X267402Y328228D02*
D03*
Y298228D02*
D03*
X287402Y328228D02*
D03*
Y298228D02*
D03*
X317402Y328228D02*
D03*
Y298228D02*
D03*
D59*
X318925Y434425D02*
D03*
X250500Y377000D02*
D03*
X264500Y376500D02*
D03*
X370500Y389000D02*
D03*
X363500Y392000D02*
D03*
X350000Y386500D02*
D03*
X355230Y399771D02*
D03*
X342581Y398159D02*
D03*
X319500Y387500D02*
D03*
X371070Y394834D02*
D03*
X368500Y408000D02*
D03*
X279067Y394584D02*
D03*
X332000Y404425D02*
D03*
X323500Y404000D02*
D03*
X315500Y409000D02*
D03*
X351000Y430500D02*
D03*
X294000Y342000D02*
D03*
X315000D02*
D03*
X405512Y396654D02*
D03*
X398622Y414370D02*
D03*
X396654Y404528D02*
D03*
Y388779D02*
D03*
X398500Y314000D02*
D03*
X410500D02*
D03*
X400166Y283013D02*
D03*
X430000Y270000D02*
D03*
X406111Y270048D02*
D03*
X390000Y274500D02*
D03*
M02*
