M48
;Layer_Color=9474304
;FILE_FORMAT=2:5
INCH,TZ
;TYPE=PLATED
T1F00S00C0.01000
T2F00S00C0.01575
T3F00S00C0.03000
T4F00S00C0.04000
T5F00S00C0.11811
T6F00S00C0.13780
%
T01
X437425Y220575
X443425Y218075
X449425Y220575
X451925Y226575
X449425Y232575
X443425Y235075
X437425Y232575
X434925Y226575
X255075
X252575Y232575
X246575Y235075
X240575Y232575
X238075Y226575
X240575Y220575
X246575Y218075
X252575Y220575
Y417425
X255075Y423425
X252575Y429425
X246575Y431925
X240575Y429425
X238075Y423425
X240575Y417425
X246575Y414925
X437425Y417425
X434925Y423425
X437425Y429425
X443425Y431925
X449425Y429425
X451925Y423425
X449425Y417425
X443425Y414925
T02
X390000Y274500
X400166Y283013
X406111Y270048
X430000Y270000
X435858Y283000
X294000Y342000
X291406Y360126
X293121Y372342
X270905Y376126
X264500Y376500
X250500Y377000
X260500Y393250
X279067Y394584
X270406Y407126
X283405Y419126
X315500Y409000
X323500Y404000
X332000Y404425
X342581Y398159
X355230Y399771
X362612Y396094
X366729Y395575
X371070Y394834
X370500Y389000
X374500Y384000
X378405Y394626
X363500Y392000
X350000Y386500
X352406Y372126
X350406Y360126
X329906Y376407
X319500Y387500
X318925Y434425
X351000Y430500
X342500Y419000
X368500Y408000
X396654Y404528
X398622Y414370
X405512Y396654
X396654Y388779
X399606Y367126
X398500Y314000
X410500
X360303Y319173
X333081Y333451
X315000Y342000
T03
X317402Y298228
X287402
X267402
X247402
Y328228
X267402
X287402
X317402
T04
X322835Y250984
X334646
X346457
X358268
Y262803
X346457
X334646
X322835
X292323Y250984
X280512
T05
X331299Y233984
X349803
X286417
T06
X443425Y226575
X246575
Y423425
X443425
M30
